<svg width="16" height="16" viewBox="0 0 16 16" fill="none" xmlns="http://www.w3.org/2000/svg">
<path d="M4.24023 7.74268C4.24023 8.24397 4.43937 8.72474 4.79384 9.07921C5.14831 9.43368 5.62908 9.63282 6.13037 9.63282C6.63167 9.63282 7.11243 9.43368 7.4669 9.07921C7.82137 8.72474 8.02051 8.24397 8.02051 7.74268C8.02051 7.24138 7.82137 6.76062 7.4669 6.40615C7.11243 6.05168 6.63167 5.85254 6.13037 5.85254C5.62908 5.85254 5.14831 6.05168 4.79384 6.40615C4.43937 6.76062 4.24023 7.24138 4.24023 7.74268Z" stroke="#F46524" stroke-width="1.3" stroke-linecap="round" stroke-linejoin="round"/>
<path d="M10.8391 9.89557C9.8155 12.6406 7.20422 15.0321 6.13038 15.0321C4.78028 15.0321 1 11.2518 1 7.74158C1 4.90816 3.29695 2.61121 6.13038 2.61121C6.29043 2.61121 6.44878 2.61854 6.6051 2.63288" stroke="#F46524" stroke-width="1.3" stroke-linecap="round" stroke-linejoin="round"/>
<path d="M8.75103 4.52678C8.39061 4.46408 8.39061 3.94668 8.75103 3.88398C10.0567 3.65682 11.0953 2.66228 11.3787 1.3676L11.4004 1.26836C11.4784 0.912147 11.9856 0.90993 12.0666 1.26544L12.0931 1.3811C12.387 2.66967 13.4258 3.65581 14.7278 3.88234C15.0901 3.94536 15.0901 4.4654 14.7278 4.52842C13.4258 4.75494 12.387 5.74109 12.0931 7.02966L12.0666 7.14531C11.9856 7.50083 11.4784 7.49861 11.4004 7.14241L11.3787 7.04316C11.0953 5.74848 10.0567 4.75394 8.75103 4.52678Z" stroke="#F46524" stroke-width="1.3" stroke-linecap="round" stroke-linejoin="round"/>
</svg>
