<svg width="235" height="24" viewBox="0 0 235 24" fill="none" xmlns="http://www.w3.org/2000/svg">
<path d="M49.5 6.36364C49.5 5.97538 49.5947 5.62145 49.7841 5.30185C49.9735 4.98224 50.228 4.72775 50.5476 4.53835C50.8672 4.34896 51.2211 4.25426 51.6094 4.25426C51.9455 4.25426 52.2557 4.32647 52.5398 4.47088C52.8262 4.61529 53.063 4.81297 53.25 5.06392C53.437 5.3125 53.553 5.59422 53.598 5.90909H52.7386C52.6913 5.66525 52.5599 5.46638 52.3445 5.3125C52.129 5.15625 51.884 5.07812 51.6094 5.07812C51.3726 5.07812 51.1572 5.13613 50.9631 5.25213C50.7689 5.36813 50.6139 5.5232 50.4979 5.71733C50.3819 5.91146 50.3239 6.12689 50.3239 6.36364C50.3239 6.60038 50.3819 6.81581 50.4979 7.00994C50.6139 7.20407 50.7689 7.35914 50.9631 7.47514C51.1572 7.59115 51.3726 7.64915 51.6094 7.64915C51.884 7.64915 52.116 7.57221 52.3054 7.41832C52.4972 7.26207 52.6179 7.06203 52.6676 6.81818H53.527C53.482 7.13305 53.3719 7.41596 53.1967 7.6669C53.0215 7.91548 52.7966 8.11198 52.522 8.25639C52.2498 8.4008 51.9455 8.47301 51.6094 8.47301C51.2211 8.47301 50.8672 8.37831 50.5476 8.18892C50.228 7.99953 49.9735 7.74503 49.7841 7.42543C49.5947 7.10582 49.5 6.75189 49.5 6.36364ZM51.5739 10.1136C51.0578 10.1136 50.5724 10.0166 50.1179 9.82244C49.6657 9.62831 49.2668 9.35961 48.9212 9.01634C48.5779 8.67069 48.308 8.27178 48.1115 7.8196C47.9174 7.36742 47.8215 6.8821 47.8239 6.36364C47.8262 5.84517 47.9245 5.35985 48.1186 4.90767C48.3151 4.45549 48.585 4.05777 48.9283 3.71449C49.2715 3.36884 49.6693 3.09896 50.1214 2.90483C50.5736 2.7107 51.0578 2.61364 51.5739 2.61364C52.0923 2.61364 52.5777 2.7107 53.0298 2.90483C53.4844 3.09896 53.8821 3.36884 54.223 3.71449C54.5663 4.05777 54.835 4.45549 55.0291 4.90767C55.2232 5.35985 55.3215 5.84517 55.3239 6.36364C55.3262 6.8821 55.2304 7.36742 55.0362 7.8196C54.8421 8.27178 54.5734 8.67069 54.2301 9.01634C53.8868 9.35961 53.4879 9.62831 53.0334 9.82244C52.5788 10.0166 52.0923 10.1136 51.5739 10.1136ZM51.5739 9.28977C51.9787 9.28977 52.3587 9.21402 52.7138 9.0625C53.0689 8.91098 53.3802 8.70147 53.6477 8.43395C53.9152 8.16643 54.1248 7.8563 54.2763 7.50355C54.4278 7.14844 54.5024 6.76965 54.5 6.36719C54.4976 5.96236 54.4207 5.58239 54.2692 5.22727C54.1177 4.87216 53.9081 4.56084 53.6406 4.29332C53.3731 4.0258 53.063 3.81629 52.7102 3.66477C52.3575 3.51326 51.9787 3.4375 51.5739 3.4375C51.1714 3.4375 50.7938 3.51326 50.4411 3.66477C50.0883 3.81629 49.7782 4.02699 49.5107 4.29688C49.2431 4.56439 49.0324 4.87571 48.8786 5.23082C48.727 5.58357 48.6501 5.96236 48.6477 6.36719C48.6454 6.76728 48.7199 7.14489 48.8714 7.5C49.023 7.85275 49.2325 8.16288 49.5 8.4304C49.7699 8.69792 50.0812 8.90862 50.4339 9.0625C50.7891 9.21402 51.169 9.28977 51.5739 9.28977ZM59.7157 10V9.3608L62.1163 6.73295C62.398 6.42519 62.63 6.15767 62.8123 5.9304C62.9946 5.70076 63.1296 5.48532 63.2172 5.28409C63.3071 5.08049 63.3521 4.86742 63.3521 4.64489C63.3521 4.3892 63.2905 4.16785 63.1674 3.98082C63.0467 3.7938 62.881 3.64938 62.6703 3.54759C62.4596 3.44579 62.2228 3.39489 61.96 3.39489C61.6807 3.39489 61.4368 3.45289 61.2285 3.56889C61.0225 3.68253 60.8627 3.84233 60.7491 4.0483C60.6378 4.25426 60.5822 4.49574 60.5822 4.77273H59.7441C59.7441 4.34659 59.8424 3.97254 60.0389 3.65057C60.2354 3.3286 60.5029 3.07765 60.8414 2.89773C61.1824 2.7178 61.5647 2.62784 61.9885 2.62784C62.4146 2.62784 62.7922 2.7178 63.1213 2.89773C63.4503 3.07765 63.7084 3.32031 63.8954 3.62571C64.0824 3.93111 64.176 4.27083 64.176 4.64489C64.176 4.91241 64.1274 5.17401 64.0304 5.42969C63.9357 5.683 63.7699 5.96591 63.5332 6.27841C63.2988 6.58854 62.9733 6.96733 62.5566 7.41477L60.9231 9.16193V9.21875H64.3038V10H59.7157ZM68.1426 10.0994C67.6075 10.0994 67.1518 9.95384 66.7754 9.66264C66.399 9.36908 66.1113 8.94413 65.9125 8.38778C65.7136 7.82907 65.6142 7.15436 65.6142 6.36364C65.6142 5.57765 65.7136 4.90649 65.9125 4.35014C66.1137 3.79143 66.4025 3.36529 66.7789 3.07173C67.1577 2.7758 67.6123 2.62784 68.1426 2.62784C68.6729 2.62784 69.1262 2.7758 69.5027 3.07173C69.8815 3.36529 70.1703 3.79143 70.3691 4.35014C70.5704 4.90649 70.671 5.57765 70.671 6.36364C70.671 7.15436 70.5716 7.82907 70.3727 8.38778C70.1738 8.94413 69.8862 9.36908 69.5098 9.66264C69.1333 9.95384 68.6776 10.0994 68.1426 10.0994ZM68.1426 9.31818C68.6729 9.31818 69.0848 9.0625 69.3784 8.55114C69.6719 8.03977 69.8187 7.31061 69.8187 6.36364C69.8187 5.7339 69.7512 5.19768 69.6163 4.75497C69.4837 4.31226 69.292 3.97491 69.041 3.7429C68.7924 3.51089 68.493 3.39489 68.1426 3.39489C67.617 3.39489 67.2063 3.65412 66.9103 4.17259C66.6144 4.68868 66.4664 5.41903 66.4664 6.36364C66.4664 6.99337 66.5327 7.52841 66.6653 7.96875C66.7979 8.40909 66.9885 8.74408 67.237 8.97372C67.488 9.20336 67.7898 9.31818 68.1426 9.31818ZM72.0204 10V9.3608L74.421 6.73295C74.7027 6.42519 74.9347 6.15767 75.117 5.9304C75.2993 5.70076 75.4342 5.48532 75.5218 5.28409C75.6118 5.08049 75.6568 4.86742 75.6568 4.64489C75.6568 4.3892 75.5952 4.16785 75.4721 3.98082C75.3514 3.7938 75.1857 3.64938 74.975 3.54759C74.7643 3.44579 74.5275 3.39489 74.2647 3.39489C73.9854 3.39489 73.7415 3.45289 73.5332 3.56889C73.3272 3.68253 73.1674 3.84233 73.0538 4.0483C72.9425 4.25426 72.8869 4.49574 72.8869 4.77273H72.0488C72.0488 4.34659 72.1471 3.97254 72.3436 3.65057C72.5401 3.3286 72.8076 3.07765 73.1461 2.89773C73.487 2.7178 73.8694 2.62784 74.2931 2.62784C74.7193 2.62784 75.0969 2.7178 75.426 2.89773C75.755 3.07765 76.0131 3.32031 76.2001 3.62571C76.3871 3.93111 76.4806 4.27083 76.4806 4.64489C76.4806 4.91241 76.4321 5.17401 76.335 5.42969C76.2404 5.683 76.0746 5.96591 75.8379 6.27841C75.6035 6.58854 75.278 6.96733 74.8613 7.41477L73.2278 9.16193V9.21875H76.6085V10H72.0204ZM80.3478 10.0994C79.9312 10.0994 79.5559 10.0166 79.2221 9.85085C78.8883 9.68513 78.6208 9.45786 78.4196 9.16903C78.2183 8.88021 78.1083 8.55114 78.0893 8.18182H78.9416C78.9747 8.51089 79.1239 8.78314 79.389 8.99858C79.6565 9.21165 79.9761 9.31818 80.3478 9.31818C80.6461 9.31818 80.9113 9.24834 81.1433 9.10866C81.3777 8.96899 81.5611 8.77723 81.6937 8.53338C81.8287 8.28717 81.8961 8.009 81.8961 7.69886C81.8961 7.38163 81.8263 7.09872 81.6866 6.85014C81.5493 6.5992 81.3599 6.40152 81.1184 6.2571C80.877 6.11269 80.6011 6.0393 80.291 6.03693C80.0685 6.03456 79.84 6.06889 79.6056 6.13991C79.3713 6.20857 79.1783 6.29735 79.0268 6.40625L78.2029 6.30682L78.6433 2.72727H82.4217V3.50852H79.3819L79.1262 5.65341H79.1689C79.318 5.53504 79.505 5.43679 79.7299 5.35866C79.9548 5.28054 80.1892 5.24148 80.4331 5.24148C80.8781 5.24148 81.2747 5.34801 81.6227 5.56108C81.9731 5.77178 82.2477 6.06061 82.4466 6.42756C82.6478 6.79451 82.7484 7.21354 82.7484 7.68466C82.7484 8.14867 82.6442 8.56297 82.4359 8.92756C82.2299 9.28977 81.9458 9.57623 81.5836 9.78693C81.2214 9.99527 80.8095 10.0994 80.3478 10.0994ZM87.0994 10V2.72727H89.642C90.1487 2.72727 90.5665 2.81487 90.8956 2.99006C91.2247 3.16288 91.4697 3.39607 91.6307 3.68963C91.7917 3.98082 91.8722 4.30398 91.8722 4.65909C91.8722 4.97159 91.8165 5.22964 91.7053 5.43324C91.5964 5.63684 91.4519 5.79782 91.272 5.91619C91.0945 6.03456 90.9015 6.12216 90.6932 6.17898V6.25C90.9157 6.2642 91.1394 6.34233 91.3643 6.48438C91.5893 6.62642 91.7775 6.83002 91.929 7.09517C92.0805 7.36032 92.1562 7.68466 92.1562 8.06818C92.1562 8.43277 92.0734 8.76065 91.9077 9.05185C91.742 9.34304 91.4804 9.57386 91.1229 9.74432C90.7654 9.91477 90.3002 10 89.7273 10H87.0994ZM87.9801 9.21875H89.7273C90.3026 9.21875 90.7109 9.10748 90.9524 8.88494C91.1963 8.66004 91.3182 8.38778 91.3182 8.06818C91.3182 7.82197 91.2554 7.5947 91.13 7.38636C91.0045 7.17566 90.8258 7.00758 90.5938 6.8821C90.3617 6.75426 90.0871 6.69034 89.7699 6.69034H87.9801V9.21875ZM87.9801 5.9233H89.6136C89.8788 5.9233 90.1179 5.87121 90.331 5.76705C90.5464 5.66288 90.7169 5.5161 90.8423 5.3267C90.9702 5.13731 91.0341 4.91477 91.0341 4.65909C91.0341 4.33949 90.9228 4.06842 90.7003 3.84588C90.4777 3.62098 90.125 3.50852 89.642 3.50852H87.9801V5.9233ZM95.7766 10.1136C95.2511 10.1136 94.7977 9.99763 94.4165 9.76562C94.0378 9.53125 93.7454 9.20455 93.5394 8.78551C93.3358 8.36411 93.234 7.87405 93.234 7.31534C93.234 6.75663 93.3358 6.2642 93.5394 5.83807C93.7454 5.40956 94.0318 5.07576 94.3988 4.83665C94.7681 4.59517 95.199 4.47443 95.6914 4.47443C95.9755 4.47443 96.256 4.52178 96.533 4.61648C96.81 4.71117 97.0621 4.86506 97.2894 5.07812C97.5167 5.28883 97.6978 5.56818 97.8327 5.91619C97.9677 6.2642 98.0352 6.69271 98.0352 7.2017V7.55682H93.8306V6.83239H97.1829C97.1829 6.52462 97.1213 6.25 96.9982 6.00852C96.8775 5.76705 96.7047 5.57647 96.4798 5.43679C96.2572 5.29711 95.9944 5.22727 95.6914 5.22727C95.3576 5.22727 95.0688 5.31013 94.8249 5.47585C94.5835 5.6392 94.3976 5.85227 94.2674 6.11506C94.1372 6.37784 94.0721 6.65956 94.0721 6.96023V7.44318C94.0721 7.85511 94.1431 8.20431 94.2852 8.49077C94.4296 8.77486 94.6296 8.99148 94.8853 9.14062C95.141 9.28741 95.4381 9.3608 95.7766 9.3608C95.9968 9.3608 96.1957 9.33002 96.3732 9.26847C96.5531 9.20455 96.7082 9.10985 96.8384 8.98438C96.9686 8.85653 97.0692 8.69792 97.1403 8.50852L97.9499 8.7358C97.8647 9.01042 97.7215 9.25189 97.5202 9.46023C97.319 9.66619 97.0704 9.82718 96.7745 9.94318C96.4786 10.0568 96.146 10.1136 95.7766 10.1136ZM99.6838 12.0455C99.5417 12.0455 99.4151 12.0336 99.3038 12.0099C99.1925 11.9886 99.1156 11.9673 99.073 11.946L99.286 11.2074C99.4896 11.2595 99.6696 11.2784 99.8258 11.2642C99.9821 11.25 100.121 11.1802 100.241 11.0547C100.364 10.9316 100.477 10.7315 100.579 10.4545L100.735 10.0284L98.7179 4.54545H99.627L101.133 8.89205H101.189L102.695 4.54545H103.604L101.289 10.7955C101.185 11.0772 101.056 11.3104 100.902 11.495C100.748 11.6821 100.569 11.8205 100.366 11.9105C100.164 12.0005 99.9371 12.0455 99.6838 12.0455ZM106.731 10.1136C106.239 10.1136 105.807 9.99645 105.435 9.76207C105.066 9.5277 104.777 9.19981 104.568 8.77841C104.362 8.35701 104.259 7.86458 104.259 7.30114C104.259 6.73295 104.362 6.23698 104.568 5.81321C104.777 5.38944 105.066 5.06037 105.435 4.82599C105.807 4.59162 106.239 4.47443 106.731 4.47443C107.223 4.47443 107.654 4.59162 108.024 4.82599C108.395 5.06037 108.684 5.38944 108.89 5.81321C109.098 6.23698 109.203 6.73295 109.203 7.30114C109.203 7.86458 109.098 8.35701 108.89 8.77841C108.684 9.19981 108.395 9.5277 108.024 9.76207C107.654 9.99645 107.223 10.1136 106.731 10.1136ZM106.731 9.3608C107.105 9.3608 107.413 9.26491 107.654 9.07315C107.896 8.88139 108.075 8.62926 108.191 8.31676C108.307 8.00426 108.365 7.66572 108.365 7.30114C108.365 6.93655 108.307 6.59683 108.191 6.28196C108.075 5.96709 107.896 5.71259 107.654 5.51847C107.413 5.32434 107.105 5.22727 106.731 5.22727C106.357 5.22727 106.049 5.32434 105.808 5.51847C105.566 5.71259 105.387 5.96709 105.271 6.28196C105.155 6.59683 105.097 6.93655 105.097 7.30114C105.097 7.66572 105.155 8.00426 105.271 8.31676C105.387 8.62926 105.566 8.88139 105.808 9.07315C106.049 9.26491 106.357 9.3608 106.731 9.3608ZM111.32 6.71875V10H110.482V4.54545H111.292V5.39773H111.363C111.49 5.12074 111.685 4.8982 111.945 4.73011C112.205 4.55966 112.542 4.47443 112.953 4.47443C113.323 4.47443 113.646 4.55019 113.923 4.7017C114.2 4.85085 114.415 5.07812 114.569 5.38352C114.723 5.68655 114.8 6.07008 114.8 6.53409V10H113.962V6.59091C113.962 6.16241 113.851 5.8286 113.628 5.58949C113.406 5.34801 113.1 5.22727 112.712 5.22727C112.444 5.22727 112.205 5.28527 111.995 5.40128C111.786 5.51728 111.622 5.68655 111.501 5.90909C111.38 6.13163 111.32 6.40152 111.32 6.71875ZM118.391 10.1136C117.937 10.1136 117.535 9.99882 117.187 9.76918C116.839 9.53717 116.567 9.21046 116.371 8.78906C116.174 8.36529 116.076 7.86458 116.076 7.28693C116.076 6.71402 116.174 6.21686 116.371 5.79545C116.567 5.37405 116.84 5.04853 117.191 4.81889C117.541 4.58925 117.946 4.47443 118.405 4.47443C118.76 4.47443 119.041 4.53362 119.247 4.65199C119.455 4.76799 119.614 4.90057 119.723 5.04972C119.834 5.1965 119.921 5.31723 119.982 5.41193H120.053V2.72727H120.891V10H120.081V9.16193H119.982C119.921 9.26136 119.833 9.38684 119.719 9.53835C119.606 9.6875 119.443 9.82126 119.233 9.93963C119.022 10.0556 118.742 10.1136 118.391 10.1136ZM118.505 9.3608C118.841 9.3608 119.125 9.2732 119.357 9.09801C119.589 8.92045 119.765 8.67543 119.886 8.36293C120.007 8.04806 120.067 7.68466 120.067 7.27273C120.067 6.86553 120.008 6.50923 119.89 6.20384C119.771 5.89607 119.596 5.65696 119.364 5.48651C119.132 5.31368 118.846 5.22727 118.505 5.22727C118.15 5.22727 117.854 5.31842 117.617 5.50071C117.383 5.68063 117.206 5.92566 117.088 6.2358C116.972 6.54356 116.914 6.8892 116.914 7.27273C116.914 7.66098 116.973 8.01373 117.091 8.33097C117.212 8.64583 117.39 8.89678 117.624 9.08381C117.861 9.26847 118.154 9.3608 118.505 9.3608ZM126.349 2.72727V10H125.469V2.72727H126.349ZM128.839 6.71875V10H128.001V4.54545H128.811V5.39773H128.882C129.01 5.12074 129.204 4.8982 129.464 4.73011C129.725 4.55966 130.061 4.47443 130.473 4.47443C130.842 4.47443 131.165 4.55019 131.442 4.7017C131.719 4.85085 131.935 5.07812 132.089 5.38352C132.243 5.68655 132.32 6.07008 132.32 6.53409V10H131.482V6.59091C131.482 6.16241 131.37 5.8286 131.148 5.58949C130.925 5.34801 130.62 5.22727 130.232 5.22727C129.964 5.22727 129.725 5.28527 129.514 5.40128C129.306 5.51728 129.141 5.68655 129.021 5.90909C128.9 6.13163 128.839 6.40152 128.839 6.71875ZM137.715 5.76705L136.962 5.98011C136.914 5.85464 136.845 5.73272 136.752 5.61435C136.662 5.49361 136.539 5.39418 136.383 5.31605C136.227 5.23793 136.027 5.19886 135.783 5.19886C135.449 5.19886 135.171 5.2758 134.948 5.42969C134.728 5.5812 134.618 5.77415 134.618 6.00852C134.618 6.21686 134.694 6.38139 134.845 6.50213C134.997 6.62287 135.234 6.72348 135.556 6.80398L136.365 7.00284C136.853 7.12121 137.216 7.30232 137.455 7.54616C137.695 7.78764 137.814 8.09896 137.814 8.48011C137.814 8.79261 137.724 9.07197 137.544 9.31818C137.367 9.56439 137.118 9.75852 136.798 9.90057C136.479 10.0426 136.107 10.1136 135.683 10.1136C135.127 10.1136 134.667 9.9929 134.302 9.75142C133.937 9.50994 133.707 9.1572 133.61 8.69318L134.405 8.49432C134.481 8.78788 134.624 9.00805 134.835 9.15483C135.048 9.30161 135.326 9.375 135.669 9.375C136.06 9.375 136.37 9.29214 136.6 9.12642C136.832 8.95833 136.948 8.7571 136.948 8.52273C136.948 8.33333 136.881 8.17472 136.749 8.04688C136.616 7.91667 136.413 7.8196 136.138 7.75568L135.229 7.54261C134.729 7.42424 134.362 7.24077 134.128 6.99219C133.896 6.74124 133.78 6.42756 133.78 6.05114C133.78 5.74337 133.866 5.47112 134.039 5.23438C134.214 4.99763 134.452 4.81179 134.753 4.67685C135.056 4.5419 135.399 4.47443 135.783 4.47443C136.323 4.47443 136.746 4.5928 137.054 4.82955C137.364 5.06629 137.584 5.37879 137.715 5.76705ZM142.513 7.76989V4.54545H143.351V10H142.513V9.0767H142.456C142.328 9.35369 142.13 9.58925 141.86 9.78338C141.59 9.97514 141.249 10.071 140.837 10.071C140.496 10.071 140.193 9.99645 139.928 9.8473C139.663 9.69579 139.454 9.46851 139.303 9.16548C139.151 8.86009 139.076 8.47538 139.076 8.01136V4.54545H139.914V7.95455C139.914 8.35227 140.025 8.66951 140.248 8.90625C140.472 9.14299 140.759 9.26136 141.107 9.26136C141.315 9.26136 141.527 9.2081 141.743 9.10156C141.96 8.99503 142.143 8.83168 142.289 8.61151C142.439 8.39134 142.513 8.1108 142.513 7.76989ZM144.886 10V4.54545H145.696V5.36932H145.753C145.852 5.09943 146.032 4.88045 146.292 4.71236C146.553 4.54427 146.846 4.46023 147.173 4.46023C147.235 4.46023 147.312 4.46141 147.404 4.46378C147.496 4.46615 147.566 4.4697 147.613 4.47443V5.3267C147.585 5.3196 147.52 5.30895 147.418 5.29474C147.319 5.27817 147.213 5.26989 147.102 5.26989C146.837 5.26989 146.6 5.32552 146.392 5.43679C146.186 5.54569 146.023 5.69721 145.902 5.89134C145.783 6.0831 145.724 6.30208 145.724 6.5483V10H144.886ZM150.212 10.1278C149.866 10.1278 149.553 10.0627 149.271 9.93253C148.989 9.79995 148.766 9.60938 148.6 9.3608C148.434 9.10985 148.351 8.80682 148.351 8.4517C148.351 8.1392 148.413 7.88589 148.536 7.69176C148.659 7.49527 148.824 7.34138 149.029 7.23011C149.235 7.11884 149.463 7.03598 149.711 6.98153C149.962 6.92472 150.214 6.87973 150.468 6.84659C150.799 6.80398 151.068 6.77202 151.274 6.75071C151.482 6.72704 151.634 6.68797 151.728 6.63352C151.825 6.57907 151.874 6.48437 151.874 6.34943V6.32102C151.874 5.97064 151.778 5.69839 151.586 5.50426C151.397 5.31013 151.109 5.21307 150.723 5.21307C150.323 5.21307 150.01 5.30066 149.782 5.47585C149.555 5.65104 149.395 5.83807 149.303 6.03693L148.507 5.75284C148.65 5.4214 148.839 5.16335 149.076 4.97869C149.315 4.79167 149.575 4.66146 149.857 4.58807C150.141 4.51231 150.42 4.47443 150.695 4.47443C150.87 4.47443 151.071 4.49574 151.299 4.53835C151.528 4.5786 151.75 4.66264 151.963 4.79048C152.178 4.91832 152.357 5.11127 152.499 5.36932C152.641 5.62737 152.712 5.97301 152.712 6.40625V10H151.874V9.26136H151.831C151.775 9.37973 151.68 9.50639 151.547 9.64134C151.415 9.77628 151.238 9.8911 151.018 9.9858C150.798 10.0805 150.529 10.1278 150.212 10.1278ZM150.34 9.375C150.671 9.375 150.951 9.3099 151.178 9.17969C151.408 9.04948 151.58 8.88139 151.696 8.67543C151.815 8.46946 151.874 8.25284 151.874 8.02557V7.25852C151.838 7.30114 151.76 7.3402 151.64 7.37571C151.521 7.40885 151.384 7.43845 151.228 7.46449C151.074 7.48816 150.923 7.50947 150.777 7.52841C150.632 7.54498 150.515 7.55919 150.425 7.57102C150.207 7.59943 150.004 7.6456 149.814 7.70952C149.627 7.77107 149.476 7.86458 149.36 7.99006C149.246 8.11316 149.189 8.28125 149.189 8.49432C149.189 8.78551 149.297 9.00568 149.512 9.15483C149.73 9.30161 150.006 9.375 150.34 9.375ZM155.08 6.71875V10H154.242V4.54545H155.051V5.39773H155.122C155.25 5.12074 155.444 4.8982 155.705 4.73011C155.965 4.55966 156.301 4.47443 156.713 4.47443C157.083 4.47443 157.406 4.55019 157.683 4.7017C157.96 4.85085 158.175 5.07812 158.329 5.38352C158.483 5.68655 158.56 6.07008 158.56 6.53409V10H157.722V6.59091C157.722 6.16241 157.61 5.8286 157.388 5.58949C157.165 5.34801 156.86 5.22727 156.472 5.22727C156.204 5.22727 155.965 5.28527 155.754 5.40128C155.546 5.51728 155.382 5.68655 155.261 5.90909C155.14 6.13163 155.08 6.40152 155.08 6.71875ZM162.307 10.1136C161.796 10.1136 161.355 9.9929 160.986 9.75142C160.617 9.50994 160.333 9.17732 160.134 8.75355C159.935 8.32978 159.836 7.84564 159.836 7.30114C159.836 6.74716 159.937 6.25829 160.141 5.83452C160.347 5.40838 160.633 5.07576 161 4.83665C161.37 4.59517 161.801 4.47443 162.293 4.47443C162.676 4.47443 163.022 4.54545 163.33 4.6875C163.638 4.82955 163.89 5.02841 164.086 5.28409C164.283 5.53977 164.405 5.83807 164.452 6.17898H163.614C163.55 5.9304 163.408 5.71023 163.188 5.51847C162.97 5.32434 162.676 5.22727 162.307 5.22727C161.98 5.22727 161.694 5.3125 161.448 5.48295C161.204 5.65104 161.013 5.88897 160.876 6.19673C160.741 6.50213 160.674 6.8608 160.674 7.27273C160.674 7.69413 160.74 8.06108 160.873 8.37358C161.007 8.68608 161.197 8.92874 161.441 9.10156C161.687 9.27438 161.976 9.3608 162.307 9.3608C162.525 9.3608 162.723 9.32292 162.9 9.24716C163.078 9.1714 163.228 9.0625 163.351 8.92045C163.474 8.77841 163.562 8.60795 163.614 8.40909H164.452C164.405 8.73106 164.288 9.02107 164.1 9.27912C163.916 9.5348 163.671 9.7384 163.365 9.88991C163.062 10.0391 162.71 10.1136 162.307 10.1136ZM167.964 10.1136C167.439 10.1136 166.985 9.99763 166.604 9.76562C166.225 9.53125 165.933 9.20455 165.727 8.78551C165.523 8.36411 165.422 7.87405 165.422 7.31534C165.422 6.75663 165.523 6.2642 165.727 5.83807C165.933 5.40956 166.219 5.07576 166.586 4.83665C166.956 4.59517 167.386 4.47443 167.879 4.47443C168.163 4.47443 168.444 4.52178 168.721 4.61648C168.998 4.71117 169.25 4.86506 169.477 5.07812C169.704 5.28883 169.885 5.56818 170.02 5.91619C170.155 6.2642 170.223 6.69271 170.223 7.2017V7.55682H166.018V6.83239H169.37C169.37 6.52462 169.309 6.25 169.186 6.00852C169.065 5.76705 168.892 5.57647 168.667 5.43679C168.445 5.29711 168.182 5.22727 167.879 5.22727C167.545 5.22727 167.256 5.31013 167.012 5.47585C166.771 5.6392 166.585 5.85227 166.455 6.11506C166.325 6.37784 166.26 6.65956 166.26 6.96023V7.44318C166.26 7.85511 166.331 8.20431 166.473 8.49077C166.617 8.77486 166.817 8.99148 167.073 9.14062C167.328 9.28741 167.626 9.3608 167.964 9.3608C168.184 9.3608 168.383 9.33002 168.561 9.26847C168.741 9.20455 168.896 9.10985 169.026 8.98438C169.156 8.85653 169.257 8.69792 169.328 8.50852L170.137 8.7358C170.052 9.01042 169.909 9.25189 169.708 9.46023C169.507 9.66619 169.258 9.82718 168.962 9.94318C168.666 10.0568 168.333 10.1136 167.964 10.1136ZM174.424 10V2.72727H176.966C177.473 2.72727 177.891 2.81487 178.22 2.99006C178.549 3.16288 178.794 3.39607 178.955 3.68963C179.116 3.98082 179.196 4.30398 179.196 4.65909C179.196 4.97159 179.141 5.22964 179.029 5.43324C178.921 5.63684 178.776 5.79782 178.596 5.91619C178.419 6.03456 178.226 6.12216 178.017 6.17898V6.25C178.24 6.2642 178.464 6.34233 178.689 6.48438C178.913 6.62642 179.102 6.83002 179.253 7.09517C179.405 7.36032 179.48 7.68466 179.48 8.06818C179.48 8.43277 179.398 8.76065 179.232 9.05185C179.066 9.34304 178.805 9.57386 178.447 9.74432C178.09 9.91477 177.624 10 177.051 10H174.424ZM175.304 9.21875H177.051C177.627 9.21875 178.035 9.10748 178.277 8.88494C178.52 8.66004 178.642 8.38778 178.642 8.06818C178.642 7.82197 178.58 7.5947 178.454 7.38636C178.329 7.17566 178.15 7.00758 177.918 6.8821C177.686 6.75426 177.411 6.69034 177.094 6.69034H175.304V9.21875ZM175.304 5.9233H176.938C177.203 5.9233 177.442 5.87121 177.655 5.76705C177.871 5.66288 178.041 5.5161 178.167 5.3267C178.294 5.13731 178.358 4.91477 178.358 4.65909C178.358 4.33949 178.247 4.06842 178.025 3.84588C177.802 3.62098 177.449 3.50852 176.966 3.50852H175.304V5.9233ZM180.814 10V4.54545H181.624V5.36932H181.68C181.78 5.09943 181.96 4.88045 182.22 4.71236C182.481 4.54427 182.774 4.46023 183.101 4.46023C183.162 4.46023 183.239 4.46141 183.332 4.46378C183.424 4.46615 183.494 4.4697 183.541 4.47443V5.3267C183.513 5.3196 183.448 5.30895 183.346 5.29474C183.246 5.27817 183.141 5.26989 183.03 5.26989C182.765 5.26989 182.528 5.32552 182.32 5.43679C182.114 5.54569 181.95 5.69721 181.83 5.89134C181.711 6.0831 181.652 6.30208 181.652 6.5483V10H180.814ZM186.585 10.1136C186.092 10.1136 185.66 9.99645 185.288 9.76207C184.919 9.5277 184.63 9.19981 184.422 8.77841C184.216 8.35701 184.113 7.86458 184.113 7.30114C184.113 6.73295 184.216 6.23698 184.422 5.81321C184.63 5.38944 184.919 5.06037 185.288 4.82599C185.66 4.59162 186.092 4.47443 186.585 4.47443C187.077 4.47443 187.508 4.59162 187.877 4.82599C188.249 5.06037 188.538 5.38944 188.744 5.81321C188.952 6.23698 189.056 6.73295 189.056 7.30114C189.056 7.86458 188.952 8.35701 188.744 8.77841C188.538 9.19981 188.249 9.5277 187.877 9.76207C187.508 9.99645 187.077 10.1136 186.585 10.1136ZM186.585 9.3608C186.959 9.3608 187.266 9.26491 187.508 9.07315C187.749 8.88139 187.928 8.62926 188.044 8.31676C188.16 8.00426 188.218 7.66572 188.218 7.30114C188.218 6.93655 188.16 6.59683 188.044 6.28196C187.928 5.96709 187.749 5.71259 187.508 5.51847C187.266 5.32434 186.959 5.22727 186.585 5.22727C186.21 5.22727 185.903 5.32434 185.661 5.51847C185.42 5.71259 185.241 5.96709 185.125 6.28196C185.009 6.59683 184.951 6.93655 184.951 7.30114C184.951 7.66572 185.009 8.00426 185.125 8.31676C185.241 8.62926 185.42 8.88139 185.661 9.07315C185.903 9.26491 186.21 9.3608 186.585 9.3608ZM191.117 8.01136L191.102 6.97443H191.273L193.659 4.54545H194.696L192.154 7.11648H192.083L191.117 8.01136ZM190.335 10V2.72727H191.173V10H190.335ZM193.801 10L191.671 7.30114L192.267 6.71875L194.867 10H193.801ZM197.837 10.1136C197.312 10.1136 196.858 9.99763 196.477 9.76562C196.098 9.53125 195.806 9.20455 195.6 8.78551C195.396 8.36411 195.295 7.87405 195.295 7.31534C195.295 6.75663 195.396 6.2642 195.6 5.83807C195.806 5.40956 196.092 5.07576 196.459 4.83665C196.829 4.59517 197.26 4.47443 197.752 4.47443C198.036 4.47443 198.317 4.52178 198.594 4.61648C198.871 4.71117 199.123 4.86506 199.35 5.07812C199.577 5.28883 199.758 5.56818 199.893 5.91619C200.028 6.2642 200.096 6.69271 200.096 7.2017V7.55682H195.891V6.83239H199.243C199.243 6.52462 199.182 6.25 199.059 6.00852C198.938 5.76705 198.765 5.57647 198.54 5.43679C198.318 5.29711 198.055 5.22727 197.752 5.22727C197.418 5.22727 197.129 5.31013 196.885 5.47585C196.644 5.6392 196.458 5.85227 196.328 6.11506C196.198 6.37784 196.133 6.65956 196.133 6.96023V7.44318C196.133 7.85511 196.204 8.20431 196.346 8.49077C196.49 8.77486 196.69 8.99148 196.946 9.14062C197.202 9.28741 197.499 9.3608 197.837 9.3608C198.057 9.3608 198.256 9.33002 198.434 9.26847C198.614 9.20455 198.769 9.10985 198.899 8.98438C199.029 8.85653 199.13 8.69792 199.201 8.50852L200.01 8.7358C199.925 9.01042 199.782 9.25189 199.581 9.46023C199.38 9.66619 199.131 9.82718 198.835 9.94318C198.539 10.0568 198.206 10.1136 197.837 10.1136ZM201.371 10V4.54545H202.18V5.36932H202.237C202.336 5.09943 202.516 4.88045 202.777 4.71236C203.037 4.54427 203.331 4.46023 203.657 4.46023C203.719 4.46023 203.796 4.46141 203.888 4.46378C203.981 4.46615 204.05 4.4697 204.098 4.47443V5.3267C204.069 5.3196 204.004 5.30895 203.903 5.29474C203.803 5.27817 203.698 5.26989 203.586 5.26989C203.321 5.26989 203.085 5.32552 202.876 5.43679C202.67 5.54569 202.507 5.69721 202.386 5.89134C202.268 6.0831 202.209 6.30208 202.209 6.5483V10H201.371ZM206.696 10.1278C206.351 10.1278 206.037 10.0627 205.755 9.93253C205.474 9.79995 205.25 9.60938 205.084 9.3608C204.918 9.10985 204.836 8.80682 204.836 8.4517C204.836 8.1392 204.897 7.88589 205.02 7.69176C205.143 7.49527 205.308 7.34138 205.514 7.23011C205.72 7.11884 205.947 7.03598 206.196 6.98153C206.447 6.92472 206.699 6.87973 206.952 6.84659C207.283 6.80398 207.552 6.77202 207.758 6.75071C207.967 6.72704 208.118 6.68797 208.213 6.63352C208.31 6.57907 208.358 6.48437 208.358 6.34943V6.32102C208.358 5.97064 208.262 5.69839 208.071 5.50426C207.881 5.31013 207.594 5.21307 207.208 5.21307C206.808 5.21307 206.494 5.30066 206.267 5.47585C206.039 5.65104 205.88 5.83807 205.787 6.03693L204.992 5.75284C205.134 5.4214 205.323 5.16335 205.56 4.97869C205.799 4.79167 206.06 4.66146 206.341 4.58807C206.625 4.51231 206.905 4.47443 207.179 4.47443C207.355 4.47443 207.556 4.49574 207.783 4.53835C208.013 4.5786 208.234 4.66264 208.447 4.79048C208.663 4.91832 208.841 5.11127 208.983 5.36932C209.125 5.62737 209.196 5.97301 209.196 6.40625V10H208.358V9.26136H208.316C208.259 9.37973 208.164 9.50639 208.032 9.64134C207.899 9.77628 207.723 9.8911 207.502 9.9858C207.282 10.0805 207.014 10.1278 206.696 10.1278ZM206.824 9.375C207.156 9.375 207.435 9.3099 207.662 9.17969C207.892 9.04948 208.065 8.88139 208.181 8.67543C208.299 8.46946 208.358 8.25284 208.358 8.02557V7.25852C208.323 7.30114 208.245 7.3402 208.124 7.37571C208.006 7.40885 207.868 7.43845 207.712 7.46449C207.558 7.48816 207.408 7.50947 207.261 7.52841C207.117 7.54498 206.999 7.55919 206.909 7.57102C206.692 7.59943 206.488 7.6456 206.299 7.70952C206.112 7.77107 205.96 7.86458 205.844 7.99006C205.73 8.11316 205.674 8.28125 205.674 8.49432C205.674 8.78551 205.781 9.00568 205.997 9.15483C206.215 9.30161 206.49 9.375 206.824 9.375ZM212.928 12.1591C212.523 12.1591 212.175 12.107 211.884 12.0028C211.593 11.901 211.35 11.7661 211.156 11.598C210.964 11.4323 210.811 11.2547 210.698 11.0653L211.365 10.5966C211.441 10.696 211.537 10.8097 211.653 10.9375C211.769 11.0677 211.927 11.1802 212.129 11.2749C212.332 11.3719 212.599 11.4205 212.928 11.4205C213.368 11.4205 213.731 11.3139 214.018 11.1009C214.304 10.8878 214.448 10.554 214.448 10.0994V8.99148H214.377C214.315 9.09091 214.227 9.21402 214.114 9.3608C214.003 9.50521 213.842 9.63423 213.631 9.74787C213.423 9.85914 213.141 9.91477 212.786 9.91477C212.345 9.91477 211.95 9.81061 211.6 9.60227C211.252 9.39394 210.976 9.09091 210.772 8.69318C210.571 8.29545 210.47 7.8125 210.47 7.24432C210.47 6.68561 210.569 6.1991 210.765 5.7848C210.962 5.36813 211.235 5.04616 211.585 4.81889C211.936 4.58925 212.341 4.47443 212.8 4.47443C213.155 4.47443 213.437 4.53362 213.645 4.65199C213.856 4.76799 214.017 4.90057 214.128 5.04972C214.242 5.1965 214.329 5.31723 214.391 5.41193H214.476V4.54545H215.286V10.1562C215.286 10.625 215.179 11.0062 214.966 11.2997C214.755 11.5956 214.471 11.8123 214.114 11.9496C213.759 12.0893 213.363 12.1591 212.928 12.1591ZM212.899 9.16193C213.235 9.16193 213.52 9.08499 213.752 8.93111C213.984 8.77723 214.16 8.55587 214.281 8.26705C214.401 7.97822 214.462 7.63258 214.462 7.23011C214.462 6.83712 214.403 6.49029 214.284 6.18963C214.166 5.88897 213.991 5.65341 213.759 5.48295C213.527 5.3125 213.24 5.22727 212.899 5.22727C212.544 5.22727 212.248 5.31723 212.012 5.49716C211.777 5.67708 211.601 5.91856 211.482 6.22159C211.366 6.52462 211.308 6.8608 211.308 7.23011C211.308 7.6089 211.368 7.94389 211.486 8.23509C211.607 8.52391 211.784 8.75118 212.019 8.9169C212.255 9.08026 212.549 9.16193 212.899 9.16193ZM219.107 10.1136C218.581 10.1136 218.128 9.99763 217.747 9.76562C217.368 9.53125 217.075 9.20455 216.869 8.78551C216.666 8.36411 216.564 7.87405 216.564 7.31534C216.564 6.75663 216.666 6.2642 216.869 5.83807C217.075 5.40956 217.362 5.07576 217.729 4.83665C218.098 4.59517 218.529 4.47443 219.021 4.47443C219.306 4.47443 219.586 4.52178 219.863 4.61648C220.14 4.71117 220.392 4.86506 220.619 5.07812C220.847 5.28883 221.028 5.56818 221.163 5.91619C221.298 6.2642 221.365 6.69271 221.365 7.2017V7.55682H217.161V6.83239H220.513C220.513 6.52462 220.451 6.25 220.328 6.00852C220.208 5.76705 220.035 5.57647 219.81 5.43679C219.587 5.29711 219.325 5.22727 219.021 5.22727C218.688 5.22727 218.399 5.31013 218.155 5.47585C217.914 5.6392 217.728 5.85227 217.597 6.11506C217.467 6.37784 217.402 6.65956 217.402 6.96023V7.44318C217.402 7.85511 217.473 8.20431 217.615 8.49077C217.76 8.77486 217.96 8.99148 218.215 9.14062C218.471 9.28741 218.768 9.3608 219.107 9.3608C219.327 9.3608 219.526 9.33002 219.703 9.26847C219.883 9.20455 220.038 9.10985 220.169 8.98438C220.299 8.85653 220.399 8.69792 220.47 8.50852L221.28 8.7358C221.195 9.01042 221.052 9.25189 220.85 9.46023C220.649 9.66619 220.401 9.82718 220.105 9.94318C219.809 10.0568 219.476 10.1136 219.107 10.1136ZM223.89 9.00568L223.833 9.3892C223.793 9.65909 223.731 9.94792 223.649 10.2557C223.568 10.5634 223.484 10.8535 223.396 11.1257C223.309 11.398 223.237 11.6146 223.18 11.7756H222.541C222.571 11.6241 222.612 11.424 222.661 11.1754C222.711 10.9268 222.761 10.6487 222.811 10.3409C222.863 10.0355 222.905 9.72301 222.938 9.40341L222.981 9.00568H223.89ZM48.179 22H47.2557L49.9261 14.7273H50.8352L53.5057 22H52.5824L50.4091 15.8778H50.3523L48.179 22ZM48.5199 19.1591H52.2415V19.9403H48.5199V19.1591ZM54.6385 22V14.7273H55.5192V21.2188H58.8999V22H54.6385ZM60.2635 22V14.7273H61.1442V21.2188H64.5249V22H60.2635ZM68.701 22V14.7273H71.1584C71.7266 14.7273 72.1929 14.8243 72.5575 15.0185C72.9221 15.2102 73.192 15.4742 73.3672 15.8104C73.5424 16.1465 73.63 16.5289 73.63 16.9574C73.63 17.3859 73.5424 17.7659 73.3672 18.0973C73.192 18.4287 72.9233 18.6892 72.5611 18.8786C72.1989 19.0656 71.736 19.1591 71.1726 19.1591H69.1839V18.3636H71.1442C71.5324 18.3636 71.8449 18.3068 72.0817 18.1932C72.3208 18.0795 72.4936 17.9186 72.6001 17.7102C72.709 17.4995 72.7635 17.2486 72.7635 16.9574C72.7635 16.6662 72.709 16.4117 72.6001 16.1939C72.4912 15.9761 72.3172 15.808 72.0781 15.6896C71.839 15.5689 71.523 15.5085 71.13 15.5085H69.5817V22H68.701ZM72.1243 18.733L73.9141 22H72.8913L71.13 18.733H72.1243ZM75.9782 14.7273V22H75.0975V14.7273H75.9782ZM82.7156 17C82.6374 16.7609 82.5344 16.5466 82.4066 16.3572C82.2811 16.1655 82.1308 16.0021 81.9556 15.8672C81.7828 15.7322 81.5863 15.6293 81.3661 15.5582C81.146 15.4872 80.9045 15.4517 80.6417 15.4517C80.2108 15.4517 79.819 15.563 79.4663 15.7855C79.1135 16.008 78.833 16.3359 78.6246 16.7692C78.4163 17.2024 78.3121 17.7339 78.3121 18.3636C78.3121 18.9934 78.4175 19.5249 78.6282 19.9581C78.8389 20.3913 79.1242 20.7192 79.484 20.9418C79.8439 21.1643 80.2487 21.2756 80.6985 21.2756C81.1152 21.2756 81.4821 21.1868 81.7994 21.0092C82.119 20.8293 82.3675 20.576 82.5451 20.2493C82.725 19.9202 82.815 19.5331 82.815 19.0881L83.0849 19.1449H80.8974V18.3636H83.6673V19.1449C83.6673 19.7438 83.5394 20.2647 83.2837 20.7074C83.0304 21.1501 82.68 21.4934 82.2326 21.7372C81.7875 21.9787 81.2762 22.0994 80.6985 22.0994C80.0546 22.0994 79.4888 21.9479 79.0011 21.6449C78.5157 21.3419 78.137 20.911 77.8647 20.3523C77.5948 19.7936 77.4599 19.1307 77.4599 18.3636C77.4599 17.7884 77.5368 17.2711 77.6907 16.8118C77.8469 16.3501 78.0671 15.9571 78.3512 15.6328C78.6353 15.3085 78.9715 15.0599 79.3597 14.8871C79.748 14.7143 80.1753 14.6278 80.6417 14.6278C81.0252 14.6278 81.3827 14.6858 81.7141 14.8018C82.0479 14.9155 82.3451 15.0777 82.6055 15.2884C82.8683 15.4967 83.0872 15.7464 83.2624 16.0376C83.4376 16.3265 83.5584 16.6473 83.6246 17H82.7156ZM85.1756 22V14.7273H86.0563V17.9659H89.9341V14.7273H90.8148V22H89.9341V18.7472H86.0563V22H85.1756ZM92.1802 15.5085V14.7273H97.6348V15.5085H95.3478V22H94.4672V15.5085H92.1802ZM102.971 16.5455C102.929 16.1856 102.756 15.9062 102.453 15.7074C102.15 15.5085 101.778 15.4091 101.338 15.4091C101.016 15.4091 100.734 15.4612 100.493 15.5653C100.253 15.6695 100.066 15.8127 99.9315 15.995C99.7989 16.1773 99.7326 16.3845 99.7326 16.6165C99.7326 16.8106 99.7788 16.9775 99.8711 17.1172C99.9658 17.2545 100.087 17.3693 100.233 17.4616C100.38 17.5516 100.534 17.6262 100.695 17.6854C100.856 17.7422 101.004 17.7884 101.139 17.8239L101.877 18.0227C102.067 18.0724 102.278 18.1411 102.51 18.2287C102.744 18.3163 102.968 18.4358 103.181 18.5874C103.396 18.7365 103.574 18.9283 103.713 19.1626C103.853 19.397 103.923 19.6847 103.923 20.0256C103.923 20.4186 103.82 20.7737 103.614 21.0909C103.41 21.4081 103.112 21.6603 102.719 21.8473C102.328 22.0343 101.854 22.1278 101.295 22.1278C100.774 22.1278 100.323 22.0438 99.9421 21.8757C99.5633 21.7076 99.265 21.4732 99.0472 21.1726C98.8318 20.8719 98.7099 20.5227 98.6815 20.125H99.5906C99.6142 20.3996 99.7066 20.6269 99.8675 20.8068C100.031 20.9844 100.237 21.117 100.485 21.2045C100.736 21.2898 101.006 21.3324 101.295 21.3324C101.631 21.3324 101.933 21.2779 102.201 21.169C102.468 21.0578 102.68 20.9039 102.836 20.7074C102.993 20.5085 103.071 20.2765 103.071 20.0114C103.071 19.7699 103.003 19.5734 102.868 19.4219C102.733 19.2704 102.556 19.1473 102.336 19.0526C102.115 18.9579 101.877 18.875 101.622 18.804L100.727 18.5483C100.159 18.3849 99.7089 18.1518 99.3775 17.8487C99.046 17.5457 98.8803 17.1491 98.8803 16.6591C98.8803 16.2519 98.9904 15.8968 99.2106 15.5938C99.4331 15.2884 99.7314 15.0516 100.105 14.8835C100.482 14.7131 100.902 14.6278 101.366 14.6278C101.835 14.6278 102.252 14.7119 102.616 14.88C102.981 15.0457 103.27 15.273 103.483 15.5618C103.698 15.8506 103.812 16.1785 103.824 16.5455H102.971ZM108.183 22V14.7273H110.641C111.209 14.7273 111.675 14.8243 112.04 15.0185C112.405 15.2102 112.674 15.4742 112.85 15.8104C113.025 16.1465 113.112 16.5289 113.112 16.9574C113.112 17.3859 113.025 17.7659 112.85 18.0973C112.674 18.4287 112.406 18.6892 112.044 18.8786C111.681 19.0656 111.218 19.1591 110.655 19.1591H108.666V18.3636H110.627C111.015 18.3636 111.327 18.3068 111.564 18.1932C111.803 18.0795 111.976 17.9186 112.083 17.7102C112.191 17.4995 112.246 17.2486 112.246 16.9574C112.246 16.6662 112.191 16.4117 112.083 16.1939C111.974 15.9761 111.8 15.808 111.561 15.6896C111.321 15.5689 111.005 15.5085 110.612 15.5085H109.064V22H108.183ZM111.607 18.733L113.396 22H112.374L110.612 18.733H111.607ZM114.58 22V14.7273H118.969V15.5085H115.461V17.9659H118.742V18.7472H115.461V21.2188H119.026V22H114.58ZM124.534 16.5455C124.491 16.1856 124.318 15.9062 124.015 15.7074C123.712 15.5085 123.341 15.4091 122.9 15.4091C122.578 15.4091 122.297 15.4612 122.055 15.5653C121.816 15.6695 121.629 15.8127 121.494 15.995C121.361 16.1773 121.295 16.3845 121.295 16.6165C121.295 16.8106 121.341 16.9775 121.434 17.1172C121.528 17.2545 121.649 17.3693 121.796 17.4616C121.943 17.5516 122.096 17.6262 122.257 17.6854C122.418 17.7422 122.566 17.7884 122.701 17.8239L123.44 18.0227C123.629 18.0724 123.84 18.1411 124.072 18.2287C124.306 18.3163 124.53 18.4358 124.743 18.5874C124.959 18.7365 125.136 18.9283 125.276 19.1626C125.416 19.397 125.485 19.6847 125.485 20.0256C125.485 20.4186 125.382 20.7737 125.176 21.0909C124.973 21.4081 124.675 21.6603 124.282 21.8473C123.891 22.0343 123.416 22.1278 122.858 22.1278C122.337 22.1278 121.886 22.0438 121.505 21.8757C121.126 21.7076 120.828 21.4732 120.61 21.1726C120.394 20.8719 120.272 20.5227 120.244 20.125H121.153C121.177 20.3996 121.269 20.6269 121.43 20.8068C121.593 20.9844 121.799 21.117 122.048 21.2045C122.299 21.2898 122.569 21.3324 122.858 21.3324C123.194 21.3324 123.496 21.2779 123.763 21.169C124.031 21.0578 124.243 20.9039 124.399 20.7074C124.555 20.5085 124.633 20.2765 124.633 20.0114C124.633 19.7699 124.566 19.5734 124.431 19.4219C124.296 19.2704 124.118 19.1473 123.898 19.0526C123.678 18.9579 123.44 18.875 123.184 18.804L122.289 18.5483C121.721 18.3849 121.271 18.1518 120.94 17.8487C120.609 17.5457 120.443 17.1491 120.443 16.6591C120.443 16.2519 120.553 15.8968 120.773 15.5938C120.996 15.2884 121.294 15.0516 121.668 14.8835C122.044 14.7131 122.465 14.6278 122.929 14.6278C123.397 14.6278 123.814 14.7119 124.179 14.88C124.543 15.0457 124.832 15.273 125.045 15.5618C125.261 15.8506 125.374 16.1785 125.386 16.5455H124.534ZM126.933 22V14.7273H131.323V15.5085H127.814V17.9659H131.095V18.7472H127.814V21.2188H131.379V22H126.933ZM132.91 22V14.7273H135.367C135.936 14.7273 136.402 14.8243 136.767 15.0185C137.131 15.2102 137.401 15.4742 137.576 15.8104C137.751 16.1465 137.839 16.5289 137.839 16.9574C137.839 17.3859 137.751 17.7659 137.576 18.0973C137.401 18.4287 137.132 18.6892 136.77 18.8786C136.408 19.0656 135.945 19.1591 135.382 19.1591H133.393V18.3636H135.353C135.741 18.3636 136.054 18.3068 136.291 18.1932C136.53 18.0795 136.703 17.9186 136.809 17.7102C136.918 17.4995 136.972 17.2486 136.972 16.9574C136.972 16.6662 136.918 16.4117 136.809 16.1939C136.7 15.9761 136.526 15.808 136.287 15.6896C136.048 15.5689 135.732 15.5085 135.339 15.5085H133.791V22H132.91ZM136.333 18.733L138.123 22H137.1L135.339 18.733H136.333ZM139.439 14.7273L141.598 20.8494H141.683L143.842 14.7273H144.765L142.095 22H141.186L138.515 14.7273H139.439ZM145.898 22V14.7273H150.287V15.5085H146.779V17.9659H150.06V18.7472H146.779V21.2188H150.344V22H145.898ZM154.119 22H151.875V14.7273H154.219C154.924 14.7273 155.528 14.8729 156.03 15.1641C156.532 15.4529 156.916 15.8684 157.184 16.4105C157.451 16.9503 157.585 17.5966 157.585 18.3494C157.585 19.107 157.45 19.7592 157.18 20.3061C156.91 20.8506 156.517 21.2696 156.001 21.5632C155.485 21.8544 154.858 22 154.119 22ZM152.756 21.2188H154.062C154.664 21.2188 155.162 21.1027 155.557 20.8707C155.953 20.6387 156.247 20.3085 156.442 19.88C156.636 19.4515 156.733 18.9413 156.733 18.3494C156.733 17.7623 156.637 17.2569 156.445 16.8331C156.253 16.407 155.967 16.0803 155.586 15.853C155.205 15.6233 154.73 15.5085 154.162 15.5085H152.756V21.2188ZM159.1 22.0568C158.925 22.0568 158.775 21.9941 158.65 21.8686C158.524 21.7431 158.461 21.5928 158.461 21.4176C158.461 21.2424 158.524 21.0921 158.65 20.9666C158.775 20.8411 158.925 20.7784 159.1 20.7784C159.276 20.7784 159.426 20.8411 159.551 20.9666C159.677 21.0921 159.74 21.2424 159.74 21.4176C159.74 21.5336 159.71 21.6402 159.651 21.7372C159.594 21.8343 159.517 21.9124 159.42 21.9716C159.325 22.0284 159.219 22.0568 159.1 22.0568Z" fill="#050506" fill-opacity="0.5"/>
<path d="M21.7849 17.9504C20.9319 21.5621 17.7248 24 14.1904 24C13.5946 24 12.9889 23.931 12.385 23.7849C10.3581 23.2974 8.63896 22.0448 7.54658 20.2553C6.78794 19.0126 6.40211 17.6138 6.39397 16.1921C6.39397 16.1708 6.38746 16.1495 6.38746 16.1281V2.93719C6.38746 1.86681 7.24704 1 8.30848 1C9.36993 1 10.2295 1.86681 10.2295 2.93719V9.35946C11.9763 8.31699 14.0178 8.00014 15.9991 8.47623C17.0312 8.72248 17.6678 9.7666 17.4236 10.8074C17.1794 11.8483 16.144 12.4885 15.1118 12.2423C14.0829 11.996 13.0182 12.1684 12.1163 12.7282C11.2144 13.288 10.5828 14.1696 10.3386 15.2088C10.0944 16.2463 10.2653 17.32 10.8205 18.2295C11.3772 19.139 12.2498 19.7759 13.2804 20.0222C15.4146 20.5328 17.5506 19.2014 18.0536 17.059C18.3011 16.0165 18.1269 14.9395 17.5668 14.0301C17.0084 13.1206 17.2868 11.9287 18.1855 11.3656C19.0857 10.8041 20.2693 11.0832 20.8277 11.9927C21.9282 13.7822 22.2685 15.8999 21.7866 17.9537L21.7849 17.9504ZM3.38057 9.52527L5.62719 12.1799V8.29565C5.62719 6.94946 5.15182 5.65089 4.2841 4.62648C4.232 4.56738 4.17991 4.51485 4.12944 4.47052L4.10665 4.44754C3.40173 3.804 2.31098 3.77445 1.57676 4.40978C0.769279 5.10585 0.673228 6.32398 1.37001 7.14647L3.38057 9.52691V9.52527ZM1.77212 8.85218C1.37815 8.88173 0.993941 9.03112 0.668344 9.30857C-0.132625 9.99643 -0.228676 11.2228 0.46159 12.0387L5.63044 18.1392V14.5045C5.63044 13.7707 5.36834 13.0615 4.8946 12.5066L1.77375 8.85218H1.77212Z" fill="black" fill-opacity="0.5"/>
<line x1="34.5" y1="1" x2="34.5" y2="23" stroke="black" stroke-opacity="0.5"/>
</svg>
