<svg width="175" height="37" viewBox="0 0 175 37" fill="none" xmlns="http://www.w3.org/2000/svg">
<path d="M123.6 33.5001C123.6 34.2001 123.1 34.6 122 34.6H120.1V30.3H121.9C122.8 30.3 123.4 30.7001 123.4 31.4001C123.4 31.9001 123.1 32.2001 122.7 32.4001C123.3 32.5001 123.6 32.9001 123.6 33.5001ZM120.4 30.6V32.3H121.9C122.6 32.3 123.1 32.0001 123.1 31.4001C123.1 30.8001 122.7 30.5001 121.9 30.5001H120.4V30.6ZM123.3 33.5001C123.3 32.9001 122.8 32.6 122 32.6H120.4V34.4001H122C122.9 34.4001 123.3 34.1001 123.3 33.5001Z" fill="white"/>
<path d="M128.8 31.4V31.7C128.8 31.7 128.8 31.7 128.7 31.7C128 31.7 127.6 32.2 127.6 33V34.7H127.3V31.5H127.6V32.2C127.8 31.7 128.2 31.4 128.8 31.4Z" fill="white"/>
<path d="M132.5 33C132.5 32 133.2 31.4 134.1 31.4C135 31.4 135.7 32.1 135.7 33C135.7 34 135 34.6 134.1 34.6C133.2 34.7 132.5 34 132.5 33ZM135.4 33C135.4 32.2 134.8 31.6 134.1 31.6C133.4 31.6 132.8 32.2 132.8 33C132.8 33.8 133.4 34.4 134.1 34.4C134.8 34.4 135.4 33.9 135.4 33Z" fill="white"/>
<path d="M140.5 32.9L139.7 33.7V34.7H139.4V30.1H139.7V33.4L141.8 31.5H142.2L140.8 32.8L142.3 34.7H141.9L140.5 32.9Z" fill="white"/>
<path d="M149 33.1H146.2C146.2 33.9 146.8 34.4 147.6 34.4C148 34.4 148.4 34.3 148.6 33.9L148.8 34.1C148.5 34.4 148.1 34.6 147.6 34.6C146.6 34.6 145.9 33.9 145.9 33C145.9 32 146.6 31.4 147.4 31.4C148.2 31.4 149 32.1 149 33.1ZM146.2 32.9H148.7C148.7 32.2 148.1 31.7 147.5 31.7C146.9 31.7 146.3 32.2 146.2 32.9Z" fill="white"/>
<path d="M154.2 31.4V31.7C154.2 31.7 154.2 31.7 154.1 31.7C153.4 31.7 153 32.2 153 33V34.7H152.7V31.5H153V32.2C153.1 31.7 153.5 31.4 154.2 31.4Z" fill="white"/>
<path d="M160.4 32.6V34.6H160.1V34.0001C159.9 34.4001 159.5 34.6 158.9 34.6C158.2 34.6 157.7 34.2001 157.7 33.7001C157.7 33.2001 158 32.8 158.9 32.8H160V32.5001C160 31.9001 159.7 31.6 159 31.6C158.6 31.6 158.2 31.8001 157.9 32.0001L157.7 31.8C158 31.5 158.5 31.3 159 31.3C160 31.4 160.4 31.8 160.4 32.6ZM160.1 33.7001V33.1H159C158.3 33.1 158.1 33.4001 158.1 33.7001C158.1 34.1001 158.4 34.4001 159 34.4001C159.6 34.4001 159.9 34.2001 160.1 33.7001Z" fill="white"/>
<path d="M167.3 31.4V34.3C167.3 35.4 166.8 35.9 165.7 35.9C165.1 35.9 164.5 35.7 164.2 35.4L164.4 35.2C164.7 35.5 165.2 35.7 165.7 35.7C166.6 35.7 167 35.3 167 34.4V33.9C166.7 34.4 166.2 34.6 165.7 34.6C164.8 34.6 164.1 34 164.1 33C164.1 32.1 164.8 31.4 165.7 31.4C166.3 31.4 166.8 31.7 167.1 32.2V31.5H167.3V31.4ZM167 33C167 32.2 166.4 31.7 165.7 31.7C164.9 31.7 164.4 32.2 164.4 33C164.4 33.8 165 34.3 165.7 34.3C166.5 34.3 167 33.7 167 33Z" fill="white"/>
<path d="M174.1 33.1H171.3C171.3 33.9 171.9 34.4 172.7 34.4C173.1 34.4 173.5 34.3 173.7 33.9L173.9 34.1C173.6 34.4 173.2 34.6 172.7 34.6C171.7 34.6 171 33.9 171 33C171 32 171.7 31.4 172.5 31.4C173.4 31.4 174.1 32.1 174.1 33.1ZM171.3 32.9H173.8C173.8 32.2 173.2 31.7 172.6 31.7C171.8 31.7 171.3 32.2 171.3 32.9Z" fill="white"/>
<path d="M120.1 19.1H120.7V27.1H120.1V19.1Z" fill="white"/>
<path d="M128.6 23.5999V27.0999H128V23.7C128 22.4 127.3 21.5999 126.1 21.5999C124.7 21.5999 123.8 22.5 123.8 23.9V27.0999H123.2V21.2H123.7V22.5C124.1 21.7 124.9 21.2 126.1 21.2C127.7 21.1 128.6 21.8999 128.6 23.5999Z" fill="white"/>
<path d="M130.1 26.3L130.4 25.8C130.9 26.2 131.7 26.5 132.5 26.5C133.8 26.5 134.3 26.1 134.3 25.4C134.3 23.7 130.4 24.9 130.4 22.6C130.4 21.7 131.2 21 132.7 21C133.5 21 134.3 21.2 134.7 21.6L134.4 22.1C133.9 21.7 133.2 21.6 132.6 21.6C131.4 21.6 130.9 22.1 130.9 22.7C130.9 24.5 134.8 23.2 134.8 25.5C134.8 26.5 134 27.1 132.5 27.1C131.5 27.1 130.6 26.8 130.1 26.3Z" fill="white"/>
<path d="M141.7 21.1V27H141.2V25.7C140.8 26.5 140 27 139 27C137.5 27 136.5 26.1 136.5 24.5V21H137.1V24.4C137.1 25.7 137.8 26.5 139.1 26.5C140.4 26.5 141.3 25.6 141.3 24.2V21H141.7V21.1Z" fill="white"/>
<path d="M146.9 21.1V21.7H146.8C145.5 21.7 144.7 22.6 144.7 24V27.1H144.1V21.2H144.6V22.5C145 21.5 145.8 21.1 146.9 21.1Z" fill="white"/>
<path d="M152.8 23.3V27.1H152.3V26C151.9 26.7 151.2 27.1 150.2 27.1C148.9 27.1 148.1 26.4 148.1 25.4C148.1 24.5 148.7 23.7 150.3 23.7H152.3V23.2C152.3 22.1 151.7 21.5 150.5 21.5C149.7 21.5 148.9 21.8 148.4 22.3L148.1 21.9C148.7 21.4 149.6 21.1 150.5 21.1C151.9 21.1 152.8 21.8 152.8 23.3ZM152.2 25.3V24.2H150.2C149 24.2 148.5 24.7 148.5 25.4C148.5 26.2 149.1 26.7 150.2 26.7C151.2 26.6 151.9 26.1 152.2 25.3Z" fill="white"/>
<path d="M160.4 23.5999V27.0999H159.8V23.7C159.8 22.4 159.1 21.5999 157.9 21.5999C156.5 21.5999 155.6 22.5 155.6 23.9V27.0999H155V21.2H155.5V22.5C155.9 21.7 156.7 21.2 157.9 21.2C159.5 21.1 160.4 21.8999 160.4 23.5999Z" fill="white"/>
<path d="M162.2 24.1C162.2 22.3 163.5 21.1 165.2 21.1C166.1 21.1 167 21.5 167.5 22.2L167.1 22.5C166.7 21.9 166 21.6 165.3 21.6C163.9 21.6 162.9 22.6 162.9 24.1C162.9 25.6 163.9 26.6 165.3 26.6C166 26.6 166.7 26.3 167.1 25.7L167.5 26C167 26.7 166.2 27.1 165.2 27.1C163.4 27.1 162.2 25.8 162.2 24.1Z" fill="white"/>
<path d="M174.1 24.2H169C169.1 25.6 170.1 26.5999 171.5 26.5999C172.3 26.5999 172.9 26.2999 173.4 25.7999L173.7 26.2C173.2 26.8 172.4 27.2 171.5 27.2C169.7 27.2 168.4 25.9 168.4 24.2C168.4 22.4 169.6 21.2 171.2 21.2C172.8 21.2 174 22.4 174 24.2C174.1 24.1 174.1 24.2 174.1 24.2ZM168.9 23.7999H173.5C173.4 22.4999 172.5 21.5999 171.2 21.5999C170 21.5999 169 22.4999 168.9 23.7999Z" fill="white"/>
<path d="M127.2 10.8C128 10.4 128.5 9.59998 128.5 8.59998C128.5 7.09998 127.2 6.09998 124.8 6.09998H120V15.9H125.1C127.7 15.9 129 14.9 129 13.2C129 12 128.3 11.2 127.2 10.8ZM122.3 7.79999H124.6C125.7 7.79999 126.3 8.20002 126.3 8.90002C126.3 9.70002 125.7 10.1 124.6 10.1H122.3V7.79999ZM124.9 14.2H122.3V11.8H124.9C126.1 11.8 126.7 12.2 126.7 13C126.7 13.8 126.1 14.2 124.9 14.2Z" fill="white"/>
<path d="M138 12.2001C138 9.80007 136.3 8.30005 134.1 8.30005C131.8 8.30005 130.1 9.90007 130.1 12.2001C130.1 14.4001 131.8 16.1 134.4 16.1C135.8 16.1 136.8 15.7001 137.5 14.9001L136.3 13.6C135.8 14.1 135.2 14.3 134.4 14.3C133.2 14.3 132.5 13.7 132.2 12.8H137.9C137.9 12.6 138 12.3001 138 12.2001ZM132.2 11.5001C132.4 10.5001 133.1 9.90009 134.1 9.90009C135.1 9.90009 135.8 10.5001 135.9 11.5001H132.2Z" fill="white"/>
<path d="M142.5 13.5L140.4 8.40002H138.1L141.4 16V16.1C141.1 16.8 140.8 17 140.2 17C139.8 17 139.3 16.8 139 16.5L138.2 18.1C138.7 18.5 139.5 18.8 140.3 18.8C141.7 18.8 142.7 18.3 143.4 16.4L146.8 8.40002H144.7L142.5 13.5Z" fill="white"/>
<path d="M151 8.30005C148.6 8.30005 146.9 9.90007 146.9 12.2001C146.9 14.5001 148.6 16.1 151 16.1C153.4 16.1 155.1 14.5001 155.1 12.2001C155.2 9.90007 153.4 8.30005 151 8.30005ZM151 14.2001C149.9 14.2001 149.1 13.4 149.1 12.1C149.1 10.8 149.9 10.0001 151 10.0001C152.1 10.0001 152.9 10.8 152.9 12.1C152.9 13.4 152.1 14.2001 151 14.2001Z" fill="white"/>
<path d="M161.2 8.30005C160.2 8.30005 159.3 8.70005 158.7 9.30005V8.40009H156.6V15.9001H158.8V12.2001C158.8 10.8001 159.6 10.2001 160.6 10.2001C161.6 10.2001 162.1 10.8001 162.1 12.0001V16.0001H164.3V11.7001C164.3 9.30007 163 8.30005 161.2 8.30005Z" fill="white"/>
<path d="M171.9 5.5V9.09998C171.4 8.49998 170.6 8.20001 169.7 8.20001C167.6 8.20001 165.9 9.69998 165.9 12.1C165.9 14.5 167.5 16 169.7 16C170.7 16 171.5 15.7 172.1 15V15.9H174.2V5.5H171.9ZM170 14.2C168.9 14.2 168.1 13.4 168.1 12.1C168.1 10.8 168.9 10 170 10C171.1 10 171.9 10.8 171.9 12.1C171.9 13.4 171.1 14.2 170 14.2Z" fill="white"/>
<path d="M83.6999 12.7C83.0999 12.7 82.4999 13 81.9999 13.4C80.6999 14.5 80.5999 16.3999 81.6999 17.5999L89.7999 27.0999V21.4999C89.7999 20.3999 89.3999 19.3 88.6999 18.4L83.6999 12.7Z" fill="white"/>
<path d="M86.1998 13.7L89.6998 17.7999V11.7999C89.6998 9.69994 88.9998 7.69993 87.5998 6.09993C87.4998 5.99993 87.3997 5.89998 87.3997 5.89998C86.2997 4.89998 84.5997 4.89994 83.3997 5.79994C82.0997 6.89994 81.9998 8.79995 83.0998 9.99995L86.1998 13.7Z" fill="white"/>
<path d="M115 26.8C113.7 32.4 108.7 36.2 103.1 36.2C102.2 36.2 101.2 36.1 100.3 35.9C97.0999 35.1 94.3999 33.2 92.6999 30.4C91.4999 28.5 90.8999 26.3 90.8999 24.1V24V3.59998C90.8999 1.89998 92.1999 0.599976 93.8999 0.599976C95.5999 0.599976 96.8999 1.89998 96.8999 3.59998V13.6C99.5999 12 102.8 11.5 105.9 12.2C107.5 12.6 108.5 14.2 108.1 15.8C107.7 17.4 106.1 18.4 104.5 18C102.9 17.6 101.2 17.9 99.7999 18.8C98.3999 19.7 97.3999 21 96.9999 22.6C96.5999 24.2 96.8999 25.9 97.7999 27.3C98.6999 28.7 99.9999 29.7 101.6 30.1C104.9 30.9 108.3 28.8 109.1 25.5C109.5 23.9 109.2 22.2 108.3 20.8C107.4 19.4 107.9 17.5 109.3 16.7C110.7 15.8 112.6 16.3 113.4 17.7C115.2 20.3 115.8 23.6 115 26.8Z" fill="white"/>
<path d="M7.2999 16.3C7.2999 18.1 5.8999 19.1 3.6999 19.1H1.0999V21.8H0.399902V13.4H3.5999C5.8999 13.5 7.2999 14.6 7.2999 16.3ZM6.5999 16.3C6.5999 14.8 5.5999 14 3.5999 14H0.999901V18.5H3.5999C5.5999 18.6 6.5999 17.8 6.5999 16.3Z" fill="white"/>
<path d="M8.69995 18.8C8.69995 16.9 10.1 15.6 12.1 15.6C14.1 15.6 15.5 16.9 15.5 18.8C15.5 20.7 14.1 22 12.1 22C10.1 22 8.69995 20.6 8.69995 18.8ZM14.8 18.8C14.8 17.2 13.6 16.2 12.1 16.2C10.6 16.2 9.39996 17.3 9.39996 18.8C9.39996 20.3 10.6 21.4 12.1 21.4C13.6 21.4 14.8 20.3 14.8 18.8Z" fill="white"/>
<path d="M27.1 15.6L24.5 21.9H24L21.7 16.5L19.4 21.9H18.8L16.2 15.6H16.8L19.1 21.2L21.4 15.6H22L24.3 21.2L26.6 15.6H27.1Z" fill="white"/>
<path d="M34.3998 18.9H28.5999C28.6999 20.4 29.7999 21.4 31.4999 21.4C32.3999 21.4 33.0999 21.1 33.6999 20.5L34.0999 20.9C33.4999 21.6 32.5999 21.9 31.5999 21.9C29.5999 21.9 28.0999 20.6 28.0999 18.7C28.0999 16.8 29.4999 15.5 31.2999 15.5C33.1999 15.5 34.4999 16.8 34.4999 18.7C34.3999 18.8 34.3998 18.8 34.3998 18.9ZM28.5999 18.4H33.7999C33.6999 17 32.5999 16.1 31.1999 16.1C29.6999 16.1 28.6999 17.1 28.5999 18.4Z" fill="white"/>
<path d="M39.5999 15.6V16.2C39.4999 16.2 39.4999 16.2 39.3999 16.2C37.8999 16.2 36.9999 17.1 36.9999 18.7V22H36.3999V15.7H36.9999V17.1C37.3999 16.1 38.2999 15.6 39.5999 15.6Z" fill="white"/>
<path d="M47.1999 18.9H41.3999C41.4999 20.4 42.5999 21.4 44.2999 21.4C45.1999 21.4 45.8999 21.1 46.4999 20.5L46.8999 20.9C46.2999 21.6 45.3999 21.9 44.3999 21.9C42.3999 21.9 40.8999 20.6 40.8999 18.7C40.8999 16.8 42.2999 15.5 44.0999 15.5C45.9999 15.5 47.2999 16.8 47.2999 18.7C47.1999 18.8 47.1999 18.8 47.1999 18.9ZM41.3999 18.4H46.5999C46.4999 17 45.3999 16.1 43.9999 16.1C42.4999 16.1 41.4999 17.1 41.3999 18.4Z" fill="white"/>
<path d="M55.2 13V21.9H54.6V20.4C54.1 21.4 53 21.9 51.8 21.9C49.9 21.9 48.5 20.6 48.5 18.7C48.5 16.8 49.9 15.5 51.8 15.5C53 15.5 54 16.1 54.6 17V13H55.2ZM54.6 18.8C54.6 17.2 53.4 16.2 51.9 16.2C50.4 16.2 49.2 17.3 49.2 18.8C49.2 20.3 50.4 21.4 51.9 21.4C53.4 21.4 54.6 20.3 54.6 18.8Z" fill="white"/>
<path d="M67.9998 18.8C67.9998 20.7 66.5998 22 64.6998 22C63.4998 22 62.4998 21.4 61.8998 20.5V22H61.2998V13H61.8998V17.1C62.3998 16.2 63.4998 15.6 64.5998 15.6C66.5998 15.6 67.9998 16.9 67.9998 18.8ZM67.3998 18.8C67.3998 17.2 66.1998 16.2 64.6998 16.2C63.1998 16.2 61.9998 17.3 61.9998 18.8C61.9998 20.3 63.1998 21.4 64.6998 21.4C66.1998 21.4 67.3998 20.3 67.3998 18.8Z" fill="white"/>
<path d="M75.3999 15.6L71.8999 22.7C71.3999 23.9 70.7 24.2 69.8 24.2C69.2 24.2 68.6 24 68.2 23.6L68.5 23.1C68.8 23.4 69.3 23.6 69.8 23.6C70.4 23.6 70.9 23.3 71.3 22.5L71.7 21.7L68.7 15.5H69.3999L72.1 21.1L74.8 15.5H75.3999V15.6Z" fill="white"/>
</svg>
