<svg width="33" height="24" viewBox="0 0 33 24" fill="none" xmlns="http://www.w3.org/2000/svg">
<path d="M26 22.75H6C5.59 22.75 5.25 22.41 5.25 22C5.25 21.59 5.59 21.25 6 21.25H26C26.41 21.25 26.75 21.59 26.75 22C26.75 22.41 26.41 22.75 26 22.75Z" fill="#E4502A"/>
<path d="M25 22.75H7C6.59 22.75 6.25 22.41 6.25 22V6C6.25 2.98 7.98 1.25 11 1.25H21C24.02 1.25 25.75 2.98 25.75 6V22C25.75 22.41 25.41 22.75 25 22.75ZM7.75 21.25H24.25V6C24.25 3.78 23.22 2.75 21 2.75H11C8.78 2.75 7.75 3.78 7.75 6V21.25Z" fill="#E4502A"/>
<path d="M19 22.75H13C12.59 22.75 12.25 22.41 12.25 22V15.94C12.25 15.01 13.01 14.25 13.94 14.25H18.07C19 14.25 19.76 15.01 19.76 15.94V22C19.75 22.41 19.41 22.75 19 22.75ZM13.75 21.25H18.25V15.94C18.25 15.84 18.17 15.75 18.06 15.75H13.93C13.83 15.75 13.74 15.83 13.74 15.94V21.25H13.75Z" fill="#E4502A"/>
<path d="M16 11.75C15.59 11.75 15.25 11.41 15.25 11V6C15.25 5.59 15.59 5.25 16 5.25C16.41 5.25 16.75 5.59 16.75 6V11C16.75 11.41 16.41 11.75 16 11.75Z" fill="#E4502A"/>
<path d="M18.5 9.25H13.5C13.09 9.25 12.75 8.91 12.75 8.5C12.75 8.09 13.09 7.75 13.5 7.75H18.5C18.91 7.75 19.25 8.09 19.25 8.5C19.25 8.91 18.91 9.25 18.5 9.25Z" fill="#E4502A"/>
<path d="M20.75 22.75H0.75C0.34 22.75 0 22.41 0 22C0 21.59 0.34 21.25 0.75 21.25H20.75C21.16 21.25 21.5 21.59 21.5 22C21.5 22.41 21.16 22.75 20.75 22.75Z" fill="#E4502A"/>
<path d="M31.75 22.75H11.75C11.34 22.75 11 22.41 11 22C11 21.59 11.34 21.25 11.75 21.25H31.75C32.16 21.25 32.5 21.59 32.5 22C32.5 22.41 32.16 22.75 31.75 22.75Z" fill="#E4502A"/>
<path d="M7 7H5C3.34315 7 2 8.34315 2 10V22" stroke="#E4502A" stroke-width="1.4"/>
<path d="M25 7H27C28.6569 7 30 8.34315 30 10V22" stroke="#E4502A" stroke-width="1.4"/>
</svg>
