<svg width="10" height="10" viewBox="0 0 10 10" fill="none" xmlns="http://www.w3.org/2000/svg">
<path d="M3.3335 2.39575C3.16266 2.39575 3.021 2.25409 3.021 2.08325V0.833252C3.021 0.662419 3.16266 0.520752 3.3335 0.520752C3.50433 0.520752 3.646 0.662419 3.646 0.833252V2.08325C3.646 2.25409 3.50433 2.39575 3.3335 2.39575Z" fill="#E4502A"/>
<path d="M6.6665 2.39575C6.49567 2.39575 6.354 2.25409 6.354 2.08325V0.833252C6.354 0.662419 6.49567 0.520752 6.6665 0.520752C6.83734 0.520752 6.979 0.662419 6.979 0.833252V2.08325C6.979 2.25409 6.83734 2.39575 6.6665 2.39575Z" fill="#E4502A"/>
<path d="M8.54183 4.1001H1.4585C1.28766 4.1001 1.146 3.95843 1.146 3.7876C1.146 3.61676 1.28766 3.4751 1.4585 3.4751H8.54183C8.71266 3.4751 8.85433 3.61676 8.85433 3.7876C8.85433 3.95843 8.71266 4.1001 8.54183 4.1001Z" fill="#E4502A"/>
<path d="M6.66667 9.47909H3.33333C1.8125 9.47909 0.9375 8.60409 0.9375 7.08325V3.54159C0.9375 2.02075 1.8125 1.14575 3.33333 1.14575H6.66667C8.1875 1.14575 9.0625 2.02075 9.0625 3.54159V7.08325C9.0625 8.60409 8.1875 9.47909 6.66667 9.47909ZM3.33333 1.77075C2.14167 1.77075 1.5625 2.34992 1.5625 3.54159V7.08325C1.5625 8.27492 2.14167 8.85409 3.33333 8.85409H6.66667C7.85833 8.85409 8.4375 8.27492 8.4375 7.08325V3.54159C8.4375 2.34992 7.85833 1.77075 6.66667 1.77075H3.33333Z" fill="#E4502A"/>
<path d="M3.54167 6.04159C3.4875 6.04159 3.43333 6.0291 3.38333 6.00826C3.33333 5.98743 3.2875 5.95825 3.24584 5.92075C3.20834 5.87909 3.17916 5.83326 3.15833 5.78326C3.13749 5.73326 3.125 5.67909 3.125 5.62492C3.125 5.51659 3.17084 5.40826 3.24584 5.32909C3.2875 5.29159 3.33333 5.26242 3.38333 5.24158C3.45833 5.20825 3.54167 5.19992 3.62501 5.21659C3.65001 5.22075 3.675 5.22908 3.7 5.24158C3.725 5.24992 3.75 5.26243 3.775 5.2791C3.79583 5.29576 3.81666 5.31243 3.8375 5.32909C3.85416 5.34993 3.87499 5.37076 3.88749 5.39159C3.90416 5.41659 3.91667 5.44159 3.92501 5.46659C3.93751 5.49159 3.94584 5.51659 3.95 5.54159C3.95417 5.57075 3.95833 5.59576 3.95833 5.62492C3.95833 5.73326 3.9125 5.84159 3.8375 5.92075C3.75833 5.99575 3.65 6.04159 3.54167 6.04159Z" fill="#E4502A"/>
<path d="M5.00016 6.04161C4.89183 6.04161 4.7835 5.99578 4.70433 5.92078C4.68767 5.89994 4.671 5.87911 4.65433 5.85828C4.63767 5.83328 4.62516 5.80828 4.61682 5.78328C4.60432 5.75828 4.59599 5.73329 4.59182 5.70829C4.58766 5.67912 4.5835 5.65411 4.5835 5.62495C4.5835 5.57078 4.59599 5.51661 4.61682 5.46661C4.63766 5.41661 4.66683 5.37078 4.70433 5.32912C4.821 5.21245 5.0085 5.17494 5.1585 5.24161C5.21266 5.26244 5.25433 5.29162 5.29599 5.32912C5.37099 5.40828 5.41683 5.51661 5.41683 5.62495C5.41683 5.65411 5.41267 5.67912 5.4085 5.70829C5.40433 5.73329 5.396 5.75828 5.3835 5.78328C5.37517 5.80828 5.36266 5.83328 5.34599 5.85828C5.32932 5.87911 5.31266 5.89994 5.29599 5.92078C5.25433 5.95828 5.21266 5.98745 5.1585 6.00829C5.1085 6.02912 5.05433 6.04161 5.00016 6.04161Z" fill="#E4502A"/>
<path d="M3.54167 7.50011C3.4875 7.50011 3.43333 7.48762 3.38333 7.46678C3.33333 7.44595 3.2875 7.41677 3.24584 7.37927C3.20834 7.33761 3.17916 7.29595 3.15833 7.24178C3.13749 7.19178 3.125 7.13761 3.125 7.08344C3.125 6.97511 3.17084 6.86678 3.24584 6.78761C3.2875 6.75011 3.33333 6.72094 3.38333 6.7001C3.5375 6.63344 3.72083 6.67095 3.8375 6.78761C3.85416 6.80845 3.87499 6.82928 3.88749 6.85011C3.90416 6.87511 3.91667 6.90011 3.92501 6.92511C3.93751 6.95011 3.94584 6.97511 3.95 7.00428C3.95417 7.02928 3.95833 7.05844 3.95833 7.08344C3.95833 7.19178 3.9125 7.30011 3.8375 7.37927C3.75833 7.45427 3.65 7.50011 3.54167 7.50011Z" fill="#E4502A"/>
</svg>
