<svg width="35" height="37" viewBox="0 0 35 37" fill="none" xmlns="http://www.w3.org/2000/svg">
<g clip-path="url(#clip0_144_9983)">
<path d="M33.8545 23.4543C37.2628 14.538 32.7374 4.57099 23.7153 1.19187C14.7219 -2.18725 4.6687 2.29931 1.26035 11.2157C-1.74701 19.1098 1.4322 27.9977 8.76444 32.2287C8.01976 33.9325 6.98867 35.4942 5.72844 36.8857C8.42074 36.7153 10.9698 35.693 13.032 33.9893C21.6818 36.2893 30.6752 31.746 33.8545 23.4543Z" fill="white"/>
<path d="M33.8544 23.4547C33.8544 23.4547 33.7971 23.5967 33.6825 23.8807C33.5679 24.1362 33.3961 24.5906 33.1383 25.1301C32.365 26.6635 31.3625 28.0549 30.1882 29.3043C29.7873 29.7302 29.3576 30.1278 28.8994 30.4969L28.1833 31.0932L27.3814 31.6612C26.8085 32.0587 26.2071 32.4279 25.5769 32.7402C25.2619 32.9106 24.9182 33.0526 24.5745 33.1945C24.4026 33.2797 24.2308 33.3649 24.0589 33.4217L23.5148 33.6205C23.1424 33.7341 22.7701 33.9044 22.3691 33.9896L21.1661 34.2736C20.3355 34.444 19.4763 34.5576 18.617 34.6143C16.7553 34.7279 14.8936 34.5292 13.0892 34.0748H13.1751C11.0843 35.7786 8.50657 36.8008 5.81426 36.9996C5.75698 36.9996 5.72834 36.9712 5.6997 36.9144C5.6997 36.886 5.6997 36.8576 5.72834 36.8576C6.98857 35.4946 7.99102 33.9328 8.7357 32.2291L8.76434 32.3711C7.38955 31.576 6.12932 30.5821 5.0123 29.4747C3.86664 28.282 2.86418 26.9758 2.09086 25.4992C0.429646 22.4325 -0.257751 18.9681 0.0859476 15.5322C0.286439 13.5161 0.85927 11.5568 1.74716 9.73944C2.63505 7.97889 3.80935 6.38871 5.21279 4.99731C5.58513 4.68495 5.90019 4.31581 6.27253 4.03185L7.41819 3.15157L8.62114 2.38488C8.82163 2.27129 9.02212 2.15771 9.25125 2.04413L9.88136 1.73177C11.5139 0.936681 13.2897 0.397157 15.0941 0.141593C16.8126 -0.0855755 18.5598 -0.0855754 20.2783 0.169989C20.7079 0.226781 21.1089 0.340365 21.5098 0.425553L22.0827 0.567533L22.6841 0.766305C23.0851 0.908285 23.4575 0.993473 23.8298 1.13545L24.9182 1.61818C25.09 1.70337 25.2905 1.76016 25.4624 1.87375L25.9779 2.15771C26.3216 2.35648 26.6653 2.52686 26.9804 2.72563L27.8969 3.35034L28.3552 3.6627L28.7848 4.03185L29.6154 4.74175C29.8732 4.99731 30.1023 5.25287 30.3601 5.50844C30.8184 5.99117 31.2766 6.53069 31.6776 7.07022C33.1097 9.00115 34.1408 11.216 34.6563 13.5729C35.0573 15.3335 35.1719 17.1508 34.9714 18.9397C34.9427 19.3089 34.8855 19.6497 34.8568 19.9904C34.8282 20.3312 34.7136 20.6151 34.6563 20.8991C34.599 21.183 34.5418 21.4386 34.4845 21.6658C34.4272 21.8929 34.3413 22.0917 34.284 22.2905L33.9976 23.114C33.9403 23.3127 33.883 23.3979 33.883 23.3979C33.883 23.3979 33.9116 23.3127 33.9689 23.114C34.0262 22.9152 34.1121 22.6312 34.2267 22.2621C34.284 22.0633 34.3699 21.8361 34.4272 21.6374L34.599 20.8707C34.6563 20.5867 34.7423 20.3028 34.7709 19.962C34.8282 19.6497 34.8282 19.2805 34.8855 18.9114C35.0573 17.1224 34.9427 15.3051 34.5418 13.5445C34.0262 11.216 32.9951 9.02954 31.563 7.09861C31.1621 6.55909 30.7324 6.01957 30.2455 5.53683C29.9877 5.28127 29.7586 5.02571 29.5008 4.77014L28.6702 4.06024L28.2406 3.69109L27.7823 3.43553L26.8658 2.78242C26.5508 2.58365 26.2071 2.41327 25.8634 2.2145L25.3765 1.98733C25.2046 1.90215 25.0328 1.81696 24.8323 1.76016L23.7152 1.30583C23.3429 1.16385 22.9706 1.05026 22.5696 0.936681L21.9968 0.766305L21.3953 0.624325C20.9657 0.539137 20.5933 0.453949 20.1923 0.368761C18.5025 0.113197 16.7553 0.113197 15.0655 0.340365C13.2897 0.595929 11.5426 1.13545 9.91001 1.93054L9.30853 2.27129C9.10804 2.35648 8.90755 2.47007 8.70706 2.61205L7.53276 3.35034L6.41574 4.20222C6.04339 4.48618 5.72834 4.85533 5.356 5.16769C3.9812 6.53069 2.83554 8.12087 1.97629 9.85303C-0.429601 14.7655 -0.343676 20.5583 2.26271 25.3856C3.03603 26.8054 3.9812 28.1401 5.12686 29.3043C6.24389 30.4117 7.47547 31.3772 8.82163 32.2007C8.87891 32.2291 8.87891 32.2859 8.85027 32.3427C8.07695 34.0464 7.04585 35.6082 5.78562 36.9996L5.6997 36.8292C8.36336 36.6589 10.9125 35.6366 12.9747 33.9612C13.0033 33.9612 13.0319 33.9612 13.0606 33.9612C14.8364 34.4156 16.6981 34.6143 18.5311 34.5008C19.3904 34.444 20.221 34.3588 21.0802 34.1884L22.2545 33.9044C22.6555 33.8193 22.9992 33.6489 23.3715 33.5353L23.9157 33.3365C24.0876 33.2797 24.2594 33.1945 24.4313 33.1094C24.775 32.939 25.1187 32.8254 25.4337 32.655C26.0639 32.3427 26.6653 31.9735 27.2382 31.576L28.0401 31.0364L28.7562 30.4401C29.2144 30.071 29.6441 29.6734 30.045 29.2475C31.2193 28.0265 32.2218 26.6351 33.0238 25.1301C33.2815 24.6189 33.4534 24.193 33.5966 23.8807C33.7971 23.5683 33.8544 23.4547 33.8544 23.4547Z" fill="#273339"/>
<path d="M30.7691 19.4021C31.9525 12.1728 27.0007 5.3611 19.7088 4.18782C12.417 3.01455 5.54641 7.92396 4.36299 15.1533C3.17957 22.3826 8.13143 29.1943 15.4233 30.3676C22.7151 31.5408 29.5857 26.6314 30.7691 19.4021Z" fill="#E95A25"/>
<path d="M16.3829 13.4309C15.4091 12.6642 13.977 12.8346 13.2037 13.8C13.1178 13.9136 13.0605 13.9988 12.9746 14.1124C12.6595 14.6803 12.8027 15.3902 13.2896 15.7877C14.4926 16.952 17.0417 19.3088 18.13 20.3595C18.7315 20.9274 19.5621 21.183 20.3927 21.0694C21.0515 20.9842 21.6243 20.6151 21.9967 20.0755C23.2569 18.4002 20.2495 17.0656 20.2495 17.0656L18.9607 18.457L15.9246 15.5322L17.2708 14.084L16.3829 13.4309Z" fill="white"/>
</g>
<defs>
<clipPath id="clip0_144_9983">
<rect width="35" height="37" fill="white"/>
</clipPath>
</defs>
</svg>
