<svg width="24" height="24" viewBox="0 0 24 24" fill="none" xmlns="http://www.w3.org/2000/svg">
<path d="M12.0312 1.25C12.6353 1.24999 13.1359 1.24999 13.5488 1.28516C13.9815 1.32202 14.3729 1.40118 14.75 1.58789C15.4215 1.9205 15.8464 2.44853 16.1445 2.97852C16.3757 3.38955 16.5549 3.8518 16.707 4.24316C16.7429 4.33551 16.7774 4.42391 16.8105 4.50684L17.1074 5.25C18.199 5.24998 18.9854 5.25143 19.5918 5.33496C20.275 5.4291 20.7697 5.63138 21.2832 6.02539C21.5429 6.2247 21.7753 6.45713 21.9746 6.7168C22.4014 7.27298 22.5829 7.92169 22.668 8.67578C22.7502 9.40527 22.75 10.3207 22.75 11.4551V16.0547C22.75 17.4222 22.7503 18.5247 22.6338 19.3916C22.5128 20.2917 22.2533 21.0494 21.6514 21.6514C21.0494 22.2533 20.2917 22.5128 19.3916 22.6338C18.5247 22.7503 17.4222 22.75 16.0547 22.75H7.94531C6.57782 22.75 5.47534 22.7503 4.6084 22.6338C3.70829 22.5128 2.95055 22.2533 2.34863 21.6514C1.74672 21.0495 1.48723 20.2917 1.36621 19.3916C1.24968 18.5247 1.24998 17.4222 1.25 16.0547V11.4551C1.24999 10.3207 1.24979 9.40528 1.33203 8.67578C1.41708 7.92169 1.59862 7.27298 2.02539 6.7168C2.2247 6.45713 2.45713 6.2247 2.7168 6.02539C3.23028 5.63138 3.72501 5.4291 4.4082 5.33496C5.01445 5.25146 5.80055 5.24998 6.8916 5.25L7.18945 4.50684C7.22262 4.42392 7.25708 4.3355 7.29297 4.24316C7.44508 3.8518 7.6243 3.38955 7.85547 2.97852C8.15366 2.44836 8.57915 1.92052 9.25098 1.58789C9.62814 1.40116 10.0194 1.32201 10.4521 1.28516C10.865 1.25002 11.3649 1.24999 11.9688 1.25H12.0312ZM12 2.75C11.3568 2.75 10.9208 2.7502 10.5791 2.7793C10.25 2.80733 10.0631 2.85882 9.91602 2.93164C9.60538 3.0855 9.37232 3.34189 9.16309 3.71387C8.9892 4.02306 8.85951 4.35743 8.71094 4.73828C8.67002 4.84316 8.62703 4.95196 8.58203 5.06445L7.69629 7.27832C7.54245 7.66291 7.10627 7.85012 6.72168 7.69629C6.34659 7.54625 6.15927 7.12739 6.29297 6.75C5.51329 6.75297 5.00343 6.76642 4.6123 6.82031C4.17091 6.88117 3.92426 6.98896 3.62988 7.21484C3.47403 7.33446 3.33446 7.47403 3.21484 7.62988C3.02175 7.88152 2.89319 8.22423 2.82324 8.84473C2.75163 9.48029 2.75 10.31 2.75 11.5V16C2.75 17.4352 2.75202 18.4361 2.85352 19.1914C2.95217 19.9252 3.13242 20.3141 3.40918 20.5908C3.68594 20.8676 4.07482 21.0478 4.80859 21.1465C5.5639 21.248 6.56485 21.25 8 21.25H16C17.4352 21.25 18.4361 21.248 19.1914 21.1465C19.9252 21.0478 20.3141 20.8676 20.5908 20.5908C20.8676 20.3141 21.0478 19.9252 21.1465 19.1914C21.248 18.4361 21.25 17.4352 21.25 16V11.5C21.25 10.31 21.2484 9.48029 21.1768 8.84473C21.1068 8.22423 20.9782 7.88152 20.7852 7.62988C20.6655 7.47403 20.526 7.33446 20.3701 7.21484C20.0757 6.98896 19.8291 6.88117 19.3877 6.82031C18.9964 6.7664 18.4863 6.75297 17.7061 6.75C17.8401 7.1275 17.6536 7.54619 17.2783 7.69629C16.8938 7.84988 16.4575 7.66279 16.3037 7.27832L15.418 5.06445C15.373 4.95203 15.3309 4.8431 15.29 4.73828C15.1415 4.35743 15.0108 4.02306 14.8369 3.71387C14.6276 3.34189 14.3947 3.08547 14.084 2.93164C13.9369 2.85885 13.75 2.80732 13.4209 2.7793C13.0792 2.75023 12.6431 2.75 12 2.75ZM12 9.75C14.3472 9.75 16.25 11.6528 16.25 14C16.25 16.3472 14.3472 18.25 12 18.25C9.65279 18.25 7.75 16.3472 7.75 14C7.75 11.6528 9.65279 9.75 12 9.75ZM12 11.25C10.4812 11.25 9.25 12.4812 9.25 14C9.25 15.5188 10.4812 16.75 12 16.75C13.5188 16.75 14.75 15.5188 14.75 14C14.75 12.4812 13.5188 11.25 12 11.25ZM12.0088 5C12.5611 5 13.0088 5.44772 13.0088 6C13.0088 6.55228 12.5611 7 12.0088 7H12C11.4477 7 11 6.55228 11 6C11 5.44772 11.4477 5 12 5H12.0088Z" fill="#7b4ce0"/>
</svg>
