<svg width="22" height="16" viewBox="0 0 22 16" fill="none" xmlns="http://www.w3.org/2000/svg">
<path d="M2.80019 1H19.4854C19.4854 1 20.7541 1 20.7541 2.26869V13.7313C20.7541 13.7313 20.7541 15 19.4854 15H2.80019C2.80019 15 1.53149 15 1.53149 13.7313V2.26869C1.53149 2.26869 1.53149 1 2.80019 1Z" stroke="black" stroke-width="1.71429" stroke-linecap="round" stroke-linejoin="round"/>
<path d="M14.6323 6.34375H17.569" stroke="black" stroke-width="1.71429" stroke-linecap="round" stroke-linejoin="round"/>
<path d="M14.6323 9.25586H17.569" stroke="black" stroke-width="1.71429" stroke-linecap="round" stroke-linejoin="round"/>
<path d="M5.97778 6.82883C5.97778 7.47238 6.23343 8.08957 6.68849 8.54462C7.14354 8.99968 7.76073 9.25532 8.40427 9.25532C9.04782 9.25532 9.665 8.99968 10.1201 8.54462C10.5751 8.08957 10.8308 7.47238 10.8308 6.82883C10.8308 6.18529 10.5751 5.5681 10.1201 5.11305C9.665 4.65799 9.04782 4.40234 8.40427 4.40234C7.76073 4.40234 7.14354 4.65799 6.68849 5.11305C6.23343 5.5681 5.97778 6.18529 5.97778 6.82883Z" stroke="black" stroke-width="1.71429" stroke-linecap="round" stroke-linejoin="round"/>
<path d="M4.71655 11.6572C5.0823 10.9461 5.62391 10.3403 6.28985 9.8976C6.91744 9.48295 7.65216 9.25996 8.40434 9.25586C9.14663 9.25586 9.87414 9.47766 10.5203 9.8976C11.1863 10.3403 11.7279 10.9461 12.0936 11.6572" stroke="black" stroke-width="1.71429" stroke-linecap="round" stroke-linejoin="round"/>
</svg>
