<svg width="15" height="15" viewBox="0 0 15 15" fill="none" xmlns="http://www.w3.org/2000/svg">
<g clip-path="url(#clip0_491_5890)">
<path d="M7.5 14.4643V8.83929C7.5 8.48409 7.64111 8.14344 7.89227 7.89227C8.14344 7.64111 8.48409 7.5 8.83929 7.5C9.19449 7.5 9.53514 7.64111 9.7863 7.89227C10.0375 8.14344 10.1786 8.48409 10.1786 8.83929V11.7857H12.3214C12.8897 11.7857 13.4347 12.0115 13.8366 12.4134C14.2385 12.8153 14.4643 13.3603 14.4643 13.9286V14.4643" stroke="#F46524" stroke-width="1.3" stroke-linecap="round" stroke-linejoin="round"/>
<path d="M6.70428 3.31627C5.36874 1.84661 3.57659 0.870282 1.61754 0.545142C1.48424 0.526265 1.34845 0.535965 1.21919 0.573599C1.08993 0.611231 0.970153 0.675937 0.867819 0.763416C0.763649 0.852516 0.680018 0.963125 0.622679 1.08764C0.56534 1.21214 0.535653 1.3476 0.535662 1.48467V9.12426C0.534239 9.35887 0.61977 9.58571 0.775749 9.76096C0.931728 9.93621 1.1471 10.0475 1.38028 10.0733C2.9104 10.2808 4.34928 10.8863 5.55881 11.8172" stroke="#F46524" stroke-width="1.3" stroke-linecap="round" stroke-linejoin="round"/>
<path d="M6.70483 6.27697V3.31641" stroke="#F46524" stroke-linecap="round" stroke-linejoin="round"/>
<path d="M12.0281 10.0733C12.2613 10.0475 12.4766 9.93621 12.6326 9.76096C12.7886 9.58571 12.8741 9.35887 12.8727 9.12426V1.48467C12.8727 1.3476 12.843 1.21214 12.7857 1.08764C12.7284 0.963125 12.6447 0.852516 12.5406 0.763416C12.4383 0.675937 12.3185 0.611231 12.1892 0.573599C12.0599 0.535965 11.9242 0.526265 11.7908 0.545142C9.83179 0.870282 8.03965 1.84661 6.7041 3.31627" stroke="#F46524" stroke-width="1.3" stroke-linecap="round" stroke-linejoin="round"/>
</g>
<defs>
<clipPath id="clip0_491_5890">
<rect width="15" height="15" fill="white"/>
</clipPath>
</defs>
</svg>
