<svg width="15" height="15" viewBox="0 0 15 15" fill="none" xmlns="http://www.w3.org/2000/svg">
<path d="M12 5.5C12 8.5 7.5 12 7.5 12C7.5 12 3 8.5 3 5.5C3 3.049 5.049 1 7.5 1C9.951 1 12 3.049 12 5.5Z" stroke="#F46524" stroke-width="1.3" stroke-linecap="round" stroke-linejoin="round"/>
<path d="M7.5 6.99988C8.32843 6.99988 9 6.32831 9 5.49988C9 4.67145 8.32843 3.99988 7.5 3.99988C6.67157 3.99988 6 4.67145 6 5.49988C6 6.32831 6.67157 6.99988 7.5 6.99988Z" stroke="#F46524" stroke-width="1.3" stroke-linecap="round" stroke-linejoin="round"/>
<path d="M11.5773 10.5002H12.5L14 14.0002H1L2.5 10.5002H3.4227" stroke="#F46524" stroke-width="1.3" stroke-linecap="round" stroke-linejoin="round"/>
</svg>
