<svg width="16" height="16" viewBox="0 0 16 16" fill="none" xmlns="http://www.w3.org/2000/svg">
<path d="M0 7.75619C0 5.39764 0 3.04498 0 0.686432C0 0.129065 0.123207 0 0.66884 0C4.07758 0 7.48632 0 10.8892 0C11.4348 0 11.558 0.129065 11.558 0.686432C11.558 5.40939 11.558 10.1324 11.558 14.8553C11.558 15.4127 11.4348 15.5418 10.8892 15.5418C7.48045 15.5418 4.07171 15.5418 0.66884 15.5418C0.123207 15.5418 0 15.4127 0 14.8553C0 12.4909 0 10.1206 0 7.75619ZM0.932854 0.927V14.6147H10.631V0.927H0.932854Z" fill="#F46524"/>
<path d="M12.8487 11.5049C12.526 11.3934 12.438 11.1763 12.438 10.883C12.438 7.7969 12.438 4.7167 12.438 1.63064C12.438 0.697788 13.1127 -0.000357837 13.9986 0.0113762C14.8728 0.0172432 15.5299 0.709522 15.5299 1.63064C15.5299 4.69323 15.5299 7.75584 15.5299 10.8243C15.5299 11.1411 15.4888 11.411 15.1192 11.5049C15.2424 11.8393 15.3715 12.1326 15.4478 12.4436C15.4888 12.6137 15.5006 12.8308 15.436 12.9892C15.1192 13.7343 14.7672 14.4618 14.4328 15.1952C14.3448 15.3947 14.2098 15.5355 13.981 15.5355C13.7463 15.5355 13.6173 15.3888 13.5292 15.1952C13.1948 14.4618 12.8428 13.7343 12.526 12.9892C12.4615 12.8308 12.4673 12.6137 12.5084 12.4436C12.5905 12.1326 12.7196 11.8334 12.8369 11.5107L12.8487 11.5049ZM13.3708 3.8132V10.5485H14.6146V3.8132H13.3708ZM14.6205 2.86274C14.6205 2.38751 14.6322 1.94161 14.6205 1.50159C14.6088 1.16717 14.3213 0.920752 13.9986 0.914885C13.6877 0.914885 13.3884 1.13783 13.3708 1.46051C13.3415 1.92401 13.365 2.38164 13.365 2.86274H14.6264H14.6205ZM13.9869 13.9866C14.1864 13.5583 14.3624 13.1887 14.5266 12.8074C14.556 12.7311 14.556 12.6255 14.5266 12.5492C14.4269 12.2441 14.3213 11.939 14.1922 11.6457C14.1629 11.5753 14.0514 11.499 13.981 11.499C13.9106 11.499 13.7991 11.5753 13.7698 11.6457C13.6466 11.9449 13.5351 12.2441 13.4354 12.5551C13.4119 12.6313 13.4119 12.737 13.4412 12.8132C13.6055 13.1887 13.7815 13.5642 13.9751 13.9925L13.9869 13.9866Z" fill="#F46524"/>
<path d="M7.64465 12.7551C7.19876 12.7551 6.75874 12.7551 6.31285 12.7551C5.98429 12.7551 5.77894 12.5791 5.76721 12.3151C5.76134 12.0393 5.97256 11.8457 6.31285 11.8457C7.2105 11.8457 8.10815 11.8457 9.00581 11.8457C9.35196 11.8457 9.56904 12.0276 9.56904 12.3033C9.56904 12.5791 9.35783 12.7551 9.00581 12.7551C8.55405 12.7551 8.09642 12.7551 7.64465 12.7551Z" fill="#F46524"/>
<path d="M7.64474 3.46143C8.10824 3.46143 8.57174 3.46143 9.03523 3.46143C9.36379 3.46143 9.56913 3.64328 9.56913 3.91316C9.56913 4.17718 9.35792 4.37081 9.0411 4.37081C8.12584 4.37081 7.20472 4.37081 6.28946 4.37081C5.97264 4.37081 5.76144 4.17134 5.77317 3.90145C5.77904 3.6433 5.98438 3.46729 6.28946 3.46143C6.74122 3.46143 7.19886 3.46143 7.65062 3.46143H7.64474Z" fill="#F46524"/>
<path d="M7.65062 7.12277C7.19886 7.12277 6.74122 7.12277 6.28946 7.12277C5.97851 7.12277 5.77904 6.94676 5.77317 6.68861C5.76144 6.4246 5.97264 6.21925 6.28946 6.21338C7.20472 6.20752 8.12584 6.20752 9.0411 6.21338C9.36378 6.21338 9.575 6.40698 9.575 6.67099C9.575 6.93501 9.36965 7.1169 9.0411 7.12277C8.5776 7.12277 8.11411 7.12277 7.65062 7.12277Z" fill="#F46524"/>
<path d="M7.68585 8.98242C8.13761 8.98242 8.59524 8.98242 9.047 8.98242C9.36968 8.98242 9.5809 9.17018 9.57504 9.44007C9.57504 9.69822 9.36383 9.88594 9.06461 9.8918C8.13762 9.8918 7.21063 9.8918 6.27777 9.8918C5.97269 9.8918 5.7732 9.69819 5.76733 9.4459C5.76733 9.17602 5.97268 8.98829 6.2895 8.98829C6.75299 8.98829 7.21649 8.98829 7.67999 8.98829L7.68585 8.98242Z" fill="#F46524"/>
<path d="M3.04499 6.62372C3.41462 6.24237 3.73144 5.91381 4.04826 5.59112C4.29467 5.34471 4.57042 5.31539 4.76404 5.50314C4.96938 5.70262 4.95178 5.96661 4.70536 6.2189C4.29467 6.63546 3.88398 7.05201 3.46156 7.4627C3.17994 7.73845 2.96286 7.73845 2.68124 7.4627C2.4935 7.28082 2.30575 7.09898 2.12387 6.90536C1.91852 6.68242 1.91266 6.41839 2.10627 6.23064C2.28228 6.0605 2.55217 6.06636 2.75751 6.25997C2.85725 6.35384 2.93352 6.47705 3.03913 6.62372H3.04499Z" fill="#F46524"/>
<path d="M3.02753 3.87212C3.42062 3.47903 3.73157 3.15637 4.05425 2.83368C4.3124 2.57553 4.56469 2.55205 4.77003 2.74566C4.98125 2.95101 4.95778 3.21503 4.68789 3.48491C4.28307 3.8956 3.87824 4.30044 3.46755 4.70526C3.18594 4.98101 2.96885 4.98098 2.68724 4.7111C2.50536 4.53509 2.32935 4.35909 2.15334 4.17722C1.93039 3.94253 1.91279 3.66678 2.11227 3.47904C2.30588 3.29129 2.55816 3.30304 2.78111 3.52598C2.87498 3.61399 2.93365 3.73718 3.02753 3.87799V3.87212Z" fill="#F46524"/>
<path d="M3.05666 9.38137C3.42628 9.00002 3.7431 8.67146 4.05992 8.34877C4.3122 8.09649 4.57035 8.07302 4.77569 8.2725C4.98104 8.47198 4.95758 8.73601 4.70529 8.98829C4.2946 9.40485 3.87805 9.82141 3.46149 10.2321C3.18574 10.5079 2.96279 10.502 2.68117 10.2321C2.49343 10.0502 2.30568 9.86834 2.1238 9.67473C1.92432 9.46351 1.91846 9.20537 2.09447 9.0235C2.27635 8.82988 2.54036 8.82403 2.76331 9.03524C2.85718 9.12325 2.93345 9.2347 3.05666 9.38725V9.38137Z" fill="#F46524"/>
</svg>
