<svg width="24" height="24" viewBox="0 0 24 24" fill="none" xmlns="http://www.w3.org/2000/svg">
<path d="M12 14V7" stroke="#F07933" stroke-width="1.5" stroke-linecap="round" stroke-linejoin="round"/>
<path d="M15 11L12 14L9 11" stroke="#F07933" stroke-width="1.5" stroke-linecap="round" stroke-linejoin="round"/>
<path d="M9 17H15" stroke="#F07933" stroke-width="1.5" stroke-linecap="round" stroke-linejoin="round"/>
<path d="M18.3641 5.63606C19.1998 6.47179 19.8627 7.46395 20.315 8.55588C20.7673 9.64782 21.0001 10.8182 21.0001 12.0001C21.0001 13.182 20.7673 14.3523 20.315 15.4442C19.8627 16.5362 19.1998 17.5283 18.3641 18.3641C17.5283 19.1998 16.5362 19.8627 15.4442 20.315C14.3523 20.7673 13.182 21.0001 12.0001 21.0001C10.8182 21.0001 9.64782 20.7673 8.55588 20.315C7.46395 19.8627 6.47179 19.1998 5.63606 18.3641C3.94822 16.6762 3 14.387 3 12.0001C3 9.61309 3.94822 7.32389 5.63606 5.63606C7.32389 3.94822 9.61309 3 12.0001 3C14.387 3 16.6762 3.94822 18.3641 5.63606" stroke="#F07933" stroke-width="1.5" stroke-linecap="round" stroke-linejoin="round"/>
</svg>
