<svg width="20" height="16" viewBox="0 0 20 16" fill="none" xmlns="http://www.w3.org/2000/svg">
<path d="M17 1H2.33333C1.97971 1 1.64057 1.14048 1.39052 1.39052C1.14048 1.64057 1 1.97971 1 2.33333V13.6667C1 14.0203 1.14048 14.3594 1.39052 14.6095C1.64057 14.8595 1.97971 15 2.33333 15H17C17.3536 15 17.6928 14.8595 17.9428 14.6095C18.1929 14.3594 18.3333 14.0203 18.3333 13.6667V2.33333C18.3333 1.97971 18.1929 1.64057 17.9428 1.39052C17.6928 1.14048 17.3536 1 17 1Z" stroke="black" stroke-width="1.71429" stroke-linecap="round" stroke-linejoin="round"/>
<path d="M1 2.66602L8.81333 7.36468C9.05333 7.50602 9.35467 7.58202 9.66667 7.58202C9.97867 7.58202 10.28 7.50602 10.52 7.36468L18.3333 2.66602" stroke="black" stroke-width="1.71429" stroke-linecap="round" stroke-linejoin="round"/>
</svg>
