<svg width="24" height="24" viewBox="0 0 24 24" fill="none" xmlns="http://www.w3.org/2000/svg">
<path d="M19.071 4.92899C22.976 8.83399 22.976 15.166 19.071 19.071C15.166 22.976 8.83399 22.976 4.92899 19.071C1.02399 15.166 1.02399 8.83399 4.92899 4.92899C8.83399 1.02399 15.166 1.02399 19.071 4.92899" stroke="#9F9F9F" stroke-width="1.5" stroke-linecap="round" stroke-linejoin="round"/>
<path d="M9.65101 14.346C11.834 16.53 14.6 17.922 16.245 16.284L16.644 15.885C16.7693 15.761 16.8657 15.6109 16.9265 15.4454C16.9872 15.2799 17.0108 15.1031 16.9955 14.9275C16.9803 14.7519 16.9265 14.5818 16.8381 14.4292C16.7497 14.2767 16.6288 14.1455 16.484 14.045C16.095 13.774 15.677 13.483 15.215 13.158C14.9828 12.9949 14.7007 12.9183 14.4178 12.9417C14.135 12.9651 13.8693 13.0869 13.667 13.286L13.216 13.734C12.6277 13.3535 12.0825 12.9103 11.59 12.412L11.588 12.41C11.0895 11.9177 10.6462 11.3725 10.266 10.784L10.714 10.333C11.126 9.919 11.177 9.263 10.842 8.785C10.516 8.323 10.225 7.905 9.95501 7.516C9.85425 7.37149 9.72298 7.25088 9.57047 7.16269C9.41796 7.07449 9.24795 7.02087 9.07244 7.00561C8.89693 6.99034 8.72021 7.01382 8.55477 7.07436C8.38933 7.13491 8.23921 7.23106 8.11501 7.356L7.71601 7.755C6.07901 9.4 7.47001 12.164 9.65301 14.349" stroke="#9F9F9F" stroke-width="1.5" stroke-linecap="round" stroke-linejoin="round"/>
</svg>
