<svg width="30" height="34" viewBox="0 0 30 34" fill="none" xmlns="http://www.w3.org/2000/svg">
<path d="M4.9559 0.617188C9.87383 0.617188 14.7918 0.617188 19.7097 0.617188C20.4247 0.791373 20.9305 1.27909 21.4275 1.78423C23.0145 3.39545 24.6102 4.99796 26.2146 6.58306C26.7901 7.15787 27.0604 7.81107 27.0517 8.62103C27.0343 10.7461 27.043 12.8799 27.043 15.0049C27.043 15.1356 27.043 15.2575 27.043 15.3882C27.1651 15.4143 27.2436 15.4404 27.3308 15.4491C28.7259 15.7278 29.7287 16.8426 29.7461 18.2535C29.7723 21.2147 29.7723 24.1845 29.7461 27.1457C29.7287 28.574 28.7259 29.7062 27.3395 29.9675C27.2436 29.9849 27.1564 30.0111 27.0517 30.0459C27.0517 30.5598 27.0517 31.0562 27.0517 31.5613C27.043 33.0593 26.1013 33.9999 24.6015 33.9999C18.2535 33.9999 11.8968 33.9999 5.54884 33.9999C4.03161 33.9999 3.08987 33.0506 3.08115 31.5439C3.08115 31.0475 3.08115 30.551 3.08115 30.0459C2.97652 30.0198 2.88932 29.9936 2.81084 29.9762C1.40696 29.6975 0.412913 28.5566 0.404193 27.1283C0.386753 24.1845 0.386753 21.2408 0.404193 18.2971C0.412913 16.9645 1.32849 15.8497 2.60157 15.5101C2.75852 15.4665 2.91548 15.4404 3.08115 15.4056C3.08115 15.2662 3.08115 15.1443 3.08115 15.0224C3.08115 13.2195 3.08115 11.4167 3.08115 9.61389C3.08115 7.41044 3.08115 5.20699 3.08115 2.99483C3.08115 1.81907 3.71769 1.0004 4.85126 0.678153C4.88614 0.669443 4.92102 0.634606 4.9559 0.617188ZM25.0636 15.3969C25.0723 15.3272 25.0898 15.2662 25.0898 15.214C25.0898 12.967 25.0985 10.72 25.0811 8.47297C25.0811 8.31621 24.9677 8.1246 24.8543 8.00267C23.1453 6.26952 21.4188 4.55379 19.701 2.82064C19.5179 2.63774 19.3348 2.55936 19.0732 2.55936C14.5825 2.56807 10.0918 2.56807 5.60116 2.56807C5.11285 2.56807 5.0431 2.63774 5.0431 3.13417C5.0431 7.0969 5.0431 11.0596 5.0431 15.0311C5.0431 15.1443 5.0431 15.2662 5.0431 15.3969C11.7224 15.3969 18.3756 15.3969 25.0636 15.3969ZM15.0708 17.3652C11.2167 17.3652 7.37127 17.3652 3.51714 17.3652C2.71492 17.3652 2.3487 17.731 2.3487 18.5409C2.3487 21.3192 2.3487 24.1062 2.3487 26.8844C2.3487 27.6944 2.71492 28.0602 3.52586 28.0602C11.2254 28.0602 18.9249 28.0602 26.6245 28.0602C27.4267 28.0602 27.7929 27.6857 27.7929 26.8844C27.7929 24.1062 27.7929 21.3192 27.7929 18.5409C27.7929 17.731 27.4267 17.3652 26.6157 17.3652C22.7703 17.3652 18.9249 17.3652 15.0708 17.3652ZM25.0898 30.0372C18.393 30.0372 11.7311 30.0372 5.03438 30.0372C5.03438 30.5075 5.03438 30.9604 5.03438 31.422C5.03438 31.9881 5.08669 32.0403 5.64476 32.0403C11.9317 32.0403 18.2186 32.0403 24.5056 32.0403C24.5666 32.0403 24.6364 32.0403 24.6974 32.0403C24.9503 32.049 25.0898 31.9271 25.0898 31.6745C25.0898 31.1433 25.0898 30.612 25.0898 30.0372Z" fill="black"/>
<path d="M9.19329 20.605C9.60312 20.0302 9.96935 19.499 10.353 18.9764C10.5972 18.6455 10.9372 18.4974 11.3558 18.5845C11.7743 18.6716 12.0621 18.9416 12.097 19.3509C12.1231 19.6209 12.0359 19.9431 11.8877 20.1696C11.4779 20.8228 11.0157 21.4411 10.5623 22.0595C10.4141 22.2511 10.4315 22.3817 10.571 22.5646C11.1291 23.3398 11.6784 24.1236 12.219 24.9074C12.655 25.5345 12.3586 26.3096 11.6348 26.4577C11.2076 26.5448 10.8675 26.3793 10.6233 26.0222C10.2135 25.4474 9.81239 24.8726 9.40256 24.2891C9.34153 24.202 9.28049 24.1236 9.19329 24.0104C8.7137 24.6897 8.25156 25.3429 7.78941 25.9961C7.54526 26.3445 7.21391 26.5361 6.78664 26.4577C6.04546 26.3271 5.74027 25.5345 6.17626 24.8987C6.70816 24.1323 7.24007 23.3572 7.79813 22.6169C7.98125 22.3643 7.96381 22.2076 7.78941 21.9724C7.3447 21.3802 6.93488 20.7705 6.50761 20.1696C6.13266 19.6383 6.20242 19.0635 6.66456 18.7238C7.13543 18.3842 7.71965 18.5061 8.10332 19.0374C8.46083 19.5512 8.80962 20.0564 9.19329 20.605Z" fill="black"/>
<path d="M23.6073 19.4116C23.18 19.9167 22.7702 20.4045 22.3604 20.8922C21.9244 20.6483 21.5058 20.4306 21.0175 20.5525C20.9216 20.5786 20.8257 20.6048 20.7472 20.6657C20.5554 20.8051 20.5728 20.988 20.7995 21.0751C21.3314 21.2928 21.872 21.5018 22.3952 21.7196C23.18 22.0418 23.8078 22.5382 24.0607 23.383C24.4357 24.6372 23.6334 25.9871 22.247 26.3529C20.8344 26.7187 19.6049 26.3268 18.5847 25.2904C18.2098 24.9072 18.2272 24.3062 18.5934 23.9404C18.9684 23.5572 19.57 23.5398 19.9711 23.9317C20.3112 24.2627 20.7036 24.4717 21.1745 24.524C21.4971 24.5588 21.8023 24.5152 22.0552 24.2801C22.2383 24.1059 22.247 23.9143 22.0377 23.7575C21.8982 23.653 21.7413 23.5746 21.5843 23.505C21.0524 23.2785 20.5118 23.0782 19.9886 22.8518C18.4539 22.1986 18.1749 20.2303 19.4741 19.1764C20.2153 18.5668 21.0873 18.4536 22.0028 18.6452C22.5958 18.7584 23.1364 19.0023 23.6073 19.4116Z" fill="black"/>
<path d="M15.3415 24.5328C15.6816 24.5328 15.9694 24.5328 16.2571 24.5328C16.85 24.5416 17.2773 24.9335 17.286 25.4822C17.2948 26.0308 16.8936 26.4576 16.3007 26.4837C15.6642 26.5012 15.0189 26.5012 14.3736 26.4837C13.772 26.4663 13.3796 26.0657 13.3796 25.456C13.3709 23.4877 13.3709 21.5281 13.3796 19.5598C13.3796 18.985 13.8243 18.5496 14.3649 18.5496C14.9143 18.5496 15.3328 18.985 15.3328 19.5598C15.3415 21.0753 15.3328 22.5994 15.3328 24.1148C15.3415 24.2454 15.3415 24.3674 15.3415 24.5328Z" fill="black"/>
</svg>
