<?xml version="1.0" encoding="UTF-8"?>
<svg xmlns="http://www.w3.org/2000/svg" version="1.1" viewBox="0 0 428.3 428.3">
  <!-- Generator: Adobe Illustrator 30.0.0, SVG Export Plug-In . SVG Version: 2.1.1 Build 123)  -->
  <defs>
    <style>
      .st0 {
        fill: #111;
      }

      .st1 {
        fill: #fff;
      }

      .st2 {
        fill: #e64b38;
      }

      .st3 {
        fill: #e2805d;
      }

      .st4 {
        isolation: isolate;
      }

      .st5 {
        fill: #fdeee6;
      }

      .st6 {
        fill: #fcbba4;
      }

      .st7, .st8 {
        mix-blend-mode: multiply;
      }

      .st9 {
        fill: #e4502a;
      }

      .st8 {
        opacity: .5;
      }
    </style>
  </defs>
  <g class="st4">
    <g id="Layer_1">
      <g>
        <g>
          <path class="st1" d="M113.8,293.8l66.8,37.8,118,9.4c15.1,1,28.1-10.4,29.1-25.4l13.9-207.5c1-15.1-10.4-28.1-25.4-29.1l-159.8-10.7c-15.1-1-28.1,10.4-29.1,25.4l-13.4,200.1Z"/>
          <path class="st5" d="M266.3,321.3c-14.5,1.7-20,.3-119-12.1l33.3,22.4,118,9.4c15.1,1,28.1-10.4,29.1-25.4l11.7-174.6c-3.9,1.3-7.6,3.7-10.3,6.8-5.9,6.8-8.2,16-10.1,24.8-5.6,26.9-8.8,54.3-9.3,81.8-.4,18.5-.3,39-12.7,52.7-7.7,8.6-19.2,13-30.6,14.3Z"/>
          <path class="st5" d="M298,233l-1.3,19.4c-.2,3.2-3,5.7-6.3,5.5l-132.5-8.9c-3.2-.2-5.7-3-5.5-6.3l1.3-19.4c.2-3.2,3-5.7,6.2-5.5l132.5,8.9c3.2.2,5.7,3,5.5,6.3Z"/>
          <path class="st9" d="M297.7,237.3l-1,15c-.2,3.2-3,5.7-6.3,5.5l-132.5-8.9c-3.2-.2-5.7-3-5.5-6.3v-2.1c10.1,1.6,54.7,11.7,117.6,12,6.2,0,12.9-.2,17.6-4.3,2.7-2.3,4.2-5.5,6.6-8.1.9-1,2.1-2,3.5-2.8Z"/>
          <path class="st5" d="M294.6,283.6l-1.3,19.4c-.2,3.2-3,5.7-6.3,5.5l-132.5-8.9c-3.2-.2-5.7-3-5.5-6.3l1.3-19.4c.2-3.2,3-5.7,6.3-5.5l132.5,8.9c3.2.2,5.7,3,5.5,6.3Z"/>
          <path class="st9" d="M294.3,287.9l-1,15c-.2,3.2-3,5.7-6.3,5.5l-132.5-8.9c-3.2-.2-5.7-3-5.5-6.3v-2.1c10.1,1.6,54.7,11.7,117.6,12,6.2,0,12.9-.2,17.6-4.3,4-3.5,4.8-7.8,10.1-10.9Z"/>
          <path class="st0" d="M113.4,294.7c-.4-.2-.6-.6-.6-1l13.4-200.1c1-15.6,14.6-27.4,30.2-26.4l159.8,10.7c15.6,1,27.4,14.6,26.4,30.2l-13.9,207.5c-1,15.6-14.6,27.4-30.2,26.4l-118-9.4c-.4,0,25.7,4.7-67.1-37.9ZM114.9,293.1l66,37.4,117.8,9.4c14.5,1,27.1-10,28-24.5l13.9-207.5c1-14.5-10-27.1-24.5-28l-159.8-10.7c-14.5-1-27.1,10-28,24.5l-13.3,199.4Z"/>
          <path class="st0" d="M151.5,242.7l1.3-19.4c.3-3.8,3.5-6.7,7.3-6.4l132.5,8.9c3.8.3,6.7,3.5,6.4,7.3l-1.3,19.4c-.3,3.8-3.5,6.7-7.3,6.4l-132.5-8.9c-3.8-.3-6.7-3.5-6.4-7.3ZM292.4,227.7l-132.5-8.9c-2.7-.2-5,1.8-5.2,4.5l-1.3,19.4c-.2,2.7,1.9,5,4.5,5.2l132.5,8.9c2.7.2,5-1.9,5.2-4.5l1.3-19.4c.2-2.7-1.8-5-4.5-5.2Z"/>
          <path class="st0" d="M148.1,293.3l1.3-19.4c.3-3.8,3.5-6.7,7.3-6.4l132.5,8.9c3.8.3,6.7,3.5,6.4,7.3l-1.3,19.4c-.3,3.8-3.5,6.7-7.3,6.4l-132.5-8.9c-3.8-.3-6.7-3.5-6.4-7.3ZM289.1,278.4l-132.5-8.9c-2.7-.2-5,1.9-5.2,4.5l-1.3,19.4c-.2,2.7,1.9,5,4.5,5.2l132.5,8.9c2.7.2,5-1.9,5.2-4.5l1.3-19.4h0c.2-2.7-1.8-5-4.5-5.2Z"/>
          <path class="st5" d="M284.8,153.2c-2,29.7-27.7,52-57.2,50.1-29.6-2-52.1-27.6-50.1-57.2,2-29.6,27.6-52.1,57.3-50.1,29.6,2,52,27.6,50.1,57.3Z"/>
          <path class="st9" d="M274.4,181.6c-22.3,30.1-67.5,28.8-88.1-2.3,4.6-3.7,9.5-6.8,15-9.3,6.3-2.9,10.6-3.7,10.6-3.7,20.2-6.6,41.9,1.2,59.8,12.8,0,0,0,0,0,0,1,.7,1.9,1.5,2.7,2.3Z"/>
          <path class="st2" d="M274.4,181.6c-22.3,30.1-67.5,28.8-88.1-2.3.7-.5,1.4-1.1,2-1.6,2.2.1,4,1.7,5.6,3.2,15.2,13.1,36.8,15.9,54.9,7.1,6.2-3.1,11.9-7.6,13.3-14.4,3.3,1.7,6.5,3.6,9.6,5.6,0,0,0,0,0,0,1,.7,1.9,1.5,2.7,2.3Z"/>
          <path class="st6" d="M234.2,177.3c-5.4,1.8-13.6-7.6-14.5-13.3-.8-5.3-.6-11.2-.6-15.5l1.6.2c1.9,7.9,9.1,12,17.1,11.4-.4,7.2-1.4,16.4-3.6,17.1Z"/>
          <path class="st0" d="M219.2,164.2c0-.3.1-.5.4-.6.3,0,.5.1.6.4.8,5.4,8.8,14.5,13.8,12.8.4-.1,1.9-1.4,2.9-11.6,0-.7,1.1-.6,1,0-1,10.4-2.5,12.1-3.6,12.4-5.8,1.9-14.2-7.8-15.1-13.7Z"/>
          <path class="st6" d="M249.4,145.4c-.3,9.7-5,15.9-15.3,14.8-8-.9-14.4-7-13.8-16.7.7-9.7,3.8-18.7,11.9-18.2,8,.5,17.7,4.6,17.3,20.1Z"/>
          <path class="st0" d="M250.8,133.2c-2.8,6.2-8.6,4-26.9-2,0,0,3.7,5.3-2.5,11.9,0,0-3.2-6.3-7-2.1,0,0-6-25.9,7.4-21,0,0-4.5-6.1,9.8-4.7,14.3,1.4,24.1,7.2,19.2,17.9Z"/>
          <path class="st3" d="M237.8,160.3s-6.4.4-10.9-2.5c-.5-.3-1.1.2-.8.7,1.2,2.3,4.1,5.9,11.4,5.8l.3-4Z"/>
          <path class="st0" d="M234.4,141c-.2-.2-.3-.5,0-.7,1.1-1.3,3-1.5,4.3-.5.2.2.3.5,0,.7-.2.2-.5.2-.7,0-.9-.7-2.2-.6-2.9.3-.2.2-.5.3-.7,0Z"/>
          <path class="st0" d="M243.4,141.2s0,0-.1,0c-.2-.2-.3-.5,0-.7.5-.6,1.2-1,2.1-1.1.8,0,1.6.1,2.3.7.2.2.3.5,0,.7-.2.2-.5.2-.7,0-.4-.3-1-.5-1.5-.4-.6,0-1,.3-1.4.8-.1.2-.4.2-.6.1Z"/>
          <path class="st3" d="M241.6,146.4c.8.2,1,.1,1,.1.4-.4-.3-2.9-1.3-5-.1-.2,0-.5.2-.7.2-.1.5,0,.7.2.6,1.1,2.3,4.9,1.1,6.2-.3.3-.9.4-1.9.1-.6-.2-.4-1.1.2-1Z"/>
          <path class="st3" d="M237.8,150.3c0-.4.3-.7.7-.5h0s3.6,1.6,6.8-.1c.4-.2.8.1.7.5-.2,1.6-1.4,4.7-4.2,4.4-2.3-.2-3.8-2.3-4.1-4.3ZM239,151c.3,1,1.1,2.4,2.9,2.6,1.8.2,2.6-1.5,2.9-2.6-2.3.9-4.6.4-5.9,0Z"/>
          <path class="st0" d="M246.6,142.5c0,.5-.4.8-.7.8-.4,0-.6-.4-.6-.9,0-.5.4-.8.7-.8.4,0,.6.4.6.9Z"/>
          <path class="st0" d="M237.6,142.2c0,.5-.4.8-.7.8-.4,0-.6-.4-.6-.9,0-.5.4-.8.7-.8.4,0,.6.4.6.9Z"/>
          <path class="st0" d="M176.5,146c2-30.1,28.2-53,58.3-51,30.1,2,53,28.2,51,58.3h0c-2,30-27.8,53-58.3,51-30.8-2.1-53-28.7-51-58.3ZM234.7,97c-29-1.9-54.2,20.1-56.2,49.1-1.9,28.8,19.7,54.2,49.1,56.2,29.3,2,54.2-20.2,56.2-49.1h0c2-29.2-20.2-54.3-49.1-56.2Z"/>
          <path class="st6" d="M223.6,142.6c.5,3.3-1.2,6.3-3.7,6.7-2.6.4-5.1-1.9-5.6-5.2-.5-3.3,1.2-6.3,3.7-6.7,2.6-.4,5.1,1.9,5.6,5.2Z"/>
          <path class="st3" d="M219.2,144.4c-.4-.2-.3-.6-.4-1.7,0-.3.2-.5.4-.6.3,0,.5.2.6.4v1.3c.2.3,0,.5-.3.6,0,0-.2,0-.3,0Z"/>
          <path class="st1" d="M183.7,235.1c-.2,3.6-3.3,6.3-6.9,6-3.6-.2-6.3-3.3-6-6.9.2-3.6,3.3-6.3,6.9-6,3.6.2,6.3,3.3,6,6.9Z"/>
          <path class="st5" d="M183.7,235.1c-.2,3.6-3.3,6.3-6.9,6-2.5-.2-4.5-1.7-5.5-3.8,5.3,3.9,12.5-1.9,9.7-7.9,1.7,1.3,2.8,3.4,2.6,5.7Z"/>
          <path class="st0" d="M169.8,234.2c.3-4.1,3.8-7.2,8-7,4.1.3,7.2,3.8,7,8h0c-.3,4.1-3.8,7.2-8,7-4.1-.3-7.2-3.9-7-8ZM177.6,229.2c-3-.2-5.6,2.1-5.8,5.1-.2,3,2.1,5.6,5.1,5.8,3,.2,5.6-2.1,5.8-5.1.2-3-2.1-5.6-5.1-5.8Z"/>
          <path class="st1" d="M207.7,236.7c-.2,3.6-3.3,6.3-6.9,6-3.6-.2-6.3-3.3-6-6.9.2-3.6,3.3-6.3,6.9-6,3.6.2,6.3,3.3,6,6.9Z"/>
          <path class="st5" d="M207.7,236.7c-.2,3.6-3.3,6.3-6.9,6-2.5-.2-4.5-1.7-5.5-3.8,5.3,3.9,12.5-1.9,9.7-7.9,1.7,1.3,2.8,3.4,2.6,5.7Z"/>
          <path class="st0" d="M193.8,235.8c.3-4.1,3.8-7.2,8-7,4.1.3,7.2,3.8,7,8h0c-.3,4.1-3.8,7.2-8,7-4.1-.3-7.2-3.8-7-8ZM201.6,230.8c-3-.2-5.6,2.1-5.8,5.1-.2,3,2.1,5.6,5.1,5.8,3,.2,5.6-2.1,5.8-5.1h0c.2-3-2.1-5.6-5.1-5.8Z"/>
          <path class="st1" d="M231.7,238.3c-.2,3.6-3.3,6.3-6.9,6-3.6-.2-6.3-3.3-6-6.9.2-3.6,3.3-6.3,6.9-6,3.6.2,6.3,3.3,6,6.9Z"/>
          <path class="st5" d="M231.7,238.3c-.2,3.6-3.3,6.3-6.9,6-2.5-.2-4.5-1.7-5.5-3.8,5.3,3.9,12.5-1.9,9.7-7.9,1.7,1.3,2.8,3.4,2.6,5.7Z"/>
          <path class="st0" d="M217.8,237.4c.1-2,1-3.8,2.5-5.1,1.5-1.3,3.4-2,5.4-1.8,4.1.3,7.2,3.8,7,8h0c-.3,4.1-3.8,7.2-8,7-4.1-.3-7.2-3.8-7-8ZM225.6,232.4c-1.5,0-2.9.4-4,1.3-1.1,1-1.8,2.3-1.9,3.8-.2,3,2.1,5.6,5.1,5.8,3,.2,5.6-2.1,5.8-5.1h0c.2-3-2.1-5.6-5.1-5.8Z"/>
          <path class="st1" d="M255.7,239.9c-.2,3.6-3.3,6.3-6.9,6-3.6-.2-6.3-3.3-6-6.9.2-3.6,3.3-6.3,6.9-6,3.6.2,6.3,3.3,6,6.9Z"/>
          <path class="st5" d="M255.7,239.9c-.2,3.6-3.3,6.3-6.9,6-2.5-.2-4.5-1.7-5.5-3.8,5.3,3.9,12.5-1.9,9.7-7.9,1.7,1.3,2.8,3.4,2.6,5.7Z"/>
          <path class="st0" d="M241.8,239c.3-4.1,3.8-7.2,8-7,4.1.3,7.2,3.8,7,8h0c-.3,4.1-3.8,7.2-8,7-4.1-.3-7.2-3.9-7-8ZM249.6,234c-3-.2-5.6,2.1-5.8,5.1-.2,3,2.1,5.6,5.1,5.8,3,.2,5.6-2.1,5.8-5.1.2-3-2.1-5.6-5.1-5.8Z"/>
          <path class="st1" d="M279.7,241.5c-.2,3.6-3.3,6.3-6.9,6-3.6-.2-6.3-3.3-6-6.9.2-3.6,3.3-6.3,6.9-6,3.6.2,6.3,3.3,6,6.9Z"/>
          <path class="st5" d="M279.7,241.5c-.2,3.6-3.3,6.3-6.9,6-2.5-.2-4.5-1.7-5.5-3.8,5.3,3.9,12.5-1.9,9.7-7.9,1.7,1.3,2.8,3.4,2.6,5.7Z"/>
          <path class="st0" d="M265.8,240.6c.3-4.1,3.8-7.2,8-7,4.1.3,7.2,3.9,7,8h0c-.3,4.1-3.8,7.2-8,7-4.1-.3-7.2-3.8-7-8ZM273.6,235.6c-3-.2-5.6,2.1-5.8,5.1-.2,3,2.1,5.6,5.1,5.8,3,.2,5.6-2.1,5.8-5.1h0c.2-3-2.1-5.6-5.1-5.8Z"/>
          <path class="st1" d="M180.3,285.7c-.2,3.6-3.3,6.3-6.9,6-3.6-.2-6.3-3.3-6-6.9.2-3.6,3.3-6.3,6.9-6,3.6.2,6.3,3.3,6,6.9Z"/>
          <path class="st5" d="M180.3,285.7c-.2,3.6-3.3,6.3-6.9,6-2.5-.2-4.5-1.7-5.5-3.8,5.3,3.9,12.5-1.9,9.7-7.9,1.7,1.3,2.8,3.4,2.6,5.7Z"/>
          <path class="st0" d="M166.4,284.8c.3-4.1,3.8-7.2,8-7,4.1.3,7.2,3.9,7,8h0c-.3,4.1-3.8,7.2-8,7-4.1-.3-7.2-3.8-7-8ZM174.2,279.8c-3-.2-5.6,2.1-5.8,5.1-.2,3,2.1,5.6,5.1,5.8,3,.2,5.6-2.1,5.8-5.1.2-3-2.1-5.6-5.1-5.8Z"/>
          <path class="st1" d="M204.3,287.3c-.2,3.6-3.3,6.3-6.9,6-3.6-.2-6.3-3.3-6-6.9.2-3.6,3.3-6.3,6.9-6,3.6.2,6.3,3.3,6,6.9Z"/>
          <path class="st5" d="M204.3,287.3c-.2,3.6-3.3,6.3-6.9,6-2.5-.2-4.5-1.7-5.5-3.8,5.3,3.9,12.5-1.9,9.7-7.9,1.7,1.3,2.8,3.4,2.6,5.7Z"/>
          <path class="st0" d="M190.4,286.4c.3-4.1,3.8-7.2,8-7,4.1.3,7.2,3.8,7,8-.3,4.1-3.8,7.2-8,7-4.1-.3-7.2-3.8-7-8ZM198.2,281.4c-3-.2-5.6,2.1-5.8,5.1-.2,3,2.1,5.6,5.1,5.8,3,.2,5.6-2.1,5.8-5.1h0c.2-3-2.1-5.6-5.1-5.8Z"/>
          <path class="st1" d="M228.3,288.9c-.2,3.6-3.3,6.3-6.9,6-3.6-.2-6.3-3.3-6-6.9.2-3.6,3.3-6.3,6.9-6,3.6.2,6.3,3.3,6,6.9Z"/>
          <path class="st5" d="M228.3,288.9c-.2,3.6-3.3,6.3-6.9,6-2.5-.2-4.5-1.7-5.5-3.8,4,3,10,.4,10.3-4.8,0-1.1-.1-2.2-.6-3.1,1.7,1.3,2.8,3.4,2.6,5.7Z"/>
          <path class="st0" d="M214.4,288c.3-4.1,3.8-7.2,8-7,4.1.3,7.2,3.8,7,8h0c-.3,4.1-3.8,7.2-8,7-4.1-.3-7.2-3.8-7-8ZM222.2,283c-3-.2-5.6,2.1-5.8,5.1-.2,3,2.1,5.6,5.1,5.8,3,.2,5.6-2.1,5.8-5.1h0c.2-3-2.1-5.6-5.1-5.8Z"/>
          <path class="st1" d="M252.3,290.5c-.2,3.6-3.3,6.3-6.9,6-3.6-.2-6.3-3.3-6-6.9.2-3.6,3.3-6.3,6.9-6,3.6.2,6.3,3.3,6,6.9Z"/>
          <path class="st5" d="M252.3,290.5c-.2,3.6-3.3,6.3-6.9,6-2.5-.2-4.5-1.7-5.5-3.8,1,.7,2.1,1.2,3.4,1.2,4.9.3,8.4-4.8,6.3-9.2,1.7,1.3,2.8,3.4,2.6,5.7Z"/>
          <path class="st0" d="M240.9,284.5c5-4.4,12.8-.4,12.4,6.1h0c-.3,4.1-3.8,7.2-8,7-6.7-.4-9.4-8.8-4.4-13.1ZM242.2,286c-2.3,2-2.5,5.4-.5,7.7,3.2,3.6,9.3,1.6,9.6-3.2.3-4.8-5.4-7.7-9.1-4.5Z"/>
          <path class="st1" d="M276.3,292.1c-.2,3.6-3.3,6.3-6.9,6-3.6-.2-6.3-3.3-6-6.9.2-3.6,3.3-6.3,6.9-6,3.6.2,6.3,3.3,6,6.9Z"/>
          <path class="st5" d="M276.3,292.1c-.2,3.6-3.3,6.3-6.9,6-2.5-.2-4.5-1.7-5.5-3.8,4,3,10,.4,10.3-4.8,0-1.1-.1-2.2-.6-3.1,1.7,1.3,2.8,3.4,2.6,5.7Z"/>
          <path class="st0" d="M262.4,291.2c.3-4.1,3.8-7.2,8-7,4.1.3,7.2,3.9,7,8h0c-.3,4.1-3.8,7.2-8,7-4.1-.3-7.2-3.8-7-8ZM270.2,286.2c-3-.2-5.6,2.1-5.8,5.1-.2,3,2.1,5.6,5.1,5.8,3,.2,5.6-2.1,5.8-5.1h0c.2-3-2.1-5.6-5.1-5.8Z"/>
          <g class="st7">
            <path class="st9" d="M274.4,181.6c-23.6,31.9-72.3,28.2-90.8-6.7,22.4,25.9,63.3,24.6,83.9-3.3,12.2-16.6,13.9-38.9,4.2-57.2,16.8,19.3,17.4,47.3,2.7,67.2Z"/>
          </g>
        </g>
        <g>
          <path class="st9" d="M182.6,354l-80.7,7.1c-11.6,1-19.8-11-14.7-21.4l34.5-70.7c4.9-10.1,18.9-11.3,25.5-2.2,57.3,78.8,44.3,60.9,46.3,63.6,6.8,9.4.8,22.6-10.8,23.6Z"/>
          <g class="st8">
            <path class="st9" d="M182.6,354l-80.7,7.1c-8.2.7-14.8-5.2-16-12.4,10.9-5.3,23.8-.6,34.4,1,10.2,1.5,20.7.9,30.6-1.9,7.4-2.1,15-5.8,18.5-12.6,2.7-5.2,2.6-11.5,1.8-17.3-1.6-11.5-5.3-22.5-11.1-32.6-.7-1.1-1.3-2.2-1.8-3.3l35.2,48.4c6.8,9.4.8,22.6-10.8,23.6Z"/>
          </g>
          <g>
            <path class="st1" d="M144.2,293.4l-.9,23.2c0,1.9-1.5,3.4-3.4,3.6h-1.6c-1.9.3-3.6-1-4-2.8l-5-22.6c-.5-2.2,1.1-4.4,3.4-4.6l7.5-.7c2.3-.2,4.2,1.6,4.1,3.9Z"/>
            <path class="st1" d="M144.6,331.6h0c-.2-2.3-2.2-4-4.5-3.8h-.8c-2.3.3-4,2.3-3.8,4.6h0c.2,2.3,2.2,4,4.5,3.8h.8c2.3-.3,4-2.3,3.8-4.6Z"/>
          </g>
          <g>
            <path class="st5" d="M144.2,293.4l-.9,23.2c0,1.9-1.5,3.4-3.4,3.6h-1.6c-1.6.3-3.1-.6-3.8-2,.8.1,1.2,0,2.6-.1,1.9-.2,3.4-1.7,3.4-3.6.8-23.9,1.3-23.4.6-24.9,1.8.3,3.2,1.9,3.1,3.9Z"/>
            <path class="st5" d="M144.6,331.6c.2,2.3-1.5,4.3-3.8,4.5-.4,0-2.2.5-3.8-.9-.4-.4-.8-.8-1-1.3.9.2,1.5,0,2.1,0,3-.3,4.7-3.5,3.3-6.1,1.7.4,3.1,1.9,3.3,3.7Z"/>
          </g>
        </g>
      </g>
    </g>
  </g>
</svg>