<svg width="19" height="19" viewBox="0 0 19 19" fill="none" xmlns="http://www.w3.org/2000/svg">
<g clip-path="url(#clip0_53_9459)">
<path d="M11.4792 10.6873L15.6015 6.56513C15.7499 6.4167 15.8334 6.21537 15.8334 6.00542V3.95817C15.8334 3.74821 15.75 3.54684 15.6015 3.39838C15.4531 3.24991 15.2517 3.1665 15.0417 3.1665H3.95841C3.74845 3.1665 3.54709 3.24991 3.39862 3.39838C3.25016 3.54684 3.16675 3.74821 3.16675 3.95817V6.00542C3.16675 6.21521 3.24987 6.41709 3.39871 6.56513L7.52091 10.6873" stroke="black" stroke-width="1.5" stroke-linecap="round" stroke-linejoin="round"/>
<path d="M7.521 10.6875V15.6346C7.521 16.2782 8.12583 16.7509 8.75045 16.5949L10.7296 16.1001C10.9438 16.0466 11.1339 15.923 11.2698 15.749C11.4056 15.575 11.4794 15.3606 11.4793 15.1398V10.6875" stroke="black" stroke-width="1.5" stroke-linecap="round" stroke-linejoin="round"/>
</g>
<defs>
<clipPath id="clip0_53_9459">
<rect width="19" height="19" fill="white"/>
</clipPath>
</defs>
</svg>
