<svg width="37" height="30" viewBox="0 0 37 30" fill="none" xmlns="http://www.w3.org/2000/svg">
<path d="M25.2998 15C28.6056 15 31.2998 17.6942 31.2998 21C31.2998 24.3058 28.6056 27 25.2998 27C21.994 27 19.2998 24.3058 19.2998 21C19.2998 17.6942 21.994 15 25.2998 15ZM25.2998 25.8387C27.9708 25.8387 30.1385 23.671 30.1385 21C30.1385 18.329 27.9708 16.1613 25.2998 16.1613C22.6288 16.1613 20.4611 18.329 20.4611 21C20.4611 23.671 22.6288 25.8387 25.2998 25.8387Z" fill="#E4502A" stroke="#E4502A" stroke-width="0.3"/>
<path d="M25.1504 5C25.5604 5 25.9004 5.49867 25.9004 6.1L25.9004 14.9C25.9004 15.5013 25.5604 16 25.1504 16C24.7404 16 24.4004 15.5013 24.4004 14.9L24.4004 6.1C24.4004 5.49867 24.7404 5 25.1504 5Z" fill="#E4502A"/>
<path d="M25.6783 4.53063L29.921 8.77327C30.2109 9.06318 30.2109 9.54401 29.921 9.83393C29.631 10.1238 29.1502 10.1238 28.8603 9.83393L24.6177 5.59129C24.3277 5.30137 24.3277 4.82054 24.6177 4.53063C24.9076 4.24071 25.3884 4.24071 25.6783 4.53063Z" fill="#E4502A"/>
<path d="M25.5582 5.5914L21.3156 9.83404C21.0257 10.124 20.5449 10.124 20.2549 9.83404C19.965 9.54413 19.965 9.06329 20.2549 8.77338L24.4976 4.53074C24.7875 4.24083 25.2683 4.24083 25.5582 4.53074C25.8482 4.82065 25.8482 5.30149 25.5582 5.5914Z" fill="#E4502A"/>
<path d="M11.7002 15C8.39439 15 5.7002 12.3058 5.7002 9C5.7002 5.69419 8.39439 3 11.7002 3C15.006 3 17.7002 5.69419 17.7002 9C17.7002 12.3058 15.006 15 11.7002 15ZM11.7002 4.16129C9.02923 4.16129 6.86149 6.32903 6.86149 9C6.86149 11.671 9.02923 13.8387 11.7002 13.8387C14.3712 13.8387 16.5389 11.671 16.5389 9C16.5389 6.32903 14.3712 4.16129 11.7002 4.16129Z" fill="#E4502A" stroke="#E4502A" stroke-width="0.3"/>
<path d="M11.8496 25.5C11.4396 25.5 11.0996 24.9787 11.0996 24.35L11.0996 15.15C11.0996 14.5213 11.4396 14 11.8496 14C12.2596 14 12.5996 14.5213 12.5996 15.15L12.5996 24.35C12.5996 24.9787 12.2596 25.5 11.8496 25.5Z" fill="#E4502A"/>
<path d="M8.75 20L14.75 20C15.16 20 15.5 20.34 15.5 20.75C15.5 21.16 15.16 21.5 14.75 21.5L8.75 21.5C8.34 21.5 8 21.16 8 20.75C8 20.34 8.34 20 8.75 20Z" fill="#E4502A"/>
</svg>
