<svg width="24" height="24" viewBox="0 0 24 24" fill="none" xmlns="http://www.w3.org/2000/svg">
<g clip-path="url(#clip0_88_1264)">
<path d="M9.5 20.5V16C9.5 15.337 9.76339 14.7011 10.2322 14.2323C10.7011 13.7634 11.337 13.5 12 13.5C12.663 13.5 13.2989 13.7634 13.7678 14.2323C14.2366 14.7011 14.5 15.337 14.5 16V20.5H20V11.914C19.9999 11.3836 19.7891 10.875 19.414 10.5L12.707 3.79302C12.6142 3.70007 12.504 3.62633 12.3827 3.57602C12.2614 3.52571 12.1313 3.49982 12 3.49982C11.8687 3.49982 11.7386 3.52571 11.6173 3.57602C11.496 3.62633 11.3858 3.70007 11.293 3.79302L4.586 10.5C4.2109 10.875 4.00011 11.3836 4 11.914V20.5H9.5Z" stroke="#898A8D" stroke-width="1.5" stroke-linecap="round" stroke-linejoin="round"/>
</g>
<defs>
<clipPath id="clip0_88_1264">
<rect width="24" height="24" fill="white"/>
</clipPath>
</defs>
</svg>
