<svg width="16" height="16" viewBox="0 0 16 16" fill="none" xmlns="http://www.w3.org/2000/svg">
<g clip-path="url(#clip0_491_5885)">
<path d="M15.2594 14.8642C15.3519 14.8694 15.4267 14.8694 15.5014 14.8787C15.8109 14.9202 16.0145 15.1619 15.9989 15.468C15.9844 15.7594 15.7559 15.9794 15.4474 15.9856C15.0933 15.9918 14.7381 15.9877 14.3839 15.9877C11.1613 15.9918 7.9397 15.997 4.71706 15.9991C3.67643 15.9991 2.63476 15.9918 1.59412 15.9877C1.26282 15.9866 0.931525 15.9897 0.600225 15.9877C0.246077 15.9845 0.00513227 15.7667 -0.00109906 15.4482C-0.0073304 15.1184 0.226345 14.8891 0.586724 14.8736C0.63242 14.8715 0.677078 14.8684 0.739392 14.8642V14.6526C0.739392 12.7117 0.739392 10.7719 0.739392 8.83102C0.739392 8.73766 0.739392 8.64534 0.742507 8.55198C0.773664 7.84243 1.14962 7.46173 1.86415 7.44409C2.41043 7.43061 2.95775 7.43994 3.50403 7.4389C3.56634 7.4389 3.62969 7.4389 3.7377 7.4389C3.7377 7.16608 3.72732 6.90675 3.74082 6.64845C3.75328 6.42853 3.77717 6.20758 3.8239 5.99285C4.00773 5.16193 4.5135 4.67853 5.36512 4.55094C5.75458 4.49285 6.15131 4.4804 6.54596 4.47003C7.02266 4.45654 7.49935 4.46691 7.97709 4.46691C8.0394 4.46691 8.10172 4.46691 8.18169 4.46691C8.18169 4.37666 8.18169 4.3082 8.18169 4.23974C8.18169 3.33932 8.17753 2.43891 8.1848 1.53849C8.18688 1.28953 8.20246 1.03745 8.24712 0.793677C8.3572 0.188906 8.84636 -0.130597 9.43211 0.0509387C9.81118 0.168159 10.1726 0.352806 10.5288 0.532266C11.6079 1.07376 12.6828 1.62563 13.7567 2.17853C13.9675 2.28745 14.1731 2.40986 14.3725 2.54057C14.9063 2.88911 15.1826 3.3943 15.2231 4.02397C15.248 4.41193 15.2574 4.80198 15.2574 5.18994C15.2605 8.34451 15.2584 11.4991 15.2584 14.6536V14.8642H15.2594ZM4.83234 14.8549H11.1603C11.1623 14.7989 11.1665 14.7532 11.1665 14.7076C11.1665 12.2211 11.1707 9.73455 11.1623 7.24803C11.1613 6.89637 11.1156 6.54264 11.0689 6.19202C11.0284 5.88393 10.8248 5.70758 10.5236 5.66505C10.2422 5.62563 9.95762 5.59139 9.67409 5.58828C8.60957 5.57895 7.54505 5.57998 6.48053 5.58413C6.20739 5.58517 5.93321 5.59866 5.66319 5.62874C5.13352 5.6889 4.94035 5.85281 4.89673 6.37978C4.84584 7.00322 4.8365 7.63185 4.83442 8.25737C4.82715 10.3891 4.8313 12.5219 4.8313 14.6536V14.8528L4.83234 14.8549ZM9.31683 1.16401V4.46691C9.38433 4.46691 9.44145 4.4638 9.49858 4.46691C9.88076 4.49285 10.2671 4.49285 10.6441 4.55198C11.5175 4.68787 12.0441 5.20239 12.1843 6.07169C12.2539 6.49907 12.2788 6.93787 12.2798 7.37252C12.2881 9.79575 12.284 12.218 12.284 14.6412V14.8611H14.143C14.143 14.7978 14.143 14.746 14.143 14.6941C14.143 11.3476 14.143 8.00115 14.1399 4.65467C14.1399 4.45758 14.1222 4.26048 14.1067 4.06339C14.0859 3.81131 13.9758 3.60696 13.7577 3.47106C13.5801 3.3611 13.4015 3.25115 13.2166 3.15571C12.365 2.71691 11.5113 2.28227 10.6576 1.84658C10.2235 1.62563 9.78937 1.40571 9.31683 1.16505V1.16401ZM3.70655 8.5665H1.86726V14.8621H3.70655V8.5665Z" fill="#F46524"/>
<path d="M7.98765 8.55394C7.75501 8.55394 7.52342 8.55602 7.29078 8.55394C6.94702 8.55083 6.70399 8.32054 6.70192 8.00104C6.69984 7.67842 6.93975 7.44191 7.28143 7.43983C7.76332 7.43672 8.24521 7.43672 8.7271 7.43983C9.05633 7.44191 9.29727 7.67946 9.29935 7.9917C9.30142 8.31328 9.05944 8.54979 8.71983 8.55394C8.47577 8.55705 8.23171 8.55394 7.98765 8.55394Z" fill="#F46524"/>
<path d="M7.98747 10.7854C7.74964 10.7854 7.51077 10.7885 7.27294 10.7854C6.94268 10.7802 6.70277 10.5468 6.7007 10.2335C6.69862 9.90987 6.93749 9.67335 7.27917 9.67128C7.76106 9.66817 8.24295 9.66817 8.72484 9.67128C9.05407 9.67335 9.29501 9.90987 9.29709 10.2221C9.29917 10.5437 9.05822 10.7802 8.71861 10.7854C8.47455 10.7885 8.23049 10.7854 7.98643 10.7854H7.98747Z" fill="#F46524"/>
<path d="M7.99372 13.0165C7.75589 13.0165 7.51702 13.0186 7.27919 13.0165C6.93958 13.0124 6.6976 12.7748 6.70071 12.4532C6.70279 12.1389 6.94166 11.9055 7.27296 11.9024C7.75485 11.8982 8.23674 11.8993 8.71863 11.9024C9.0572 11.9045 9.30022 12.1441 9.2971 12.4646C9.29503 12.7779 9.05408 13.0113 8.72382 13.0155C8.47976 13.0186 8.2357 13.0155 7.99164 13.0155L7.99372 13.0165Z" fill="#F46524"/>
</g>
<defs>
<clipPath id="clip0_491_5885">
<rect width="16" height="16" fill="white"/>
</clipPath>
</defs>
</svg>
