<svg width="11" height="11" viewBox="0 0 11 11" fill="none" xmlns="http://www.w3.org/2000/svg">
<path fill-rule="evenodd" clip-rule="evenodd" d="M1.60425 4.72893C1.60425 2.62066 3.36603 0.916626 5.49708 0.916626C7.63414 0.916626 9.39592 2.62066 9.39592 4.72893C9.39592 5.79132 9.00955 6.77762 8.3736 7.6136C7.67203 8.53574 6.80732 9.33917 5.834 9.96982C5.61123 10.1156 5.41019 10.1266 5.1657 9.96982C4.18684 9.33917 3.32212 8.53574 2.62656 7.6136C1.99016 6.77762 1.60425 5.79132 1.60425 4.72893ZM4.21409 4.84764C4.21409 5.55391 4.79041 6.10939 5.49706 6.10939C6.20418 6.10939 6.78605 5.55391 6.78605 4.84764C6.78605 4.14687 6.20418 3.56434 5.49706 3.56434C4.79041 3.56434 4.21409 4.14687 4.21409 4.84764Z" fill="black"/>
</svg>
