<svg width="10" height="10" viewBox="0 0 10 10" fill="none" xmlns="http://www.w3.org/2000/svg">
<path d="M5.0002 5.90418C4.1127 5.90418 3.3877 5.18335 3.3877 4.29168C3.3877 3.40002 4.1127 2.68335 5.0002 2.68335C5.8877 2.68335 6.6127 3.40418 6.6127 4.29585C6.6127 5.18752 5.8877 5.90418 5.0002 5.90418ZM5.0002 3.30835C4.45853 3.30835 4.0127 3.75002 4.0127 4.29585C4.0127 4.84168 4.45436 5.28335 5.0002 5.28335C5.54603 5.28335 5.9877 4.84168 5.9877 4.29585C5.9877 3.75002 5.54186 3.30835 5.0002 3.30835Z" fill="#E4502A"/>
<path d="M4.99971 9.48325C4.38304 9.48325 3.76221 9.24992 3.27887 8.78742C2.04971 7.60409 0.691374 5.71659 1.20387 3.47075C1.66637 1.43325 3.44554 0.520752 4.99971 0.520752C4.99971 0.520752 4.99971 0.520752 5.00387 0.520752C6.55804 0.520752 8.33721 1.43325 8.79971 3.47492C9.30804 5.72075 7.94971 7.60409 6.72054 8.78742C6.23721 9.24992 5.61637 9.48325 4.99971 9.48325ZM4.99971 1.14575C3.78721 1.14575 2.22887 1.79159 1.81637 3.60825C1.36637 5.57075 2.59971 7.26242 3.71637 8.33325C4.43721 9.02909 5.56637 9.02909 6.28721 8.33325C7.39971 7.26242 8.63304 5.57075 8.19137 3.60825C7.77471 1.79159 6.21221 1.14575 4.99971 1.14575Z" fill="#E4502A"/>
</svg>
