<?xml version="1.0" encoding="utf-8"?>
<!-- Generator: Adobe Illustrator 24.1.2, SVG Export Plug-In . SVG Version: 6.00 Build 0)  -->
<svg version="1.1" id="Layer_1" xmlns="http://www.w3.org/2000/svg" xmlns:xlink="http://www.w3.org/1999/xlink" x="0px" y="0px"
	 viewBox="0 0 2975.1 1127.4" style="enable-background:new 0 0 2975.1 1127.4;" xml:space="preserve">
<style type="text/css">
	.st0{fill:url(#SVGID_1_);}
	.st1{fill:url(#SVGID_2_);}
	.st2{fill:url(#SVGID_3_);}
	.st3{fill:#C22526;}
	.st4{fill:#FFFFFF;}
	.st5{fill:url(#SVGID_4_);}
	.st6{fill:url(#SVGID_5_);}
	.st7{fill:url(#SVGID_6_);}
	.st8{fill:url(#SVGID_7_);}
	.st9{fill:url(#SVGID_8_);}
	.st10{fill:url(#SVGID_9_);}
	.st11{fill:#F47A2B;}
</style>
<g>
	<g>
		<radialGradient id="SVGID_1_" cx="486.3316" cy="578.2039" r="1163.2874" gradientUnits="userSpaceOnUse">
			<stop  offset="0" style="stop-color:#FAA22C"/>
			<stop  offset="1" style="stop-color:#F15D32"/>
		</radialGradient>
		<path class="st0" d="M1102.9,432.1c80.7,292.3-90.9,594.6-383.2,675.3c-107.6,29.7-216.7,25.3-315.5-6.9
			C234.7,1045.4,95.3,908.9,44.4,724.3c-80.7-292.3,90.9-594.6,383.2-675.3c91.3-25.2,183.5-25.8,269.6-5.8c0,0,0,0,0.1,0.1
			C887.1,87.1,1047.4,231.1,1102.9,432.1z"/>
		<linearGradient id="SVGID_2_" gradientUnits="userSpaceOnUse" x1="549.2055" y1="1098.4192" x2="549.2055" y2="0">
			<stop  offset="0" style="stop-color:#D63C27"/>
			<stop  offset="1" style="stop-color:#F15D32"/>
		</linearGradient>
		<path class="st1" d="M1078.5,403.1c80.7,292.3-90.9,594.6-383.2,675.3c-107.6,29.7-216.7,25.3-315.5-6.9
			C210.3,1016.4,70.9,879.9,19.9,695.3c-80.7-292.3,90.9-594.6,383.2-675.3c91.3-25.2,183.5-25.8,269.6-5.8c0,0,0,0,0.1,0.1
			C862.7,58.2,1023,202.2,1078.5,403.1z"/>
		<linearGradient id="SVGID_3_" gradientUnits="userSpaceOnUse" x1="379.8083" y1="556.3062" x2="1098.411" y2="556.3062">
			<stop  offset="1.385225e-07" style="stop-color:#C63226"/>
			<stop  offset="1" style="stop-color:#D4422B"/>
		</linearGradient>
		<path class="st2" d="M1078.5,403.1c80.7,292.3-90.9,594.6-383.2,675.3c-107.6,29.7-216.7,25.3-315.5-6.9
			C963.2,462.1,678.5,22.8,672.8,14.2C862.7,58.2,1023,202.2,1078.5,403.1z"/>
		<g>
			<path class="st3" d="M859.1,673c0-1.7,0-3.3-0.8-5c-1.7-10.7-2.5-24-6.6-36.4l26.5-30.6c-1.7-6.6-5-13.2-8.3-19.8
				c-1.7-5-5-9.9-8.3-14.9l-0.8-0.8l-7.4-11.6v-0.8c-2.5-3.3-5-6.6-7.4-9.9c-5.8-5.8-12.4-9.9-19.8-13.2
				c-16.5-6.6-35.5-5.8-51.3,4.1c-1.7,0.8-1.7,1.7-2.5,1.7c-8.3,5-14.1,12.4-18.2,20.7c-1.7,5-4.1,9.9-5,14.9
				c-1.7,8.3-1.7,16.5,0.8,24.8c3.3,4.1,7.4,9.1,9.9,13.2c0.8,0.8,1.7,2.5,2.5,3.3c0,0,0,0,0.8,0.8l4.1,6.6c0.8,0.8,1.7,1.7,1.7,2.5
				c0.8,1.7,1.7,3.3,2.5,5c1.7,3.3,3.3,6.6,4.1,10.7v0.8c4.1,11.6,5.8,24.8,5.8,38c0,2.5,0,5.8,0,8.3c-0.8,14.1-4.1,27.3-9.1,39.7
				c-6.6,15.7-16.5,29.8-28.9,41.3c-10.7,9.9-23.1,18.2-37.2,24c-14.1,5.8-29.8,9.1-46.3,9.1c-1.7,0-3.3,0-4.1,0
				c-14.9,0-29.8-3.3-43-9.1c-14.1-5.8-25.6-14.1-36.4-24c-0.8,0-0.8-0.8-1.7-1.7c-2.5-2.5-5-5-7.4-8.3c-1.7-1.7-2.5-2.5-3.3-4.1
				c-0.8-0.8-1.7-1.7-1.7-2.5c-0.8-1.7-2.5-2.5-3.3-4.1c-0.8-1.7-1.7-2.5-2.5-3.3c-0.8-1.7-1.7-2.5-2.5-4.1c-2.5-3.3-3.3-5.8-5-9.9
				c-1.7-4.1-3.3-8.3-5-12.4c-1.7-4.1-2.5-8.3-3.3-12.4c-0.8-2.5-0.8-5-1.7-7.4c-0.8-2.5-0.8-4.1-0.8-6.6c0-4.1-0.8-8.3-0.8-12.4
				c0-40.5,19.8-76.9,50.4-99.2c1.7-1.7,3.3-2.5,5-3.3c1.7-0.8,2.5-1.7,4.1-2.5c18.2-10.7,39.7-17.4,62-17.4
				c14.1,0,26.5,2.5,38.9,6.6c9.1,0,17.4-2.5,25.6-7.4h0.8c5-2.5,8.3-5,12.4-9.9h0.8l1.7-1.7c5.8-5.8,9.9-14.1,11.6-22.3
				c0.8-0.8,1.7-1.7,1.7-2.5c5-20.7-1.7-40.5-15.7-53.7c-7.4-7.4-15.7-11.6-26.5-14.9c-10.7-2.5-21.5-5-31.4-5
				c-40.5-4.1-81.8,2.5-118.2,20.7c-7.4,2.5-14.9,6.6-21.5,10.7V286.1c0-30.6-25.6-57-57-57s-57,25.6-57,57v390.2
				c0,11.6,0.8,22.3,3.3,33.9c0,0.8,0,1.7,0.8,3.3v0.8c1.7,10.7,4.1,20.7,7.4,31.4v0.8c0,0.8,0,0.8,0.8,1.7c0,0.8,0,0.8,0.8,1.7
				c2.5,7.4,5.8,14.1,9.1,21.5c2.5,5.8,5,11.6,7.4,16.5c0.8,1.7,2.5,4.1,3.3,5.8c0,0,0,0,0,0.8c0,0,0,0.8,0.8,0.8l1.7,1.7
				c0,0.8,0.8,0.8,0.8,1.7c0.8,1.7,1.7,3.3,3.3,5l0.8,0.8c0,0,0,0,0,0.8c1.7,2.5,3.3,4.1,5,6.6c3.3,5,6.6,9.1,10.7,13.2
				c5,5,9.1,9.9,14.1,14.9l38.9-9.9c10.7,9.1,20.7,15.7,30.6,21.5l3.3,36.4c24.8,11.6,52.9,17.4,81,18.2l22.3-37.2
				c14.1-0.8,27.3-2.5,40.5-6.6l33.1,27.3c26.5-11.6,50.4-26.5,70.3-45.5l-10.7-40.5c9.1-11.6,18.2-22.3,24-33.9l42.2-3.3
				c9.9-23.1,16.5-48.8,18.2-75.2L859.1,673z"/>
			<path class="st3" d="M288.7,468c-11.6,1.7-23.1,5-32.2,14.1c-24,19.8-27.3,56.2-6.6,80.2l153.8,179.4V635
				c0-21.5-8.3-43-21.5-59.5L288.7,468z"/>
			<path class="st3" d="M336.6,488.7l67,77.7V452.3c0-39.7-14.1-77.7-39.7-107.5c-1.7-1.7-3.3-3.3-5-5l-0.8-0.8
				c-20.7-19-52.9-19.8-75.2-0.8c-24,20.7-26.5,56.2-5.8,80.2L336.6,488.7z"/>
			<path class="st4" d="M837.6,656.5c0-1.7,0-3.3-0.8-5c-1.7-10.7-2.5-24-6.6-36.4l26.5-30.6c-1.7-6.6-5-13.2-8.3-19.8
				c-1.7-5-5-9.9-8.3-14.9l-0.8-0.8l-7.4-11.6v-1.7c-2.5-3.3-5-6.6-7.4-9.9c-5.8-5.8-12.4-9.9-19.8-13.2
				c-16.5-6.6-35.5-5.8-51.3,4.1c-1.7,0.8-1.7,1.7-2.5,1.7c-8.3,5-14.1,12.4-18.2,20.7c-1.7,5-4.1,9.9-5,14.9
				c-1.7,8.3-1.7,16.5,0.8,24.8c3.3,4.1,7.4,9.1,9.9,13.2c0.8,0.8,1.7,2.5,2.5,3.3c0,0,0,0,0.8,0.8l4.1,6.6c0.8,0.8,1.7,1.7,1.7,2.5
				c0.8,1.7,1.7,3.3,2.5,5c1.7,3.3,3.3,6.6,4.1,10.7v0.8c4.1,11.6,5.8,24.8,5.8,38c0,2.5,0,5.8,0,8.3c-0.8,14.1-4.1,27.3-9.1,39.7
				c-6.6,15.7-16.5,29.8-28.9,41.3c-10.7,9.9-23.1,18.2-37.2,24s-29.8,9.1-46.3,9.1c-1.7,0-3.3,0-4.1,0c-14.9,0-29.8-3.3-43-9.1
				c-14.1-5.8-25.6-14.1-36.4-24c-0.8,0-0.8-0.8-1.7-1.7c-2.5-2.5-5-5-7.4-8.3c-1.7-1.7-2.5-2.5-3.3-4.1c-0.8-0.8-1.7-1.7-1.7-2.5
				c-0.8-1.7-2.5-2.5-3.3-4.1c-0.8-1.7-1.7-2.5-2.5-3.3c-0.8-1.7-1.7-2.5-2.5-4.1c-2.5-3.3-3.3-5.8-5-9.9c-1.7-4.1-3.3-8.3-5-12.4
				c-1.7-4.1-2.5-8.3-3.3-12.4c-0.8-2.5-0.8-5-1.7-7.4c-0.8-2.5-0.8-4.1-0.8-6.6c0-4.1-0.8-8.3-0.8-12.4c0-40.5,19.8-76.9,50.4-99.2
				c1.7-1.7,3.3-2.5,5-3.3c1.7-0.8,2.5-1.7,4.1-2.5c18.2-10.7,39.7-17.4,62-17.4c14.1,0,26.5,2.5,38.9,6.6c9.1,0,17.4-2.5,25.6-7.4
				h0.8c5-2.5,8.3-5,12.4-9.9h0.8l1.7-1.7c5.8-5.8,9.9-14.1,11.6-22.3c0.8-0.8,1.7-1.7,1.7-2.5c5-20.7-1.7-40.5-15.7-53.7
				c-7.4-7.4-15.7-11.6-26.5-14.9c-10.7-2.5-21.5-5-31.4-5c-40.5-4.1-81.8,2.5-118.2,20.7c-7.4,2.5-14.9,6.6-21.5,10.7V268.8
				c0-30.6-25.6-57-57-57c-31.4,0-57,25.6-57,57v391c0,11.6,0.8,22.3,3.3,33.9c0,0.8,0,1.7,0.8,3.3v0.8c1.7,10.7,4.1,20.7,7.4,31.4
				v0.8c0,0.8,0,0.8,0.8,1.7c0,0.8,0,0.8,0.8,1.7c2.5,7.4,5.8,14.1,9.1,21.5c2.5,5.8,5,11.6,7.4,16.5c0.8,1.7,2.5,4.1,3.3,5.8
				c0,0,0,0,0,0.8c0,0,0,0.8,0.8,0.8l1.7,1.7c0,0.8,0.8,0.8,0.8,1.7c0.8,1.7,1.7,3.3,3.3,5l0.8,0.8c0,0,0,0,0,0.8
				c1.7,2.5,3.3,4.1,5,6.6c3.3,5,6.6,9.1,10.7,13.2c5,5,9.1,9.9,14.1,14.9l38.9-9.9c10.7,9.1,20.7,15.7,30.6,21.5l3.3,36.4
				c24.8,11.6,52.9,17.4,81,18.2l22.3-37.2c14.1-0.8,27.3-2.5,40.5-6.6l33.1,27.3c26.5-11.6,50.4-26.5,70.3-45.5L783,787.1
				c9.1-11.6,18.2-22.3,24-33.9l42.2-3.3c9.9-23.1,16.5-48.8,18.2-75.2L837.6,656.5z"/>
			<path class="st4" d="M267.2,443.2c-11.6,1.7-23.1,5-32.2,14.1c-24,19.8-27.3,56.2-6.6,80.2l153.8,179.4V610.2
				c0-21.5-8.3-43-21.5-59.5L267.2,443.2z"/>
			<path class="st4" d="M315.1,463.9l67,77.7V427.5c0-39.7-14.1-77.7-39.7-107.5c-1.7-1.7-3.3-3.3-5-5l-0.8-0.8
				c-20.7-19-52.9-19.8-75.2-0.8c-24,20.7-26.5,56.2-5.8,80.2L315.1,463.9z"/>
		</g>
	</g>
	<linearGradient id="SVGID_4_" gradientUnits="userSpaceOnUse" x1="1431.6487" y1="502.5772" x2="1431.6487" y2="197.5047">
		<stop  offset="0" style="stop-color:#D63C27"/>
		<stop  offset="1" style="stop-color:#F15D32"/>
	</linearGradient>
	<path class="st5" d="M1442.7,450.2H1360v-75.7h82.7c37.3,0,55.9,11.6,55.9,37.3C1498.6,438.5,1480,450.2,1442.7,450.2z M1360,251.1
		h69.9c34.9,0,53.6,11.6,53.6,36.1c0,24.5-18.6,36.1-53.6,36.1H1360V251.1z M1514.9,344.2c24.5-12.8,40.8-36.1,40.8-67.5
		c0-47.7-39.6-79.2-115.3-79.2h-149v305.1h158.4c80.3,0,122.3-30.3,122.3-83.8C1570.8,381.5,1548.7,354.7,1514.9,344.2z"/>
	<linearGradient id="SVGID_5_" gradientUnits="userSpaceOnUse" x1="1725.6616" y1="506.0674" x2="1725.6616" y2="263.872">
		<stop  offset="0" style="stop-color:#D63C27"/>
		<stop  offset="1" style="stop-color:#F15D32"/>
	</linearGradient>
	<path class="st6" d="M1669.8,365.2c4.7-30.3,26.8-48.9,58.2-48.9c30.3,0,52.4,19.8,57.1,48.9H1669.8z M1849.1,386.1
		c0-75.7-53.6-122.3-122.3-122.3c-71,0-124.6,50.1-124.6,121.1c0,69.9,52.4,121.1,133.9,121.1c41.9,0,75.7-12.8,96.6-37.3
		l-36.1-39.6c-16.3,15.1-33.8,23.3-59.4,23.3c-36.1,0-60.5-17.5-67.5-47.7h178.2C1847.9,398.9,1849.1,390.8,1849.1,386.1z"/>
	<linearGradient id="SVGID_6_" gradientUnits="userSpaceOnUse" x1="1989.4" y1="589.9071" x2="1989.4" y2="267.3686">
		<stop  offset="0" style="stop-color:#D63C27"/>
		<stop  offset="1" style="stop-color:#F15D32"/>
	</linearGradient>
	<path class="st7" d="M1992.3,426.9l-66.4-159.5h-69.9l101.3,236.4l-1.2,2.3c-9.3,21-19.8,29.1-38.4,29.1c-14,0-27.9-5.8-38.4-15.1
		l-24.5,48.9c15.1,14,41.9,21,65.2,21c41.9,0,74.5-17.5,97.8-73.4l106-249.2h-66.4L1992.3,426.9z"/>
	<linearGradient id="SVGID_7_" gradientUnits="userSpaceOnUse" x1="2256.6228" y1="507.233" x2="2256.6228" y2="265.0375">
		<stop  offset="0" style="stop-color:#D63C27"/>
		<stop  offset="1" style="stop-color:#F15D32"/>
	</linearGradient>
	<path class="st8" d="M2256.6,450.2c-33.8,0-60.5-24.5-60.5-65.2s25.6-65.2,60.5-65.2c33.8,0,59.4,24.5,59.4,65.2
		S2290.4,450.2,2256.6,450.2z M2256.6,265c-74.5,0-129.2,50.1-129.2,121.1c0,71,54.7,121.1,129.2,121.1
		c74.5,0,129.2-50.1,129.2-121.1C2385.9,315.1,2331.1,265,2256.6,265z"/>
	<linearGradient id="SVGID_8_" gradientUnits="userSpaceOnUse" x1="2549.5151" y1="503.7392" x2="2549.5151" y2="265.0375">
		<stop  offset="0" style="stop-color:#D63C27"/>
		<stop  offset="1" style="stop-color:#F15D32"/>
	</linearGradient>
	<path class="st9" d="M2573.3,265c-31.4,0-59.4,10.5-78,31.4v-27.9h-65.2v235.2h67.5V387.3c0-43.1,23.3-62.9,55.9-62.9
		c30.3,0,47.7,17.5,47.7,55.9v123.4h67.5V369.8C2671.1,296.5,2629.2,265,2573.3,265z"/>
	<linearGradient id="SVGID_9_" gradientUnits="userSpaceOnUse" x1="2846.9705" y1="507.2337" x2="2846.9705" y2="178.8732">
		<stop  offset="0" style="stop-color:#D63C27"/>
		<stop  offset="1" style="stop-color:#F15D32"/>
	</linearGradient>
	<path class="st10" d="M2848.1,450.2c-33.8,0-60.5-24.5-60.5-65.2s26.8-65.2,60.5-65.2c33.8,0,59.4,24.5,59.4,65.2
		S2881.9,450.2,2848.1,450.2z M2906.4,178.9V293c-17.5-18.6-41.9-27.9-69.9-27.9c-66.4,0-117.6,47.7-117.6,121.1
		s51.2,121.1,117.6,121.1c31.4,0,55.9-9.3,73.4-30.3v26.8h65.2V180h-68.7V178.9z"/>
	<polygon class="st11" points="1546.3,870.5 1546.3,638.8 1432.2,834.4 1422.9,834.4 1308.8,638.8 1308.8,870.5 1289,870.5 
		1289,599.2 1305.3,599.2 1426.4,808.8 1547.5,599.2 1563.8,599.2 1563.8,870.5 	"/>
	<path class="st11" d="M1780.4,811.1v-38.4h-68.7c-41.9,0-57.1,17.5-57.1,40.8c0,26.8,21,43.1,55.9,43.1
		C1745.5,856.6,1769.9,840.3,1780.4,811.1z M1800.2,742.4v128.1h-18.6v-36.1c-12.8,23.3-37.3,37.3-73.4,37.3
		c-45.4,0-73.4-23.3-73.4-58.2c0-30.3,19.8-57.1,75.7-57.1h69.9v-16.3c0-37.3-21-58.2-60.5-58.2c-27.9,0-53.6,10.5-69.9,25.6
		l-9.3-14c19.8-17.5,50.1-29.1,81.5-29.1C1772.2,666.8,1800.2,692.4,1800.2,742.4z"/>
	<path class="st11" d="M2061,752.9v118.8h-19.8V755.3c0-45.4-24.5-69.9-65.2-69.9c-47.7,0-76.9,30.3-76.9,79.2v108.3h-19.8V670.2
		h18.6v44.2c14-27.9,41.9-45.4,80.3-45.4C2028.4,666.8,2061,695.9,2061,752.9z"/>
	<path class="st11" d="M2268.3,811.1v-38.4h-68.7c-41.9,0-57.1,17.5-57.1,40.8c0,26.8,21,43.1,55.9,43.1
		C2232.2,856.6,2256.6,840.3,2268.3,811.1z M2286.9,742.4v128.1h-18.6v-36.1c-12.8,23.3-37.3,37.3-73.4,37.3
		c-45.4,0-73.4-23.3-73.4-58.2c0-30.3,19.8-57.1,75.7-57.1h69.9v-16.3c0-37.3-21-58.2-60.5-58.2c-27.9,0-53.6,10.5-69.9,25.6
		l-9.3-14c19.8-17.5,50.1-29.1,81.5-29.1C2259,666.8,2286.9,692.4,2286.9,742.4z"/>
	<path class="st11" d="M2530.3,765.7c0-47.7-34.9-80.3-82.7-80.3c-47.7,0-82.7,32.6-82.7,80.3c0,47.7,34.9,81.5,82.7,81.5
		C2495.3,846.1,2530.3,812.3,2530.3,765.7z M2548.9,669.1v180.5c0,67.5-32.6,99-97.8,99c-37.3,0-72.2-11.6-93.2-32.6l10.5-15.1
		c19.8,18.6,48.9,29.1,81.5,29.1c53.6,0,79.2-24.5,79.2-79.2V817c-16.3,29.1-47.7,46.6-83.8,46.6c-57.1,0-101.3-40.8-101.3-99
		c0-58.2,43.1-97.8,101.3-97.8c37.3,0,68.7,17.5,85,47.7v-45.4H2548.9z"/>
	<path class="st11" d="M2629.2,759.9h154.9c-2.3-44.2-34.9-75.7-78-75.7C2663,684.2,2631.6,715.7,2629.2,759.9z M2802.7,775h-174.7
		c2.3,47.7,37.3,80.3,86.2,80.3c25.6,0,48.9-9.3,65.2-27.9l11.6,12.8c-17.5,22.1-45.4,32.6-76.9,32.6
		c-61.7,0-104.8-43.1-104.8-102.5c0-59.4,41.9-102.5,96.6-102.5c54.7,0,96.6,41.9,96.6,102.5C2802.7,770.4,2802.7,772.7,2802.7,775z
		"/>
	<path class="st11" d="M2958.8,666.8v18.6c-1.2,0-3.5,0-4.7,0c-45.4,0-72.2,30.3-72.2,80.3v106h-19.8V669.1h18.6v44.2
		C2893.5,683.1,2920.3,666.8,2958.8,666.8z"/>
</g>
</svg>
