<svg width="15" height="18" viewBox="0 0 15 18" fill="none" xmlns="http://www.w3.org/2000/svg">
<path d="M1.3557 3.53545C1.3557 3.49667 1.3557 3.46346 1.3557 3.43022C1.3557 3.16429 1.3557 2.89833 1.3557 2.63794C1.3557 2.39417 1.48313 2.26678 1.7269 2.26678C2.02053 2.26678 2.31971 2.26678 2.62442 2.26678C2.62442 2.228 2.62442 2.19473 2.62442 2.16148C2.62442 1.89001 2.62442 1.61856 2.62442 1.34708C2.62442 1.12548 2.75185 0.998047 2.979 0.998047C5.64939 0.998047 8.31425 0.998047 10.9846 0.998047C11.5885 0.998047 12.198 0.998047 12.8018 0.998047C13.0622 0.998047 13.1786 1.11436 13.1786 1.38029C13.1786 3.21965 13.1786 5.05351 13.1786 6.89287C13.1786 6.94274 13.1786 6.99809 13.1786 7.04795C13.1786 7.30834 12.9459 7.4635 12.7132 7.35269C12.3697 7.19756 12.0151 7.10894 11.6384 7.09786C10.3808 7.06462 9.23393 7.99537 9.00678 9.23639C8.74085 10.7101 9.71593 12.0896 11.1952 12.3278C12.5858 12.5494 13.9598 11.5578 14.1758 10.1616C14.198 10.0231 14.2035 9.88462 14.2146 9.74611C14.2257 9.55221 14.3531 9.4081 14.5359 9.4081C14.7188 9.4081 14.8573 9.54667 14.8517 9.74611C14.824 10.9594 14.2866 11.8846 13.2672 12.5328C13.2007 12.5771 13.173 12.6159 13.173 12.699C13.173 13.3251 13.173 13.9511 13.173 14.5827C13.173 14.7877 13.0401 14.9207 12.8351 14.9207C12.5304 14.9207 12.2257 14.9207 11.9099 14.9207C11.9099 14.9539 11.9099 14.9871 11.9099 15.0204C11.9099 15.2918 11.9099 15.5634 11.9099 15.8348C11.9099 16.062 11.7824 16.1949 11.5553 16.1949C11.2894 16.1949 11.0179 16.1949 10.752 16.1949C10.7187 16.1949 10.6855 16.1949 10.6411 16.1949C10.6411 16.2337 10.6411 16.267 10.6411 16.3002C10.6411 16.5661 10.6411 16.832 10.6411 17.0924C10.6411 17.3362 10.5193 17.4581 10.2755 17.4581C8.26992 17.4581 6.25882 17.4581 4.25325 17.4581C2.99007 17.4581 1.7269 17.4581 0.463725 17.4581C0.208873 17.4581 0.0925293 17.3418 0.0925293 17.0814C0.0925293 13.3417 0.0925293 9.60761 0.0925293 5.86794C0.0925293 5.21419 0.0925293 4.56597 0.0925293 3.91222C0.0925293 3.66291 0.214414 3.54655 0.463725 3.54655C0.724116 3.54655 0.990047 3.54655 1.25044 3.54655C1.28368 3.54655 1.31692 3.54655 1.36124 3.54655L1.3557 3.53545ZM9.99848 4.18369H0.735195V16.8044H9.99294C9.99294 16.7711 9.99294 16.7434 9.99294 16.7102C9.99294 15.3639 9.99294 14.0176 9.99294 12.6713C9.99294 12.5993 9.96524 12.566 9.90984 12.5328C8.87936 11.8791 8.31979 10.9428 8.31979 9.72393C8.31979 8.50508 8.87935 7.56874 9.91538 6.92054C9.97632 6.88175 9.99294 6.84297 9.99294 6.77648C9.99294 5.94545 9.99294 5.11441 9.99294 4.28337V4.18923L9.99848 4.18369ZM3.27262 2.26678C3.32803 2.26678 3.37235 2.26678 3.41668 2.26678C4.49148 2.26678 5.56629 2.26678 6.64109 2.26678C8.27546 2.26678 9.9043 2.26678 11.5387 2.26678C11.788 2.26678 11.9099 2.39417 11.9099 2.63794C11.9099 3.85125 11.9099 5.0646 11.9099 6.27237C11.9099 6.33331 11.9099 6.39978 11.9099 6.46072C12.1204 6.50504 12.3254 6.54381 12.5304 6.58259V1.64621H3.27262V2.26678ZM11.2672 2.91495H2.00391V3.541C2.03715 3.541 2.05931 3.541 2.08147 3.541C3.26155 3.541 4.44162 3.541 5.62723 3.541C7.18404 3.541 8.74085 3.541 10.2977 3.541C10.3697 3.541 10.4528 3.5687 10.5193 3.60748C10.6245 3.67396 10.6467 3.78479 10.6467 3.90667C10.6467 4.76541 10.6467 5.62416 10.6467 6.4829V6.58813C10.8628 6.54381 11.0677 6.50504 11.2727 6.46072V2.91495H11.2672ZM10.6467 12.8708V15.5301H11.2727C11.2727 15.4858 11.2727 15.4526 11.2727 15.4138C11.2727 14.7711 11.2727 14.1229 11.2727 13.4802C11.2727 13.3362 11.2727 13.1866 11.2727 13.0425C11.2727 13.0204 11.245 12.9816 11.2284 12.9761C11.04 12.9373 10.8461 12.904 10.6522 12.8708H10.6467ZM12.5359 12.8708C12.3254 12.9151 12.1204 12.9539 11.9154 12.9927V14.2669H12.5359V12.8708Z" fill="#F46524"/>
<path d="M11.6386 10.095C11.7716 9.96761 11.899 9.85132 12.0264 9.73498C12.8242 8.99259 13.622 8.25019 14.4253 7.51333C14.4863 7.45793 14.5749 7.41356 14.6525 7.39694C14.791 7.36924 14.9129 7.45238 14.9683 7.57427C15.0292 7.7017 15.0015 7.84022 14.8963 7.93994C14.658 8.16709 14.4143 8.38868 14.176 8.61029C13.4004 9.33052 12.6248 10.0452 11.8491 10.7655C11.6497 10.9538 11.4558 10.9372 11.2951 10.7156C10.8851 10.156 10.4807 9.60201 10.0763 9.04245C9.92113 8.83192 10.0209 8.56041 10.2646 8.51608C10.4031 8.48838 10.5139 8.54934 10.597 8.66568C10.9184 9.1089 11.2453 9.55768 11.5721 10.0009C11.5943 10.0286 11.6109 10.0563 11.6386 10.0896V10.095Z" fill="#F46524"/>
<path d="M5.12315 6.45557C6.04283 6.45557 6.96251 6.45557 7.88219 6.45557C8.11488 6.45557 8.27001 6.63837 8.21461 6.8489C8.18137 6.98187 8.0761 7.07055 7.93759 7.09271C7.90989 7.09271 7.87665 7.09271 7.84895 7.09271C6.03729 7.09271 4.22563 7.09271 2.41397 7.09271C2.37519 7.09271 2.3364 7.09271 2.29762 7.09271C2.12588 7.06501 2.01507 6.9265 2.02615 6.74922C2.03723 6.58855 2.16466 6.46111 2.33086 6.46111C2.6522 6.46111 2.96799 6.46111 3.28932 6.46111C3.89875 6.46111 4.51372 6.46111 5.12315 6.46111V6.45557Z" fill="#F46524"/>
<path d="M5.12294 14.9594C4.20325 14.9594 3.28357 14.9594 2.36389 14.9594C2.16998 14.9594 2.03148 14.8375 2.0204 14.6658C2.00932 14.4718 2.14782 14.3223 2.34727 14.3223C2.97886 14.3223 3.61599 14.3223 4.24758 14.3223C5.46089 14.3223 6.66866 14.3223 7.88197 14.3223C8.10912 14.3223 8.25871 14.5051 8.21439 14.7101C8.18115 14.8597 8.05372 14.9594 7.88751 14.9594C7.38889 14.9594 6.89027 14.9594 6.39165 14.9594C5.97059 14.9594 5.54399 14.9594 5.12294 14.9594Z" fill="#F46524"/>
<path d="M5.12293 12.9926C4.20325 12.9926 3.28357 12.9926 2.36389 12.9926C2.17552 12.9926 2.04255 12.8818 2.02039 12.7211C1.99823 12.5162 2.13674 12.361 2.34727 12.3555C2.57996 12.3555 2.81265 12.3555 3.0398 12.3555C4.64647 12.3555 6.25313 12.3555 7.8598 12.3555C8.05925 12.3555 8.20331 12.4718 8.21439 12.6436C8.23101 12.8375 8.0925 12.9926 7.89305 12.9926C7.56064 12.9926 7.22822 12.9926 6.89581 12.9926C6.303 12.9926 5.71019 12.9926 5.11738 12.9926H5.12293Z" fill="#F46524"/>
<path d="M4.87921 10.3892C5.71579 10.3892 6.55237 10.3892 7.38894 10.3892C7.63271 10.3892 7.78784 10.6108 7.70473 10.8269C7.65487 10.9487 7.56069 11.0152 7.43327 11.0318C7.40002 11.0318 7.36678 11.0318 7.33354 11.0318C5.69362 11.0318 4.04817 11.0318 2.40826 11.0318C2.36394 11.0318 2.31408 11.0318 2.26975 11.0208C2.10355 10.9875 1.99828 10.8435 2.0149 10.6717C2.03152 10.5166 2.15895 10.3947 2.32516 10.3892C2.76284 10.3892 3.20052 10.3892 3.63819 10.3892C4.04817 10.3892 4.45815 10.3892 4.87367 10.3892H4.87921Z" fill="#F46524"/>
<path d="M4.87389 9.05912C4.03731 9.05912 3.20628 9.05912 2.3697 9.05912C2.17579 9.05912 2.03729 8.94283 2.02621 8.76554C2.00959 8.56609 2.15363 8.4165 2.35862 8.4165C2.88494 8.4165 3.40572 8.4165 3.93205 8.4165C5.07334 8.4165 6.20909 8.4165 7.35038 8.4165C7.38916 8.4165 7.42794 8.41651 7.46672 8.42205C7.63293 8.44975 7.74373 8.59933 7.73265 8.76554C7.71603 8.93175 7.58861 9.05358 7.41686 9.05912C6.87392 9.05912 6.32543 9.05912 5.78249 9.05912C5.48331 9.05912 5.17861 9.05912 4.87943 9.05912H4.87389Z" fill="#F46524"/>
</svg>
