<svg width="39" height="39" viewBox="0 0 39 39" fill="none" xmlns="http://www.w3.org/2000/svg">
<path d="M11.5127 11.7435H20.2563" stroke="#F46524" stroke-width="1.8" stroke-linecap="round" stroke-linejoin="round"/>
<path d="M11.5127 18.1023H16.2819" stroke="#F46524" stroke-width="1.8" stroke-linecap="round" stroke-linejoin="round"/>
<path d="M16.2835 33.9998H8.33476C7.49151 33.9998 6.68279 33.6649 6.08652 33.0686C5.49025 32.4723 5.15527 31.6636 5.15527 30.8204V8.56395C5.15527 7.7207 5.49025 6.91198 6.08652 6.31571C6.68279 5.71944 7.49151 5.38446 8.33476 5.38446H27.4117C28.2549 5.38446 29.0636 5.71944 29.6599 6.31571C30.2562 6.91198 30.5912 7.7207 30.5912 8.56395V14.9229" stroke="#F46524" stroke-width="1.8" stroke-linecap="round" stroke-linejoin="round"/>
<path fill-rule="evenodd" clip-rule="evenodd" d="M25.6162 17.846C21.2012 17.846 17.6162 21.431 17.6162 25.846C17.6162 30.261 21.2012 33.846 25.6162 33.846C30.0312 33.846 33.6162 30.261 33.6162 25.846C33.6162 21.431 30.0312 17.846 25.6162 17.846ZM25.6162 20.1317C28.7705 20.1317 31.3305 22.6917 31.3305 25.846C31.3305 29.0003 28.7705 31.5603 25.6162 31.5603C22.4619 31.5603 19.9019 29.0003 19.9019 25.846C19.9019 22.6917 22.4619 20.1317 25.6162 20.1317Z" fill="#F46524"/>
<path fill-rule="evenodd" clip-rule="evenodd" d="M24.3862 23.6922V24.6152H23.4631C22.9537 24.6152 22.54 25.0289 22.54 25.5383C22.54 26.0477 22.9537 26.4614 23.4631 26.4614H25.3093C25.8187 26.4614 26.2323 26.0477 26.2323 25.5383V23.6922C26.2323 23.1827 25.8187 22.7691 25.3093 22.7691C24.7998 22.7691 24.3862 23.1827 24.3862 23.6922Z" fill="#F46524"/>
</svg>
