<svg width="30" height="30" viewBox="0 0 30 30" fill="none" xmlns="http://www.w3.org/2000/svg">
<path d="M8.6693 0.0769196C8.08661 0.0769196 7.61411 0.54942 7.61411 1.13211V3.24192H5.5043C2.60007 3.24192 0.229492 5.6125 0.229492 8.51673V11.6817C0.229492 12.2644 0.701992 12.7369 1.28468 12.7369H27.6581V24.3412C27.6581 26.1129 26.2649 27.5062 24.4931 27.5062H5.5043C3.73257 27.5062 2.3393 26.1129 2.3393 24.3412V15.9013C2.3393 15.3187 1.8668 14.8462 1.28411 14.8462C0.701415 14.8462 0.229492 15.3187 0.229492 15.9013V24.3412C0.229492 27.2448 2.60007 29.616 5.5043 29.616H24.4931C27.3974 29.616 29.768 27.2454 29.768 24.3412V8.51673C29.768 5.61307 27.3974 3.24192 24.4931 3.24192H22.3833V1.13211C22.3833 0.54942 21.9108 0.0769196 21.3281 0.0769196C20.7455 0.0769196 20.273 0.54942 20.273 1.13211V3.24192H9.72334V1.13211C9.72334 0.54942 9.25084 0.0769196 8.66872 0.0769196H8.6693ZM5.5043 5.35173H7.61411V7.46153C7.61411 8.04423 8.08661 8.51673 8.6693 8.51673C9.25199 8.51673 9.72449 8.04423 9.72449 7.46153V5.35173H20.2741V7.46153C20.2741 8.04423 20.7466 8.51673 21.3293 8.51673C21.912 8.51673 22.3845 8.04423 22.3845 7.46153V5.35173H24.4943C26.266 5.35173 27.6593 6.745 27.6593 8.51673V10.6265H2.3393V8.51673C2.3393 6.745 3.73257 5.35173 5.5043 5.35173Z" fill="#F46524"/>
<path d="M20.9597 15.0994C20.5172 14.7204 19.8514 14.7723 19.4724 15.2148L13.9732 21.6308L10.5485 17.3512C10.1851 16.896 9.52104 16.8221 9.06585 17.1856C9.06585 17.1856 9.06585 17.1856 9.06527 17.1862C8.61008 17.5496 8.53623 18.2137 8.89969 18.6689C8.89969 18.6689 8.89969 18.6689 8.90027 18.6694L13.1199 23.9442C13.4839 24.3994 14.148 24.4733 14.6026 24.1092C14.6545 24.0677 14.7024 24.0215 14.7451 23.9714L21.0745 16.5867C21.4535 16.1442 21.4016 15.4785 20.9591 15.0994H20.9597Z" fill="#F46524"/>
</svg>
