<?xml version="1.0" encoding="UTF-8"?>
<svg xmlns="http://www.w3.org/2000/svg" version="1.1" viewBox="0 0 512 512">
  <!-- Generator: Adobe Illustrator 30.0.0, SVG Export Plug-In . SVG Version: 2.1.1 Build 123)  -->
  <defs>
    <style>
      .st0, .st1, .st2, .st3, .st4 {
        fill-rule: evenodd;
      }

      .st0, .st2 {
        stroke: #111;
        stroke-miterlimit: 10;
        stroke-width: 3px;
      }

      .st0, .st3 {
        fill: #fdeee6;
      }

      .st1, .st2 {
        fill: #fff;
      }

      .st4 {
        fill: #e4502a;
      }
    </style>
  </defs>
  <g id="Layer_1" image-rendering="optimizeQuality" shape-rendering="geometricPrecision" text-rendering="geometricPrecision">
    <g id="Layer_x5F_1">
      <path class="st4" d="M422.5,327h-68.2c-1.8,0-43.8,1.6-81.1,2.5,0,1.4-20.8,1.2-45.4.5-2.3,0-4.3,0-6-.2-33.2-1-70.5-2.8-72.3-2.8h-60.1C40.1,327,0,286.8,0,237.5s36.3-85.5,82.3-89.2c-.4-3.3-.5-6.5-.5-9.7,0-49.4,40.2-89.5,89.5-89.5s66.3,20.3,81,51.3c15.2-10.9,33.4-16.8,52.2-16.8s40.2,7,56,19.7c14.3,11.5,24.8,27.2,29.9,44.7h32.1c49.4,0,89.5,40.2,89.5,89.5s-40.2,89.5-89.5,89.5h0Z"/>
      <path class="st2" d="M354.3,462.9h-204.7c-3.3,0-6-2.7-6-6v-217.1c0-1.7.7-3.3,1.9-4.4l51.2-47.5c1.1-1,2.6-1.6,4.1-1.6h153.5c3.3,0,6,2.7,6,6v142.6c0,1.4,0,42.9,0,42.9l15.6-5.6c.7,0,.4,3.7-.5,9.5,8.5,26,17.1,53,15.4,53s-9.4-17.7-18-38.1c-4.7,24.3-12.3,58.2-12.3,60.3,0,3.3-2.8,6-6.1,6h0Z"/>
      <path class="st0" d="M143.6,245.8v-6c0-1.7.7-3.3,1.9-4.4l51.2-47.5c1.1-1,2.6-1.6,4.1-1.6h6v53.5c0,3.3-2.7,6-6,6h-57.2Z"/>
      <path class="st3" d="M333.8,261.5h-38.7c-3.3,0-6-2.7-6-6v-39.5c0-3.3,2.7-6,6-6h38.7c3.3,0,6,2.7,6,6v39.5c0,3.3-2.7,6-6,6h0Z"/>
      <g>
        <path class="st3" d="M279.1,228.2h-64.1c-3.3,0-6-2.7-6-6s2.7-6,6-6h64.1c3.3,0,6,2.7,6,6s-2.7,6-6,6Z"/>
        <path class="st3" d="M279.8,255.3h-64.1c-3.3,0-6-2.7-6-6s2.7-6,6-6h64.1c3.3,0,6,2.7,6,6s-2.7,6-6,6Z"/>
        <path class="st3" d="M332.1,285.2h-162c-3.3,0-6-2.7-6-6s2.7-6,6-6h162c3.3,0,6,2.7,6,6s-2.7,6-6,6Z"/>
        <path class="st3" d="M333.8,312.1h-162c-3.3,0-6-2.7-6-6s2.7-6,6-6h162c3.3,0,6,2.7,6,6s-2.7,6-6,6Z"/>
        <path class="st3" d="M331,340.9h-162c-3.3,0-6-2.7-6-6s2.7-6,6-6h162c3.3,0,6,2.7,6,6s-2.7,6-6,6Z"/>
        <path class="st3" d="M301.2,367.7h-130.5c-3.3,0-6-2.7-6-6s2.7-6,6-6h130.5c3.3,0,6,2.7,6,6s-2.7,6-6,6Z"/>
        <path class="st3" d="M167.9,396.5c-3.3,0-6-2.7-6-6s2.7-6,6-6h123.1c3.3,0,6,2.7,6,6s-2.7,6-6,6h-123.1Z"/>
        <path class="st3" d="M270.2,423.4h-100.6c-3.3,0-6-2.7-6-6s2.7-6,6-6h100.6c3.3,0,6,2.7,6,6s-2.6,6-6,6Z"/>
      </g>
      <path class="st4" d="M360.2,488.6c-36.9,0-67-30.1-67-67s30.1-67,67-67,67,30.1,67,67c0,36.9-30.1,67-67,67Z"/>
      <path class="st1" d="M340.5,446.9c-1.6,0-3.1-.6-4.3-1.8-2.3-2.4-2.3-6.2.1-8.5l39.4-38.6c2.4-2.3,6.2-2.3,8.5.1,2.3,2.4,2.3,6.2-.1,8.5l-39.4,38.6c-1.2,1.1-2.7,1.7-4.2,1.7Z"/>
      <path class="st1" d="M379.5,447.3c-1.6,0-3.1-.6-4.3-1.8l-38.6-39.4c-2.3-2.4-2.3-6.2.1-8.5,2.4-2.3,6.2-2.3,8.5.1l38.6,39.4c2.3,2.4,2.3,6.2-.1,8.5-1.2,1.1-2.7,1.7-4.2,1.7Z"/>
    </g>
  </g>
</svg>