<svg width="30" height="34" viewBox="0 0 30 34" fill="none" xmlns="http://www.w3.org/2000/svg">
<g clip-path="url(#clip0_56_9892)">
<path d="M23.7557 2.20942L29.0297 2.00119C29.979 1.96648 30.7526 2.69531 30.8229 3.63237V3.66707L30.9987 11.6841C31.0338 12.5518 30.3658 13.3153 29.4516 13.3847C29.1704 13.4194 28.9242 13.6624 28.9594 13.9747L29.6274 30.9459C29.6626 32.0912 28.7484 33.0629 27.5882 33.1324L7.47672 34C7.16028 34 6.91416 33.7918 6.879 33.4794L6 4.01413C6 3.70178 6.21096 3.45884 6.5274 3.42413L23.7557 2.20942Z" fill="#E95A25"/>
<g opacity="0.3">
<path d="M6.4187 32.9062V33.4529L27.5629 31.5052L27.1853 2.52832C27.1853 2.52832 22.0709 3.31425 21.9679 3.31425C21.8649 3.31425 6.4187 32.9062 6.4187 32.9062Z" fill="#010101"/>
</g>
<path d="M20.2516 1.16201L26.3958 0.786133L27.048 30.8223L5.42328 33.0092L2.26538 3.10975L20.2516 1.16201Z" fill="#EBEBEB"/>
<path d="M20.2861 1.16201C20.2861 1.16201 20.1831 1.16201 19.9772 1.19618L19.0504 1.2987L15.4463 1.70875L2.26553 3.14392L2.29985 3.10975C3.15797 11.1057 4.25637 21.5278 5.49207 33.0092L5.45775 32.9751L10.2976 32.4967L27.0481 30.8223L27.0138 30.8565C26.7392 17.7007 26.5333 6.93689 26.396 0.820304L21.8307 1.0595L20.6637 1.12784L20.2861 1.16201C20.2861 1.16201 20.4234 1.16201 20.6637 1.12784L21.8307 1.0595L26.396 0.786133C26.5333 6.93689 26.7735 17.7007 27.0481 30.8223V30.8565H27.0138L10.2632 32.565L5.42342 33.0434H5.3891V33.0092C4.18772 21.5278 3.08932 11.1399 2.2312 3.10975H2.26553L15.4463 1.67457L19.0504 1.2987L19.9772 1.19618C20.1488 1.16201 20.2861 1.16201 20.2861 1.16201Z" fill="#273339"/>
<path d="M1.16699 2.1186L4.11894 32.3598L26.7391 30.2412L23.4782 0.0341797L1.16699 2.1186Z" fill="white"/>
<path d="M1.16699 2.11859L23.4782 0H23.5125V0.0341709C24.4393 8.50854 25.572 18.9648 26.7734 30.2412V30.2754H26.7391H26.5675L4.11894 32.394H4.08461V32.3598C2.36837 14.4543 1.20132 2.35779 1.16699 2.11859C1.20132 2.35779 2.40269 14.4543 4.11894 32.3598V32.3256L26.5675 30.207H26.7391L26.7048 30.2412C25.5034 18.9648 24.3707 8.50854 23.4439 0.0341709L23.4782 0.0683417L1.16699 2.11859Z" fill="#273339"/>
<path d="M18.5354 25.047C18.5354 23.2018 20.0457 21.7324 21.8649 21.7324C23.7185 21.7324 25.1944 23.2359 25.1944 25.047C25.1944 26.8922 23.6841 28.3616 21.8649 28.3616C20.0114 28.3957 18.5354 26.8922 18.5354 25.047ZM25.1258 25.0812C25.1258 23.2701 23.6841 21.8349 21.8649 21.8008C20.0457 21.8008 18.604 23.2359 18.5697 25.047C18.5697 26.8581 20.0114 28.2932 21.8306 28.3274C23.6498 28.3274 25.1258 26.8581 25.1258 25.0812Z" fill="#E0E1E0"/>
<path d="M18.9131 25.0468C18.9131 23.4408 20.2174 22.1423 21.8307 22.1764C23.444 22.1764 24.7483 23.4749 24.714 25.081C24.714 26.687 23.4097 27.9855 21.7964 27.9513C20.2174 27.9513 18.9131 26.6528 18.9131 25.0468ZM24.3021 25.081C24.3021 23.7141 23.2037 22.6207 21.8307 22.6207C20.4577 22.6207 19.3593 23.7141 19.3593 25.081C19.3593 26.4478 20.4577 27.5413 21.8307 27.5413C23.1694 27.5413 24.3021 26.4478 24.3021 25.081Z" fill="#E0E1E0"/>
<path d="M19.6338 25.116C19.6338 24.7743 19.7024 24.4667 19.8741 24.1592L20.2516 24.3642C20.1143 24.6034 20.08 24.8768 20.08 25.116C20.08 26.0727 20.8695 26.8245 21.7963 26.8245C22.1052 26.8245 22.4141 26.722 22.6887 26.5853L22.929 26.9612C21.8992 27.5763 20.5949 27.2687 19.977 26.2436C19.7368 25.8677 19.6338 25.4918 19.6338 25.116Z" fill="#E0E1E0"/>
<path d="M20.801 23.202C21.8651 22.6553 23.1694 23.0653 23.7186 24.1246C24.0619 24.808 24.0276 25.594 23.6157 26.2432L23.2381 26.004C23.753 25.1839 23.5127 24.1588 22.6889 23.6462C22.174 23.3387 21.5218 23.3045 20.9727 23.5779L20.801 23.202Z" fill="#E0E1E0"/>
<path d="M7.79184 5.02319C7.75752 4.68148 7.99779 4.40811 8.30672 4.37394H8.34104C8.51267 4.33977 8.71862 4.40811 8.85592 4.5448L8.68429 4.74982C8.61564 4.68148 8.51267 4.64731 8.40969 4.64731C8.23807 4.68148 8.10077 4.81816 8.10077 5.02319C8.13509 5.19404 8.27239 5.33073 8.47834 5.33073C8.58132 5.33073 8.68429 5.26238 8.75294 5.15987L8.99322 5.33073C8.89024 5.50158 8.71862 5.56992 8.51267 5.60409C8.20374 5.67243 7.89482 5.43324 7.82617 5.1257C7.79184 5.02319 7.79184 5.02319 7.79184 5.02319Z" fill="#273339"/>
<path d="M8.95882 4.88633C8.92449 4.54462 9.16477 4.27126 9.54234 4.23708C9.91992 4.20291 10.1945 4.40794 10.2288 4.78382C10.2632 5.12553 10.0229 5.39889 9.64532 5.43306C9.30207 5.46724 8.99314 5.22804 8.95882 4.88633ZM9.91992 4.78382C9.88559 4.61296 9.74829 4.51045 9.57667 4.51045C9.40504 4.54462 9.30207 4.68131 9.30207 4.85216C9.33639 5.02301 9.47369 5.12553 9.64532 5.12553C9.81694 5.12553 9.95424 4.98884 9.91992 4.78382Z" fill="#273339"/>
<path d="M11.4646 4.06641L11.5676 5.22822L11.293 5.26239L10.7095 4.71565L10.7781 5.33073L10.4692 5.3649L10.3662 4.23726L10.6408 4.20309L11.2243 4.74982L11.1214 4.10058L11.4646 4.06641Z" fill="#273339"/>
<path d="M11.945 4.2714L11.6017 4.30557L11.5674 4.0322L12.5971 3.92969L12.6315 4.20305L12.2882 4.23723L12.3912 5.12567L12.0823 5.15984L11.945 4.2714Z" fill="#273339"/>
<path d="M13.318 4.71588L13.1464 4.75005L13.1807 5.05759L12.8718 5.09176L12.7688 3.92995L13.2837 3.86161C13.5926 3.82743 13.7985 3.96412 13.8329 4.23748C13.8672 4.40834 13.7642 4.54502 13.6612 4.61336L13.9358 4.95507L13.5926 4.98924L13.318 4.71588ZM13.2493 4.13497L13.0777 4.16914L13.112 4.51085L13.2837 4.47668C13.421 4.47668 13.4896 4.40834 13.4553 4.30583C13.4553 4.16914 13.3866 4.13497 13.2493 4.13497Z" fill="#273339"/>
<path d="M14.7941 4.64722L14.3135 4.68139L14.2449 4.92059L13.9016 4.95476L14.2792 3.75878L14.5881 3.72461L15.206 4.81808L14.8627 4.85225L14.7941 4.64722ZM14.6911 4.40803L14.4851 4.06632L14.3822 4.4422L14.6911 4.40803Z" fill="#273339"/>
<path d="M15.2059 4.23706C15.1716 3.89535 15.4118 3.62198 15.7894 3.58781C15.961 3.55364 16.167 3.62198 16.3043 3.75866L16.1327 3.96369C16.064 3.89535 15.961 3.86118 15.8581 3.86118C15.6864 3.89535 15.5491 4.03203 15.5491 4.23706C15.5835 4.40791 15.7208 4.54459 15.9267 4.54459C16.0297 4.54459 16.1327 4.47625 16.167 4.37374L16.4073 4.54459C16.3043 4.71545 16.1327 4.78379 15.9267 4.81796C15.6178 4.8863 15.3089 4.64711 15.2402 4.33957C15.2059 4.27123 15.2059 4.27123 15.2059 4.23706Z" fill="#273339"/>
<path d="M16.682 3.79288L16.3388 3.82705L16.3044 3.55368L17.3342 3.45117L17.3685 3.72454L17.0253 3.75871L17.1282 4.64715L16.8193 4.68132L16.682 3.79288Z" fill="#273339"/>
<path d="M22.9292 7.79102C22.9292 7.79102 18.6729 8.20107 13.3868 8.71363C8.1351 9.22619 3.84448 9.60207 3.84448 9.5679C3.84448 9.5679 8.10078 9.15785 13.3868 8.64529C18.6729 8.1669 22.9292 7.79102 22.9292 7.79102Z" fill="#273339"/>
<path d="M12.5628 7.55176C12.5628 7.55176 10.6063 7.75678 8.16923 7.99598C5.73216 8.23517 3.77563 8.40603 3.77563 8.40603C3.77563 8.40603 5.73216 8.201 8.16923 7.96181C10.6063 7.72261 12.5628 7.55176 12.5628 7.55176Z" fill="#273339"/>
<path d="M22.9978 9.02148C22.9978 9.02148 18.7415 9.43153 13.4554 9.9441C8.2037 10.4567 3.91309 10.8325 3.91309 10.7984C3.91309 10.7984 8.16938 10.3883 13.4554 9.87576C18.7415 9.36319 22.9978 9.02148 22.9978 9.02148Z" fill="#273339"/>
<path d="M23.1008 10.251C23.1008 10.251 18.8445 10.661 13.5584 11.1736C8.27241 11.6862 4.01611 12.062 4.01611 12.0279C4.01611 12.0279 8.27241 11.6178 13.5584 11.1052C18.8445 10.6269 23.1008 10.251 23.1008 10.251Z" fill="#273339"/>
<path d="M23.1692 11.5158C23.1692 11.5158 18.9129 11.9259 13.6269 12.4384C8.37519 12.9168 4.1189 13.2927 4.1189 13.2927C4.1189 13.2927 8.37519 12.8827 13.6612 12.3701C18.9473 11.8575 23.1692 11.4817 23.1692 11.5158Z" fill="#273339"/>
<path d="M23.2724 12.7453C23.2724 12.7453 19.0161 13.1554 13.7301 13.6679C8.44404 14.1805 4.18774 14.5564 4.18774 14.5222C4.18774 14.488 8.44404 14.1122 13.7301 13.5996C19.0161 13.087 23.2724 12.7111 23.2724 12.7453Z" fill="#273339"/>
<path d="M23.341 13.9758C23.341 13.9758 19.0847 14.3858 13.7987 14.8984C8.51264 15.411 4.25635 15.7868 4.25635 15.7527C4.25635 15.7527 8.51264 15.3426 13.7987 14.8301C19.0847 14.3175 23.341 13.9416 23.341 13.9758Z" fill="#273339"/>
<path d="M23.4439 15.2063C23.4439 15.2063 19.2219 15.6163 14.0388 16.1289C8.85576 16.6073 4.63379 17.0173 4.63379 16.9831C4.63379 16.9831 8.85576 16.5731 14.0388 16.0605C19.2219 15.548 23.4439 15.1721 23.4439 15.2063Z" fill="#273339"/>
<path d="M16.0642 17.5635C16.0642 17.5635 13.5241 17.8368 10.4006 18.1102C7.27701 18.3836 4.70264 18.6228 4.70264 18.5886C4.70264 18.5886 7.24268 18.3494 10.3663 18.0419C13.4898 17.7343 16.0642 17.5635 16.0642 17.5635Z" fill="#273339"/>
<path d="M13.0091 27.7471C13.0091 27.7471 11.4645 27.9179 9.54226 28.0546C7.62006 28.1913 6.07544 28.3621 6.07544 28.328C6.07544 28.328 7.62006 28.1571 9.54226 28.0204C11.4645 27.8838 12.9748 27.7471 13.0091 27.7471Z" fill="#010101"/>
<path d="M10.0229 28.9425C10.0229 28.9425 9.16478 29.045 8.06639 29.1475C7.00231 29.25 6.10986 29.2842 6.10986 29.2842C6.10986 29.2842 6.96799 29.1817 8.06639 29.0792C9.16478 28.9767 10.0229 28.9083 10.0229 28.9425Z" fill="#010101"/>
<path d="M9.7825 20.2635C9.7825 20.2635 8.75275 20.4001 7.51706 20.5027C6.28136 20.6052 5.21729 20.7077 5.21729 20.7077C5.21729 20.7077 6.24703 20.571 7.51706 20.4685C8.75275 20.3318 9.7825 20.2293 9.7825 20.2635Z" fill="#E95A25"/>
<g opacity="0.3">
<path d="M3.63847 27.2338L5.7323 26.8579L6.86502 25.1152L3.56982 26.1745L3.63847 27.2338Z" fill="#010101"/>
</g>
<path d="M0 25.0135L5.56064 24.501L6.86499 25.1161L5.80091 26.312L0.171625 26.8929L0 25.0135Z" fill="#E95A25"/>
<path d="M2.50583 25.3545L2.57448 26.0721H2.40286L2.36853 25.7987L2.05961 25.8329V26.1404H1.88799L1.81934 25.4228H1.99096L2.02529 25.6962L2.33421 25.662L2.29988 25.3887L2.50583 25.3545Z" fill="white"/>
<path d="M3.22651 25.7653L2.81461 25.7994C2.84893 25.8678 2.91758 25.902 2.98623 25.902C3.02056 25.902 3.08921 25.8678 3.12353 25.8336L3.22651 25.902C3.15786 25.9703 3.08921 26.0045 3.02056 26.0045C2.84893 26.0386 2.71163 25.9361 2.67731 25.7653V25.7311C2.64298 25.6286 2.74596 25.4919 2.88326 25.4919C2.88326 25.4919 2.88326 25.4919 2.91758 25.4919C3.05488 25.4577 3.19218 25.5602 3.22651 25.7311V25.7653ZM2.81461 25.7311L3.08921 25.6969C3.05488 25.6286 2.98623 25.5944 2.91758 25.5944C2.84893 25.6286 2.81461 25.6628 2.81461 25.7311Z" fill="white"/>
<path d="M3.63856 25.4229V25.5595H3.60424C3.53559 25.5595 3.46694 25.6279 3.46694 25.6962V25.7304L3.50126 26.0038H3.32964L3.26099 25.457H3.39829V25.5254C3.50126 25.457 3.56991 25.4229 3.63856 25.4229Z" fill="white"/>
<path d="M4.29062 25.6627L3.87872 25.6969C3.91304 25.7652 3.98169 25.7994 4.05034 25.7994C4.08467 25.7994 4.15332 25.7652 4.18764 25.7311L4.29062 25.7994C4.22197 25.8677 4.15332 25.9019 4.08467 25.9019C3.94737 25.9361 3.77574 25.8336 3.74142 25.6969V25.6627C3.70709 25.526 3.84439 25.3552 3.98169 25.3552C4.11899 25.321 4.25629 25.4235 4.29062 25.5944V25.6285V25.6627ZM3.87872 25.6285L4.15332 25.5944C4.15332 25.526 4.08467 25.4919 4.01602 25.4919C3.91304 25.4919 3.87872 25.5602 3.87872 25.6285Z" fill="white"/>
<path d="M16.8191 20.127C16.8534 20.127 16.8878 20.1611 16.8878 20.1611C16.9564 20.1953 17.0251 20.2636 17.0594 20.2978C17.2653 20.537 17.4026 20.7762 17.5056 21.0837C17.6772 21.528 17.7802 22.0064 17.7459 22.4847C17.7459 22.6214 17.7116 22.7581 17.6772 22.8948C17.6429 23.0315 17.5743 23.1682 17.5056 23.3048C17.3683 23.6124 17.1624 23.8857 16.9221 24.0908C16.6475 24.33 16.3386 24.535 15.9953 24.6717C15.6177 24.8084 15.2402 24.8767 14.8283 24.8425C13.9358 24.74 13.1463 24.1933 12.7688 23.3732C12.6658 23.1682 12.5971 22.929 12.5971 22.6898C12.5628 22.4506 12.5971 22.2114 12.6658 21.9722C12.7344 21.733 12.9061 21.528 13.0777 21.3913C13.1807 21.3229 13.318 21.2888 13.4209 21.2546C13.5582 21.2546 13.6955 21.2546 13.7985 21.2888C14.0388 21.3913 14.2447 21.5621 14.382 21.7672C14.5193 22.0064 14.588 22.2455 14.6223 22.5189C14.691 23.0315 14.588 23.5782 14.382 24.0566C14.1761 24.535 13.8672 24.9792 13.4553 25.3209C13.0434 25.6285 12.5628 25.8335 12.0479 25.9018C11.5674 25.9702 11.0525 25.8677 10.6063 25.6626C10.1601 25.4576 9.81683 25.1159 9.57655 24.7058C9.33628 24.33 9.2333 23.8857 9.2333 23.4074C9.2333 23.2023 9.26763 22.9631 9.3706 22.7581C9.43925 22.5531 9.57655 22.3822 9.74818 22.2455C9.9198 22.1089 10.1258 22.0405 10.3317 22.0747C10.5377 22.1089 10.7093 22.2114 10.8466 22.3481C10.9839 22.4847 11.0525 22.6556 11.0868 22.8606C11.1212 23.0315 11.1212 23.2023 11.0868 23.4074C11.0182 23.7491 10.8809 24.0566 10.7093 24.33C10.572 24.5692 10.366 24.8084 10.1601 25.0476C9.85115 25.3893 9.47358 25.6968 9.06168 25.936C8.78708 26.0727 8.51248 26.2094 8.23788 26.3119C8.03193 26.3802 7.92896 26.3802 7.92896 26.3802L7.9976 26.346C8.03193 26.346 8.1349 26.3119 8.20355 26.2777C8.47815 26.1752 8.75275 26.0727 9.02735 25.9018C9.43925 25.6626 9.81683 25.3893 10.1258 25.0476C10.3317 24.8425 10.5033 24.6033 10.6406 24.33C10.8123 24.0566 10.9495 23.7491 11.0182 23.4415C11.0525 23.2707 11.0525 23.0998 11.0182 22.929C10.9839 22.7581 10.8809 22.5873 10.7779 22.4506C10.6406 22.3139 10.469 22.2114 10.2974 22.1772C10.0914 22.143 9.9198 22.2114 9.74818 22.3481C9.57655 22.4847 9.47358 22.6556 9.40493 22.8265C9.30195 23.0315 9.26763 23.2365 9.26763 23.4757C9.26763 23.9199 9.3706 24.3641 9.61088 24.74C9.85115 25.1501 10.1944 25.4576 10.6063 25.6626C11.0525 25.8677 11.5331 25.936 12.0136 25.9018C12.5285 25.8335 13.009 25.6626 13.3866 25.3551C13.7985 25.0476 14.1074 24.6033 14.3134 24.1249C14.5193 23.6466 14.588 23.134 14.5537 22.5873C14.5193 22.3481 14.4507 22.0747 14.3134 21.8697C14.1761 21.6646 14.0045 21.4938 13.7642 21.4254C13.6612 21.3913 13.5239 21.3571 13.4209 21.3913C13.318 21.3913 13.1807 21.4596 13.0777 21.528C12.8717 21.6646 12.7344 21.8697 12.6658 22.1089C12.5971 22.3139 12.5628 22.5531 12.5971 22.7923C12.6315 23.0315 12.6658 23.2365 12.7688 23.4415C13.1463 24.2275 13.9015 24.7742 14.7596 24.8767C15.1372 24.9109 15.5491 24.8425 15.8923 24.7058C16.2356 24.5692 16.5445 24.3641 16.7848 24.1249C17.0251 23.8857 17.231 23.6466 17.3683 23.339C17.437 23.2023 17.5056 23.0656 17.5399 22.929C17.5743 22.7923 17.6086 22.6556 17.6086 22.5189C17.6429 22.0405 17.5743 21.5621 17.4026 21.1521C17.2997 20.8787 17.1624 20.6053 16.9564 20.3661C16.9221 20.2978 16.8534 20.2636 16.7848 20.2295C16.8534 20.127 16.8191 20.127 16.8191 20.127Z" fill="#010101"/>
<path d="M18.5354 5.22774C18.5354 5.22774 18.5354 5.19357 18.5354 5.1594C18.5354 5.12523 18.5354 5.05688 18.5354 5.02271C18.5354 4.88603 18.501 4.681 18.4667 4.44181C18.3981 3.92925 18.3294 3.17749 18.2264 2.25487H18.2608L6.72759 3.45085L6.76191 3.41668C6.86489 4.44181 6.96786 5.43276 7.07084 6.38955L7.03651 6.35538L15.2745 5.50111L17.7116 5.26191L18.3637 5.19357H18.5354V5.22774H18.4667L18.2951 5.26191L17.6429 5.33025L15.2402 5.60362L7.00218 6.45789H6.96786V6.42372C6.86489 5.46693 6.76191 4.47598 6.65894 3.45085V3.41668H6.69326L18.2264 2.2207C18.3294 3.17749 18.3981 3.92925 18.4324 4.44181C18.4667 4.681 18.4667 4.88603 18.501 5.02271C18.501 5.09105 18.501 5.12523 18.501 5.1594L18.5354 5.22774Z" fill="#465B65"/>
</g>
<defs>
<clipPath id="clip0_56_9892">
<rect width="30" height="34" fill="white"/>
</clipPath>
</defs>
</svg>
