<svg width="26" height="31" viewBox="0 0 26 31" fill="none" xmlns="http://www.w3.org/2000/svg">
<path d="M12.5825 30.5671C11.5385 30.1284 10.4593 29.7424 9.4416 29.2423C4.62498 26.8559 1.67711 23.0044 0.589206 17.7403C0.185628 15.8102 0.0101476 13.8537 0.00137412 11.8797C-0.00739931 10.3092 0.0276923 8.73876 0.0540126 7.16832C0.0803329 5.75579 1.3525 4.36083 2.76503 4.19414C3.94944 4.05376 5.13385 3.96602 6.29194 3.6414C8.13436 3.12377 9.76623 2.23767 11.1788 0.965517C11.442 0.728634 11.7052 0.474187 12.0035 0.289945C12.7492 -0.175047 13.6178 -0.0697488 14.3196 0.526845C14.7846 0.912876 15.2321 1.32522 15.7146 1.6937C17.3289 2.92198 19.1538 3.64141 21.1541 3.94848C21.8209 4.05376 22.4965 4.09762 23.1633 4.18535C24.7074 4.38714 25.9269 5.74702 25.9444 7.30869C25.9708 8.96687 26.0234 10.6338 25.9883 12.292C25.9357 14.7486 25.6725 17.1876 24.9355 19.5476C23.7949 23.2149 21.6279 26.1189 18.3905 28.1982C16.8464 29.1896 15.2058 29.9705 13.4511 30.532C13.4335 30.532 13.4247 30.5583 13.4072 30.5759H12.5737L12.5825 30.5671ZM1.83505 10.3794C1.83505 10.3794 1.76484 10.3794 1.72974 10.3794C1.79993 11.7656 1.86134 13.1606 1.94908 14.5468C2.03681 15.9418 2.29125 17.3017 2.66851 18.644C3.5283 21.6708 5.16893 24.18 7.70445 26.0751C9.24858 27.2332 10.9682 28.0667 12.7843 28.7071C12.9247 28.7598 13.1265 28.7422 13.2668 28.6808C14.3196 28.2246 15.3988 27.8122 16.4077 27.2683C18.873 25.9347 20.812 24.066 22.1368 21.5743C23.3738 19.2318 23.8739 16.6875 24.0845 14.0818C24.2687 11.8797 24.181 9.66876 24.1459 7.45785C24.1371 6.72966 23.7335 6.18571 23.0843 6.01024C22.8737 5.9576 22.6544 5.94882 22.4351 5.91372C21.3822 5.74703 20.3031 5.64174 19.2679 5.38731C17.0043 4.82581 15.0478 3.69405 13.3545 2.08852C12.9948 1.74635 13.0036 1.77267 12.6088 2.08852C11.8192 2.7202 11.0471 3.38698 10.1873 3.92216C8.16068 5.18554 5.89714 5.77336 3.52831 5.9225C2.33513 6.00146 1.82626 6.5191 1.81748 7.71229C1.81748 8.60718 1.81748 9.50207 1.81748 10.397L1.83505 10.3794Z" fill="#F46524"/>
<path d="M5.37085 15.3276C5.39717 11.169 8.62577 7.69472 12.9686 7.6684C17.136 7.64208 20.5927 10.9321 20.6191 15.2574C20.6454 19.3985 17.3817 22.864 13.0476 22.8991C8.92409 22.9342 5.45858 19.688 5.37085 15.3276ZM12.9949 21.0918C16.206 21.0918 18.7854 18.5212 18.803 15.3013C18.8205 12.0902 16.2148 9.47573 12.9949 9.48451C9.78386 9.48451 7.20448 12.0551 7.18693 15.275C7.16938 18.4861 9.77509 21.0918 12.9949 21.0918Z" fill="#F46524"/>
<path d="M11.635 16.4682C12.0737 16.0295 12.4773 15.6259 12.8809 15.2136C13.6178 14.4766 14.3548 13.7396 15.0918 12.9939C15.3901 12.6956 15.7322 12.564 16.1446 12.7219C16.7061 12.9412 16.8903 13.6343 16.5131 14.1081C16.4516 14.1871 16.3815 14.2573 16.3113 14.3274C15.0128 15.6259 13.7143 16.9332 12.4071 18.2316C11.8631 18.7756 11.4069 18.7756 10.863 18.2316C10.3804 17.7491 9.88034 17.2753 9.41535 16.7752C8.91526 16.2401 9.13459 15.4504 9.81892 15.2574C10.1699 15.1609 10.4682 15.2838 10.7138 15.5294C11.0121 15.8277 11.3104 16.1348 11.6262 16.4594L11.635 16.4682Z" fill="#F46524"/>
</svg>
