<svg width="40" height="36" viewBox="0 0 40 36" fill="none" xmlns="http://www.w3.org/2000/svg">
<circle cx="21" cy="18" r="18" fill="#FDEEE6"/>
<g clip-path="url(#clip0_142_9172)">
<path d="M37.3748 15.7119H2.20239V20.7191H37.3748V15.7119Z" fill="#E95A25"/>
<g opacity="0.5">
<path d="M37.3748 15.7119H2.20239V20.7191H37.3748V15.7119Z" fill="#010101"/>
</g>
<path d="M3.53736 20.6546C3.51511 22.4676 5.00565 23.9568 6.8744 24C8.74314 24.0215 10.2782 22.5755 10.3227 20.7626C10.3449 18.9496 8.85437 17.4604 6.98563 17.4172C5.11689 17.3956 3.5596 18.8417 3.53736 20.6546Z" fill="#101536"/>
<path d="M3.53736 20.6328C3.51511 22.4458 5.00565 23.935 6.8744 23.9781C8.74314 23.9997 10.2782 22.5537 10.3227 20.7407L3.53736 20.6328Z" fill="#101536"/>
<path d="M4.56065 20.6552C4.5384 21.9286 5.58401 22.9861 6.89658 23.0077C8.20915 23.0293 9.29925 22.0149 9.3215 20.7415C9.34374 19.4681 8.29814 18.4106 6.98557 18.389C5.65075 18.3674 4.5829 19.3818 4.56065 20.6552Z" fill="#FAFBFC"/>
<path d="M6.98546 18.389C5.67289 18.3674 4.58279 19.3818 4.56055 20.6552L9.32139 20.7199C9.34364 19.4466 8.29803 18.4106 6.98546 18.389Z" fill="#E0E1E0"/>
<path d="M5.49494 20.6768C5.4727 21.4537 6.11786 22.1012 6.91875 22.1012C7.71964 22.1012 8.38705 21.4969 8.38705 20.7199C8.40929 19.9429 7.76413 19.2955 6.96324 19.2955C6.16235 19.2739 5.49494 19.8998 5.49494 20.6768Z" fill="#101536"/>
<path d="M32.881 23.9781C34.7486 23.9781 36.2626 22.5094 36.2626 20.6976C36.2626 18.8858 34.7486 17.417 32.881 17.417C31.0135 17.417 29.4995 18.8858 29.4995 20.6976C29.4995 22.5094 31.0135 23.9781 32.881 23.9781Z" fill="#101536"/>
<path d="M29.4773 20.6328C29.455 22.4458 30.9456 23.935 32.8143 23.9781C34.6831 23.9997 36.2181 22.5537 36.2626 20.7407L29.4773 20.6328Z" fill="#101536"/>
<path d="M30.5006 20.6552C30.4783 21.9286 31.524 22.9861 32.8365 23.0077C34.1491 23.0293 35.2392 22.0149 35.2614 20.7415C35.2837 19.4681 34.2381 18.4106 32.9255 18.389C31.5907 18.3674 30.5228 19.3818 30.5006 20.6552Z" fill="#FAFBFC"/>
<path d="M32.9032 18.389C31.5906 18.3674 30.5005 19.3818 30.4783 20.6552L35.2391 20.7199C35.2836 19.4466 34.2158 18.4106 32.9032 18.389Z" fill="#E0E1E0"/>
<path d="M31.4349 20.6768C31.4126 21.4537 32.0578 22.1012 32.8587 22.1012C33.6596 22.1228 34.327 21.4969 34.327 20.7199C34.3492 19.9429 33.7041 19.2955 32.9032 19.2955C32.1023 19.2739 31.4349 19.8998 31.4349 20.6768Z" fill="#101536"/>
<path d="M11.3905 12.9066C11.3905 12.9066 6.38491 13.2735 4.53842 13.662C3.22585 13.9425 0.711945 14.4389 0.756439 15.9713L0.956662 17.072C0.378241 17.3526 4.3306e-05 17.9138 4.3306e-05 18.5397C4.3306e-05 19.5972 -0.222426 21.2375 1.95777 21.3023C2.31373 21.3023 3.00338 21.3023 3.00338 21.3023C3.00338 21.3023 2.60293 16.813 6.8521 16.662C11.1903 16.5325 10.901 21.2591 10.901 21.2591H29.0101C29.0101 21.2591 28.2759 16.6404 32.9255 16.6404C37.5974 16.6404 36.8855 21.2807 36.8855 21.2807C36.8855 21.2807 38.5985 21.4318 39.3994 20.0289C40.2003 18.626 40 17.6332 40 17.6332L39.9778 16.7483C39.9778 16.4461 39.7108 16.2087 39.4216 16.1871C39.4216 16.1871 39.7331 13.9641 39.2659 13.5756C38.7765 13.1871 36.1736 10.8562 36.1736 10.8562L36.2848 10.7699C36.4183 10.6836 36.4628 10.5109 36.3738 10.3814C36.3293 10.3166 36.2848 10.2735 36.2181 10.2519L32.7698 9.10801C32.703 9.08643 32.6363 9.06485 32.5473 9.06485C32.2581 9.04326 31.4795 9.0001 30.0334 8.97852C28.2537 9.0001 21.3126 9.0001 21.3126 9.0001C21.3126 9.0001 18.9322 9.19434 17.5974 9.77708C16.2403 10.3598 11.3905 12.9066 11.3905 12.9066Z" fill="#E95A25"/>
<path d="M1.29042 18.432C1.09019 18.3888 0.867723 18.4104 0.689748 18.5183C0.60076 18.6262 0.534019 18.7557 0.534019 18.8852C0.511772 19.0579 0.511772 19.2521 0.534019 19.4248C0.578513 19.5974 0.689748 19.7701 0.845476 19.8564C1.02345 19.9428 1.22367 19.9212 1.35716 19.7917C1.46839 19.6622 1.51288 19.4895 1.49064 19.3169C1.49064 19.101 1.49064 18.8636 1.46839 18.6478C1.46839 18.6046 1.44614 18.5615 1.40165 18.5183C1.3794 18.4536 1.31266 18.432 1.29042 18.432Z" fill="white"/>
<path d="M12.1469 21.1947V21.0436L12.1247 20.6119C12.1247 20.245 12.1024 19.7055 12.0802 18.9932C12.058 18.3026 12.0357 17.4609 12.0135 16.4896C12.0135 16.2522 12.0135 15.9932 11.9912 15.7342C11.9912 15.6047 11.9912 15.4752 11.9912 15.3457C11.9912 15.281 12.0135 15.2162 12.0135 15.1515C12.0135 15.0868 12.0357 15.022 12.058 14.9573C12.1247 14.6767 12.2137 14.4177 12.3472 14.1587C12.4806 13.8997 12.6364 13.6407 12.8143 13.4033L15.9512 11.4824L16.7966 10.9645C17.0858 10.7918 17.375 10.6191 17.6864 10.468C17.9979 10.317 18.3316 10.2091 18.6653 10.1011C18.821 10.0364 18.999 9.99323 19.177 9.95006C19.3549 9.9069 19.5107 9.86373 19.6887 9.82057C20.3561 9.69107 21.0235 9.60474 21.7131 9.58316C22.3583 9.53999 23.0257 9.53999 23.6709 9.58316H23.6931V9.60474L22.8477 13.2522C22.692 13.4896 22.5585 13.7702 22.4695 14.0292C22.3805 14.2882 22.336 14.5688 22.336 14.8493C22.3583 15.1299 22.3583 15.3889 22.3805 15.6479C22.3805 15.9069 22.3805 16.1443 22.3805 16.4033C22.3805 17.3745 22.4028 18.2162 22.4028 18.9069C22.4028 19.5975 22.4028 20.1371 22.4028 20.5256C22.4028 20.7198 22.4028 20.8493 22.4028 20.9573V21.1083C22.4028 21.0868 22.4028 21.0868 22.4028 21.0652V20.9573C22.4028 20.8493 22.4028 20.7198 22.4028 20.5256C22.4028 20.1587 22.4028 19.6191 22.4028 18.9069C22.4028 18.1947 22.4028 17.3745 22.3805 16.4033C22.3805 16.1659 22.3805 15.9069 22.3805 15.6479C22.3805 15.3889 22.3583 15.1299 22.336 14.8493C22.3138 14.5688 22.3583 14.2882 22.4695 14.0292C22.5585 13.7486 22.692 13.4896 22.8477 13.2306L23.6931 9.58316V9.6479C23.0479 9.62632 22.4028 9.62632 21.7354 9.6479C21.068 9.66949 20.3783 9.75582 19.7109 9.9069C19.5329 9.95006 19.3549 9.99323 19.1992 10.0364C19.0435 10.0796 18.8433 10.1227 18.6875 10.1659C18.3538 10.2738 18.0424 10.4033 17.7309 10.5328C17.4195 10.6623 17.1303 10.835 16.841 11.0076L15.9957 11.5256L12.8588 13.4465C12.5029 13.8997 12.2582 14.4177 12.1247 14.9573C12.0357 15.4537 12.0135 15.9716 12.058 16.468C12.0802 17.4393 12.1024 18.281 12.1247 18.9716C12.1469 19.6623 12.1469 20.2019 12.1692 20.5903C12.1692 20.7846 12.1692 20.9141 12.1692 21.022C12.1692 21.0652 12.1692 21.0868 12.1692 21.1299C12.1469 21.1515 12.1469 21.1731 12.1469 21.1947Z" fill="#273339"/>
<path d="M21.5351 15.1508H21.5796C21.6241 15.1508 21.6686 15.1292 21.7131 15.1076C21.7798 15.0645 21.8243 14.9997 21.8466 14.935C21.8688 14.8918 21.8688 14.8486 21.8688 14.8055C21.8688 14.7623 21.8466 14.6976 21.8243 14.6544C21.7576 14.5465 21.6463 14.4817 21.5351 14.4817H20.1113C20.0223 14.4817 19.9556 14.5033 19.8888 14.5681C19.8443 14.6112 19.7998 14.676 19.7998 14.7623C19.7998 14.8271 19.7998 14.9134 19.8443 14.9781C19.8888 15.0429 19.9333 15.0861 20.0001 15.1076C20.0668 15.1292 20.1335 15.1292 20.2003 15.1292H20.7787H20.1113C20.0668 15.1292 20.0446 15.1292 20.0001 15.1076C19.9333 15.0861 19.8666 15.0213 19.8221 14.9566C19.7776 14.8918 19.7776 14.8055 19.7776 14.7192C19.7776 14.6328 19.8221 14.5465 19.8888 14.5033C19.9556 14.4386 20.0446 14.417 20.1335 14.417H21.5351C21.6686 14.417 21.7798 14.4817 21.8466 14.6112C21.891 14.6976 21.891 14.8055 21.8688 14.9134C21.8466 14.9781 21.7798 15.0429 21.7131 15.0861C21.6686 15.1076 21.6241 15.1292 21.5796 15.1292L21.5351 15.1508Z" fill="#273339"/>
<path d="M30.9232 15.1508H30.9677C31.0122 15.1508 31.0567 15.1292 31.1012 15.1076C31.168 15.0645 31.2125 14.9997 31.2347 14.935C31.2347 14.8918 31.2347 14.8486 31.2347 14.8055C31.2347 14.6328 31.079 14.4817 30.901 14.4817H29.4994C29.4105 14.4817 29.3437 14.5033 29.277 14.5681C29.2102 14.6112 29.188 14.6976 29.1657 14.7623C29.1657 14.8271 29.1657 14.9134 29.2102 14.9781C29.2547 15.0429 29.2992 15.0861 29.366 15.1076C29.4327 15.1292 29.4994 15.1292 29.5884 15.1292H30.1669H29.4772C29.4327 15.1292 29.3882 15.1292 29.366 15.1076C29.2992 15.0861 29.2325 15.0213 29.188 14.9566C29.1435 14.8918 29.1212 14.8055 29.1435 14.7192C29.1657 14.5465 29.3215 14.417 29.4994 14.417H30.901C31.0345 14.417 31.1457 14.4817 31.2125 14.6112C31.2347 14.6544 31.257 14.7192 31.257 14.7623C31.257 14.8055 31.257 14.8486 31.2347 14.9134C31.1902 15.0429 31.079 15.1292 30.9455 15.1292L30.9232 15.1508Z" fill="#273339"/>
<path d="M39.1323 13.6836H37.2635C36.9966 13.6836 36.7741 13.8131 36.6629 14.0505C36.5739 14.2232 36.5516 14.439 36.6406 14.6332L37.3748 16.2519L39.2435 16.2304C39.2435 16.2304 39.644 14.1584 39.1323 13.6836Z" fill="#FAFBFC"/>
<path d="M13.0813 13.4462L22.781 13.2735L29.0768 13.1656L31.1458 12.0001C31.3015 11.9138 31.3683 11.7411 31.2793 11.5901C31.2793 11.5685 31.257 11.5469 31.2348 11.5469L29.9445 9.90661C29.811 9.73395 29.6108 9.62603 29.3883 9.62603L22.3138 9.56128C22.3138 9.56128 19.6664 9.4102 17.5752 10.5541C16.0179 11.4174 14.5051 12.3886 13.0813 13.4462Z" fill="#818181"/>
<path d="M17.5084 9.73438C17.5084 9.73438 17.9978 9.9502 17.6864 10.1444C17.3749 10.3387 12.4583 13.3387 12.4583 13.3387L11.3237 12.8423C13.326 11.7632 15.3504 10.7056 17.5084 9.73438Z" fill="#101536"/>
<path d="M36.0846 10.8135C36.0846 10.8135 35.6619 11.2883 35.8177 11.6336C35.9734 11.9789 37.7531 13.1876 37.7531 13.1876L39.0212 13.425L36.0846 10.8135Z" fill="#101536"/>
<path d="M23.9601 9.97168L23.6709 12.9717L28.7877 12.8206L30.8567 11.6551L29.5218 9.97168H23.9601Z" fill="#101536"/>
<path d="M14.2825 13.1226C14.2825 13.1226 17.3748 10.9643 18.5984 10.5327C19.5105 10.1658 20.5116 9.99309 21.4905 9.97151C22.5583 9.94992 23.2035 9.97151 23.2035 9.97151L22.3804 13.0363L14.2825 13.1226Z" fill="#101536"/>
<path d="M13.8376 13.1443C13.8376 12.95 13.9489 12.7774 14.1046 12.691L14.8165 12.3025C15.0167 12.1946 15.2392 12.1299 15.4839 12.1299C15.6174 12.1299 15.7731 12.1515 15.9066 12.1946C16.2181 12.3025 16.4183 12.5615 16.4183 12.8853C16.4405 13.2954 16.1068 13.6623 15.6619 13.6838H15.6396H14.3938C14.1046 13.6623 13.8376 13.4464 13.8376 13.1443Z" fill="#E95A25"/>
<path d="M13.8377 13.1444C13.8377 13.166 13.8377 13.1875 13.8377 13.2091C13.86 13.3818 13.9712 13.5113 14.1269 13.5976C14.1937 13.6192 14.2382 13.6408 14.3049 13.6624C14.3716 13.6624 14.4384 13.6624 14.5274 13.6624H15.6175C15.7287 13.6624 15.8399 13.6408 15.9289 13.6192C16.0402 13.576 16.1291 13.5329 16.1959 13.4465C16.3516 13.2954 16.4406 13.0796 16.4184 12.8638C16.3961 12.648 16.2849 12.4321 16.1069 12.3026C16.0179 12.2379 15.9067 12.2163 15.8177 12.1947C15.7064 12.1731 15.6175 12.1516 15.5062 12.1516C15.306 12.1516 15.128 12.1947 14.9501 12.2595C14.8611 12.3026 14.7943 12.3458 14.7276 12.389L14.5051 12.4969L14.1269 12.6695C14.0379 12.7127 13.9489 12.799 13.9044 12.8854C13.86 12.9717 13.8377 13.0365 13.8377 13.1444C13.8377 13.1228 13.8377 13.1012 13.8377 13.0796C13.8377 13.0149 13.86 12.9501 13.9044 12.8854C13.9489 12.799 14.0379 12.7127 14.1269 12.6695L14.4829 12.4753L14.6831 12.3674C14.7498 12.3242 14.8388 12.2811 14.9056 12.2379C15.0835 12.1516 15.2838 12.1084 15.484 12.1084C15.5952 12.1084 15.6842 12.13 15.7954 12.1516C15.9067 12.1731 16.0179 12.2163 16.1069 12.2811C16.3071 12.4106 16.4184 12.6264 16.4406 12.8638C16.4406 12.9717 16.4406 13.1012 16.3961 13.2091C16.3516 13.317 16.2849 13.4034 16.1959 13.4897C16.1069 13.576 16.0179 13.6192 15.9067 13.6624C15.7954 13.7055 15.7064 13.7055 15.5952 13.7055H14.5051C14.4384 13.7055 14.3494 13.7055 14.2826 13.7055C14.2159 13.6839 14.1492 13.6839 14.0824 13.6408C13.9934 13.5976 13.9044 13.5113 13.86 13.4249C13.8377 13.3602 13.8155 13.2954 13.7932 13.2307C13.8377 13.1875 13.8377 13.166 13.8377 13.1444Z" fill="#273339"/>
</g>
<defs>
<clipPath id="clip0_142_9172">
<rect width="40" height="15" fill="white" transform="translate(0 9)"/>
</clipPath>
</defs>
</svg>
