<svg width="36" height="42" viewBox="0 0 36 42" fill="none" xmlns="http://www.w3.org/2000/svg">
<circle cx="18" cy="24" r="18" fill="#FDEEE6"/>
<g clip-path="url(#clip0_142_9173)">
<path d="M29.5004 9.7964L18.5648 5.98926L7.74938 9.72676C6.37942 10.3535 5.15367 10.725 5.15367 11.9785V18.1768C5.12963 22.5178 6.35538 26.7893 8.71075 30.5035C11.0661 34.241 14.5271 37.2125 18.661 39C23.0833 37.6071 26.4 33.916 28.3949 30.7357C30.7502 27.0214 31.976 22.7732 31.952 18.4089V12.8375C31.976 11.0732 31.0146 10.2143 29.5004 9.7964Z" fill="white"/>
<path d="M31.976 18.1071V13C31.976 10.4464 30.606 10.2607 29.4764 9.7964L18.5648 5.98926L7.74938 9.72676C6.59573 10.2143 5.15367 10.7482 5.15367 11.9785V18.1768C5.12963 22.5178 6.35538 26.7893 8.71075 30.5035C11.0661 34.241 14.5271 37.2125 18.661 39C19.406 38.7678 20.1271 38.466 20.8 38.1178C22.4824 37.1893 24.0206 36.0285 25.3425 34.6589C26.5442 33.4053 27.6017 32.0357 28.515 30.55C30.8944 26.8125 32.0962 22.4946 31.976 18.1071ZM29.2601 18.9428C29.2841 22.3785 28.2987 25.7446 26.4481 28.6928C24.8618 31.2 22.4824 33.7768 18.685 35.425C15.3923 33.9857 12.6524 31.6178 10.8017 28.6232C8.95109 25.6982 7.96568 22.3089 7.98972 18.8732V14.5321C7.98972 13.5571 8.61461 12.6285 9.81633 12.0714L18.5648 8.91426L27.4335 12.1178C28.6592 12.675 29.2601 13.5803 29.2601 14.5785V18.9428Z" fill="#E95A25"/>
<mask id="mask0_142_9173" style="mask-type:luminance" maskUnits="userSpaceOnUse" x="4" y="0" width="26" height="36">
<path d="M29.284 14.5786V18.9429C29.308 22.3786 28.3226 25.7446 26.472 28.6929C24.8857 31.2 22.5063 33.7768 18.7089 35.425C15.4162 33.9857 12.6763 31.6179 10.8256 28.6464C8.975 25.7214 7.98959 22.3321 8.01363 18.8964V14.5321C8.32607 13.9982 8.44624 13.5339 8.47028 13.1393C8.66255 11.1196 6.85998 8.98393 4.02393 7.6375C5.10547 6.29107 6.21105 4.96786 7.29259 3.62143C9.98444 2.41429 12.7244 1.20714 15.4402 0C18.805 1.27679 22.1458 2.57679 25.5106 3.85357C26.6643 6.89464 27.7698 10.0054 28.8274 13.1857C28.9716 13.65 29.1158 14.1143 29.284 14.5786Z" fill="white"/>
</mask>
<g mask="url(#mask0_142_9173)">
<path d="M12.1715 8.49639L11.9311 7.82318C12.3638 6.29103 11.4264 4.73568 9.86418 4.31782C8.27791 3.89996 6.66761 4.80532 6.235 6.31425C5.80238 7.84639 6.73972 9.40175 8.30195 9.8196C9.47963 10.1446 10.7535 9.70353 11.4745 8.75175L12.1715 8.49639Z" fill="white"/>
<path d="M12.1716 8.49637L12.1235 8.51959L11.9793 8.56602L11.4505 8.77494C11.4505 8.77494 11.4505 8.77494 11.4265 8.77494H11.4505C11.1621 9.14637 10.8016 9.44816 10.369 9.65709C9.38358 10.1446 8.20589 10.0517 7.31662 9.42494C6.57156 8.91423 6.11491 8.10173 6.06684 7.21959C6.0428 6.7553 6.13894 6.29102 6.35525 5.84994C6.57156 5.43209 6.884 5.06066 7.26855 4.75887C7.6531 4.50352 8.08572 4.3178 8.54237 4.24816C8.97499 4.17852 9.40761 4.20173 9.84023 4.3178C10.2248 4.43387 10.5853 4.59637 10.8977 4.85173C11.1862 5.06066 11.4265 5.33923 11.5947 5.64102C11.763 5.89637 11.8591 6.19816 11.9312 6.49994C12.0274 6.94102 12.0274 7.4053 11.8831 7.86959C11.9552 8.07852 12.0274 8.24102 12.0754 8.35709C12.0995 8.40352 12.0995 8.44994 12.1235 8.49637C12.1716 8.44994 12.1716 8.47316 12.1716 8.49637C12.1716 8.49637 12.1716 8.47316 12.1475 8.44994C12.1475 8.42673 12.1235 8.3803 12.0995 8.31066C12.0514 8.19459 12.0033 8.03209 11.9072 7.82316C12.2196 6.73209 11.8351 5.57137 10.8977 4.87494C10.5853 4.6428 10.2248 4.45709 9.84023 4.36423C9.43164 4.24816 8.99903 4.22494 8.56641 4.29459C8.10976 4.36423 7.67714 4.54994 7.31662 4.8053C6.93207 5.08387 6.61963 5.4553 6.42735 5.87316C6.23508 6.2678 6.13894 6.73209 6.16297 7.19637C6.18701 7.84637 6.45139 8.47316 6.90804 8.96066C7.05225 9.09994 7.19645 9.23923 7.36469 9.3553C7.67714 9.58744 8.03765 9.72673 8.4222 9.81959C9.55182 10.0749 10.7535 9.63387 11.4505 8.72852C11.4505 8.72852 11.4505 8.72852 11.4746 8.72852C11.4746 8.72852 11.4746 8.72852 11.4746 8.75173L11.4505 8.72852L11.9793 8.5428L12.1235 8.49637H12.1716Z" fill="#273339"/>
<path d="M10.5853 6.73251C10.5613 6.54679 10.4651 6.38429 10.345 6.26822C10.2248 6.12894 10.0566 6.03608 9.88831 6.01286C9.57586 5.94322 9.26342 6.08251 9.11921 6.36108C8.97501 6.10572 8.66256 5.98965 8.35011 6.05929C8.18187 6.10572 8.01363 6.19858 7.89346 6.33786C7.77329 6.47715 7.67715 6.63965 7.67715 6.82536C7.65312 7.05751 7.70119 7.28965 7.82136 7.47536C7.96556 7.68429 8.1338 7.84679 8.35011 7.96286C8.71063 8.17179 9.16728 8.40394 9.16728 8.40394C9.16728 8.40394 9.55183 8.12536 9.91234 7.91644C10.1287 7.80036 10.3209 7.63786 10.4411 7.42894C10.5613 7.19679 10.6093 6.96465 10.5853 6.73251Z" fill="#E95A25"/>
<path d="M23.4436 31.7803L23.3715 33.4981C23.3715 33.4981 25.1741 34.1481 25.1741 34.4731H21.7131V31.7803H23.4436Z" fill="#273339"/>
<path d="M21.7131 34.4729V34.1943L25.0299 34.3104C25.0299 34.3104 25.1981 34.38 25.1741 34.4729H21.7131Z" fill="#465B65"/>
<path d="M23.3957 33.1035C23.3957 33.1268 23.2995 33.1035 23.2034 33.1035C23.1073 33.1035 23.0352 33.15 23.0352 33.1268C23.0352 33.1035 23.1073 33.0571 23.2034 33.0571C23.3236 33.0339 23.3957 33.0803 23.3957 33.1035Z" fill="white"/>
<path d="M19.43 31.8037L19.2377 33.893L19.5742 35.5876C19.5982 35.7037 19.5261 35.8198 19.406 35.843C19.406 35.843 19.406 35.843 19.3819 35.843C19.3098 35.843 19.2377 35.8198 19.1896 35.7734C18.8772 35.4484 17.7476 34.2412 17.7716 34.1019C17.7957 33.9162 17.8197 31.8966 17.8197 31.8966L19.43 31.8037Z" fill="#273339"/>
<path d="M19.406 35.8198L17.7957 33.9395V34.0323C17.7957 34.102 17.8197 34.1948 17.8678 34.2412C17.9879 34.4037 18.3484 34.8448 19.2137 35.7734C19.2377 35.8198 19.3098 35.843 19.406 35.8198Z" fill="#465B65"/>
<path d="M18.7329 33.2425C18.7329 33.2657 18.8531 33.196 19.0213 33.2192C19.1896 33.2425 19.2857 33.3121 19.3097 33.3121C19.3097 33.3121 19.2857 33.2889 19.2376 33.2425C19.1175 33.1728 18.9492 33.1496 18.805 33.196C18.7569 33.2192 18.7329 33.2425 18.7329 33.2425Z" fill="white"/>
<path d="M19.0452 33.1033C19.0452 33.08 19.0452 33.0568 19.0452 33.0336C19.0452 32.964 19.0212 32.8943 18.9972 32.8247C18.9731 32.7783 18.9491 32.7318 18.901 32.7086C18.877 32.6854 18.8289 32.6854 18.8049 32.7318C18.7809 32.755 18.7568 32.7783 18.7568 32.8247C18.7568 32.964 18.853 33.1033 19.0212 33.1265C19.1654 33.1497 19.3096 33.08 19.3817 32.964C19.4058 32.9408 19.4058 32.8943 19.4058 32.8711C19.3817 32.8479 19.3577 32.8247 19.3096 32.8247C19.2616 32.8247 19.2135 32.8479 19.1654 32.8943C19.0933 32.9408 19.0452 32.9872 18.9972 33.0568C18.9731 33.08 18.9731 33.1033 18.9491 33.1265C19.0212 33.0568 19.0933 32.9872 19.1654 32.9408C19.2135 32.9175 19.2375 32.8943 19.2856 32.8943C19.3096 32.8943 19.3337 32.8943 19.3337 32.9175C19.3337 32.9408 19.3337 32.964 19.3096 32.9872C19.2375 33.08 19.1174 33.1497 18.9972 33.1265C18.877 33.1033 18.7809 33.0104 18.7809 32.8711C18.7809 32.8479 18.7809 32.8247 18.8049 32.8015C18.8289 32.7783 18.853 32.7783 18.853 32.8015C18.901 32.8247 18.9251 32.8711 18.9491 32.8943C18.9972 32.9175 19.0212 33.0104 19.0452 33.1033Z" fill="white"/>
<path d="M27.5776 18.9885C27.5776 18.9885 28.1303 19.151 28.2746 19.2439C28.4188 19.3367 28.8033 19.685 29.0437 19.7546C29.0437 19.7546 29.0677 19.9403 28.8514 19.9171C28.6351 19.8939 28.4188 19.801 28.2505 19.685C28.1303 19.5921 28.0823 19.685 28.1063 19.7778C28.1303 19.8707 28.4428 20.4742 28.4428 20.4742C28.4428 20.4742 28.8994 21.101 28.8754 21.1939C28.8514 21.2635 28.7552 21.31 28.6831 21.2867C28.6831 21.2867 28.6831 21.2867 28.6591 21.2867C28.611 21.2635 28.1784 20.7528 28.1784 20.7528L28.0102 20.451C28.0102 20.451 28.4909 21.426 28.4428 21.5189C28.4188 21.5885 28.3467 21.6117 28.2746 21.6117H28.2505C28.1784 21.5885 27.9861 21.1475 27.9861 21.1475L27.6737 20.5903L28.0823 21.7278C28.0823 21.7278 28.1063 21.8439 28.0102 21.8671C27.89 21.9135 27.7939 21.8207 27.7939 21.8207L27.2651 20.6832C27.2651 20.6832 27.5295 21.3332 27.5055 21.3796C27.4574 21.4492 27.3853 21.4492 27.3612 21.4028C27.2891 21.31 27.0248 20.7528 27.0248 20.7528L26.5921 19.6617L26.3518 19.151L27.4814 18.71L27.5776 18.9885Z" fill="#FCC5AA"/>
<path d="M24.7654 10.5625L25.5826 14.4857L27.6015 18.9893L26.544 19.5464C26.544 19.5464 24.0203 15.6929 23.9963 15.1821C23.9723 14.6946 23.083 11.1661 23.083 11.1661L24.7654 10.5625Z" fill="#FCC5AA"/>
<path d="M13.229 12.118C13.229 12.118 14.9114 15.4609 15.6324 15.7626C16.3535 16.0644 16.6899 15.6466 16.9303 15.5305C17.1706 15.4376 18.3964 12.7216 18.3964 12.7216L17.0505 11.6769L15.9449 13.743L14.0942 11.4912L13.229 12.118Z" fill="#FBBF9E"/>
<path d="M20.0307 9.54102L19.9826 5.66423C19.9346 4.68923 20.4874 3.87673 21.4728 3.85352H21.5689C22.5062 3.89994 23.2513 4.61959 23.2753 5.50173C23.2994 6.33744 23.3474 7.26602 23.3234 7.70709C23.2753 8.63566 22.314 8.72852 22.314 8.72852C22.314 8.72852 22.314 9.28566 22.314 9.56423L21.5449 10.6089V10.6785L20.0307 9.54102Z" fill="#FCC5AA"/>
<path d="M20.0308 6.36058C20.0067 6.36058 19.3818 6.15165 19.3818 6.77843C19.3818 7.40522 20.0308 7.28915 20.0308 7.26593C20.0308 7.24272 20.0308 6.36058 20.0308 6.36058Z" fill="#FCC5AA"/>
<path d="M24.6212 4.68899C24.6212 4.64256 24.5732 4.61935 24.5491 4.59613C24.477 4.57292 24.3809 4.5497 24.3088 4.5497C24.0925 4.5497 23.9002 4.48006 23.7079 4.3872C23.78 4.36399 23.8281 4.31756 23.8762 4.27113C23.9963 4.17828 24.0444 4.01578 23.9963 3.87649C23.9963 3.85328 23.9723 3.83006 23.9483 3.80685C23.9002 3.78363 23.8762 3.83006 23.8281 3.87649C23.756 3.96935 23.6118 4.03899 23.4916 4.01578C23.3955 4.01578 23.3234 3.99256 23.2513 3.94613C23.2272 3.92292 23.1792 3.87649 23.1551 3.85328C22.9148 3.62113 22.6985 3.45863 22.4822 3.36578C22.1697 3.22649 21.6169 3.18006 21.2805 3.27292C20.944 3.34256 20.6315 3.62113 20.5835 3.94613C20.3912 3.78363 20.1268 3.78363 19.8865 3.87649C19.6221 3.96935 19.4779 4.2247 19.4058 4.48006V4.52649C19.3097 4.66578 19.1895 4.75863 19.0693 4.85149C19.0453 4.8747 19.0212 4.8747 19.0212 4.89792C19.0212 4.92113 19.0453 4.94435 19.0693 4.96756C19.1414 5.01399 19.1895 5.0372 19.2856 5.06042C19.2616 5.13006 19.2375 5.17649 19.1895 5.22292C19.1654 5.26935 19.1174 5.31578 19.1414 5.38542C19.1654 5.43185 19.2135 5.43185 19.2616 5.43185C19.3097 5.43185 19.3337 5.40863 19.3818 5.38542L19.2856 5.57113C19.3818 5.59435 19.4779 5.57113 19.574 5.54792C19.6221 5.78006 19.6702 6.22113 19.7182 6.38363C19.8865 6.38363 19.9345 6.36042 20.0307 6.40685C20.1509 6.45328 20.1028 6.63899 20.247 6.59256C20.3191 6.56935 20.4393 6.29078 20.4633 6.22113C20.6315 5.73363 20.7036 5.19971 20.6315 4.68899C20.7277 4.57292 20.8719 4.50328 21.0161 4.43363C21.2805 4.34078 21.5929 4.27113 21.8333 4.3872C22.0255 4.48006 22.1457 4.68899 22.2899 4.85149C22.5303 5.15328 22.9148 5.31578 23.2994 5.33899C23.3234 5.61756 23.3474 6.08185 23.3474 6.3372L23.5878 5.82649C23.6118 5.80328 23.6118 5.75685 23.6358 5.73363C23.6599 5.68721 23.6839 5.64078 23.7079 5.59435C23.78 5.66399 23.8762 5.64078 23.9483 5.57113C23.9963 5.5247 23.9963 5.43185 23.9483 5.36221C23.9242 5.33899 23.9002 5.31578 23.8762 5.29256C23.9483 5.3622 24.0444 5.38542 24.1406 5.36221C24.2367 5.33899 24.2848 5.24613 24.2848 5.15328C24.2848 5.08363 24.2367 5.0372 24.1886 5.01399C24.3088 5.01399 24.429 4.99078 24.5251 4.94435C24.5732 4.82828 24.6453 4.75863 24.6212 4.68899Z" fill="#273339"/>
<path d="M24.9337 19.5924C24.9337 19.3603 24.9097 19.1049 24.8857 18.9192C24.6453 18.9889 24.381 19.0585 24.1406 19.0817C23.5638 19.1746 22.9629 19.1978 22.3621 19.1514H22.314C21.1123 19.0353 19.8625 18.7103 18.5887 18.3389L18.3964 19.7317L17.9398 26.4639L17.6033 33.3121H19.6943C19.6943 33.3121 20.4393 28.0424 20.4874 27.2996C20.5595 26.4871 21.5449 21.4496 21.5449 21.4496L21.7372 21.4032L21.641 33.2424H23.8041C23.8041 33.2424 24.9818 20.5442 24.9818 20.0799C24.9578 19.9174 24.9578 19.7549 24.9337 19.5924Z" fill="#273339"/>
<path d="M24.7896 17.9215L24.5973 14.6947V13.9054L25.8471 13.3251L25.0059 10.6322C24.8858 10.3304 24.6454 10.0983 24.333 9.9822L24.2849 9.95898L22.3141 9.28577C22.2179 9.58756 21.6892 9.79648 21.2566 9.8197C20.4394 9.84291 19.9828 9.14648 19.9828 9.14648C19.8866 9.1697 18.9012 9.42506 18.3484 9.70363C18.1561 9.77327 17.7235 10.0751 17.4351 10.5626C17.0265 11.2126 16.2334 13.0001 16.2334 13.0001L18.3725 13.6965C18.3965 13.6268 18.4205 13.5108 18.4446 13.3947L18.7089 16.1108L18.5888 17.6661C18.5888 17.6661 18.2282 18.1072 18.2042 18.3858V18.9197C19.478 19.2911 21.1845 19.6858 22.4102 19.8018H22.4583C23.0832 19.8483 23.684 19.8251 24.2849 19.7322H24.333C24.5493 19.6858 24.7896 19.6393 25.0059 19.5697H25.03C25.03 19.5697 24.9819 18.5251 24.8617 18.2465C24.7656 17.9447 24.7896 17.9215 24.7896 17.9215Z" fill="#696868"/>
<path d="M21.7852 20.3125C21.7852 20.3125 22.0255 20.4286 22.1697 20.5214C22.3139 20.6143 22.4101 20.7304 22.5062 20.8696L23.1792 21.4964L22.5062 22.0304L22.0255 21.2411L21.6169 21.0554L21.7852 20.3125Z" fill="#FCC5AA"/>
<path d="M25.6787 25.4424C25.7028 25.4888 25.7268 25.5352 25.7268 25.6049C25.7508 25.7442 25.7268 25.8835 25.6787 25.9995C25.6307 26.1156 25.5345 26.2317 25.4384 26.3245C25.3903 26.371 25.3423 26.3942 25.2942 26.4174C25.2942 26.4174 25.3423 26.371 25.4144 26.3013C25.6066 26.1156 25.7268 25.8602 25.7028 25.6049C25.6787 25.512 25.6787 25.4424 25.6787 25.4424Z" fill="#465B65"/>
<path d="M26.3517 32.1982L26.4238 33.7536L26.1113 35.0072C26.0873 35.1 26.1354 35.1697 26.2315 35.1929C26.2796 35.1929 26.3277 35.1929 26.3757 35.1465C26.6161 34.9143 27.4813 34.0322 27.4813 33.9625C27.4813 33.8232 27.5294 32.2911 27.5294 32.2911L26.3517 32.1982Z" fill="#465B65"/>
<path d="M26.2556 35.2153L27.5054 33.8457V33.9153C27.5054 33.9618 27.4814 34.0314 27.4573 34.0778C27.3612 34.1939 27.0728 34.5189 26.3998 35.1689C26.3518 35.1921 26.3037 35.2153 26.2556 35.2153Z" fill="#273339"/>
<g opacity="0.6">
<path d="M27.169 33.3358C27.1209 33.359 27.1209 33.4286 27.1449 33.4518C27.169 33.4983 27.2411 33.4983 27.2651 33.4751C27.3132 33.4518 27.3132 33.3822 27.2891 33.3358C27.2651 33.3126 27.193 33.3126 27.169 33.3358Z" fill="white"/>
</g>
<path d="M26.8325 33.7762C26.8325 33.7762 26.7364 33.753 26.6162 33.753C26.496 33.753 26.3999 33.7762 26.3999 33.7762C26.472 33.7298 26.5441 33.7066 26.6162 33.7298C26.6883 33.7066 26.7604 33.7298 26.8325 33.7762Z" fill="white"/>
<path d="M26.8325 33.3118C26.7604 33.2886 26.6883 33.2886 26.6162 33.2886C26.5441 33.2886 26.472 33.3118 26.3999 33.335C26.3999 33.335 26.4239 33.3118 26.448 33.2886C26.496 33.2654 26.5441 33.2422 26.6162 33.2422C26.6643 33.2422 26.7364 33.2422 26.7845 33.2654C26.8085 33.2886 26.8325 33.3118 26.8325 33.3118Z" fill="white"/>
<path d="M26.5921 33.1957C26.5921 33.1725 26.5921 33.1492 26.5921 33.126C26.5921 33.0796 26.6161 33.01 26.6402 32.9635C26.6642 32.9171 26.6882 32.8939 26.7123 32.8707C26.7363 32.8707 26.7604 32.8707 26.7844 32.8939C26.8084 32.9171 26.8084 32.9403 26.8084 32.9635C26.8084 33.0796 26.7123 33.1725 26.6161 33.1725C26.496 33.1957 26.3998 33.126 26.3518 33.0332C26.3277 33.01 26.3277 32.9867 26.3518 32.9635C26.3518 32.9403 26.3998 32.9171 26.4239 32.9171C26.4719 32.9171 26.496 32.9403 26.52 32.9635C26.5681 32.9867 26.5921 33.0332 26.6402 33.0796C26.6642 33.1028 26.6642 33.1028 26.6642 33.126C26.6161 33.0796 26.5681 33.01 26.496 32.9635C26.4719 32.9403 26.4239 32.9171 26.3998 32.9171C26.3758 32.9171 26.3758 32.9171 26.3518 32.9403C26.3518 32.9635 26.3518 32.9635 26.3518 32.9867C26.3998 33.0564 26.496 33.1028 26.5921 33.1028C26.6882 33.0796 26.7603 33.01 26.7603 32.9171C26.7603 32.8939 26.7603 32.8707 26.7363 32.8707C26.7363 32.8707 26.7123 32.8475 26.6882 32.8707C26.6642 32.8939 26.6402 32.9171 26.6161 32.9403C26.6402 33.0564 26.6161 33.126 26.5921 33.1957Z" fill="white"/>
<path d="M28.1303 32.291L28.2024 33.8464L27.8899 35.0999C27.8659 35.1928 27.9139 35.2624 28.0101 35.2857C28.0582 35.2857 28.1062 35.2857 28.1543 35.2392C28.3946 35.0071 29.2599 34.1249 29.2599 34.0321C29.2599 33.8928 29.3079 32.3607 29.3079 32.3607L28.1303 32.291Z" fill="#465B65"/>
<path d="M28.0342 35.3091L29.284 33.9395V34.0091C29.284 34.0555 29.2599 34.1252 29.2359 34.1716C29.1398 34.2877 28.8513 34.6127 28.1784 35.2627C28.1544 35.2859 28.0822 35.3091 28.0342 35.3091Z" fill="#273339"/>
<g opacity="0.6">
<path d="M28.9475 33.4511C28.8995 33.4743 28.8995 33.5439 28.9235 33.5904C28.9475 33.6368 29.0196 33.6368 29.0437 33.6136C29.0917 33.5904 29.0917 33.5207 29.0677 33.4743C29.0437 33.4279 28.9956 33.4047 28.9475 33.4511Z" fill="white"/>
</g>
<path d="M28.6111 33.4046C28.539 33.3814 28.4669 33.3814 28.3948 33.3814C28.3227 33.3814 28.2506 33.4046 28.1785 33.4278C28.1785 33.4278 28.2025 33.4046 28.2265 33.3814C28.2746 33.3582 28.3227 33.335 28.3948 33.335C28.4428 33.335 28.5149 33.335 28.563 33.3582C28.5871 33.3814 28.6111 33.4046 28.6111 33.4046Z" fill="white"/>
<path d="M28.3946 33.2894C28.3946 33.2662 28.3946 33.243 28.3946 33.2198C28.3946 33.1733 28.4186 33.1037 28.4427 33.0573C28.4667 33.0108 28.4907 32.9876 28.5148 32.9644C28.5388 32.9412 28.5628 32.9644 28.5869 32.9876C28.6109 33.0108 28.6109 33.0341 28.6109 33.0573C28.6109 33.1733 28.5148 33.2662 28.4186 33.2662C28.2985 33.2894 28.2023 33.2198 28.1543 33.1269C28.1302 33.1037 28.1302 33.0805 28.1543 33.0573C28.1783 33.0341 28.2023 33.0108 28.2264 33.0108C28.2744 33.0108 28.2985 33.0341 28.3225 33.0573C28.3706 33.0805 28.3946 33.1269 28.4427 33.1733C28.4667 33.1966 28.4667 33.2198 28.4667 33.2198C28.4186 33.1501 28.3706 33.1037 28.2985 33.0573C28.2744 33.0341 28.2504 33.0108 28.2023 33.0108C28.1783 33.0108 28.1783 33.0108 28.1543 33.0341C28.1543 33.0573 28.1543 33.0573 28.1543 33.0805C28.2023 33.1501 28.2985 33.1966 28.3946 33.1966C28.4907 33.1733 28.5628 33.1037 28.5628 33.0108C28.5628 32.9876 28.5628 32.9644 28.5388 32.9644C28.5388 32.9644 28.5148 32.9412 28.4907 32.9644C28.4667 32.9876 28.4427 33.0108 28.4186 33.0341C28.4186 33.1501 28.3946 33.2198 28.3946 33.2894Z" fill="white"/>
<path d="M25.4624 21.1712L23.9483 22.123L22.6985 21.1016L22.2659 21.6587C22.2659 21.6587 23.2272 23.5158 23.8281 23.6551C24.4049 23.7712 25.7989 22.5176 25.7989 22.5176L25.4624 21.1712Z" fill="#FCC5AA"/>
<path d="M28.4909 16.6675C28.2266 16.8532 28.1785 17.1782 28.3708 17.4335C28.4909 17.5728 28.6592 17.6657 28.8274 17.6657C29.0197 17.6657 29.236 17.5264 29.212 17.3175C29.236 17.5032 29.3562 17.6425 29.5244 17.7121C29.6927 17.7817 29.909 17.7121 30.0051 17.5728C30.1012 17.4103 30.0532 17.2014 29.909 17.1085C30.1253 17.1317 30.3176 17.0621 30.4618 16.8996C30.606 16.7603 30.63 16.5282 30.5579 16.3425C30.4858 16.1567 30.2695 16.0407 30.0772 16.0639C30.1733 15.7853 30.0291 15.5067 29.7407 15.4139C29.5004 15.321 29.212 15.4371 29.0918 15.6692C28.9236 15.4371 28.6111 15.3675 28.3708 15.53C28.2025 15.646 28.1064 15.855 28.1545 16.0407C27.9382 16.1335 27.8661 16.3889 27.9622 16.5978C28.0343 16.7603 28.2025 16.8532 28.3948 16.83" fill="#273339"/>
<path d="M29.1158 17.2939C29.1879 17.0153 29.1398 16.9456 28.9956 16.7831C28.8754 16.6439 28.6591 16.5974 28.4668 16.6671C28.4428 16.4349 28.4428 16.2956 28.2265 16.1796C28.0102 16.0635 27.914 16.0867 27.6737 16.1099C27.4814 15.9939 27.2651 15.9474 27.0488 15.9706C26.8325 15.9939 26.6402 16.1099 26.496 16.2724C26.2316 16.2492 25.9673 16.4117 25.8471 16.6439C25.799 16.7599 25.775 16.876 25.7029 16.9689C25.6308 17.0385 25.6067 17.1081 25.5587 17.1778C25.5106 17.3403 25.5346 17.3867 25.5827 17.5492C25.6308 17.6653 25.7029 17.8278 25.6308 17.9206C25.3664 18.2921 25.7269 18.7331 25.8711 18.7564L28.1063 19.5689C28.2505 19.7081 28.4668 19.7546 28.6591 19.6849C28.8514 19.6153 28.9715 19.4528 28.9715 19.2671C29.284 19.1046 29.4042 18.7564 29.284 18.4314C29.5724 18.2224 29.5484 17.6885 29.1158 17.2939Z" fill="#273339"/>
<path d="M25.9672 17.5957C26.0153 17.0617 26.6402 16.551 27.1689 16.6207L28.2264 16.876C28.611 16.9689 28.8754 17.3171 28.8513 17.7117L28.659 18.3153L28.5389 20.8457L28.635 20.8921C28.635 20.8921 28.4427 22.0296 27.4573 21.9367C26.5681 21.8439 26.8324 20.7992 26.8324 20.7992L26.8805 20.126C26.8805 20.126 26.0153 20.0332 25.8951 19.1278C25.823 18.7099 25.8951 18.176 25.9672 17.5957Z" fill="#FCC5AA"/>
<path d="M28.6109 18.3617C28.6109 18.3617 29.2118 18.176 29.1637 18.7332C29.1157 19.2903 28.5869 19.1278 28.5869 19.1046C28.5869 19.0814 28.6109 18.3617 28.6109 18.3617Z" fill="#FCC5AA"/>
<path d="M29.0195 17.6656C29.0195 17.5263 28.9715 17.3638 28.8753 17.2478C28.7792 17.1317 28.7311 16.8995 28.611 16.8067C28.3466 16.621 27.9861 16.621 27.6496 16.5513C27.3131 16.4817 26.8324 16.296 26.52 16.4353L25.7749 17.2478C25.7989 17.387 26.0152 17.4567 26.1114 17.4103C26.2075 17.3406 26.2556 17.2478 26.2316 17.1317C26.3998 17.2013 26.7363 17.1085 26.7843 16.946C26.9526 17.1549 27.1929 17.2245 27.4333 17.1085C27.4333 17.3406 27.6255 17.5495 27.8659 17.5495C27.938 17.5495 28.0101 17.5263 28.0582 17.5031C27.9861 17.6192 27.938 17.7353 27.962 17.8745C27.9861 18.0138 28.1062 18.1067 28.2504 18.1067C28.1783 18.1763 28.1303 18.2692 28.0822 18.362C28.0582 18.4549 28.0822 18.571 28.1543 18.6406C28.2264 18.7103 28.3466 18.7567 28.4427 18.7102C28.5148 18.6638 28.5629 18.5942 28.611 18.5245C28.6831 18.4085 28.7552 18.2924 28.8032 18.1763C28.9234 18.0138 29.0195 17.8513 29.0195 17.6656Z" fill="#273339"/>
<path d="M25.6547 21.543L25.3423 25.7448C25.3423 25.7448 26.4959 26.6269 27.8659 26.4412C29.2358 26.2555 29.7406 25.3501 29.7406 25.3501C29.7406 25.3501 29.5483 23.7484 29.5243 23.1448C29.5002 22.4019 29.5483 20.8001 29.5483 20.8001L28.5629 20.4287C28.5629 20.4287 28.1303 20.9162 27.5775 20.8466C27.0247 20.7769 26.8564 20.4287 26.8564 20.4287L26.3037 20.4519L25.6547 21.543Z" fill="#E0E1E0"/>
<path d="M26.3037 20.4746C26.0153 20.4978 25.7509 20.5907 25.4865 20.73C25.2462 20.8693 24.0925 21.7746 24.0925 21.7746C24.0925 21.7746 24.6934 23.4693 24.6934 23.4228L25.799 22.7496L26.3037 20.4746Z" fill="#E0E1E0"/>
<path d="M29.5243 20.8232C29.5243 20.8232 29.9329 20.8697 30.1973 21.4732C30.2694 21.6357 30.6299 23.0982 30.6299 23.0982L29.2119 23.2607L29.1638 21.3572L29.5243 20.8232Z" fill="#E0E1E0"/>
<path d="M29.7886 25.3725L27.5774 25.8833L25.3663 25.1172L25.3182 25.6743C25.2701 26.3011 25.2701 26.9279 25.3663 27.5547C25.6547 29.5047 26.2075 33.7529 26.2075 33.7529L27.7216 33.7065L27.6736 32.894L27.4573 28.0886C27.4573 28.019 27.5294 27.9725 27.6015 27.9725C27.6255 27.9725 27.6255 27.9725 27.6495 27.9958L27.6736 28.019L27.8658 32.1047V33.7297L29.38 33.7761C29.38 33.7761 29.4521 32.8243 29.5482 31.8261C29.6444 30.8279 29.8366 27.16 29.8607 26.8118C29.8847 26.4636 29.7886 25.3725 29.7886 25.3725Z" fill="#273339"/>
<path d="M25.2942 26.3016L25.3423 25.1177L25.7028 24.9552L25.9431 22.4248L28.7311 22.5641L28.9955 25.1873L29.7405 25.373L29.8607 26.4641L28.7551 27.323L27.0968 27.4391L25.847 27.2302L25.2942 26.3016Z" fill="#273339"/>
<path d="M28.6832 20.5215C28.5149 21.0322 28.3948 21.5429 28.2986 22.0768C28.1785 22.6572 28.2265 22.8429 28.2265 22.8429L28.7072 22.8661C28.7072 22.4947 28.7313 22.1001 28.8034 21.7286C28.8755 21.3804 28.9956 21.0322 29.1398 20.684C29.0437 20.5679 28.6832 20.5215 28.6832 20.5215Z" fill="#273339"/>
<path d="M26.3517 20.4519C26.3517 20.4519 26.2075 20.7304 26.0873 21.7286C26.0152 22.3322 25.9912 22.634 25.9912 22.634H26.3998C26.3998 22.634 26.4479 22.0304 26.52 21.4965C26.568 21.1483 26.6401 20.8001 26.7363 20.4519C26.4719 20.3822 26.3517 20.4519 26.3517 20.4519Z" fill="#273339"/>
<path d="M20.4635 19.8712C20.5356 19.9641 20.5836 20.1034 20.6077 20.2194C20.6317 20.4284 20.7999 20.7069 20.7999 20.7069C20.7999 20.7069 21.1845 21.2409 21.3287 21.4266C21.4489 21.5891 21.5931 21.7284 21.6892 21.5891C21.7853 21.4498 21.7373 21.3105 21.4729 21.0319L21.4008 20.823L21.5931 20.8694L22.0738 21.2873C22.0738 21.2873 22.0738 21.8677 22.1699 21.9373C22.266 22.0069 22.3141 21.9373 22.3141 21.9373H22.4102L22.5064 21.1248L22.0738 20.3819L21.2326 19.6855L20.7759 19.1748L20.175 19.7552L20.4635 19.8712Z" fill="#FCC5AA"/>
<path d="M21.4969 20.9851C21.3527 21.0083 21.3046 20.7297 21.3287 20.5672C21.3287 20.5208 21.3527 20.4744 21.4008 20.4512C21.4488 20.4512 21.4969 20.4744 21.4969 20.4976C21.5209 20.544 21.5209 20.5672 21.5209 20.6137C21.5209 20.5905 21.5209 20.544 21.5209 20.5208C21.5209 20.4976 21.545 20.4744 21.569 20.4512C21.6171 20.4512 21.6651 20.4744 21.6892 20.5208C21.7372 20.6137 21.7613 20.7065 21.7613 20.7994C21.7613 20.7762 21.7372 20.7297 21.7372 20.7065C21.7372 20.6833 21.7613 20.6369 21.7853 20.6369C21.8093 20.6369 21.8574 20.6369 21.8814 20.6601C21.9055 20.6833 21.9295 20.7065 21.9295 20.753C21.9776 20.9155 22.0016 21.1012 21.9776 21.2869C21.8814 21.2869 21.8093 21.2637 21.7613 21.1708C21.6411 21.2172 21.5209 21.1476 21.4729 21.0315C21.4969 21.0315 21.4969 21.0083 21.4969 20.9851Z" fill="#FCC5AA"/>
<path d="M17.3149 6.94043C17.6755 7.219 17.8918 7.66007 17.8437 8.12436C17.8197 8.33329 17.7716 8.58864 17.9158 8.75114C18.06 8.91364 18.3484 8.91364 18.4926 9.07614C18.6609 9.28507 18.5167 9.56364 18.5888 9.819C18.6609 10.0511 18.8772 10.2136 19.1416 10.1904C18.8531 10.4226 18.5167 10.5619 18.1321 10.6083C18.036 10.4922 17.9398 10.3761 17.8437 10.2601C17.9398 10.3761 17.9158 10.5851 17.8197 10.7011C17.6995 10.8172 17.5553 10.9101 17.4111 10.9333C16.642 11.1654 15.8008 11.0261 15.1519 10.5851" fill="#273339"/>
<path d="M13.0849 8.84428C13.133 8.68178 13.2291 8.51928 13.2772 8.35678C13.3493 7.98535 13.1811 7.56749 13.3493 7.24249C13.4695 7.01035 13.7579 6.89428 14.0223 6.82464C14.2867 6.75499 14.5751 6.68535 14.7673 6.49964C14.9115 6.36035 14.9837 6.17464 15.1279 6.03535C15.3442 5.84964 15.6326 5.77999 15.921 5.75678C16.2094 5.73357 16.5219 5.77999 16.7862 5.89607C17.0506 6.01214 17.2669 6.26749 17.315 6.54607C17.339 6.68535 17.315 6.82464 17.3631 6.96392C17.4111 7.10321 17.5313 7.21928 17.6034 7.35857C17.7476 7.66035 17.6755 8.03178 17.4111 8.24071L15.3682 10.7711C14.9356 10.9336 13.9021 10.7479 13.5656 10.4229C13.2291 10.0979 12.9407 9.26214 13.0849 8.84428Z" fill="#273339"/>
<path d="M17.4109 7.89299C17.3388 7.31263 16.8822 6.63942 16.2813 6.73228L14.4547 7.33585C14.2624 7.35906 14.4066 7.66085 14.4307 7.82335L14.8152 11.8162C14.8152 11.8162 14.5749 11.9787 14.4788 11.9555C14.4547 11.9555 14.4547 11.9555 14.4547 11.9787V12.0019C14.671 12.3037 15.7045 13.6501 16.786 13.2555C17.0264 13.1626 16.762 12.443 16.786 12.1644L16.738 11.468C16.7139 11.1198 16.7139 10.9805 16.7139 10.9805C16.7139 10.9805 17.459 10.7948 17.5551 9.81978C17.5792 9.33228 17.5071 8.54299 17.4109 7.89299Z" fill="#FCC5AA"/>
<path d="M14.0461 7.47483C14.1422 7.33555 14.3105 7.2659 14.4547 7.19626C15.1276 6.9409 15.8487 6.75519 16.5697 6.68555C16.6658 6.82483 16.5697 7.03376 16.4495 7.12662C16.3053 7.21948 16.1371 7.2659 15.9688 7.33555C15.8006 7.40519 15.6324 7.49805 15.5603 7.63733C15.4881 7.77662 15.5603 8.00876 15.4881 8.17126C15.392 8.44983 14.9594 8.54269 14.8633 8.84448C14.7912 9.0534 14.9113 9.30876 14.9594 9.51769C15.0315 9.98198 14.695 10.3998 14.2143 10.4463C14.1663 10.4463 14.1422 10.4463 14.0942 10.4463L13.95 7.96233C13.95 7.79983 13.95 7.61412 14.0461 7.47483Z" fill="#273339"/>
<path d="M12.3158 9.56391C12.46 9.44783 12.6283 9.35498 12.6763 9.16926C12.7484 8.91391 12.5562 8.63533 12.6763 8.40319C12.7965 8.19426 13.157 8.21748 13.2532 8.00855C13.3493 7.84605 13.2291 7.70676 13.2772 7.56748C13.3012 7.42819 13.5175 7.28891 13.6617 7.31212L14.8394 8.96033C14.9596 9.51748 15.0557 9.79605 14.9356 10.121C14.8635 10.3068 14.7673 10.4693 14.7433 10.655C14.7193 10.8407 14.7673 11.0496 14.9356 11.1657C14.2386 11.2121 13.5656 10.8639 12.9648 10.5157L12.3158 10.1443C12.2437 10.121 12.1957 10.0746 12.1476 10.005C12.0514 9.88891 12.1716 9.67998 12.3158 9.56391Z" fill="#273339"/>
<path d="M15.4643 33.521V33.6139C15.4643 33.6139 17.0024 34.2175 17.0265 34.4728L13.9741 34.4264L14.0222 33.4746C14.4548 33.6835 14.9836 33.7068 15.4643 33.521Z" fill="#273339"/>
<path d="M13.95 34.4265L13.974 34.1943L16.9062 34.3104C16.9062 34.3104 17.0504 34.3568 17.0263 34.4497L13.95 34.4265Z" fill="#465B65"/>
<path d="M14.4068 31.9198L14.1665 34.1251L13.0369 33.4751L13.3253 31.8037L14.4068 31.9198Z" fill="#273339"/>
<path d="M13.0609 33.3818C13.0609 33.3818 13.83 34.1015 14.2386 33.7068L14.3107 33.9158L14.5991 35.4479C14.6231 35.5408 14.551 35.6568 14.4549 35.68C14.3828 35.7033 14.2866 35.68 14.2386 35.6104C13.9501 35.3086 12.8926 34.1943 12.9167 34.055L12.9647 33.6836C12.9888 33.5908 13.0128 33.4979 13.0609 33.405V33.3818Z" fill="#273339"/>
<path d="M14.4068 35.6805L12.9167 33.9395V34.0091C12.8927 34.102 12.9407 34.1252 12.9648 34.1948C13.0849 34.3805 13.4214 34.7752 14.2146 35.6109C14.2626 35.6573 14.3347 35.6805 14.4068 35.6805Z" fill="#465B65"/>
<path d="M14.2626 33.4512C14.2385 33.5208 14.2385 33.6137 14.2385 33.6833C14.2626 33.7762 14.2866 33.9155 14.3106 34.0547C14.3347 34.2172 14.3827 34.3797 14.4068 34.4726C14.4068 34.5422 14.4308 34.5887 14.4548 34.6583C14.4548 34.5887 14.4548 34.5422 14.4308 34.4726C14.4068 34.3565 14.3827 34.2172 14.3587 34.0547C14.3347 33.9155 14.3106 33.7762 14.2866 33.6833C14.2866 33.6137 14.2866 33.5208 14.2626 33.4512Z" fill="#465B65"/>
<path d="M12.4119 22.1929C12.0273 20.4518 13.205 18.6875 13.205 18.6875L16.3054 21.0321C16.3054 21.0321 16.9544 28.0661 16.5698 28.9714C16.1853 29.8768 14.3346 33.6143 14.3346 33.6143L12.9166 33.2893C12.9166 33.2893 13.4454 30.2482 13.8539 29.4821C14.1664 28.925 14.6471 28.6696 14.4308 27.95C14.1904 27.2304 12.7243 23.6089 12.4119 22.1929Z" fill="#273339"/>
<path d="M18.7809 19.4534C18.5887 18.8034 18.3243 18.1534 18.0359 17.5498C18.0359 17.5498 17.0745 18.2927 16.1852 18.4552C15.296 18.6177 13.3492 17.8284 13.3492 17.8284L13.0127 19.0355L15.8247 20.823C15.7286 21.0319 15.4882 21.6123 15.6324 22.4944C15.8247 23.6087 15.4402 26.6962 14.8633 28.6694C14.2865 30.6427 14.2384 33.5909 14.2384 33.5909C14.623 33.7998 15.0556 33.7302 15.4402 33.5212C15.4402 33.5212 15.7286 32.7784 16.1131 31.548C16.6419 29.8534 16.714 29.3194 16.738 28.7855C16.7861 28.2516 17.3389 26.2784 18.3483 23.8177C19.2857 21.5427 18.853 19.7319 18.7809 19.4534Z" fill="#273339"/>
<path d="M18.2522 12.3497C18.2522 12.3497 18.6368 12.3265 18.9492 12.9765C19.3578 13.789 19.4059 16.7604 19.4059 16.7604L20.8479 19.1515L19.6703 20.3122C19.6703 20.3122 18.06 18.664 17.8677 18.1997C17.6754 17.7354 17.8677 14.1604 17.8677 14.1604L18.2522 12.3497Z" fill="#F15A29"/>
<path d="M18.9973 13.185C18.9011 12.8832 18.7329 12.6047 18.5166 12.3725C18.3483 12.21 16.8342 11.6993 16.8342 11.6993C15.5123 12.0011 14.8874 11.4207 14.7432 11.3975C14.6471 11.3743 13.7818 11.56 13.7818 11.56L13.1329 14.5547L13.2531 16.6439C13.2531 16.6672 12.8445 18.06 12.8445 18.06C12.8445 18.06 15.3921 19.0582 16.4016 19.2672C17.411 19.4761 18.4685 18.2457 18.4685 18.2457L18.1801 16.1332L18.9973 13.185Z" fill="#F15A29"/>
<path d="M14.1182 11.5371C14.0221 11.5371 13.1328 11.5371 12.4839 12.1871C12.3397 12.3496 11.6186 14.3925 10.5371 16.3889C9.67185 17.9907 9.40747 19.2907 9.40747 19.2907L10.1766 19.8478L11.5465 17.5264L13.1809 15.0889L14.1182 11.5371Z" fill="#F15A29"/>
<path d="M11.3063 16.3657C11.1381 15.9247 10.8016 15.5532 10.369 15.3675L10.393 15.3443C9.9844 15.2747 9.57582 15.5068 9.45565 15.9015C9.43161 16.064 9.40758 16.2265 9.43161 16.389C9.43161 16.5515 9.38355 16.714 9.26337 16.83C9.19127 16.8997 9.11917 16.9229 9.04706 16.9925C8.97496 17.039 8.95093 17.1318 8.95093 17.2247C8.97496 17.3407 9.11917 17.3872 9.21531 17.3872C9.33548 17.3872 9.45565 17.364 9.55179 17.4104C9.40758 17.5497 9.43161 17.7586 9.55179 17.8979C9.69599 18.0372 9.9123 18.014 10.0565 17.8979C10.0325 18.0836 10.1286 18.2925 10.3209 18.3622C10.5132 18.4318 10.7295 18.3854 10.8737 18.2693C11.0419 18.1532 11.1621 17.9907 11.2342 17.805C11.4745 17.2943 11.4745 16.8068 11.3063 16.3657Z" fill="#273339"/>
<path d="M13.6137 15.2514C13.5656 15.1353 13.4455 15.0424 13.3012 15.0192C13.157 15.0192 13.0369 15.0192 12.8927 15.0657C12.9407 14.9032 12.9407 14.7174 12.8927 14.5549C12.8446 14.3924 12.7004 14.2299 12.5321 14.2067C12.3639 14.1835 12.2197 14.2764 12.1236 14.3692C12.0034 14.4621 11.9073 14.5782 11.763 14.671C11.4025 14.8567 10.9459 14.6942 10.5613 14.7871C10.1768 14.8799 9.86434 15.3674 9.93644 15.7621C10.6094 15.971 11.3064 16.1567 11.9313 16.5049C12.2678 16.6907 12.6283 16.9228 13.0128 16.8299C13.3733 16.7371 13.5897 16.3889 13.5176 16.0407C13.4935 15.9246 13.4214 15.8085 13.3253 15.7157C13.4935 15.5996 13.6618 15.4371 13.6137 15.2514Z" fill="#273339"/>
<path d="M13.0128 16.2032C12.9407 15.6924 12.3158 15.2049 11.787 15.321L10.3209 15.7389L10.2969 15.9942L10.7295 19.5228H10.6814C10.6814 19.5228 10.7776 20.5907 11.7389 20.4514C12.6042 20.3121 12.3879 19.4532 12.3879 19.4532L12.2917 18.7103C12.7964 18.6639 13.181 18.2692 13.181 17.7817C13.205 17.3406 13.1089 16.7603 13.0128 16.2032Z" fill="#FCC5AA"/>
<path d="M12.8927 15.7153C12.7004 15.4368 12.3879 15.2511 12.0274 15.1814C11.6909 15.135 11.3304 15.1582 10.9939 15.2511C10.6575 15.3671 10.345 15.4832 10.0326 15.6457C9.96046 15.6689 9.88836 15.7153 9.84029 15.8082C9.81626 15.8546 9.81626 15.9243 9.84029 15.9707L10.0326 17.3636L10.1768 17.6421C10.345 17.6421 10.4652 17.5028 10.5373 17.3868C10.8497 16.9457 10.9939 16.4118 10.9218 15.9011C10.9699 15.9707 10.9939 16.0171 11.018 16.0868C11.042 16.1564 11.0901 16.2028 11.1862 16.2261C11.3064 16.2493 11.4025 16.11 11.4025 15.9939C11.4025 15.8778 11.3785 15.7386 11.4266 15.6225C11.5708 15.785 11.739 15.9243 11.9313 16.0171C12.0274 16.0636 12.1476 16.0868 12.2197 16.0171C12.2678 15.9707 12.2918 15.8778 12.2678 15.8314C12.2437 15.7618 12.1957 15.7153 12.1476 15.6457C12.3158 15.785 12.5081 15.8778 12.7244 15.9243C12.7725 15.9475 12.8205 15.9243 12.8686 15.9011C12.9648 15.8546 12.9407 15.7618 12.8927 15.7153Z" fill="#273339"/>
<path d="M10.4412 17.1318C10.4171 17.1318 9.88837 17.0157 9.93644 17.5496C10.0085 18.0835 10.5373 17.8978 10.5373 17.8746C10.5613 17.8746 10.4412 17.1318 10.4412 17.1318Z" fill="#FCC5AA"/>
<path d="M15.4161 19.5L15.1518 20.9857L14.5269 20.2429L13.6616 20.8232C13.6616 20.8232 14.7672 22.5179 15.1758 22.5411C15.5844 22.5643 15.9689 22.5875 16.0891 21.9607C16.2093 21.3339 16.1131 19.7554 16.1131 19.7554L15.4161 19.5Z" fill="#FCC5AA"/>
<path d="M15.4642 18.0602L15.3441 18.6173L15.272 18.7334C15.272 18.7334 15.272 19.0816 15.272 19.1512C15.32 19.2673 15.3441 19.4066 15.4162 19.5227L15.296 20.103L16.0891 20.1262V19.7316C16.1372 19.662 16.1853 19.5923 16.1853 19.5227C16.1853 19.453 16.2093 19.0352 16.2093 19.0352C16.2093 19.0352 16.3776 18.6173 16.2574 18.6173C16.2333 18.6173 16.2093 18.6173 16.1612 18.6405C16.1612 18.6405 16.0651 18.8727 16.017 18.8959L15.9449 18.8727C15.969 18.7334 15.993 18.5709 15.993 18.4316C15.993 18.3387 15.9449 18.2923 15.8728 18.2923C15.8728 18.2923 15.8248 18.3155 15.8248 18.3387C15.8248 18.362 15.7767 18.7798 15.7286 18.7798C15.6806 18.7798 15.7046 18.7334 15.7046 18.7334C15.7046 18.7334 15.7767 18.2227 15.7527 18.1762C15.7286 18.1298 15.6806 18.1066 15.6325 18.1066L15.5604 18.3387C15.5604 18.3387 15.5844 18.1298 15.5123 18.0834C15.5364 18.037 15.4883 18.037 15.4642 18.0602Z" fill="#FCC5AA"/>
<path d="M12.8686 32.291L12.7965 33.8464L13.1089 35.0999C13.133 35.1928 13.0849 35.2624 12.9888 35.2857C12.9407 35.2857 12.8926 35.2857 12.8446 35.2392C12.6042 35.0071 11.739 34.1249 11.739 34.0321C11.739 33.8928 11.6909 32.3607 11.6909 32.3607L12.8686 32.291Z" fill="#465B65"/>
<path d="M12.9888 35.3091L11.739 33.9395V34.0091C11.739 34.0555 11.763 34.1252 11.7871 34.1716C11.8832 34.2877 12.1716 34.6127 12.8446 35.2627C12.8686 35.3091 12.9167 35.3091 12.9888 35.3091Z" fill="#273339"/>
<g opacity="0.6">
<path d="M12.0754 33.4518C12.1235 33.475 12.1235 33.5446 12.0994 33.5911C12.0754 33.6375 12.0033 33.6375 11.9793 33.6143C11.9312 33.5911 11.9312 33.5214 11.9552 33.475C11.9793 33.4286 12.0273 33.4286 12.0754 33.4518Z" fill="white"/>
</g>
<path d="M12.3879 33.8689C12.3879 33.8689 12.4841 33.8457 12.6042 33.8457C12.7244 33.8457 12.8206 33.8689 12.8206 33.8689C12.7004 33.776 12.5321 33.7992 12.3879 33.8689Z" fill="white"/>
<path d="M12.4119 33.4047C12.484 33.3815 12.5561 33.3815 12.6282 33.3815C12.7003 33.3815 12.7724 33.4047 12.8445 33.428C12.8445 33.428 12.8204 33.4047 12.7964 33.3815C12.7003 33.3351 12.5801 33.3119 12.4599 33.3583C12.4359 33.3815 12.4119 33.4047 12.4119 33.4047Z" fill="white"/>
<path d="M12.6282 33.2894C12.6282 33.2662 12.6282 33.243 12.6282 33.2198C12.6282 33.1733 12.6041 33.1037 12.5801 33.0573C12.5561 33.0108 12.532 32.9876 12.508 32.9644C12.484 32.9412 12.4599 32.9644 12.4359 32.9876C12.4119 33.0108 12.4119 33.0341 12.4119 33.0573C12.4119 33.1733 12.508 33.2662 12.6041 33.2662C12.7243 33.2894 12.8204 33.2198 12.8685 33.1269C12.8926 33.1037 12.8926 33.0805 12.8685 33.0573C12.8445 33.0341 12.8204 33.0108 12.7964 33.0108C12.7483 33.0108 12.7243 33.0341 12.7003 33.0573C12.6522 33.0805 12.6282 33.1269 12.5801 33.1733C12.5561 33.1966 12.5561 33.1966 12.5561 33.2198C12.6041 33.1501 12.6522 33.1037 12.7243 33.0573C12.7483 33.0341 12.7964 33.0108 12.8204 33.0108C12.8445 33.0108 12.8445 33.0108 12.8685 33.0341C12.8685 33.0573 12.8685 33.0573 12.8685 33.0805C12.8204 33.1501 12.7243 33.1966 12.6282 33.1966C12.532 33.1733 12.4599 33.1037 12.4599 33.0108C12.4599 32.9876 12.4599 32.9644 12.484 32.9644C12.484 32.9644 12.508 32.9412 12.532 32.9644C12.5561 32.9876 12.5801 33.0108 12.6041 33.0341C12.6041 33.1501 12.6282 33.2198 12.6282 33.2894Z" fill="white"/>
<path d="M10.1046 32.3369L10.1767 33.8923L9.86428 35.1458C9.84024 35.2387 9.88831 35.3083 9.98445 35.3316C10.0325 35.3316 10.0806 35.3316 10.1287 35.2851C10.369 35.053 11.2342 34.1708 11.2342 34.1012C11.2342 33.9619 11.2823 32.4298 11.2823 32.4298L10.1046 32.3369Z" fill="#465B65"/>
<path d="M10.0085 35.3316L11.2583 33.9619V34.0316C11.2583 34.078 11.2343 34.1476 11.2103 34.1941C11.1141 34.3101 10.8257 34.6351 10.1528 35.2851C10.1047 35.3316 10.0566 35.3548 10.0085 35.3316Z" fill="#273339"/>
<g opacity="0.6">
<path d="M10.9217 33.4744C10.8736 33.4977 10.8736 33.5673 10.8976 33.5905C10.9217 33.6369 10.9938 33.6369 11.0178 33.6137C11.0659 33.5905 11.0659 33.5209 11.0418 33.4744C11.0178 33.4512 10.9457 33.4512 10.9217 33.4744Z" fill="white"/>
</g>
<path d="M10.0325 34.4959C10.0325 34.4959 10.0565 34.4727 10.0805 34.4727L10.0325 34.4959Z" fill="white"/>
<path d="M10.5852 33.8924C10.5852 33.8924 10.4891 33.8692 10.3689 33.8692C10.2487 33.8692 10.1526 33.8924 10.1526 33.8924C10.2247 33.846 10.2968 33.8228 10.3689 33.846C10.441 33.846 10.5371 33.846 10.5852 33.8924Z" fill="white"/>
<path d="M10.5852 33.4515C10.5131 33.4283 10.441 33.4283 10.3689 33.4283C10.2968 33.4283 10.2247 33.4515 10.1526 33.4747C10.1526 33.4747 10.1766 33.4515 10.2007 33.4283C10.2487 33.405 10.2968 33.3818 10.3689 33.3818C10.417 33.3818 10.4891 33.3818 10.5371 33.405C10.5612 33.4283 10.5852 33.4283 10.5852 33.4515Z" fill="white"/>
<path d="M10.369 33.3119C10.369 33.2887 10.369 33.2654 10.369 33.2422C10.369 33.1958 10.393 33.1262 10.417 33.0797C10.4411 33.0333 10.4651 33.0101 10.4891 32.9869C10.5132 32.9869 10.5372 32.9869 10.5612 33.0101C10.5853 33.0333 10.5853 33.0565 10.5853 33.0797C10.5853 33.1958 10.4891 33.2887 10.393 33.2887C10.2728 33.3119 10.1767 33.2422 10.1286 33.1494C10.1046 33.1262 10.1046 33.1029 10.1286 33.0797C10.1286 33.0565 10.1767 33.0333 10.2007 33.0333C10.2488 33.0333 10.2728 33.0565 10.2969 33.0797C10.3449 33.1029 10.369 33.1494 10.417 33.1958C10.4411 33.219 10.4411 33.219 10.4411 33.2422C10.393 33.1958 10.3449 33.1262 10.2728 33.0797C10.2488 33.0565 10.2007 33.0333 10.1767 33.0333C10.1527 33.0333 10.1527 33.0333 10.1286 33.0565C10.1286 33.0797 10.1286 33.0797 10.1286 33.103C10.1767 33.1726 10.2728 33.219 10.369 33.219C10.4651 33.1958 10.5372 33.1262 10.5372 33.0333C10.5372 33.0101 10.5372 32.9869 10.5132 32.9869C10.5132 32.9869 10.4891 32.9637 10.4651 32.9869C10.4411 33.0101 10.417 33.0333 10.393 33.0565C10.393 33.1726 10.369 33.2422 10.369 33.3119Z" fill="white"/>
<path d="M10.1046 33.8925C10.1046 33.8925 9.86427 32.5925 9.76813 31.4318C9.67199 30.2711 9.50375 26.3246 9.47972 25.93C9.45568 25.5121 9.69603 24.2354 9.69603 24.2354L11.7149 24.5836L13.8299 24.2354L13.9982 25.7211C13.9501 25.8371 12.9887 33.9621 12.9887 33.9621L11.4505 33.7996L11.6188 32.755L11.8351 26.7657C11.8351 26.6961 11.787 26.6496 11.7149 26.6264C11.6909 26.6264 11.6668 26.6264 11.6428 26.6496L11.6188 26.6729L11.4265 31.8032V33.8229" fill="#273339"/>
<path d="M8.8788 21.5888C8.8788 21.5888 8.68652 23.0281 8.68652 23.6085C8.71056 24.1888 8.75863 25.396 8.75863 25.396L9.31142 25.3031L9.67193 21.3799L8.8788 21.5888Z" fill="#FCC5AA"/>
<path d="M8.78275 25.396C8.78275 25.396 8.68661 26.4174 8.71064 26.5567C8.71064 26.7192 9.1673 27.0674 9.28747 27.0674C9.40764 27.0674 9.43167 27.0442 9.40764 26.9281C9.45571 26.9281 9.50378 26.8585 9.47974 26.8121V26.7888C9.45571 26.6728 9.2394 26.5567 9.2394 26.5567L9.09519 26.4638L9.04713 25.9996C9.04713 25.9996 9.14326 26.4638 9.26343 26.5103C9.38361 26.5335 9.43167 26.5103 9.43167 26.3246C9.43167 26.1621 9.38361 25.7442 9.38361 25.5353C9.38361 25.396 9.38361 25.2567 9.35957 25.1406H8.85485L8.78275 25.396Z" fill="#FCC5AA"/>
<path d="M13.6858 20.2423L13.9982 24.8852C13.9982 24.8852 12.8205 25.8602 11.4265 25.6512C10.0326 25.4423 9.45573 24.9548 9.45573 24.9548C9.45573 24.9548 9.5759 22.5173 9.55187 21.7048C9.52783 20.8923 9.31152 19.5459 9.31152 19.5459L10.6094 19.128C10.6094 19.128 10.9939 19.6387 11.5467 19.5459C11.8592 19.4994 12.1476 19.3137 12.2918 19.0352L13.4454 19.1048L13.6858 20.2423Z" fill="#E0E1E0"/>
<path d="M13.4693 19.082C13.4693 19.082 13.7818 19.1517 14.0942 19.5463C14.2625 19.7552 14.9354 20.4749 14.9354 20.4749C14.9354 20.4749 13.95 21.5427 13.95 21.5195C13.95 21.4963 13.4453 20.707 13.4453 20.707L13.4693 19.082Z" fill="#E0E1E0"/>
<path d="M9.33542 19.5459C9.11911 19.6155 8.95087 19.8013 8.90281 20.0334C8.85474 20.2191 8.63843 21.6816 8.63843 21.6816L9.74401 21.7977V20.1959L9.33542 19.5459Z" fill="#E0E1E0"/>
<path d="M9.55176 22.0996L9.69596 20.1729L9.55176 22.0996Z" fill="#E95A25"/>
<path d="M10.0565 19.3142C10.0565 19.3142 9.67196 19.175 9.45565 19.2214C9.23934 19.2678 8.63848 19.7321 8.47024 19.8714C8.20587 20.0571 8.32604 20.266 8.54235 20.1732C8.71059 20.1035 8.90286 20.0107 9.04707 19.8946C9.21531 19.9875 9.43162 20.0107 9.62389 19.9178C9.9123 19.8017 10.0565 19.3142 10.0565 19.3142Z" fill="#FCC5AA"/>
<path d="M9.45564 19.2207C9.26337 19.2439 9.09513 19.2671 8.90285 19.2903C8.63848 19.3368 8.49427 19.4296 8.47024 19.5225C8.4462 19.6386 8.49427 20.1261 8.59041 20.1957C8.68655 20.2653 9.47968 20.3582 9.57582 20.335C9.67195 20.3118 9.72002 20.2189 9.62388 20.1493C9.52775 20.0564 9.04706 19.9171 9.04706 19.9171L8.97496 19.6386L9.45564 19.2207Z" fill="#FCC5AA"/>
<path d="M8.47021 19.6162C8.47021 19.6162 8.51828 20.4751 8.54232 20.5216C8.56635 20.5912 8.8067 20.6376 8.97494 20.6376C9.14318 20.6376 9.62386 20.568 9.62386 20.4751C9.62386 20.4287 9.62386 20.3591 9.59983 20.3126L8.78266 20.243L8.47021 19.6162Z" fill="#FCC5AA"/>
<path d="M8.59033 20.5215C8.59033 20.5215 8.75857 20.8465 8.78261 20.8929C8.80664 20.9393 8.95085 21.0554 9.02295 20.9626C9.09505 20.8697 9.09505 20.8929 9.04698 20.8001C9.02295 20.7304 8.97488 20.6608 8.92681 20.5911L8.61437 20.5447" fill="#FCC5AA"/>
<path d="M8.54224 20.5215C8.54224 20.5215 8.63837 20.5679 8.78258 20.5911C8.92679 20.6143 9.02292 20.6376 9.02292 20.6376" fill="#F7996E"/>
<path d="M14.0942 11.4905C14.0942 11.4905 13.8058 11.1887 13.6135 11.1422C13.4213 11.119 12.6522 11.2583 12.4118 11.3047C12.0994 11.3744 12.0994 11.5833 12.3157 11.6065C12.508 11.6065 12.7002 11.6065 12.8925 11.5833C13.0127 11.7458 13.205 11.8619 13.3972 11.8619C13.7577 11.8619 14.0942 11.4905 14.0942 11.4905Z" fill="#FCC5AA"/>
<path d="M13.6136 11.1662C13.4454 11.0966 13.2531 11.0502 13.0849 11.0037C12.8205 10.9341 12.6522 10.9341 12.5801 11.027C12.508 11.1198 12.3158 11.5841 12.3638 11.677C12.4119 11.7698 13.0608 12.2109 13.181 12.2341C13.2771 12.2573 13.3492 12.2109 13.3252 12.0716C13.2771 11.9555 12.9166 11.6305 12.9166 11.6305L12.9887 11.352L13.6136 11.1662Z" fill="#FCC5AA"/>
<path d="M12.5562 11.0732C12.5562 11.0732 12.1957 11.8625 12.1716 11.909C12.1716 11.9786 12.3399 12.1179 12.5081 12.2107C12.6523 12.2804 13.109 12.4197 13.157 12.35C13.1811 12.3036 13.2051 12.2572 13.2051 12.2107L12.5081 11.7929L12.5562 11.0732Z" fill="#FCC5AA"/>
<path d="M12.2195 11.9316C12.2195 11.9316 12.2195 12.2799 12.2195 12.3495C12.2195 12.4191 12.2916 12.5584 12.4118 12.5352C12.5079 12.4888 12.5079 12.4888 12.5079 12.3959" fill="#FCC5AA"/>
</g>
</g>
<defs>
<clipPath id="clip0_142_9173">
<rect width="28" height="39" fill="white" transform="translate(4)"/>
</clipPath>
</defs>
</svg>
