<svg width="36" height="36" viewBox="0 0 36 36" fill="none" xmlns="http://www.w3.org/2000/svg">
<circle cx="18" cy="18" r="18" fill="#FDEEE6"/>
<g clip-path="url(#clip0_142_9174)">
<path d="M23.5077 3.08105L13.043 3.108V3.18883L11.5283 28.9733L33.8622 28.8925L33.8071 13.1308L23.5077 3.08105Z" fill="#E95A25"/>
<g opacity="0.3">
<path d="M23.5077 3.08105L13.043 3.108V3.18883L11.5283 28.9733L33.8622 28.8925L33.8071 13.1308L23.5077 3.08105Z" fill="#010101"/>
</g>
<path d="M13.0429 3.10742L2.6333 12.7261L2.68838 28.9996L23.5903 28.9188L23.5352 12.9955L13.0429 3.10742Z" fill="#E95A25"/>
<g opacity="0.6">
<path d="M20.4708 14.4701L16.0095 14.4854L16.0251 18.8501L20.4864 18.8349L20.4708 14.4701Z" fill="white"/>
</g>
<g opacity="0.6">
<path d="M9.59287 14.4975L5.13159 14.5127L5.14716 18.8775L9.60844 18.8622L9.59287 14.4975Z" fill="white"/>
</g>
<path d="M7.33098 4.88203L5.10034 4.88965L5.12341 11.356L7.35405 11.3484L7.33098 4.88203Z" fill="#E95A25"/>
<path d="M14.7913 20.9354L9.61401 20.9531L9.64256 28.9552L14.8198 28.9375L14.7913 20.9354Z" fill="#010101"/>
<path d="M23.5353 13.1036H23.4802V13.0767L21.6902 11.3523L13.0155 3.16166H13.0981L5.08434 10.544L2.82616 12.6187L2.22031 13.1575L2.05508 13.2922L2 13.3192C2 13.2922 2.02754 13.2922 2.05508 13.2653L2.19277 13.1306C2.33046 12.9959 2.52324 12.8073 2.77108 12.5648C3.29432 12.0798 4.0654 11.3523 5.02926 10.4632L13.0155 3.05389L13.0706 3L13.1256 3.05389L21.8279 11.2446L23.6179 12.942L23.5628 12.915L33.8072 13.0497L33.7522 13.1845L26.3167 5.8829C25.4355 4.99378 24.7194 4.29326 24.2238 3.80829L23.673 3.24249L23.5353 3.10777C23.5077 3.08083 23.4802 3.05389 23.4802 3.05389L23.5353 3.10777L23.7005 3.26943L24.2513 3.80829L26.3718 5.85596L33.8348 13.1036L33.9725 13.2383H33.7522" fill="#273339"/>
<path d="M14.7779 28.9462C14.7779 28.8923 14.7779 28.8384 14.7779 28.7845C14.7779 28.6498 14.7779 28.5151 14.7503 28.3265C14.7503 27.9223 14.7503 27.3565 14.7228 26.656C14.7228 25.2011 14.6952 23.2073 14.6952 20.9441L14.7779 21.0519H9.62812L9.73828 20.9441C9.73828 23.2343 9.71074 25.228 9.71074 26.683C9.71074 27.3835 9.6832 27.9493 9.6832 28.3534C9.6832 28.542 9.6832 28.6768 9.6832 28.8115C9.6832 28.8654 9.6832 28.9192 9.65566 28.9731C9.65566 28.9192 9.65566 28.8654 9.65566 28.8115C9.65566 28.6768 9.65566 28.542 9.65566 28.3534C9.65566 27.9493 9.62812 27.3835 9.62812 26.683C9.62812 25.228 9.62812 23.2343 9.60059 20.9441V20.8633H14.9431V20.9441C14.9431 23.2343 14.9156 25.228 14.9156 26.656C14.9156 27.3565 14.9156 27.9223 14.888 28.3265V28.7845C14.8605 28.8654 14.8329 28.9192 14.7779 28.9462Z" fill="#101536"/>
</g>
<defs>
<clipPath id="clip0_142_9174">
<rect width="32" height="26" fill="white" transform="translate(2 3)"/>
</clipPath>
</defs>
</svg>
