<svg width="36" height="42" viewBox="0 0 36 42" fill="none" xmlns="http://www.w3.org/2000/svg">
<circle cx="18" cy="24" r="18" fill="#FDEEE6"/>
<path d="M29.5747 9.64968L18.5865 5.78516L7.71912 9.60226C6.34258 10.2424 5.11094 10.6217 5.11094 11.902V18.2322C5.08679 22.6658 6.34258 27.0282 8.68511 30.7979C11.0518 34.615 14.5294 37.6497 18.6831 39.4753C23.1267 38.0527 26.4594 34.283 28.4638 31.0349C30.8305 27.2415 32.0621 22.9029 32.038 18.4456V12.7555C32.0863 10.9774 31.0962 10.1001 29.5747 9.64968Z" fill="white"/>
<path d="M32.0863 18.1611V12.9452C32.0863 10.3372 30.7098 10.1476 29.5747 9.67339L18.5865 5.78516L7.71912 9.60226C6.58408 10.1001 5.11094 10.6217 5.11094 11.902V18.2322C5.08679 22.6658 6.34258 27.0282 8.68511 30.7979C11.0518 34.615 14.5294 37.6497 18.6831 39.4753C19.4318 39.2382 20.1563 38.93 20.8325 38.5743C22.523 37.626 24.0686 36.4405 25.3968 35.0417C26.6043 33.7614 27.6669 32.3626 28.5846 30.8453C30.9996 27.0519 32.207 22.6421 32.0863 18.1611ZM29.3574 19.0146C29.3815 22.5235 28.3914 25.9613 26.5318 28.9723C24.9379 31.5328 22.5471 34.1645 18.7314 35.8478C15.4229 34.3779 12.6698 31.9596 10.8103 28.9012C8.95076 25.9139 7.96062 22.4524 7.98477 18.9435V14.51C7.98477 13.5142 8.61266 12.5659 9.82015 11.9968L18.5865 8.77246L27.4978 12.0443C28.7295 12.6133 29.3332 13.5379 29.3332 14.5574V19.0146H29.3574Z" fill="#E95A25"/>
<mask id="mask0_142_9182" style="mask-type:luminance" maskUnits="userSpaceOnUse" x="4" y="0" width="26" height="37">
<path d="M29.4056 14.8891V19.3463C29.4298 22.8552 28.4396 26.293 26.5801 29.304C24.9862 31.8645 22.5954 34.4962 18.7797 36.1795C15.4712 34.7096 12.7181 32.2913 10.8586 29.2566C8.99903 26.2693 8.00889 22.8078 8.03304 19.2989V14.8417C8.34699 14.2964 8.46774 13.8222 8.49189 13.4191C8.68509 11.3565 6.87385 9.17528 4.02417 7.80017C5.11091 6.42506 6.2218 5.07367 7.30855 3.69856C10.0133 2.46571 12.7664 1.23285 15.4953 0C18.8763 1.30398 22.2331 2.63167 25.6141 3.93565C26.7733 7.04149 27.8842 10.2185 28.9468 13.4666C29.0917 13.9407 29.2366 14.4149 29.4056 14.8891Z" fill="white"/>
</mask>
<g mask="url(#mask0_142_9182)">
<path d="M23.2958 18.3506L24.5033 24.2066L27.4737 30.9162L25.9282 31.746C25.9282 31.746 22.2332 25.9848 22.1849 25.2498C22.1366 24.5149 20.8567 19.2515 20.8567 19.2515L23.2958 18.3506Z" fill="#FCC5AA"/>
<path d="M15.4955 18.2791L13.4427 23.8981L12.4284 31.153L10.6655 31.0818C10.6655 31.0818 10.5447 24.2774 10.8828 23.6136C11.2451 22.9498 12.9356 17.7812 12.9356 17.7812L15.4955 18.2791Z" fill="#FCC5AA"/>
<path d="M16.3648 16.8334L16.2924 11.0485C16.2199 9.60226 17.0169 8.36941 18.49 8.3457H18.6349C19.9873 8.41683 21.0982 9.48372 21.1465 10.8351C21.1948 12.0917 21.2431 13.4668 21.1948 14.1306C21.1223 15.5057 19.6975 15.648 19.6975 15.648C19.6975 15.648 19.6975 16.4778 19.6975 16.9046L18.5625 18.4456V18.5167L16.3648 16.8334Z" fill="#FCC5AA"/>
<path d="M16.3649 12.0913C16.3408 12.0913 15.3989 11.7831 15.3989 12.7077C15.3989 13.6561 16.3649 13.4664 16.3649 13.4427C16.3649 13.419 16.3649 12.0913 16.3649 12.0913Z" fill="#FCC5AA"/>
<path d="M23.0784 9.57848C23.0542 9.53107 23.0301 9.48365 22.9818 9.43623C22.861 9.38881 22.7403 9.36511 22.6195 9.36511C22.3056 9.36511 22.0158 9.27027 21.7502 9.12802C21.8468 9.0806 21.9434 9.03318 22.0158 8.96206C22.1848 8.8198 22.2573 8.58272 22.209 8.36934C22.209 8.32192 22.1607 8.29821 22.1366 8.2745C22.0641 8.2508 22.0158 8.32192 21.9675 8.36934C21.8468 8.51159 21.6536 8.58272 21.4845 8.55901C21.3638 8.55901 21.2189 8.51159 21.1223 8.44046L21.0981 8.41676C21.0498 8.36934 21.0015 8.32192 20.9532 8.2745C20.591 7.91887 20.277 7.65808 19.9631 7.53953C19.5042 7.34986 18.7073 7.25503 18.2243 7.37357C17.7413 7.49212 17.2824 7.87146 17.21 8.36934C16.9443 8.13225 16.5338 8.13225 16.1957 8.2745C15.8093 8.39305 15.6161 8.7961 15.4953 9.15173L15.4712 9.22285C15.3504 9.41252 15.1573 9.57848 14.9641 9.69703C14.9399 9.72074 14.8916 9.74445 14.8916 9.79186C14.8916 9.83928 14.9158 9.86299 14.9641 9.8867C15.0607 9.95782 15.1572 9.98153 15.2538 10.0052C15.2297 10.1001 15.1814 10.1712 15.1331 10.266C15.0848 10.3372 15.0365 10.4083 15.0848 10.5031C15.109 10.5505 15.1814 10.598 15.2538 10.5743C15.3263 10.5505 15.3746 10.5268 15.4229 10.5031L15.3021 10.7876C15.447 10.8113 15.5678 10.8113 15.7127 10.7639C15.7851 11.1196 15.8334 11.7597 15.93 11.9968C16.1957 11.9968 16.244 11.9731 16.3889 12.0205C16.5579 12.0679 16.4855 12.3524 16.7028 12.2813C16.8236 12.2339 16.9926 11.8308 17.0168 11.7123C17.2583 10.9773 17.3549 10.1949 17.2824 9.43623C17.4515 9.27027 17.6205 9.15173 17.8379 9.05689L17.8137 9.0806C18.2001 8.96206 18.659 8.8198 19.0212 9.00947C19.311 9.15173 19.4801 9.45994 19.6974 9.69703C20.0597 10.1475 20.591 10.4083 21.1706 10.432C21.2189 10.8588 21.2189 11.5226 21.243 11.9256L21.5811 11.1433C21.6053 11.0958 21.6294 11.0484 21.6536 11.001V10.9773C21.6777 10.9062 21.726 10.835 21.7743 10.7639C21.8709 10.8588 22.04 10.835 22.1124 10.7402C22.1849 10.6454 22.1848 10.5268 22.1366 10.432C22.1124 10.3846 22.0641 10.3372 22.0158 10.3135C22.1124 10.4083 22.2573 10.4557 22.378 10.4083C22.5229 10.3609 22.5954 10.2423 22.5954 10.1001C22.5954 10.0052 22.5229 9.93412 22.4505 9.8867C22.6195 9.91041 22.7886 9.86299 22.9576 9.79186C23.0301 9.79186 23.1267 9.72074 23.0784 9.57848Z" fill="#273339"/>
<path d="M23.5616 31.8173C23.5374 31.4854 23.5133 31.0824 23.465 30.7978C23.1027 30.8927 22.7405 30.9875 22.3541 31.0586C21.4847 31.2009 20.6153 31.2246 19.7459 31.1535H19.6976C17.9105 31.0112 16.0751 30.4896 14.2398 29.9443L13.95 32.0307L13.2738 42.0595L12.7908 52.278H15.8336C15.8336 52.278 16.9204 44.4067 16.9928 43.3161C17.0894 42.1069 18.5384 34.5912 18.5384 34.5912L18.8041 34.5201L18.6592 52.1594H21.8228C21.8228 52.1594 23.5374 33.2161 23.5616 32.5523C23.5857 32.3152 23.5857 32.0544 23.5616 31.8173Z" fill="#273339"/>
<path d="M23.3441 29.3037L23.0543 24.4672L23.0301 23.3054L24.8655 22.4519L23.6097 18.4214C23.4407 17.971 23.0784 17.639 22.6437 17.4494L22.5713 17.4257L19.6974 16.4299C19.5525 16.8804 18.8039 17.2123 18.1277 17.236C16.9202 17.2597 16.2682 16.2402 16.2682 16.2402C16.1233 16.2877 14.6743 16.667 13.8773 17.0937C13.5875 17.2123 12.9355 17.6628 12.5249 18.3503C11.9453 19.3224 10.8103 21.9777 10.8103 21.9777L13.9498 23.0209C13.9739 22.9024 13.9981 22.7601 14.0464 22.5942L14.4328 26.6247L14.2637 28.9481C14.2637 28.9481 13.7083 29.5882 13.6841 30.015V30.7974C15.5678 31.3427 18.0553 31.9354 19.8665 32.1014H19.9148C20.8083 32.1725 21.726 32.1488 22.6196 32.0065L22.692 31.9828C23.0301 31.9117 23.3441 31.8406 23.6822 31.7457H23.7305C23.7305 31.7457 23.658 30.2047 23.489 29.7779C23.3199 29.3512 23.3441 29.3037 23.3441 29.3037Z" fill="#F15A29"/>
</g>
</svg>
