<svg width="37" height="46" viewBox="0 0 37 46" fill="none" xmlns="http://www.w3.org/2000/svg">
<path d="M8.1867 10.7109C8.1867 4.7982 12.8086 0 18.5041 0C24.1995 0 28.8215 4.7982 28.8215 10.7109C28.8215 16.6236 24.3225 23.2765 18.5041 23.2765C12.6857 23.2765 8.1867 16.5215 8.1867 10.7109ZM6.21993 43.4733C4.00731 42.5205 1.9258 41.3209 0 39.9002C1.2948 32.6603 7.4082 27.1814 14.7508 27.1729H22.2492C29.5918 27.1814 35.7052 32.6603 37 39.9002C35.0742 41.3294 32.9927 42.5205 30.7801 43.4733C26.8875 45.1493 22.7573 46 18.4959 46C14.2346 46 10.1043 45.1493 6.21173 43.4733H6.21993Z" fill="#546069"/>
</svg>
