<svg width="16" height="16" viewBox="0 0 16 16" fill="none" xmlns="http://www.w3.org/2000/svg">
<path d="M8.38937 14.9278C8.13982 15.0241 7.86336 15.0241 7.61381 14.9278C5.66488 14.1636 3.99143 12.8299 2.81167 11.1006C1.63191 9.37131 1.00058 7.32666 1 5.23327V2.07717C1 1.79149 1.11349 1.5175 1.3155 1.3155C1.5175 1.11349 1.79148 1 2.07717 1H13.926C14.2117 1 14.4857 1.11349 14.6877 1.3155C14.8897 1.5175 15.0032 1.79149 15.0032 2.07717V5.2225C15.0048 7.31773 14.3744 9.36473 13.1945 11.0962C12.0146 12.8276 10.34 14.1629 8.38937 14.9278Z" stroke="black" stroke-width="1.6" stroke-linecap="round" stroke-linejoin="round"/>
<path d="M3.51733 12.0193C4.00866 11.2801 4.67523 10.6739 5.45764 10.2548C6.24005 9.83568 7.11399 9.61664 8.00158 9.61719C9.87262 9.61719 11.5207 10.5716 12.4869 12.0193" stroke="black" stroke-width="1.6" stroke-linecap="round" stroke-linejoin="round"/>
<path d="M8.00151 8.00155C8.31978 8.00155 8.63494 7.93886 8.92899 7.81706C9.22304 7.69527 9.49022 7.51674 9.71527 7.29169C9.94033 7.06663 10.1188 6.79945 10.2406 6.50541C10.3624 6.21136 10.4251 5.8962 10.4251 5.57792C10.4251 5.25965 10.3624 4.94449 10.2406 4.65044C10.1188 4.35639 9.94033 4.08922 9.71527 3.86416C9.49022 3.63911 9.22304 3.46058 8.92899 3.33878C8.63494 3.21699 8.31978 3.1543 8.00151 3.1543C7.35872 3.1543 6.74226 3.40964 6.28775 3.86416C5.83323 4.31868 5.57788 4.93514 5.57788 5.57792C5.57788 6.22071 5.83323 6.83717 6.28775 7.29169C6.74226 7.74621 7.35872 8.00155 8.00151 8.00155Z" stroke="black" stroke-width="1.6" stroke-linecap="round" stroke-linejoin="round"/>
</svg>
