<svg width="19" height="19" viewBox="0 0 19 19" fill="none" xmlns="http://www.w3.org/2000/svg">
<g clip-path="url(#clip0_144_10040)">
<path d="M3.44515 5.65633C3.20789 4.91783 3.23212 4.12016 3.51375 3.39742C3.79539 2.67468 4.31726 2.07094 4.99164 1.68768L5.56358 1.34795C5.82394 1.20157 6.13125 1.1629 6.41976 1.24021C6.70827 1.31751 6.95507 1.50466 7.10736 1.7616L8.51724 4.23208C8.66343 4.49054 8.70229 4.79607 8.62543 5.08289C8.54858 5.36971 8.36216 5.61488 8.10633 5.76562C7.84938 5.91791 7.66223 6.16471 7.58493 6.45322C7.50762 6.74173 7.54629 7.04903 7.69267 7.30939L9.93717 11.197C10.0106 11.3263 10.109 11.4397 10.2267 11.5307C10.3443 11.6217 10.4789 11.6883 10.6225 11.7268C10.7662 11.7653 10.916 11.7748 11.0634 11.7549C11.2108 11.735 11.3527 11.6859 11.481 11.6106C11.7394 11.4644 12.0449 11.4256 12.3318 11.5024C12.6186 11.5793 12.8638 11.7657 13.0145 12.0215L14.4361 14.4853C14.5824 14.7456 14.6211 15.0529 14.5438 15.3415C14.4665 15.63 14.2793 15.8768 14.0224 16.0291L13.4409 16.3552C12.772 16.747 11.9887 16.8967 11.2224 16.7791C10.4562 16.6616 9.75377 16.284 9.23304 15.7098C6.68094 12.7579 4.71642 9.34557 3.44515 5.65633Z" stroke="black" stroke-width="1.71429" stroke-linecap="round" stroke-linejoin="round"/>
</g>
<defs>
<clipPath id="clip0_144_10040">
<rect width="14.8476" height="14.8476" fill="white" transform="translate(18.1846 3.84375) rotate(105)"/>
</clipPath>
</defs>
</svg>
