<svg width="24" height="24" viewBox="0 0 24 24" fill="none" xmlns="http://www.w3.org/2000/svg">
<g clip-path="url(#clip0_33_14403)">
<path d="M12 21.5C17.2467 21.5 21.5 17.2467 21.5 12C21.5 6.75329 17.2467 2.5 12 2.5C6.75329 2.5 2.5 6.75329 2.5 12C2.5 17.2467 6.75329 21.5 12 21.5Z" stroke="#EC5800" stroke-width="1.5" stroke-linecap="round" stroke-linejoin="round"/>
</g>
<g clip-path="url(#clip1_33_14403)">
<path d="M12.1522 16.7826C11.7704 16.7826 11.4745 16.4941 11.4458 16.0962C11.4363 15.8873 11.4267 15.6784 11.4458 15.4695C11.4649 15.2606 11.3886 15.1611 11.2072 15.0816C10.7872 14.9025 10.4341 14.5941 10.1477 14.2261C9.89957 13.9078 9.89957 13.5596 10.1096 13.2711C10.3673 12.923 10.8254 12.8633 11.1499 13.1418C11.2454 13.2214 11.3122 13.3308 11.4077 13.4005C11.5699 13.5198 11.7322 13.6591 11.9135 13.7287C12.324 13.8879 12.7248 13.669 12.8394 13.2413C12.9444 12.8534 12.7058 12.4555 12.2953 12.356C12.1999 12.3361 12.1044 12.3162 12.0185 12.3162C11.2645 12.2963 10.2814 11.6995 10.0523 10.5157C9.8423 9.47125 10.3482 8.56604 11.1118 8.12836C11.1786 8.08857 11.2359 8.05873 11.3027 8.02888C11.4077 7.98909 11.4458 7.91946 11.4458 7.80009C11.4363 7.58125 11.4363 7.35246 11.4458 7.13362C11.4554 6.66609 11.7608 6.34778 12.1808 6.34778C12.5817 6.35773 12.8776 6.66609 12.8871 7.12367C12.8967 7.31267 12.8967 7.49173 12.8871 7.68073C12.868 7.87967 12.9348 7.97915 13.1162 8.06867C13.393 8.21788 13.6698 8.41683 13.8989 8.63567C14.2329 8.94404 14.2425 9.36183 13.9752 9.69009C13.7271 9.99846 13.2975 10.0184 12.9444 9.75972C12.7535 9.62046 12.553 9.47125 12.3335 9.39167C11.9422 9.25241 11.5413 9.54088 11.4554 9.96862C11.3886 10.3466 11.6654 10.7346 12.0472 10.8042C12.219 10.834 12.4003 10.834 12.5721 10.8738C13.4789 11.0728 14.147 11.8089 14.2807 12.734C14.4143 13.6591 13.9752 14.5941 13.1639 15.0318C12.9253 15.1611 12.8298 15.3004 12.8585 15.569C12.8776 15.7381 12.868 15.9171 12.8585 16.0862C12.8489 16.504 12.553 16.7826 12.1522 16.7826Z" fill="#EC5800"/>
</g>
<defs>
<clipPath id="clip0_33_14403">
<rect width="24" height="24" fill="white"/>
</clipPath>
<clipPath id="clip1_33_14403">
<rect width="20" height="20" fill="white" transform="translate(3 2)"/>
</clipPath>
</defs>
</svg>
