<svg width="24" height="24" viewBox="0 0 24 24" fill="none" xmlns="http://www.w3.org/2000/svg">
<path d="M7 7H12.5" stroke="#9D9D9E" stroke-width="1.5" stroke-linecap="round" stroke-linejoin="round"/>
<path d="M7 11H10" stroke="#9D9D9E" stroke-width="1.5" stroke-linecap="round" stroke-linejoin="round"/>
<path d="M10 21H5C4.46957 21 3.96086 20.7893 3.58579 20.4142C3.21071 20.0391 3 19.5304 3 19V5C3 4.46957 3.21071 3.96086 3.58579 3.58579C3.96086 3.21071 4.46957 3 5 3H17C17.5304 3 18.0391 3.21071 18.4142 3.58579C18.7893 3.96086 19 4.46957 19 5V9" stroke="#9D9D9E" stroke-width="1.5" stroke-linecap="round" stroke-linejoin="round"/>
<path d="M12 14.031L16 12L20 14.031V17C20 18.0609 19.5786 19.0783 18.8284 19.8284C18.0783 20.5786 17.0609 21 16 21C14.9391 21 13.9217 20.5786 13.1716 19.8284C12.4214 19.0783 12 18.0609 12 17V14.031Z" stroke="#9D9D9E" stroke-width="1.5" stroke-linecap="round" stroke-linejoin="round"/>
</svg>
