<svg width="206" height="128" viewBox="0 0 206 128" fill="none" xmlns="http://www.w3.org/2000/svg">
<path d="M104.072 39.8105C120.206 72.0527 130.949 103.155 135.283 127.366C137.45 139.476 138.01 149.832 136.856 157.735C135.699 165.656 132.844 170.987 128.304 173.259C123.765 175.53 117.786 174.619 110.753 170.797C103.736 166.983 95.7818 160.326 87.3893 151.332C70.6091 133.348 52.1558 106.105 36.022 73.8625C19.8882 41.6203 9.14564 10.5184 4.81152 -13.6934C2.64386 -25.8026 2.08458 -36.1592 3.23858 -44.0621C4.39513 -51.9825 7.25068 -57.3143 11.79 -59.5858C16.3294 -61.8573 22.3088 -60.9464 29.3414 -57.1239C36.3585 -53.3097 44.3125 -46.6533 52.705 -37.659C69.4852 -19.6752 87.9385 7.56833 104.072 39.8105Z" stroke="#101623" stroke-opacity="0.1"/>
<path d="M82.4269 20.8695C116.634 32.2599 146.222 46.6561 166.407 60.7117C176.503 67.7415 184.221 74.6693 188.994 81.0735C193.776 87.4918 195.527 93.2812 193.924 98.0972C192.32 102.913 187.448 106.497 179.772 108.767C172.113 111.032 161.782 111.949 149.488 111.524C124.906 110.673 92.5934 104.457 58.3864 93.0667C24.1794 81.6764 -5.40911 67.2801 -25.5941 53.2245C-35.6893 46.1948 -43.4081 39.267 -48.1803 32.8628C-52.963 26.4445 -54.714 20.6551 -53.1104 15.8391C-51.5067 11.0231 -46.6346 7.43917 -38.9588 5.16929C-31.3 2.90442 -20.9689 1.98689 -8.67455 2.4125C15.9073 3.26349 48.2198 9.47918 82.4269 20.8695Z" stroke="#101623" stroke-opacity="0.1"/>
<path d="M106.014 69.2162C94.6239 103.423 80.2276 133.012 66.1721 153.197C59.1423 163.292 52.2145 171.011 45.8103 175.783C39.392 180.566 33.6026 182.317 28.7866 180.713C23.9707 179.109 20.3867 174.237 18.1168 166.561C15.8519 158.903 14.9344 148.571 15.36 136.277C16.211 111.695 22.4267 79.3827 33.817 45.1757C45.2074 10.9687 59.6037 -18.6198 73.6593 -38.8048C80.689 -48.9 87.6168 -56.6188 94.021 -61.391C100.439 -66.1737 106.229 -67.9247 111.045 -66.3211C115.861 -64.7174 119.445 -59.8453 121.714 -52.1695C123.979 -44.5107 124.897 -34.1796 124.471 -21.8852C123.62 2.69662 117.405 35.0092 106.014 69.2162Z" stroke="#101623" stroke-opacity="0.1"/>
</svg>
