<svg width="24" height="24" viewBox="0 0 24 24" fill="none" xmlns="http://www.w3.org/2000/svg">
<path d="M14.193 5.58199C14.7547 6.13481 15.2014 6.79338 15.5074 7.5197C15.8134 8.24602 15.9725 9.02573 15.9756 9.81386C15.9788 10.602 15.8259 11.3829 15.5257 12.1117C15.2256 12.8404 14.7841 13.5025 14.2268 14.0598C13.6695 14.6171 13.0074 15.0586 12.2787 15.3587C11.5499 15.6589 10.769 15.8118 9.98085 15.8087C9.19273 15.8055 8.41302 15.6464 7.68669 15.3404C6.96037 15.0344 6.30181 14.5877 5.74898 14.026C4.64397 12.9032 4.02745 11.3892 4.03374 9.81386C4.04003 8.23853 4.66862 6.7295 5.78256 5.61556C6.8965 4.50162 8.40552 3.87304 9.98085 3.86675C11.5562 3.86046 13.0702 4.47698 14.193 5.58199" stroke="#9D9D9E" stroke-width="1.5" stroke-linecap="round" stroke-linejoin="round"/>
<path d="M14.1499 14.0601L19.9999 19.9901" stroke="#9D9D9E" stroke-width="1.5" stroke-linecap="round" stroke-linejoin="round"/>
</svg>
