<svg width="34" height="35" viewBox="0 0 34 35" fill="none" xmlns="http://www.w3.org/2000/svg">
<g clip-path="url(#clip0_56_9946)">
<path d="M32.8231 22.1961C36.1359 13.7725 31.7333 4.33813 23.0154 1.13717C14.2974 -2.06379 4.53331 2.19012 1.22049 10.6137C-1.70002 18.0686 1.39485 26.4922 8.49998 30.4934C7.75895 32.0938 6.75639 33.6101 5.53588 34.9157C8.15126 34.7473 10.6359 33.7786 12.641 32.1781C21.0538 34.3261 29.7718 30.0301 32.8231 22.1961Z" fill="white"/>
<path d="M32.8231 22.1963C32.8231 22.1963 32.7795 22.3227 32.6487 22.5754C32.5179 22.8281 32.3872 23.2493 32.1256 23.7547C31.3846 25.1867 30.4256 26.5345 29.2487 27.7138C28.8564 28.135 28.4641 28.514 28.0282 28.851L27.3308 29.4406L26.5461 29.9882C25.9795 30.3672 25.4128 30.7042 24.8025 30.999C24.4974 31.1675 24.1487 31.2938 23.8 31.4202C23.6256 31.5044 23.4513 31.5886 23.2769 31.6308L22.7538 31.7992C22.4051 31.9256 22.0564 32.0519 21.6641 32.1362L20.4872 32.431C19.659 32.5995 18.8308 32.6837 18.0025 32.7258C16.2154 32.8522 14.3846 32.6837 12.641 32.2625H12.7282C10.6795 33.863 8.19485 34.8317 5.57947 35.0002C5.53588 35.0002 5.49229 34.9581 5.49229 34.916C5.49229 34.8738 5.49229 34.8738 5.53588 34.8317C6.75639 33.5261 7.75896 32.0519 8.45639 30.4515L8.49998 30.5778C7.19229 29.8197 5.97178 28.8931 4.88203 27.8401C3.7487 26.7451 2.78973 25.4815 2.0487 24.0916C0.435879 21.2276 -0.217967 17.9424 0.130751 14.6993C0.3487 12.804 0.871777 10.9509 1.74357 9.22402C2.61537 7.58142 3.7487 6.06517 5.09998 4.75952C5.4487 4.46469 5.75383 4.12775 6.14614 3.83292L7.23588 2.99056L8.4128 2.27456C8.58716 2.1482 8.80511 2.06397 9.02306 1.93762L9.54614 1.68491C11.159 0.926785 12.859 0.42137 14.6025 0.168662C16.259 -0.0419277 17.959 -0.0419277 19.6154 0.21078C20.0513 0.252898 20.4436 0.337134 20.8359 0.42137L21.4461 0.547723L22.0128 0.716195C22.3615 0.842549 22.7538 0.968903 23.1025 1.09526L24.1487 1.55855C24.3231 1.64279 24.4974 1.68491 24.6718 1.76914L25.1513 2.02185C25.5 2.19032 25.8051 2.35879 26.1102 2.56938L27.0256 3.15903L27.4615 3.45386L27.8974 3.7908L28.7256 4.46469C28.9872 4.7174 29.2051 4.97011 29.4231 5.1807C29.9025 5.64399 30.2949 6.14941 30.6872 6.65482C32.082 8.50801 33.0846 10.5718 33.5641 12.804C33.9564 14.4888 34.0436 16.1735 33.8692 17.9003C33.8256 18.2373 33.782 18.5742 33.7384 18.9111C33.6949 19.206 33.6077 19.5008 33.5641 19.7535C33.5205 20.0062 33.4333 20.2589 33.3897 20.4695C33.3461 20.6801 33.259 20.8907 33.2154 21.0592L32.9538 21.8594C32.8666 22.07 32.8231 22.1542 32.8231 22.1963C32.8231 22.1542 32.8666 22.07 32.9102 21.9015C32.9538 21.733 33.041 21.4382 33.1718 21.1013C33.2154 20.9328 33.3025 20.7222 33.3461 20.5116L33.5205 19.7956C33.5641 19.5429 33.6513 19.2481 33.6949 18.9533C33.7384 18.6584 33.782 18.3215 33.8256 17.9845C34 16.2998 33.8692 14.573 33.4769 12.8883C32.9538 10.6981 31.9949 8.59225 30.6 6.78118C30.2077 6.27576 29.7718 5.77035 29.3359 5.30705C29.1179 5.05434 28.8564 4.84375 28.6384 4.59104L27.8102 3.91716L27.4179 3.58021L26.982 3.28539L26.0666 2.69574C25.7615 2.52727 25.4128 2.35879 25.1077 2.1482L24.6282 1.93762C24.4538 1.85338 24.2795 1.76914 24.1051 1.72703L23.0154 1.30585C22.6666 1.17949 22.2743 1.09526 21.9256 0.968903L21.359 0.716195L20.7923 0.589841C20.4 0.505605 20.0077 0.42137 19.6154 0.379252C17.959 0.168662 16.3025 0.126544 14.6461 0.379252C12.9025 0.631959 11.2461 1.13737 9.67691 1.8955L9.06665 2.19032C8.8487 2.27456 8.67434 2.40091 8.49998 2.52727L7.36665 3.24327L6.27691 4.04351C5.92819 4.33834 5.62306 4.63316 5.27434 4.97011C3.92306 6.27576 2.83332 7.74989 2.00511 9.39249C-0.435915 13.9833 -0.305146 19.4166 2.22306 24.0074C2.96408 25.3552 3.92306 26.6187 5.0128 27.7138C6.10255 28.7667 7.27947 29.6933 8.58716 30.4515C8.63075 30.4936 8.63075 30.5357 8.63075 30.5778C7.88973 32.1783 6.88716 33.6945 5.66665 35.0002L5.57947 34.8317C8.15126 34.6632 10.6359 33.6945 12.641 32.1362C12.6846 32.1362 12.6846 32.1362 12.7282 32.1362C14.4718 32.5574 16.259 32.7679 18.0461 32.6416C18.8743 32.5995 19.7025 32.5152 20.4872 32.3468L21.6205 32.0519C22.0128 31.9677 22.3615 31.7992 22.7102 31.715L23.2333 31.5465C23.4077 31.4623 23.582 31.4202 23.7564 31.3359C24.1051 31.1675 24.4102 31.0411 24.7154 30.9148C25.3256 30.6199 25.8923 30.283 26.459 29.9039L27.2436 29.3985L27.941 28.851C28.3769 28.514 28.8128 28.135 29.2051 27.7138C30.3384 26.5345 31.341 25.2288 32.082 23.7968C32.3436 23.2914 32.4743 22.9123 32.6487 22.6175C32.7795 22.2806 32.8231 22.1963 32.8231 22.1963Z" fill="#273339"/>
<path d="M15.736 17.7319C15.736 17.7319 18.5257 19.0375 19.6591 19.3745C20.7924 19.7114 22.9283 18.4057 20.7924 17.3528C19.7898 16.8474 16.0411 15.1205 14.995 14.91C13.9488 14.6994 9.677 15.8787 9.677 15.8787V21.5646L12.336 20.6801C12.336 20.6801 16.6514 22.7018 18.0898 22.8281C19.5283 22.9545 27.2873 18.7427 27.418 17.5213V17.4791C27.4616 16.7631 26.8949 16.1314 26.1539 16.0471C25.8924 16.0471 25.6308 16.0893 25.4129 16.2156L21.6642 18.153" fill="#E95A25"/>
<path d="M21.6205 18.1528C21.6641 18.1106 21.7077 18.1106 21.7077 18.0685L22.0128 17.9001L23.2333 17.2262L25.1949 16.1732C25.6308 15.9205 26.1538 15.8784 26.5897 16.0469C27.1128 16.2575 27.4615 16.7629 27.4615 17.3104C27.4615 17.4789 27.4179 17.6052 27.3308 17.7316C27.2436 17.8579 27.1564 17.9843 27.0692 18.0685C26.8513 18.2791 26.6333 18.4897 26.4154 18.6582C25.9359 19.0372 25.4128 19.3742 24.8897 19.7111C23.7128 20.4271 22.5359 21.101 21.2718 21.6907C20.6179 22.0276 19.9205 22.3224 19.2231 22.5751C18.8308 22.7436 18.4385 22.8279 18.0461 22.8279C17.6538 22.7857 17.2615 22.7015 16.8692 22.5751C15.3 22.0697 13.7743 21.438 12.2487 20.722H12.3359L10.3308 21.4801L9.7205 21.6907C9.67691 21.7328 9.58973 21.6907 9.54614 21.6064V21.5643V15.8363C9.54614 15.7942 9.58973 15.752 9.63332 15.7099C10.9846 15.3309 12.3359 15.036 13.7308 14.8254C14.0795 14.7833 14.3846 14.7412 14.7333 14.7412C15.082 14.7833 15.3872 14.8676 15.6923 14.9939C16.3026 15.2045 16.8692 15.4572 17.4359 15.7099C18.5256 16.1732 19.5718 16.6786 20.5308 17.1419C21.0538 17.3104 21.4461 17.6473 21.7513 18.0685C21.8385 18.3212 21.8385 18.5739 21.6641 18.7845C21.5333 18.9951 21.3154 19.1215 21.0974 19.2478C20.7051 19.4584 20.2692 19.5427 19.8333 19.5005C19.4846 19.4163 19.0923 19.2899 18.7436 19.1215C18.0897 18.8688 17.5667 18.6161 17.1308 18.4055L16.1282 17.9422L15.8667 17.8158C15.8231 17.8158 15.8231 17.7737 15.7795 17.7737L15.8667 17.8158L16.1282 17.9422L17.1308 18.4055C17.5667 18.6161 18.1333 18.8267 18.7872 19.0794C19.1359 19.2057 19.4846 19.3321 19.8333 19.4163C20.2256 19.4584 20.6615 19.3742 21.0102 19.1636C21.1846 19.0794 21.359 18.9109 21.4897 18.7424C21.6205 18.5739 21.6205 18.3634 21.5769 18.1528C21.3154 17.7737 20.9231 17.4368 20.4436 17.3104C19.4846 16.8471 18.482 16.3838 17.3487 15.9205C16.782 15.6678 16.2154 15.4572 15.6487 15.2466C15.3436 15.1203 15.0385 15.036 14.7333 15.036C14.4282 15.036 14.0795 15.0782 13.7743 15.1203C12.4231 15.373 11.0718 15.6678 9.7205 16.0469L9.80768 15.9205C9.80768 17.7316 9.80768 19.6269 9.80768 21.6064L9.58973 21.4801L10.2 21.2695L12.2487 20.5956C12.2923 20.5956 12.3359 20.5956 12.3359 20.5956C13.8179 21.3116 15.3436 21.9434 16.9128 22.4488C17.2615 22.5751 17.6538 22.6594 18.0461 22.7015C18.4385 22.6594 18.7872 22.5751 19.1359 22.4488C19.8333 22.1961 20.5308 21.9013 21.1846 21.5643C22.4051 20.9747 23.6256 20.3008 24.8026 19.5848C25.3256 19.2478 25.8487 18.9109 26.3282 18.5318C26.5461 18.3634 26.7641 18.1528 26.982 17.9843C27.2 17.8158 27.3308 17.6052 27.3308 17.3525C27.3308 16.8471 27.0256 16.4259 26.5897 16.2153C26.1974 16.0469 25.7179 16.0469 25.3256 16.2996L23.3641 17.3104L22.1 17.9422L21.7949 18.1528C21.7513 18.1528 21.7077 18.1528 21.6205 18.1528Z" fill="#273339"/>
<path d="M7.1487 14.8682H9.45895C9.76408 14.8682 10.0256 15.1209 10.0256 15.4157V22.2809C10.0256 22.5757 9.76408 22.8285 9.45895 22.8285H7.1487C6.84357 22.8285 6.58203 22.5757 6.58203 22.2809V15.4157C6.62562 15.1209 6.84357 14.8682 7.1487 14.8682Z" fill="#E95A25"/>
<path d="M9.45895 22.7859C9.45895 22.7859 9.54613 22.7859 9.6769 22.7016C9.85126 22.6174 9.98203 22.4489 9.98203 22.2383C9.98203 21.6487 9.98203 20.8906 9.93844 19.9218C9.89485 18.9531 9.93844 17.7738 9.89485 16.5103C9.89485 16.1733 9.89485 15.8364 9.89485 15.5416C9.93844 15.4152 9.89485 15.2468 9.80767 15.1204C9.72049 14.994 9.58972 14.9519 9.41536 14.9519H7.19229C7.06152 14.9519 6.88716 15.0362 6.84357 15.1625C6.79998 15.2046 6.79998 15.2889 6.79998 15.3731V15.6258C6.79998 16.0049 6.79998 16.3418 6.79998 16.6788C6.79998 17.3948 6.79998 18.0687 6.79998 18.7004C6.79998 19.964 6.79998 21.1433 6.75639 22.112C6.7128 22.3226 6.79998 22.5332 7.01793 22.6174C7.19229 22.6595 7.41024 22.7016 7.62818 22.6595H8.63075H9.28459C9.37177 22.6595 9.45895 22.6595 9.50254 22.7016C9.41536 22.7016 9.32818 22.7016 9.28459 22.7016L8.63075 22.7437H7.62818H7.32306C7.19229 22.7437 7.06152 22.7437 6.97434 22.7016C6.7128 22.5753 6.58203 22.3226 6.62562 22.0699C6.62562 21.1011 6.62562 19.9218 6.58203 18.6583C6.58203 18.0265 6.58203 17.3526 6.58203 16.6366V15.3731C6.58203 15.2468 6.62562 15.1625 6.66921 15.0362C6.79998 14.8256 7.01793 14.6992 7.23588 14.6992H9.45895C9.6769 14.6992 9.89485 14.7835 10.0256 14.9519C10.1128 15.0362 10.1564 15.1204 10.1564 15.2468C10.1564 15.331 10.1564 15.4152 10.1564 15.5416V16.5103C10.1564 17.7738 10.1564 18.9531 10.1128 19.9218C10.0692 20.8906 10.0692 21.6487 10.0692 22.2383C10.0692 22.4489 9.93844 22.6595 9.6769 22.7437C9.58972 22.828 9.54613 22.828 9.45895 22.7859Z" fill="#273339"/>
<path d="M9.24093 16.8054C9.24093 17.3108 8.80503 17.6899 8.32554 17.6899C7.80246 17.6899 7.41016 17.2687 7.41016 16.8054C7.41016 16.3 7.84605 15.9209 8.32554 15.9209C8.80503 15.9209 9.24093 16.3 9.24093 16.8054Z" fill="white"/>
<path d="M20.4873 6.48633L21.795 9.0134L24.7156 9.43458L22.5797 11.4141L23.1027 14.1939L20.4873 12.8883L17.9156 14.1939L18.395 11.4141L16.3027 9.43458L19.2232 9.0134L20.4873 6.48633Z" fill="white" stroke="black" stroke-width="0.1035" stroke-miterlimit="10"/>
<path d="M19.7461 6.2334L21.0102 8.76047L23.9308 9.18165L21.8384 11.1612L22.3179 13.941L19.7461 12.6353L17.1308 13.941L17.6538 11.1612L15.5615 9.18165L18.4384 8.76047L19.7461 6.2334Z" fill="#273339"/>
<path d="M19.3975 5.93848L20.7052 8.46555L23.5821 8.88673L21.4898 10.8242L21.9693 13.6461L19.3975 12.2983L16.8257 13.6461L17.3052 10.8242L15.2129 8.88673L18.0898 8.46555L19.3975 5.93848Z" fill="#E95A25"/>
</g>
<defs>
<clipPath id="clip0_56_9946">
<rect width="34" height="35" fill="white"/>
</clipPath>
</defs>
</svg>
