<svg width="22" height="32" viewBox="0 0 22 32" fill="none" xmlns="http://www.w3.org/2000/svg">
<path d="M5.72 2.74002C5.72 2.12002 5.72 1.54002 5.72 0.960022C5.72 0.350022 6.06 0 6.68 0C9.52 0 12.35 0 15.19 0C15.81 0 16.15 0.340011 16.15 0.980011C16.15 1.54001 16.15 2.1 16.15 2.66C16.15 2.67 16.15 2.69002 16.17 2.74002C16.24 2.74002 16.33 2.74002 16.41 2.74002C17.06 2.74002 17.71 2.71002 18.35 2.77002C20.34 2.94002 21.83 4.59002 21.83 6.58002C21.83 9.54002 21.83 12.49 21.83 15.45C21.83 19.55 21.83 23.65 21.83 27.75C21.83 28.54 21.64 29.27 21.19 29.92C20.42 31.05 19.34 31.63 17.98 31.64C15.89 31.66 13.79 31.64 11.7 31.64C9.12 31.64 6.54 31.64 3.96 31.64C2.62 31.64 1.52 31.12 0.720001 30.04C0.210001 29.36 0 28.57 0 27.72C0 22.04 0 16.35 0 10.67C0 9.34001 0 8.00001 0 6.67001C0 5.01001 0.77 3.82 2.25 3.09C2.76 2.84 3.31 2.74002 3.88 2.74002C4.48 2.74002 5.07 2.74002 5.7 2.74002H5.72ZM5.72 4.45001C5.09 4.45001 4.5 4.45001 3.91 4.45001C2.63 4.45001 1.71 5.37002 1.71 6.65002C1.71 7.76002 1.71 8.86 1.71 9.97C1.71 14.42 1.71 18.88 1.71 23.33C1.71 24.79 1.73 26.25 1.71 27.71C1.69 28.98 2.71 29.99 3.96 29.96C5.61 29.92 7.26 29.96 8.91 29.96C11.92 29.96 14.93 29.96 17.93 29.96C18.2 29.96 18.48 29.93 18.73 29.84C19.66 29.49 20.15 28.74 20.16 27.74C20.16 25.87 20.16 24 20.16 22.12C20.16 17.01 20.16 11.9 20.16 6.79001C20.16 6.64001 20.16 6.48002 20.14 6.33002C20.05 5.44002 19.32 4.63002 18.43 4.52002C17.86 4.45002 17.28 4.48 16.71 4.47C16.53 4.47 16.35 4.47 16.15 4.47C16.15 4.83 16.15 5.16002 16.15 5.49002C16.15 6.09002 15.81 6.43002 15.2 6.43002C12.35 6.43002 9.49 6.43002 6.64 6.43002C6.07 6.43002 5.72 6.08001 5.72 5.51001C5.72 5.17001 5.72 4.84 5.72 4.47V4.45001ZM7.43 4.71002H14.44V1.71002H7.43V4.71002Z" fill="#F46524"/>
<path d="M10.91 20.26C7.40998 20.23 4.67998 17.44 4.73998 13.91C4.79998 10.57 7.56998 7.78999 11.09 7.87999C14.43 7.95999 17.2 10.73 17.12 14.24C17.04 17.57 14.29 20.28 10.91 20.26ZM10.93 18.57C13.39 18.57 15.43 16.55 15.44 14.1C15.44 11.59 13.44 9.57 10.93 9.57C8.43998 9.57 6.40998 11.59 6.41998 14.05C6.41998 16.53 8.44998 18.56 10.93 18.56V18.57Z" fill="#F46524"/>
<path d="M18.1999 27.66H3.66992V26H18.1999V27.66Z" fill="#F46524"/>
<path d="M18.1999 22.31V23.98C18.1099 23.98 18.0299 23.98 17.9499 23.98C13.8499 23.98 9.73991 23.98 5.63991 23.98C5.04991 23.98 4.45991 23.98 3.86991 23.98C3.71991 23.98 3.65991 23.95 3.65991 23.79C3.65991 23.3 3.65991 22.82 3.65991 22.32H18.1999V22.31Z" fill="#F46524"/>
<path d="M11.05 14.07H9.53003V13.02H11.04V11.5H12.09V13.01H13.6V14.08C13.53 14.08 13.45 14.08 13.38 14.08C12.99 14.08 12.61 14.08 12.22 14.08C12.12 14.08 12.09 14.1 12.09 14.21C12.09 14.67 12.09 15.12 12.09 15.59H11.04V14.08L11.05 14.07Z" fill="#F46524"/>
<path d="M11.8001 16.41C9.97007 16.36 8.49007 14.87 8.44007 13.05C8.42007 12.33 8.62007 11.66 8.97007 11.09C7.99007 11.71 7.34007 12.81 7.36007 14.06C7.38007 15.94 8.91007 17.47 10.7901 17.49C12.0401 17.5 13.1401 16.86 13.7601 15.88C13.2001 16.24 12.5201 16.44 11.8001 16.41Z" fill="#F46524"/>
</svg>
