<svg width="16" height="16" viewBox="0 0 16 16" fill="none" xmlns="http://www.w3.org/2000/svg">
<path d="M9.50269 1.17859C9.1871 1.17859 8.93126 1.43443 8.93126 1.75002V3.35719H7.32411C7.00853 3.35719 6.75269 3.61302 6.75269 3.92862V5.78577C6.75269 6.10136 7.00853 6.35719 7.32411 6.35719H8.93126V7.9643C8.93126 8.27989 9.1871 8.53573 9.50269 8.53573H11.3598C11.6754 8.53573 11.9312 8.27989 11.9312 7.9643V6.35719H13.5384C13.854 6.35719 14.1098 6.10136 14.1098 5.78577V3.92862C14.1098 3.61302 13.854 3.35719 13.5384 3.35719H11.9312V1.75002C11.9312 1.43443 11.6754 1.17859 11.3598 1.17859H9.50269Z" stroke="#F46524" stroke-width="1.3" stroke-linecap="round" stroke-linejoin="round"/>
<path d="M0.66626 12.3214L3.4591 14.6488C3.86987 14.9911 4.38766 15.1787 4.92238 15.1787H12.2853C12.8113 15.1787 13.2377 14.7523 13.2377 14.2262C13.2377 13.1742 12.3849 12.3214 11.3329 12.3214H6.21402" stroke="#F46524" stroke-width="1.3" stroke-linecap="round" stroke-linejoin="round"/>
<path d="M4.09483 11.1786L4.95198 12.0356C5.42536 12.5091 6.19287 12.5091 6.66626 12.0356C7.13965 11.5623 7.13965 10.7948 6.66626 10.3214L5.33573 8.99089C4.90707 8.56222 4.32569 8.32141 3.71949 8.32141H0.66626" stroke="#F46524" stroke-width="1.3" stroke-linecap="round" stroke-linejoin="round"/>
</svg>
