<svg width="248" height="20" viewBox="0 0 248 20" fill="none" xmlns="http://www.w3.org/2000/svg">
<path d="M6.7001 10.3002V15.1002H5.7001V10.3002L0.100098 1.2002H1.2001L6.2001 9.40018L11.2001 1.2002H12.2001L6.7001 10.3002Z" fill="white"/>
<path d="M13.3 9.90018C13.3 6.80018 15.5 4.7002 18.5 4.7002C21.5 4.7002 23.7 6.90018 23.7 9.90018C23.7 13.0002 21.5 15.1002 18.5 15.1002C15.5 15.2002 13.3 13.0002 13.3 9.90018ZM22.7 9.90018C22.7 7.30018 20.9 5.50018 18.5 5.50018C16.1 5.50018 14.3 7.30018 14.3 9.90018C14.3 12.5002 16.1 14.3002 18.5 14.3002C20.9 14.3002 22.7 12.5002 22.7 9.90018Z" fill="white"/>
<path d="M35.8001 4.80005V15.1001H34.8001V12.9001C34.1001 14.3001 32.7001 15.2001 30.9001 15.2001C28.3001 15.2001 26.6001 13.7 26.6001 10.8V4.80005H27.6001V10.8C27.6001 13.1 28.8001 14.4001 31.0001 14.4001C33.3001 14.4001 34.8001 12.8001 34.8001 10.4001V4.90005H35.8001V4.80005Z" fill="white"/>
<path d="M44.9 4.7002V5.7002C44.8 5.7002 44.7 5.7002 44.7 5.7002C42.4 5.7002 41 7.20017 41 9.80017V15.2002H40V4.90018H41V7.2002C41.6 5.5002 43 4.7002 44.9 4.7002Z" fill="white"/>
<path d="M63.2001 9.90005C63.2001 13.0001 61.0002 15.1001 58.1002 15.1001C56.2002 15.1001 54.7001 14.2001 53.9001 12.6001V15.0001H52.9001V0.300049H53.9001V7.00006C54.7001 5.50006 56.3002 4.60007 58.1002 4.60007C61.0002 4.70007 63.2001 6.80006 63.2001 9.90005ZM62.2001 9.90005C62.2001 7.30006 60.4001 5.50006 58.0001 5.50006C55.6001 5.50006 53.8001 7.30006 53.8001 9.90005C53.8001 12.5001 55.6001 14.3 58.0001 14.3C60.4001 14.3 62.2001 12.5001 62.2001 9.90005Z" fill="white"/>
<path d="M75.0002 10.2002H66.1002C66.2002 12.7002 68.0002 14.3001 70.5002 14.3001C71.8002 14.3001 73.0002 13.8001 73.8002 12.9001L74.4002 13.6002C73.5002 14.7002 72.1002 15.3001 70.5002 15.3001C67.4002 15.3001 65.2002 13.1002 65.2002 10.1002C65.2002 7.00016 67.3002 4.90015 70.2002 4.90015C73.0002 4.90015 75.1002 7.00016 75.1002 10.1002C75.0002 10.0002 75.0002 10.1002 75.0002 10.2002ZM66.1002 9.40015H74.0002C73.9002 7.20015 72.2002 5.60016 70.0002 5.60016C67.9002 5.60016 66.3002 7.20015 66.1002 9.40015Z" fill="white"/>
<path d="M87.3001 9.1001V15.1001H86.3001V9.1001C86.3001 6.8001 85.1001 5.50009 83.0001 5.50009C80.6001 5.50009 79.1001 7.10009 79.1001 9.50009V15.0001H78.1001V4.7001H79.1001V6.90009C79.8001 5.50009 81.2001 4.6001 83.2001 4.6001C85.7001 4.7001 87.3001 6.2001 87.3001 9.1001Z" fill="white"/>
<path d="M100.2 10.2002H91.3002C91.4002 12.7002 93.2001 14.3001 95.7001 14.3001C97.0001 14.3001 98.2002 13.8001 99.0002 12.9001L99.6002 13.6002C98.7002 14.7002 97.3001 15.3001 95.7001 15.3001C92.6001 15.3001 90.4001 13.1002 90.4001 10.1002C90.4001 7.00016 92.5001 4.90015 95.4001 4.90015C98.2001 4.90015 100.3 7.00016 100.3 10.1002C100.2 10.0002 100.2 10.1002 100.2 10.2002ZM91.3002 9.40015H99.2001C99.1001 7.20015 97.4001 5.60016 95.2001 5.60016C93.1001 5.60016 91.5002 7.20015 91.3002 9.40015Z" fill="white"/>
<path d="M106.3 0.300049C107.1 0.300049 107.8 0.500061 108.3 1.00006L107.9 1.80005C107.5 1.40005 106.9 1.20007 106.3 1.20007C105 1.20007 104.4 1.90005 104.4 3.30005V4.80005H107.7V5.70007H104.4V15.2001H103.4V5.70007H101.5V4.80005H103.4V3.20007C103.5 1.50007 104.5 0.300049 106.3 0.300049ZM112.6 1.50006C112.6 2.00006 112.2 2.30005 111.8 2.30005C111.4 2.30005 111 1.90006 111 1.50006C111 1.10006 111.4 0.700073 111.8 0.700073C112.2 0.700073 112.6 1.00006 112.6 1.50006ZM111.3 4.80005H112.3V15.1001H111.3V4.80005Z" fill="white"/>
<path d="M121.6 14.5002C121.1 15.0002 120.3 15.2002 119.5 15.2002C117.7 15.2002 116.7 14.1001 116.7 12.4001V5.60016H114.8V4.70016H116.7V2.40015H117.7V4.70016H121V5.60016H117.7V12.3001C117.7 13.6001 118.4 14.4001 119.6 14.4001C120.2 14.4001 120.8 14.2001 121.2 13.8001L121.6 14.5002Z" fill="white"/>
<path d="M122.9 13.9002L123.4 13.1002C124.2 13.8002 125.6 14.3002 127.1 14.3002C129.3 14.3002 130.2 13.5002 130.2 12.4002C130.2 9.40018 123.3 11.6002 123.3 7.50018C123.3 5.90018 124.6 4.7002 127.2 4.7002C128.5 4.7002 129.9 5.1002 130.7 5.7002L130.2 6.50018C129.3 5.90018 128.2 5.60019 127.1 5.60019C125.1 5.60019 124.2 6.40018 124.2 7.50018C124.2 10.6002 131.1 8.40018 131.1 12.4002C131.1 14.1002 129.7 15.2002 127 15.2002C125.3 15.2002 123.7 14.6002 122.9 13.9002Z" fill="white"/>
<path d="M156.3 9.00018V15.1002H153.2V9.50018C153.2 7.80018 152.4 7.00018 151.2 7.00018C149.8 7.00018 148.8 7.90017 148.8 9.80017V15.1002H145.7V9.50018C145.7 7.80018 145 7.00018 143.7 7.00018C142.3 7.00018 141.4 7.90017 141.4 9.80017V15.1002H138.3V4.40018H141.3V5.60019C142.1 4.70019 143.3 4.2002 144.6 4.2002C146.1 4.2002 147.4 4.80018 148.1 5.90018C149 4.80018 150.3 4.2002 151.9 4.2002C154.5 4.3002 156.3 5.80018 156.3 9.00018Z" fill="white"/>
<path d="M168.5 9.00006V15.1001H165.6V13.8C165 14.8 163.9 15.3 162.4 15.3C159.9 15.3 158.4 13.9001 158.4 12.1001C158.4 10.2001 159.7 8.90005 163 8.90005H165.5C165.5 7.60005 164.7 6.80005 163 6.80005C161.9 6.80005 160.7 7.20005 159.9 7.80005L158.8 5.60007C160 4.80007 161.7 4.30005 163.4 4.30005C166.6 4.30005 168.5 5.80006 168.5 9.00006ZM165.4 11.7001V10.6001H163.3C161.9 10.6001 161.4 11.1 161.4 11.8C161.4 12.6 162.1 13.1001 163.1 13.1001C164.1 13.2001 165 12.7001 165.4 11.7001Z" fill="white"/>
<path d="M182.2 9.00006V15.1001H179.1V9.50006C179.1 7.80006 178.3 7.00006 176.9 7.00006C175.4 7.00006 174.3 7.90005 174.3 9.90005V15.2001H171.2V4.50006H174.2V5.70007C175 4.80007 176.3 4.30005 177.7 4.30005C180.3 4.30005 182.2 5.80006 182.2 9.00006Z" fill="white"/>
<path d="M194.4 9.00006V15.1001H191.5V13.8C190.9 14.8 189.8 15.3 188.3 15.3C185.8 15.3 184.3 13.9001 184.3 12.1001C184.3 10.2001 185.6 8.90005 188.9 8.90005H191.4C191.4 7.60005 190.6 6.80005 188.9 6.80005C187.8 6.80005 186.6 7.20005 185.8 7.80005L184.7 5.60007C185.9 4.80007 187.6 4.30005 189.3 4.30005C192.5 4.30005 194.4 5.80006 194.4 9.00006ZM191.3 11.7001V10.6001H189.2C187.8 10.6001 187.3 11.1 187.3 11.8C187.3 12.6 188 13.1001 189 13.1001C190.1 13.2001 190.9 12.7001 191.3 11.7001Z" fill="white"/>
<path d="M208.2 4.50015V13.4001C208.2 17.4001 206.1 19.2002 202.2 19.2002C200.2 19.2002 198.2 18.7002 197 17.7002L198.2 15.5002C199.1 16.2002 200.6 16.7002 202 16.7002C204.2 16.7002 205.1 15.7001 205.1 13.8001V13.3001C204.3 14.2001 203.1 14.6002 201.7 14.6002C198.7 14.6002 196.4 12.6002 196.4 9.50015C196.4 6.40015 198.8 4.40015 201.7 4.40015C203.2 4.40015 204.4 4.90015 205.2 5.90015V4.50015H208.2ZM205.1 9.50015C205.1 7.90015 203.9 6.90015 202.3 6.90015C200.7 6.90015 199.5 7.90015 199.5 9.50015C199.5 11.1002 200.7 12.1002 202.3 12.1002C203.9 12.1002 205.1 11.0002 205.1 9.50015Z" fill="white"/>
<path d="M221.4 10.7001H213.3C213.6 12.0001 214.7 12.8 216.4 12.8C217.5 12.8 218.3 12.5 219.1 11.8L220.7 13.6001C219.7 14.7001 218.2 15.3 216.3 15.3C212.6 15.3 210.2 13 210.2 9.80005C210.2 6.60005 212.6 4.30005 215.9 4.30005C219 4.30005 221.4 6.40005 221.4 9.80005C221.5 10.1 221.5 10.4001 221.4 10.7001ZM213.3 8.90005H218.5C218.3 7.60005 217.3 6.70007 215.9 6.70007C214.6 6.60007 213.5 7.50005 213.3 8.90005Z" fill="white"/>
<path d="M230.2 4.30005V7.20007C229.9 7.20007 229.7 7.20007 229.5 7.20007C227.8 7.20007 226.7 8.10007 226.7 10.2001V15.2001H223.6V4.50006H226.6V5.90005C227.3 4.80005 228.5 4.30005 230.2 4.30005Z" fill="white"/>
<path d="M236.9 14.3C236.9 13.8 237.3 13.5 237.7 13.5C238.1 13.5 238.5 13.9 238.5 14.3C238.5 14.8 238.1 15.2 237.7 15.2C237.3 15.2 236.9 14.8 236.9 14.3Z" fill="white"/>
<path d="M246 14.3C246 13.8 246.4 13.5 246.8 13.5C247.2 13.5 247.6 13.9 247.6 14.3C247.6 14.8 247.2 15.2 246.8 15.2C246.4 15.2 246 14.8 246 14.3Z" fill="white"/>
</svg>
