<svg width="43" height="12" viewBox="0 0 43 12" fill="none" xmlns="http://www.w3.org/2000/svg">
<g clip-path="url(#clip0_56_10045)">
<path d="M36.8946 0.822266L38.7642 4.48184L42.9123 5.07758L39.9035 7.91446L40.6337 11.9428L36.8946 10.0421L33.1847 11.9428L33.8858 7.91446L30.877 5.07758L35.0251 4.48184L36.8946 0.822266Z" fill="white" stroke="black" stroke-width="0.2222" stroke-miterlimit="10"/>
<path d="M35.7848 0.454102L37.6543 4.11368L41.8024 4.70942L38.7936 7.5463L39.5239 11.5747L35.7848 9.67396L32.0748 11.5747L32.7759 7.5463L29.7671 4.70942L33.9152 4.11368L35.7848 0.454102Z" fill="#273339"/>
<path d="M35.3171 0L37.1575 3.65957L41.3348 4.25532L38.326 7.0922L39.0271 11.1206L35.3171 9.21986L31.578 11.1206L32.2791 7.0922L29.2703 4.25532L33.4476 3.65957L35.3171 0Z" fill="#E95A25"/>
<path d="M22.2595 0.822266L24.0999 4.48184L28.2772 5.07758L25.2684 7.91446L25.9694 11.9428L22.2595 10.0421L18.5204 11.9428L19.2215 7.91446L16.2126 5.07758L20.39 4.48184L22.2595 0.822266Z" fill="white" stroke="black" stroke-width="0.2222" stroke-miterlimit="10"/>
<path d="M21.1494 0.454102L22.9898 4.11368L27.1671 4.70942L24.1582 7.5463L24.8593 11.5747L21.1494 9.67396L17.4103 11.5747L18.1114 7.5463L15.1025 4.70942L19.2798 4.11368L21.1494 0.454102Z" fill="#273339"/>
<path d="M20.6529 0L22.5225 3.65957L26.6706 4.25532L23.6617 7.0922L24.392 11.1206L20.6529 9.21986L16.9138 11.1206L17.6441 7.0922L14.6353 4.25532L18.7834 3.65957L20.6529 0Z" fill="#E95A25"/>
<path d="M7.62427 0.822266L9.49383 4.48184L13.6419 5.07758L10.6331 7.91446L11.3342 11.9428L7.62427 10.0421L3.88514 11.9428L4.61544 7.91446L1.57739 5.07758L5.7547 4.48184L7.62427 0.822266Z" fill="white" stroke="black" stroke-width="0.2222" stroke-miterlimit="10"/>
<path d="M6.51416 0.454102L8.38373 4.11368L12.5318 4.70942L9.52299 7.5463L10.2241 11.5747L6.51416 9.67396L2.77503 11.5747L3.50533 7.5463L0.467285 4.70942L4.64459 4.11368L6.51416 0.454102Z" fill="#273339"/>
<path d="M6.01766 0L7.88723 3.65957L12.0645 4.25532L9.02649 7.0922L9.75679 11.1206L6.01766 9.21986L2.30774 11.1206L3.00883 7.0922L0 4.25532L4.17731 3.65957L6.01766 0Z" fill="#E95A25"/>
</g>
<defs>
<clipPath id="clip0_56_10045">
<rect width="43" height="12" fill="white"/>
</clipPath>
</defs>
</svg>
