<svg width="30" height="32" viewBox="0 0 30 32" fill="none" xmlns="http://www.w3.org/2000/svg">
<g clip-path="url(#clip0_56_10003)">
<path d="M3.16992 16.2859C3.16992 9.7027 8.43407 4.37891 14.9435 4.37891C21.4529 4.37891 26.6888 9.73132 26.6888 16.2859" fill="white"/>
<path d="M3.50936 29.0527H7.1603L6.84898 30.7128H0.254639L0.509356 29.3961L4.47162 26.2476C5.46219 25.4462 5.7452 24.9883 5.7452 24.4158C5.7452 23.8434 5.32068 23.4426 4.47162 23.4426C3.73577 23.4426 3.05653 23.7861 2.632 24.3586L1.27351 23.3568C1.98105 22.3836 3.28294 21.7539 4.78294 21.7539C6.62256 21.7539 7.83955 22.7557 7.83955 24.1296C7.83955 25.16 7.35841 26.0473 5.83011 27.2494L3.50936 29.0527Z" fill="white" stroke="black" stroke-width="0.25" stroke-miterlimit="10"/>
<path d="M15.9056 28.8518H14.4622L14.0943 30.7122H12.1132L12.4811 28.8518H7.8396L8.09432 27.4779L13.217 21.8965H15.4245L10.6415 27.1917H12.9339L13.2453 25.5315H15.1132L14.8019 27.1917H16.2453L15.9056 28.8518Z" fill="white" stroke="black" stroke-width="0.25" stroke-miterlimit="10"/>
<path d="M21.6509 20.1221H23.4622L17.066 31.9718H15.2546L21.6509 20.1221Z" fill="white" stroke="black" stroke-width="0.25" stroke-miterlimit="10"/>
<path d="M29.9433 21.8965L29.6886 23.2131L25.0471 30.7122H22.8112L27.2829 23.5566H24.4527L24.1697 24.9877H22.3584L22.981 21.8965H29.9433Z" fill="white" stroke="black" stroke-width="0.25" stroke-miterlimit="10"/>
<path d="M3.25472 28.2509H6.90566L6.59434 29.911H0L0.254717 28.5944L4.21698 25.4459C5.20755 24.6445 5.49057 24.1865 5.49057 23.614C5.49057 23.0416 5.06604 22.6409 4.21698 22.6409C3.48113 22.6409 2.80189 22.9844 2.37736 23.5568L1.01887 22.555C1.72642 21.5818 3.0283 20.9521 4.5283 20.9521C6.36793 20.9521 7.58491 21.9539 7.58491 23.3278C7.58491 24.3582 7.10377 25.2455 5.57547 26.4477L3.25472 28.2509Z" fill="#465B65"/>
<path d="M15.651 28.05H14.2076L13.8397 29.9105H11.8585L12.2265 28.05H7.55664L7.81136 26.6761L12.934 21.0947H15.1415L10.3868 26.3899H12.6793L12.9906 24.7298H14.8585L14.5472 26.3899H15.9906L15.651 28.05Z" fill="#465B65"/>
<path d="M21.3962 19.292H23.2075L16.8113 31.1417H15L21.3962 19.292Z" fill="#465B65"/>
<path d="M29.6887 21.0947L29.434 22.4114L24.7925 29.9105H22.5566L27.0283 22.7548H24.1981L23.9151 24.186H22.1321L22.7547 21.0947H29.6887Z" fill="#465B65"/>
<path d="M4.16045 18.4897H1.61328C1.61328 14.8833 3.05668 11.2196 5.54724 8.41457C8.17932 5.43782 11.6038 3.83496 15.1982 3.83496C16.3869 3.83496 19.9812 3.94945 23.151 6.5541C28.3586 10.8475 27.6793 17.8886 27.5944 18.4611C26.7737 18.4897 25.9246 18.4897 25.1038 18.5183C25.1605 18.0317 25.868 12.1355 21.5944 8.5863C21.3114 8.35732 18.6793 6.41099 15.1982 6.41099C9.4246 6.38237 4.16045 12.1355 4.16045 18.4897Z" fill="#E95A25"/>
<path d="M5.54713 17.7749C5.94335 17.7749 6.28298 17.8035 6.28298 17.8608C6.28298 17.918 5.94335 17.918 5.54713 17.918C5.1509 17.918 4.81128 17.8608 4.81128 17.8321C4.81128 17.7749 5.1509 17.7463 5.54713 17.7749Z" fill="#273339"/>
<path d="M7.33019 12.1075C7.66981 12.3364 7.92453 12.5654 7.86793 12.6227C7.83963 12.6799 7.5283 12.5654 7.16038 12.3364C6.82076 12.1361 6.56604 11.8785 6.62264 11.8212C6.67925 11.764 6.99057 11.8785 7.33019 12.1075Z" fill="#273339"/>
<path d="M11.7454 8.18636C11.9152 8.55845 12.0001 8.90192 11.9152 8.93054C11.8303 8.95917 11.6605 8.67294 11.4624 8.30085C11.2643 7.92875 11.2077 7.58528 11.2926 7.55666C11.3775 7.52804 11.5756 7.81426 11.7454 8.18636Z" fill="#273339"/>
<path d="M17.5755 7.72774C17.4623 8.12846 17.3491 8.44331 17.2642 8.41468C17.1793 8.38606 17.2076 8.07121 17.2925 7.64187C17.3774 7.24116 17.5189 6.92631 17.6038 6.95493C17.6887 6.98356 17.6604 7.32703 17.5755 7.72774Z" fill="#273339"/>
<path d="M22.3303 11.1053C21.9907 11.3343 21.6794 11.4774 21.6511 11.4201C21.6228 11.3629 21.8492 11.1053 22.1888 10.8763C22.5284 10.6473 22.8397 10.5042 22.868 10.5615C22.8963 10.6473 22.6699 10.8763 22.3303 11.1053Z" fill="#273339"/>
<path d="M23.887 16.6871C23.4907 16.6871 23.1511 16.6584 23.1511 16.6298C23.1511 16.6012 23.4907 16.5726 23.887 16.5439C24.2832 16.5439 24.6228 16.5726 24.6228 16.6012C24.6228 16.6584 24.2832 16.6871 23.887 16.6871Z" fill="#273339"/>
<path d="M14.4907 17.4602C14.3775 17.4602 14.236 17.4316 14.1511 17.3457L9.84919 13.9683C9.59448 13.7679 9.56618 13.4245 9.76429 13.1669C9.9624 12.9093 10.302 12.8806 10.5567 13.081L14.4624 16.1436L19.8681 11.1347C20.0945 10.9057 20.4624 10.9343 20.6605 11.1633C20.8869 11.3923 20.8586 11.7644 20.6322 11.9647L14.8869 17.2885C14.802 17.403 14.6605 17.4602 14.4907 17.4602Z" fill="#E95A25"/>
<path d="M12.4811 0H17.4056C17.4905 0 17.5471 0.0572451 17.5471 0.143113V1.94633C17.5471 2.0322 17.4905 2.08945 17.4056 2.08945H12.4811C12.3962 2.08945 12.3396 2.0322 12.3396 1.94633V0.143113C12.3679 0.0572451 12.4245 0 12.4811 0Z" fill="#E95A25"/>
<path d="M16.302 1.03027H13.6133V3.49181H16.302V1.03027Z" fill="#E95A25"/>
<path d="M1.8396 8.90199L3.84903 6.3832C3.93394 6.29734 4.07544 6.26871 4.16035 6.35458L5.54714 7.47086C5.63205 7.55673 5.66035 7.69984 5.57544 7.78571L3.56601 10.3045C3.48111 10.3904 3.3396 10.419 3.25469 10.3331L1.8679 9.21684C1.78299 9.15959 1.75469 9.01648 1.8396 8.90199Z" fill="#E95A25"/>
<path d="M17.4057 2.08947C17.4057 2.11809 16.302 2.14672 14.9435 2.14672C13.585 2.14672 12.4812 2.11809 12.4812 2.08947C12.4812 2.06085 13.585 2.03223 14.9435 2.03223C16.302 2.03223 17.4057 2.06085 17.4057 2.08947Z" fill="#273339"/>
<path d="M3.82093 9.87508C3.79263 9.90371 3.42471 9.61748 2.97188 9.27401C2.51905 8.93054 2.15112 8.64431 2.15112 8.61569C2.17942 8.58707 2.57565 8.81605 3.05678 9.15952C3.50961 9.50299 3.84924 9.84646 3.82093 9.87508Z" fill="#273339"/>
<path d="M4.24546 9.2452C4.21716 9.27382 3.84923 8.9876 3.3964 8.64413C2.94357 8.30066 2.54735 8.01443 2.57565 7.98581C2.60395 7.95719 3.00018 8.18617 3.48131 8.52964C3.93414 8.87311 4.27376 9.21658 4.24546 9.2452Z" fill="#273339"/>
<path d="M4.75477 8.70125C4.72647 8.72988 4.35855 8.44365 3.90572 8.10018C3.45289 7.75671 3.08496 7.47049 3.08496 7.44186C3.11326 7.41324 3.50949 7.64222 3.99062 7.98569C4.47175 8.35778 4.78307 8.67263 4.75477 8.70125Z" fill="#273339"/>
<path d="M5.26429 8.07137C5.23599 8.1 4.86807 7.81377 4.41524 7.4703C3.96241 7.12683 3.59448 6.8406 3.59448 6.81198C3.62278 6.78336 4.01901 7.01234 4.50014 7.35581C4.98127 7.69928 5.2926 8.04275 5.26429 8.07137Z" fill="#273339"/>
<path d="M25.1322 4.78022L27.3114 7.18451C27.3963 7.27038 27.3963 7.41349 27.3114 7.49936L26.0095 8.70151C25.9246 8.78738 25.7831 8.78738 25.6982 8.70151L23.4907 6.29722C23.4058 6.21135 23.4058 6.06823 23.4907 5.98237L24.7926 4.78022C24.9058 4.69435 25.0473 4.69435 25.1322 4.78022Z" fill="#E95A25"/>
<path d="M23.8869 6.61225C23.8586 6.58363 24.1982 6.26878 24.5945 5.83944C24.9907 5.4101 25.3303 5.09525 25.3586 5.12388C25.3869 5.1525 25.1039 5.52459 24.6794 5.95393C24.2831 6.35465 23.9152 6.64087 23.8869 6.61225Z" fill="#273339"/>
<path d="M24.4528 7.1269C24.4245 7.09827 24.7641 6.78343 25.1604 6.35409C25.5566 5.92475 25.8962 5.6099 25.9245 5.63852C25.9528 5.66715 25.6698 6.03924 25.2453 6.46858C24.849 6.89792 24.4811 7.15552 24.4528 7.1269Z" fill="#273339"/>
<path d="M24.8774 7.72832C24.8491 7.6997 25.1887 7.38485 25.5849 6.95551C25.9812 6.5548 26.3208 6.21133 26.3491 6.23995C26.3774 6.26857 26.0944 6.64067 25.6698 7.07001C25.2453 7.49934 24.9057 7.75695 24.8774 7.72832Z" fill="#273339"/>
<path d="M25.4435 8.35737C25.4152 8.32874 25.7549 8.01389 26.1511 7.58456C26.5473 7.15522 26.8869 6.84037 26.9152 6.86899C26.9435 6.89762 26.6605 7.26971 26.236 7.69905C25.8398 8.09976 25.4718 8.35737 25.4435 8.35737Z" fill="#273339"/>
<path d="M13.0473 2.08914C13.019 2.08914 12.9624 1.63118 12.9624 1.05873C12.9624 0.486281 12.9907 0.0283203 13.0473 0.0283203C13.0756 0.0283203 13.1322 0.486281 13.1322 1.05873C13.1322 1.63118 13.0756 2.08914 13.0473 2.08914Z" fill="#273339"/>
<path d="M14.0095 2.08914C13.9812 2.08914 13.9246 1.63118 13.9246 1.05873C13.9246 0.486281 13.9529 0.0283203 14.0095 0.0283203C14.0661 0.0283203 14.0944 0.486281 14.0944 1.05873C14.0944 1.63118 14.0378 2.08914 14.0095 2.08914Z" fill="#273339"/>
<path d="M14.9719 2.08914C14.9436 2.08914 14.887 1.63118 14.887 1.05873C14.887 0.486281 14.9153 0.0283203 14.9719 0.0283203C15.0285 0.0283203 15.0568 0.486281 15.0568 1.05873C15.0568 1.63118 15.0002 2.08914 14.9719 2.08914Z" fill="#273339"/>
<path d="M15.934 2.08914C15.9057 2.08914 15.8491 1.63118 15.8491 1.05873C15.8491 0.486281 15.8774 0.0283203 15.934 0.0283203C15.9623 0.0283203 16.0189 0.486281 16.0189 1.05873C16.0189 1.63118 15.9623 2.08914 15.934 2.08914Z" fill="#273339"/>
<path d="M16.8962 2.08914C16.8679 2.08914 16.8113 1.63118 16.8113 1.05873C16.8113 0.486281 16.8396 0.0283203 16.8962 0.0283203C16.9528 0.0283203 16.9811 0.486281 16.9811 1.05873C16.9811 1.63118 16.9245 2.08914 16.8962 2.08914Z" fill="#273339"/>
<path d="M14.6322 17.9745C15.3356 17.9745 15.9058 17.3978 15.9058 16.6865C15.9058 15.9751 15.3356 15.3984 14.6322 15.3984C13.9288 15.3984 13.3586 15.9751 13.3586 16.6865C13.3586 17.3978 13.9288 17.9745 14.6322 17.9745Z" fill="#E95A25"/>
<path d="M15.9341 16.687C15.9341 16.687 15.9341 16.5725 15.8775 16.3721C15.7926 16.0859 15.6227 15.8569 15.3963 15.6852C14.8586 15.2845 14.0944 15.399 13.6699 15.9428C13.2454 16.4866 13.3869 17.2594 13.9246 17.6888C14.3492 18.0036 14.9435 18.0036 15.3963 17.6888C15.6227 17.517 15.7926 17.288 15.8775 17.0018C15.9058 16.8015 15.9058 16.687 15.9341 16.687C15.9341 16.687 15.9341 16.7156 15.9341 16.7728C15.9341 16.8587 15.9341 16.9446 15.9058 17.0018C15.8492 17.288 15.6793 17.5743 15.4529 17.746C15.085 18.0322 14.6039 18.1181 14.1793 17.9464C13.4718 17.6888 13.1039 16.9159 13.3586 16.2004C13.5001 15.8283 13.7831 15.5134 14.1793 15.3703C14.6039 15.2272 15.085 15.2845 15.4529 15.5707C15.6793 15.771 15.8492 16.0287 15.9058 16.3149C15.9341 16.4007 15.9341 16.4866 15.9341 16.5439C15.9341 16.6583 15.9341 16.687 15.9341 16.687Z" fill="#273339"/>
</g>
<defs>
<clipPath id="clip0_56_10003">
<rect width="30" height="32" fill="white"/>
</clipPath>
</defs>
</svg>
