<svg width="18" height="18" viewBox="0 0 18 18" fill="none" xmlns="http://www.w3.org/2000/svg">
<g clip-path="url(#clip0_491_5879)">
<path d="M9.5625 0C9.90375 0.0464063 10.2459 0.0848437 10.5858 0.141094C11.3517 0.268594 12.0844 0.50625 12.7875 0.834375C13.0987 0.979687 13.2206 1.27406 13.0927 1.55391C12.9661 1.83188 12.6591 1.935 12.3478 1.79156C11.2233 1.27313 10.042 1.00781 8.80547 1.06125C5.8875 1.18687 3.62719 2.49469 2.14781 5.00484C0.765938 7.35 0.694219 9.81797 1.77891 12.3155C1.92703 12.6563 1.84266 12.9605 1.55344 13.0927C1.28203 13.2169 0.98625 13.1067 0.849844 12.8189C0.514687 12.1125 0.275625 11.3737 0.143438 10.6027C0.084375 10.2581 0.0473437 9.90938 0 9.5625C0 9.1875 0 8.8125 0 8.4375C0.0571875 8.03906 0.100313 7.63781 0.174375 7.24219C0.844219 3.65766 3.83672 0.729844 7.43156 0.138281C7.76531 0.0834375 8.10188 0.0459375 8.4375 0C8.8125 0 9.1875 0 9.5625 0Z" fill="#F46524"/>
<path d="M8.43744 18C8.09665 17.9536 7.754 17.9156 7.41462 17.8584C6.63744 17.7277 5.89353 17.4858 5.18103 17.1502C4.89697 17.0166 4.78353 16.7161 4.90681 16.4456C5.02869 16.1789 5.33197 16.0641 5.61837 16.1948C6.31447 16.5117 7.03494 16.7456 7.79337 16.8525C9.9904 17.1619 11.9976 16.6809 13.7727 15.3455C15.359 14.1525 16.3677 12.5709 16.7742 10.6223C17.1215 8.95688 16.9462 7.34063 16.2651 5.78016C16.2417 5.72672 16.2159 5.67422 16.1934 5.62032C16.072 5.32969 16.1779 5.02969 16.4446 4.90782C16.7151 4.78407 17.0324 4.8886 17.1454 5.18203C17.3634 5.74828 17.5832 6.31735 17.7431 6.90141C17.8654 7.34953 17.8968 7.8225 17.969 8.28422C17.977 8.33578 17.9892 8.38641 17.9995 8.4375V9.5625C17.9896 9.60797 17.9765 9.6525 17.9699 9.69844C17.909 10.1147 17.8701 10.5356 17.7848 10.9472C17.0629 14.437 14.0798 17.2917 10.5674 17.8613C10.2337 17.9156 9.89712 17.9541 9.56197 18H8.43697H8.43744Z" fill="#F46524"/>
<path d="M9.00845 2.67187C12.4974 2.67796 15.3342 5.52233 15.3277 9.00796C15.3216 12.4969 12.4767 15.3342 8.99111 15.3276C5.5036 15.3216 2.66532 12.4758 2.67189 8.99062C2.67798 5.50265 5.52329 2.6653 9.00845 2.6714V2.67187ZM8.46892 3.86577C8.12439 4.03405 7.88111 4.28296 7.67298 4.56655C7.11001 5.33343 6.81704 6.21233 6.64829 7.1353C6.56907 7.56983 6.52829 8.0114 6.46923 8.45905H8.46939V3.86577H8.46892ZM11.5078 8.46515C11.4572 7.45077 11.2777 6.48327 10.8881 5.56171C10.6795 5.06812 10.4194 4.60312 10.0289 4.22718C9.88595 4.08937 9.7172 3.97874 9.54095 3.84046V8.46515H11.5074H11.5078ZM8.46376 9.53671H6.50111C6.50111 9.59718 6.49548 9.64921 6.50204 9.69983C6.56064 10.1522 6.59767 10.6087 6.6872 11.055C6.8597 11.9166 7.1522 12.735 7.6847 13.4484C7.89142 13.7255 8.13095 13.9692 8.46376 14.1319V9.53718V9.53671ZM9.53392 14.1511C9.66282 14.0625 9.76735 13.9992 9.86204 13.9233C10.1686 13.6781 10.3974 13.3683 10.5914 13.0308C11.0564 12.2217 11.2974 11.34 11.4249 10.4231C11.4656 10.1311 11.4858 9.83624 11.5158 9.53765H9.53392V14.1506V14.1511ZM12.5681 8.45999H14.235C14.1024 6.67265 12.8283 4.98843 11.4731 4.37577C12.1978 5.64468 12.4861 7.02327 12.5681 8.45999ZM6.52829 4.37249C5.2397 4.80843 3.60939 7.24593 3.78142 8.4614H5.43189C5.51298 7.01999 5.80267 5.6428 6.52829 4.37249ZM11.49 13.6247C12.9403 12.9295 14.1234 11.2148 14.2308 9.53999H12.5775C12.2939 11.9203 12.2395 11.9944 11.49 13.6247ZM3.77298 9.53577C3.69189 10.8839 5.3747 13.3781 6.5222 13.6153C5.79939 12.352 5.51345 10.9725 5.43095 9.53577H3.77298Z" fill="#F46524"/>
<path d="M17.6124 2.14502C17.6124 3.11018 16.8239 3.89956 15.8588 3.9019C14.8875 3.90377 14.0935 3.10737 14.0977 2.13471C14.1019 1.17143 14.895 0.384869 15.8602 0.387212C16.8249 0.389556 17.6124 1.17987 17.6124 2.14502ZM15.8625 1.4419C15.4758 1.43815 15.1561 1.75127 15.1528 2.13706C15.1491 2.52377 15.4622 2.84346 15.848 2.84721C16.2342 2.85096 16.5544 2.53737 16.5581 2.15159C16.5619 1.76487 16.2488 1.44518 15.863 1.4419H15.8625Z" fill="#F46524"/>
<path d="M3.90195 15.8625C3.89867 16.8267 3.10695 17.6138 2.14179 17.6124C1.17101 17.611 0.37976 16.8113 0.38726 15.8386C0.39476 14.8758 1.19117 14.0921 2.15632 14.0977C3.12007 14.1033 3.90476 14.8964 3.90148 15.8625H3.90195ZM2.84726 15.8625C2.85101 15.4758 2.53788 15.1561 2.1521 15.1524C1.76538 15.1486 1.4457 15.4617 1.44242 15.8475C1.43867 16.2338 1.75179 16.5539 2.13757 16.5577C2.52382 16.5614 2.84398 16.2478 2.84773 15.8625H2.84726Z" fill="#F46524"/>
</g>
<defs>
<clipPath id="clip0_491_5879">
<rect width="18" height="18" fill="white"/>
</clipPath>
</defs>
</svg>
