<svg width="24" height="24" viewBox="0 0 24 24" fill="none" xmlns="http://www.w3.org/2000/svg">
<path d="M12 10L12 17" stroke="#F07933" stroke-width="1.5" stroke-linecap="round" stroke-linejoin="round"/>
<path d="M9 13L12 10L15 13" stroke="#F07933" stroke-width="1.5" stroke-linecap="round" stroke-linejoin="round"/>
<path d="M15 7L9 7" stroke="#F07933" stroke-width="1.5" stroke-linecap="round" stroke-linejoin="round"/>
<path d="M5.63594 18.3639C4.80021 17.5282 4.13727 16.5361 3.68498 15.4441C3.23268 14.3522 2.99989 13.1819 2.99989 11.9999C2.99989 10.818 3.23268 9.64771 3.68498 8.55577C4.13727 7.46384 4.80021 6.47168 5.63594 5.63595C6.47168 4.80021 7.46383 4.13727 8.55577 3.68498C9.64771 3.23268 10.818 2.99989 11.9999 2.99989C13.1818 2.99989 14.3522 3.23268 15.4441 3.68498C16.5361 4.13727 17.5282 4.80021 18.3639 5.63594C20.0518 7.32378 21 9.61298 21 11.9999C21 14.3869 20.0518 16.6761 18.3639 18.3639C16.6761 20.0518 14.3869 21 11.9999 21C9.61298 21 7.32378 20.0518 5.63594 18.3639" stroke="#F07933" stroke-width="1.5" stroke-linecap="round" stroke-linejoin="round"/>
</svg>
