<svg width="25" height="18" viewBox="0 0 25 18" fill="none" xmlns="http://www.w3.org/2000/svg">
<path d="M1.78963 6.29544C1.45877 6.29544 1.18976 6.29995 0.920747 6.29469C0.399867 6.28343 0.00939314 5.89387 0.0108835 5.39323C0.0123739 4.89108 0.402102 4.50452 0.926708 4.49927C1.55862 4.49326 2.19053 4.48876 2.82244 4.50302C3.01768 4.50753 3.11828 4.43772 3.21366 4.27259C3.60115 3.60156 3.99908 2.93653 4.40148 2.27451C5.31432 0.770317 6.65043 0.00846409 8.40085 0.00396052C11.1334 -0.00204423 13.866 -0.000543041 16.5978 0.00396052C18.3602 0.0069629 19.7015 0.77332 20.6173 2.28952C21.0227 2.96055 21.4243 3.63383 21.8185 4.31162C21.899 4.44973 21.9877 4.50377 22.1487 4.50077C22.7806 4.49101 23.4125 4.49402 24.0444 4.49777C24.5921 4.50077 24.9908 4.87532 24.9967 5.38422C25.0027 5.90513 24.6003 6.28869 24.0384 6.29394C23.7828 6.29619 23.5265 6.29394 23.2195 6.29394C23.4274 6.57766 23.6032 6.8141 23.7761 7.05354C24.5884 8.17868 24.9945 9.43818 24.9975 10.829C24.9997 12.2799 25.0005 13.7308 24.9975 15.1825C24.9937 16.815 23.841 17.9762 22.2217 17.9792C21.5622 17.9807 20.8975 18.0175 20.2432 17.9552C19.0137 17.8381 17.928 16.8473 17.8475 15.3026H7.17205C7.13852 15.5067 7.12361 15.7214 7.06624 15.9241C6.74208 17.0695 6.00138 17.8081 4.82399 17.9349C3.97151 18.0272 3.09145 18.019 2.24046 17.9176C0.958751 17.766 0.0257871 16.6326 0.0138642 15.3311C-0.000294182 13.7488 -0.00998151 12.1666 0.0175901 10.5851C0.0399455 9.31808 0.447558 8.16367 1.17783 7.12935C1.36487 6.86439 1.56086 6.60619 1.78888 6.29544H1.78963ZM3.75094 6.65423C3.34407 7.21117 2.90888 7.77186 2.51245 8.35883C2.0646 9.02235 1.81794 9.77219 1.80602 10.5731C1.78292 12.1456 1.79186 13.7181 1.79782 15.2906C1.79931 15.795 2.18382 16.1733 2.68682 16.1815C3.28147 16.1905 3.87613 16.1905 4.47078 16.1815C4.97526 16.174 5.34636 15.7972 5.36201 15.2913C5.37021 15.0391 5.3635 14.7862 5.36425 14.5332C5.36574 13.8262 5.7033 13.4869 6.40973 13.4869C9.02084 13.4869 11.6319 13.4869 14.2431 13.4869C15.7111 13.4869 17.1798 13.4861 18.6478 13.4869C19.2894 13.4869 19.6411 13.8472 19.6441 14.4987C19.6448 14.7419 19.6419 14.9851 19.6448 15.229C19.6523 15.8032 20.0204 16.1778 20.5882 16.1823C21.127 16.1868 21.6665 16.1845 22.2053 16.1823C22.8663 16.1808 23.2135 15.8272 23.2135 15.1547C23.2135 13.7413 23.2187 12.328 23.2098 10.9146C23.2076 10.5888 23.1748 10.2608 23.1241 9.93883C22.9125 8.59226 21.9646 7.67503 21.2254 6.61745C20.9787 6.78033 20.7559 6.93044 20.5301 7.07606C19.5293 7.72307 18.4347 8.08186 17.2454 8.08636C14.0858 8.09762 10.9263 8.09387 7.7667 8.08786C6.9783 8.08636 6.20853 7.94225 5.49465 7.60298C4.91043 7.32526 4.35528 6.98449 3.75094 6.65197V6.65423ZM20.2179 5.10725C19.7894 4.39193 19.3945 3.68112 18.9503 3.00258C18.4339 2.21521 17.6761 1.80764 16.7387 1.80389C13.9234 1.79338 11.1073 1.79413 8.29205 1.80389C7.32109 1.80689 6.55802 2.23623 6.02298 3.05438C5.81359 3.37413 5.62506 3.70814 5.42982 4.0369C5.2167 4.39494 5.00507 4.75522 4.79568 5.11025C5.82328 5.92915 6.7853 6.29319 7.9366 6.29394C10.9844 6.29619 14.0322 6.29094 17.0799 6.29694C18.2685 6.29919 19.2805 5.84884 20.2186 5.10725H20.2179Z" fill="#F07933"/>
<path d="M4.46857 9.89234C4.95368 9.89084 5.35832 10.2924 5.36353 10.7803C5.36875 11.2802 4.95741 11.6945 4.46112 11.6885C3.9775 11.6825 3.57883 11.2742 3.58106 10.7855C3.5833 10.2947 3.98197 9.89384 4.46932 9.89234H4.46857Z" fill="#F07933"/>
<path d="M20.5291 9.89236C21.0142 9.88861 21.4203 10.2887 21.4277 10.7766C21.4352 11.2765 21.0253 11.6923 20.5291 11.6885C20.0454 11.6848 19.6445 11.2772 19.6445 10.7893C19.6445 10.2984 20.0417 9.89536 20.5291 9.89236Z" fill="#F07933"/>
</svg>
