<svg width="34" height="36" viewBox="0 0 34 36" fill="none" xmlns="http://www.w3.org/2000/svg">
<g clip-path="url(#clip0_56_10794)">
<path d="M32.8871 22.8213C36.198 14.1459 31.802 4.44827 23.0376 1.16048C14.3012 -2.12732 4.53519 2.23799 1.22423 10.9134C-1.69721 18.5941 1.39117 27.2418 8.51392 31.3585C7.79051 33.0162 6.78888 34.5358 5.56465 35.8896C8.18004 35.7238 10.6563 34.7292 12.6596 33.0714C21.0622 35.3094 29.7987 30.8888 32.8871 22.8213Z" fill="white"/>
<path d="M32.8871 22.8211C32.8871 22.8211 32.8314 22.9592 32.7201 23.2355C32.6089 23.4842 32.4419 23.9262 32.1915 24.4512C31.4403 25.9431 30.4665 27.2969 29.3257 28.5126C28.9362 28.927 28.5188 29.3138 28.0737 29.673L27.3781 30.2532L26.599 30.8057C26.0426 31.1925 25.4583 31.5517 24.8462 31.8556C24.5401 32.0214 24.2062 32.1595 23.8724 32.2977C23.7054 32.3806 23.5385 32.4635 23.3715 32.5187L22.8429 32.7121C22.4812 32.8226 22.1195 32.9884 21.73 33.0713L20.5614 33.3476C19.7545 33.5133 18.9198 33.6239 18.0851 33.6791C16.2766 33.7896 14.4681 33.5962 12.7152 33.1542H12.7987C10.7676 34.8119 8.26352 35.8065 5.64813 35.9999C5.59249 35.9999 5.56466 35.9723 5.53684 35.917C5.53684 35.8894 5.53684 35.8618 5.56466 35.8618C6.78889 34.5356 7.7627 33.016 8.4861 31.3583L8.51393 31.4965C7.17841 30.7229 5.95419 29.7559 4.86908 28.6783C3.75615 27.518 2.78234 26.247 2.03111 24.8104C0.417364 21.8265 -0.250394 18.4558 0.083485 15.1127C0.278248 13.1511 0.834712 11.2447 1.69723 9.47651C2.55975 7.76354 3.70051 6.21634 5.06385 4.86254C5.42555 4.55862 5.7316 4.19945 6.0933 3.92317L7.20623 3.06668L8.37481 2.32071C8.56957 2.2102 8.76433 2.09968 8.98692 1.98917L9.59903 1.68525C11.185 0.911655 12.91 0.386713 14.6629 0.138056C16.3323 -0.0829723 18.0295 -0.0829723 19.6989 0.165685C20.1162 0.220942 20.5057 0.331456 20.8953 0.414342L21.4517 0.552484L22.036 0.745884C22.4255 0.884027 22.7872 0.966913 23.1489 1.10506L24.2062 1.57474C24.3732 1.65763 24.5679 1.71288 24.7349 1.8234L25.2357 2.09968C25.5696 2.29308 25.9035 2.45885 26.2095 2.65225L27.0998 3.26008L27.545 3.564L27.9624 3.92317L28.7692 4.61388C29.0197 4.86254 29.2422 5.11119 29.4926 5.35985C29.9378 5.82954 30.383 6.35448 30.7725 6.87942C32.1637 8.75816 33.1653 10.9132 33.6661 13.2064C34.0557 14.9193 34.167 16.6876 33.9722 18.4282C33.9444 18.7873 33.8887 19.1189 33.8609 19.4504C33.8331 19.782 33.7218 20.0582 33.6661 20.3345C33.6105 20.6108 33.5548 20.8595 33.4992 21.0805C33.4436 21.3015 33.3601 21.4949 33.3044 21.6883L33.0262 22.4896C32.9706 22.683 32.9149 22.7658 32.9149 22.7658C32.9149 22.7658 32.9427 22.683 32.9984 22.4896C33.054 22.2962 33.1375 22.0199 33.2488 21.6607C33.3044 21.4673 33.3879 21.2463 33.4435 21.0529L33.6105 20.3069C33.6661 20.0306 33.7496 19.7543 33.7774 19.4228C33.8331 19.1189 33.8331 18.7597 33.8887 18.4005C34.0557 16.6599 33.9444 14.8917 33.5548 13.1787C33.054 10.9132 32.0524 8.78579 30.6612 6.90705C30.2717 6.38211 29.8544 5.85717 29.3814 5.38748C29.1309 5.13882 28.9084 4.89017 28.658 4.64151L27.8511 3.9508L27.4337 3.59162L26.9886 3.34297L26.0982 2.70751C25.7922 2.51411 25.4583 2.34834 25.1244 2.15494L24.6514 1.93391C24.4845 1.85103 24.3175 1.76814 24.1228 1.71288L23.0377 1.27083C22.676 1.13268 22.3143 1.02217 21.9247 0.911655L21.3683 0.745884L20.784 0.607741C20.3666 0.524856 20.0049 0.44197 19.6154 0.359085C17.9738 0.110428 16.2766 0.110428 14.635 0.331456C12.91 0.580113 11.2128 1.10506 9.62685 1.87865L9.04257 2.2102C8.84781 2.29308 8.65304 2.4036 8.45828 2.54174L7.31753 3.26008L6.23242 4.08894C5.87072 4.36522 5.56466 4.7244 5.20296 5.02831C3.86745 6.35448 2.75452 7.90168 1.91982 9.58702C-0.417333 14.3668 -0.333864 20.003 2.19805 24.6998C2.94928 26.0813 3.86745 27.3798 4.98038 28.5126C6.06548 29.5901 7.26188 30.5295 8.56957 31.3307C8.62522 31.3583 8.62522 31.4136 8.5974 31.4688C7.84617 33.1265 6.84453 34.6461 5.62031 35.9999L5.53684 35.8341C8.1244 35.6684 10.6007 34.6737 12.6039 33.0437C12.6318 33.0437 12.6596 33.0437 12.6874 33.0437C14.4125 33.4857 16.221 33.6791 18.0016 33.5686C18.8363 33.5133 19.6432 33.4305 20.4779 33.2647L21.6187 32.9884C22.0082 32.9055 22.3421 32.7397 22.7038 32.6292L23.2324 32.4358C23.3994 32.3806 23.5663 32.2977 23.7332 32.2148C24.0671 32.049 24.401 31.9385 24.7071 31.7727C25.3192 31.4688 25.9035 31.1097 26.4599 30.7229L27.239 30.1979L27.9345 29.6177C28.3797 29.2585 28.7971 28.8717 29.1866 28.4573C30.3273 27.2693 31.3012 25.9155 32.0802 24.4512C32.3306 23.9539 32.4976 23.5394 32.6367 23.2355C32.8314 22.9316 32.8871 22.8211 32.8871 22.8211Z" fill="#273339"/>
<path d="M17.0557 29.7279C24.2318 29.7279 30.0492 23.9513 30.0492 16.8254C30.0492 9.69951 24.2318 3.92285 17.0557 3.92285C9.87962 3.92285 4.06226 9.69951 4.06226 16.8254C4.06226 23.9513 9.87962 29.7279 17.0557 29.7279Z" fill="url(#paint0_linear_56_10794)"/>
<path d="M15.915 13.0683C14.969 12.3223 13.5779 12.4881 12.8266 13.4274C12.7432 13.538 12.6875 13.6208 12.6041 13.7314C12.298 14.2839 12.4371 14.9746 12.9101 15.3614C14.0787 16.4942 16.555 18.7874 17.6122 19.8096C18.1965 20.3622 19.0034 20.6109 19.8103 20.5003C20.4502 20.4175 21.0067 20.0583 21.3684 19.5333C22.5926 17.9033 19.6712 16.6047 19.6712 16.6047L18.4191 17.9585L15.4698 15.1128L16.7775 13.7037L15.915 13.0683Z" fill="white"/>
</g>
<defs>
<linearGradient id="paint0_linear_56_10794" x1="4.04815" y1="16.8133" x2="30.0538" y2="16.8133" gradientUnits="userSpaceOnUse">
<stop stop-color="#74C26A"/>
<stop offset="0.2838" stop-color="#6ABF66"/>
<stop offset="0.7551" stop-color="#48B75C"/>
<stop offset="1" stop-color="#25B357"/>
</linearGradient>
<clipPath id="clip0_56_10794">
<rect width="34" height="36" fill="white"/>
</clipPath>
</defs>
</svg>
